<svg xmlns="http://www.w3.org/2000/svg" width="43" height="43" viewBox="0 0 43 43" fill="none">
  <path d="M37.3333 0H5.33333C2.38781 0 0 2.38781 0 5.33333V37.3333C0 40.2789 2.38781 42.6667 5.33333 42.6667H37.3333C40.2789 42.6667 42.6667 40.2789 42.6667 37.3333V5.33333C42.6667 2.38781 40.2789 0 37.3333 0Z" fill="#DCE9E7"/>
  <path d="M27.2585 26.0735V28.4437C27.2585 29.7529 26.1973 30.8141 24.8883 30.8141H13.0364C11.7273 30.8141 10.666 29.7529 10.666 28.4437V20.1475C10.666 18.8384 11.7273 17.7771 13.0364 17.7771H15.4068M18.9623 13.0364H17.7771C16.468 13.0364 15.4068 14.0976 15.4068 15.4068V23.7031C15.4068 25.0121 16.468 26.0735 17.7771 26.0735H29.6289C30.9381 26.0735 31.9993 25.0121 31.9993 23.7031V15.4068C31.9993 14.0976 30.9381 13.0364 29.6289 13.0364H28.4437M27.2585 17.7771L23.7031 21.3327M23.7031 21.3327L20.1475 17.7771M23.7031 21.3327V10.666" stroke="black" stroke-width="1.42223" stroke-linecap="round" stroke-linejoin="round"/>
</svg>