<svg xmlns="http://www.w3.org/2000/svg" width="43" height="43" viewBox="0 0 43 43" fill="none">
  <g clip-path="url(#clip0_137_696)">
    <path d="M37.3333 -0.000411987H5.33333C2.38781 -0.000411987 0 2.3874 0 5.33292V37.3329C0 40.2784 2.38781 42.6663 5.33333 42.6663H37.3333C40.2789 42.6663 42.6667 40.2784 42.6667 37.3329V5.33292C42.6667 2.3874 40.2789 -0.000411987 37.3333 -0.000411987Z" fill="#DCE9E7"/>
    <path d="M27.5563 13.3322H15.1117C14.13 13.3322 13.334 14.1282 13.334 15.1099V27.5544C13.334 28.5362 14.13 29.3322 15.1117 29.3322H27.5563C28.538 29.3322 29.334 28.5362 29.334 27.5544V15.1099C29.334 14.1282 28.538 13.3322 27.5563 13.3322Z" stroke="#052F2D" stroke-width="1.6" stroke-linecap="round" stroke-linejoin="round"/>
    <path d="M29.334 21.3322H13.334M21.334 13.3322V29.3322" stroke="#052F2D" stroke-width="1.6" stroke-linecap="round" stroke-linejoin="round"/>
  </g>
  <defs>
    <clipPath id="clip0_137_696">
      <rect width="42.6667" height="42.6667" fill="white"/>
    </clipPath>
  </defs>
</svg>