<svg xmlns="http://www.w3.org/2000/svg" width="43" height="43" viewBox="0 0 43 43" fill="none">
  <g clip-path="url(#clip0_137_731)">
    <path d="M37.3333 0.000366211H5.33333C2.38781 0.000366211 0 2.38818 0 5.3337V37.3337C0 40.2792 2.38781 42.667 5.33333 42.667H37.3333C40.2789 42.667 42.6667 40.2792 42.6667 37.3337V5.3337C42.6667 2.38818 40.2789 0.000366211 37.3333 0.000366211Z" fill="#DCE9E7"/>
    <path d="M24.4444 16.1487C25.5899 16.1487 26.5185 17.0773 26.5185 18.2228M30.6667 18.2228C30.6667 21.6592 27.8809 24.4449 24.4444 24.4449C23.8159 24.4449 23.2089 24.3517 22.6369 24.1784L20.2963 26.5191H18.2223V28.5931H16.1481V30.6672H13.037C12.4643 30.6672 12 30.2029 12 29.6301V26.9487C12 26.6736 12.1093 26.4097 12.3037 26.2153L18.4888 20.0303C18.3155 19.4583 18.2223 18.8513 18.2223 18.2228C18.2223 14.7863 21.008 12.0005 24.4444 12.0005C27.8809 12.0005 30.6667 14.7863 30.6667 18.2228Z" stroke="#052F2D" stroke-width="1.6" stroke-linecap="round" stroke-linejoin="round"/>
  </g>
  <defs>
    <clipPath id="clip0_137_731">
      <rect width="42.6667" height="42.6667" fill="white"/>
    </clipPath>
  </defs>
</svg>