<svg xmlns="http://www.w3.org/2000/svg" width="43" height="43" viewBox="0 0 43 43" fill="none">
  <g clip-path="url(#clip0_137_757)">
    <path d="M37.3333 0.000366211H5.33333C2.38781 0.000366211 0 2.38818 0 5.3337V37.3337C0 40.2792 2.38781 42.667 5.33333 42.667H37.3333C40.2789 42.667 42.6667 40.2792 42.6667 37.3337V5.3337C42.6667 2.38818 40.2789 0.000366211 37.3333 0.000366211Z" fill="#DCE9E7"/>
    <path d="M18.6667 21.5948L20.8889 24.0084L25.3333 19.1812M31.5755 14.3351C31.348 14.3476 31.1192 14.354 30.8889 14.354C27.474 14.354 24.3588 12.9596 21.9999 10.6664C19.6411 12.9595 16.526 14.3537 13.1111 14.3537C12.8809 14.3537 12.652 14.3475 12.4246 14.3349C12.1475 15.4979 12 16.7173 12 17.9744C12 24.7223 16.2492 30.3921 22 31.9997C27.7508 30.3921 32 24.7223 32 17.9744C32 16.7175 31.8525 15.4979 31.5755 14.3351Z" stroke="black" stroke-width="1.6" stroke-linecap="round" stroke-linejoin="round"/>
  </g>
  <defs>
    <clipPath id="clip0_137_757">
      <rect width="42.6667" height="42.6667" fill="white"/>
    </clipPath>
  </defs>
</svg>