<svg xmlns="http://www.w3.org/2000/svg" width="43" height="43" viewBox="0 0 43 43" fill="none">
  <g clip-path="url(#clip0_137_760)">
    <path d="M37.3333 -0.000183105H5.33333C2.38781 -0.000183105 0 2.38763 0 5.33315V37.3331C0 40.2787 2.38781 42.6665 5.33333 42.6665H37.3333C40.2789 42.6665 42.6667 40.2787 42.6667 37.3331V5.33315C42.6667 2.38763 40.2789 -0.000183105 37.3333 -0.000183105Z" fill="#DCE9E7"/>
    <path d="M21.334 24.0003L33.334 17.3337L21.334 10.667L9.33398 17.3337L21.334 24.0003ZM21.334 24.0003L29.334 19.5559C29.334 20.491 29.334 26.0003 29.334 26.0003L23.3495 29.4913C22.104 30.2178 20.564 30.2178 19.3185 29.4913L13.334 26.0003C13.334 26.0003 13.334 20.491 13.334 19.5559L21.334 24.0003ZM16.0007 32.0002V22.0003L21.334 19.0374" stroke="#052F2D" stroke-width="1.6" stroke-linecap="round" stroke-linejoin="round"/>
  </g>
  <defs>
    <clipPath id="clip0_137_760">
      <rect width="42.6667" height="42.6667" fill="white"/>
    </clipPath>
  </defs>
</svg>