<svg width="43" height="43" viewBox="0 0 43 43" fill="none" xmlns="http://www.w3.org/2000/svg">
<g clip-path="url(#clip0_137_767)">
<path d="M37.3333 0.000366211H5.33333C2.38781 0.000366211 0 2.38818 0 5.3337V37.3337C0 40.2792 2.38781 42.667 5.33333 42.667H37.3333C40.2789 42.667 42.6667 40.2792 42.6667 37.3337V5.3337C42.6667 2.38818 40.2789 0.000366211 37.3333 0.000366211Z" fill="#DCE9E7"/>
<g clip-path="url(#clip1_137_767)">
<path d="M15.5293 11.1217C14.8457 11.3561 14.334 11.8717 14.127 12.5514C14.0488 12.7936 14.0488 12.9576 14.0488 21.0319C14.0488 29.1061 14.0488 29.2701 14.127 29.5123C14.334 30.192 14.8457 30.7076 15.5293 30.942L15.7871 31.028H21.666H27.5449L27.8027 30.942C28.4902 30.7076 29.002 30.1881 29.209 29.5084C29.2832 29.2584 29.2832 29.1334 29.2754 22.7311L29.2637 16.2076L29.1738 15.985C28.9863 15.524 28.8301 15.3561 26.8066 13.4381C24.6816 11.4303 24.6309 11.3834 24.3535 11.2428C23.9277 11.028 24.0488 11.0319 19.752 11.0319L15.7871 11.0358L15.5293 11.1217ZM23.1973 14.067L23.209 15.9342L23.3066 16.1295C23.4277 16.3795 23.7012 16.653 23.9512 16.774L24.1465 16.8717L26.1309 16.8834L28.1113 16.8951L28.1035 22.9967L28.0918 29.0983L27.9746 29.3092C27.8574 29.5201 27.7363 29.6334 27.4863 29.7662C27.3535 29.8365 27.1426 29.8405 21.666 29.8405H15.9824L15.7871 29.735C15.5566 29.6139 15.459 29.5123 15.334 29.274L15.2402 29.0983V21.0319V12.9655L15.334 12.7897C15.498 12.4733 15.7324 12.2975 16.0605 12.2389C16.1465 12.2272 17.7832 12.2115 19.7012 12.2076L23.1855 12.2037L23.1973 14.067ZM26.1309 14.485L27.416 15.6998L26.0527 15.7115C25.3066 15.7155 24.6348 15.7115 24.5645 15.6998C24.4746 15.6842 24.4238 15.6451 24.4004 15.5787C24.377 15.524 24.3613 14.899 24.3613 14.149V12.8209L24.6074 13.0475C24.7402 13.1725 25.4277 13.817 26.1309 14.485Z" fill="black"/>
<path d="M16.9238 18.9186C16.7441 19.0397 16.666 19.1881 16.666 19.4303C16.666 19.6725 16.7441 19.8209 16.9238 19.942C17.0332 20.0123 17.1934 20.0162 21.5488 20.0162C25.9043 20.0162 26.0645 20.0123 26.1738 19.942C26.3535 19.8209 26.4316 19.6725 26.4316 19.4303C26.4316 19.1881 26.3535 19.0397 26.1738 18.9186C26.0645 18.8483 25.9043 18.8444 21.5488 18.8444C17.1934 18.8444 17.0332 18.8483 16.9238 18.9186Z" fill="black"/>
<path d="M16.9238 22.0436C16.7441 22.1647 16.666 22.3131 16.666 22.5553C16.666 22.7975 16.7441 22.9459 16.9238 23.067C17.0332 23.1373 17.1934 23.1412 21.5488 23.1412C25.9043 23.1412 26.0645 23.1373 26.1738 23.067C26.3535 22.9459 26.4316 22.7975 26.4316 22.5553C26.4316 22.3131 26.3535 22.1647 26.1738 22.0436C26.0645 21.9733 25.9043 21.9694 21.5488 21.9694C17.1934 21.9694 17.0332 21.9733 16.9238 22.0436Z" fill="black"/>
<path d="M16.9238 25.1686C16.7441 25.2897 16.666 25.4381 16.666 25.6803C16.666 25.9225 16.7441 26.0709 16.9238 26.192C17.0293 26.2623 17.1348 26.2662 18.6582 26.2662C20.209 26.2662 20.2832 26.2623 20.4082 26.1881C20.584 26.0787 20.6895 25.8912 20.6895 25.6803C20.6895 25.4694 20.584 25.2819 20.4082 25.1725C20.2832 25.0983 20.209 25.0944 18.6582 25.0944C17.1348 25.0944 17.0293 25.0983 16.9238 25.1686Z" fill="black"/>
</g>
</g>
<defs>
<clipPath id="clip0_137_767">
<rect width="42.6667" height="42.6667" fill="white"/>
</clipPath>
<clipPath id="clip1_137_767">
<rect width="20" height="20" fill="white" transform="translate(11.666 11.0319)"/>
</clipPath>
</defs>
</svg>
