<svg xmlns="http://www.w3.org/2000/svg" width="24" height="25" viewBox="0 0 24 25" fill="none">
  <path d="M24 12.3799C24 19.0027 18.6228 24.3799 12 24.3799C5.3772 24.3799 0 19.0027 0 12.3799C0 5.75708 5.3772 0.379883 12 0.379883C18.6228 0.379883 24 5.75708 24 12.3799Z" fill="#06644E"/>
  <path d="M7.15841 7.50878C7.76073 7.75119 7.76073 7.75119 7.76073 12.3465C7.76073 15.1817 7.71611 16.6678 7.63803 16.8048C7.57111 16.9313 7.35918 17.0894 7.16957 17.1632C6.85725 17.3002 7.09149 17.3107 9.35575 17.3213C13.0031 17.3213 14.0962 17.0683 15.4347 15.8984C16.4609 15.0025 16.9182 13.9169 16.9405 12.3676C16.9516 11.4085 16.762 10.6075 16.3382 9.83806C15.7582 8.76301 15.0331 8.18332 13.7616 7.75119C12.9697 7.4877 12.847 7.47716 9.93576 7.44554C8.03958 7.42446 7.01341 7.45608 7.15841 7.50878ZM13.137 8.27818C14.6316 9.0265 15.3789 10.4283 15.3789 12.4519C15.3789 13.5586 15.3008 13.8326 15.1001 13.4743C14.8324 13.0105 14.152 12.5784 12.3562 11.7036C11.33 11.1977 10.3038 10.6391 10.0808 10.4704C9.55652 10.0594 9.33344 9.46917 9.53422 9.01596C10.0473 7.86713 11.6535 7.52986 13.137 8.27818ZM9.73499 11.7774C10.0361 11.9671 10.9396 12.473 11.765 12.8841C13.8954 13.9696 14.2301 14.2542 14.2301 15.0658C14.2301 16.0565 13.3043 16.6889 11.8877 16.6889C10.7389 16.6784 9.95807 16.3833 9.4896 15.7614L9.15498 15.2977L9.12152 13.3583C9.09921 12.2938 9.11036 11.419 9.14383 11.419C9.17729 11.419 9.44498 11.5771 9.73499 11.7774Z" fill="#F1F7F6"/>
</svg>