<svg xmlns="http://www.w3.org/2000/svg" width="18" height="15" viewBox="0 0 18 15" fill="none">
  <g clip-path="url(#clip0_74_5080)">
    <path d="M14.8348 2.41089C16.7204 5.20035 17.6516 8.34679 17.3035 11.969C17.302 11.9843 17.2941 11.9984 17.2815 12.0076C15.8537 13.0626 14.4702 13.7029 13.1062 14.1275C13.0956 14.1307 13.0842 14.1305 13.0737 14.127C13.0632 14.1234 13.054 14.1166 13.0475 14.1075C12.7324 13.6663 12.4461 13.2012 12.1952 12.7128C12.1808 12.684 12.194 12.6494 12.2236 12.638C12.6784 12.4656 13.1108 12.259 13.5267 12.0144C13.5595 11.9951 13.5616 11.9478 13.5313 11.9251C13.443 11.8592 13.3556 11.7899 13.2719 11.7206C13.2562 11.7078 13.2352 11.7053 13.2174 11.7139C10.5171 12.9685 7.55906 12.9685 4.82682 11.7139C4.80908 11.7059 4.788 11.7086 4.77277 11.7212C4.68929 11.7905 4.60164 11.8592 4.51419 11.9251C4.48393 11.9478 4.48644 11.9951 4.51941 12.0144C4.93534 12.2544 5.36776 12.4656 5.82188 12.6389C5.8513 12.6502 5.86529 12.684 5.85068 12.7128C5.60525 13.2018 5.31892 13.667 4.99795 14.1081C4.98397 14.126 4.96101 14.1342 4.93931 14.1275C3.58174 13.7029 2.1983 13.0626 0.770408 12.0076C0.758512 11.9984 0.749956 11.9837 0.748704 11.9684C0.457782 8.83521 1.05069 5.66274 3.21506 2.41026C3.22028 2.40165 3.22821 2.39493 3.2374 2.39094C4.30237 1.89916 5.44331 1.53735 6.63579 1.33072C6.65749 1.32736 6.6792 1.33744 6.69047 1.35676C6.83781 1.61924 7.00622 1.95585 7.12017 2.23093C8.37714 2.03775 9.65373 2.03775 10.937 2.23093C11.0509 1.96173 11.2135 1.61924 11.3602 1.35676C11.3655 1.34717 11.3736 1.3395 11.3834 1.33482C11.3932 1.33014 11.4042 1.32871 11.4149 1.33072C12.608 1.53798 13.749 1.89979 14.8131 2.39094C14.8225 2.39493 14.8302 2.40165 14.8348 2.41089ZM7.7592 8.36821C7.77235 7.44196 7.10118 6.67551 6.25868 6.67551C5.42306 6.67551 4.75837 7.43524 4.75837 8.36821C4.75837 9.30097 5.43621 10.0607 6.25868 10.0607C7.0945 10.0607 7.7592 9.30097 7.7592 8.36821ZM13.3067 8.36821C13.3199 7.44196 12.6487 6.67551 11.8064 6.67551C10.9706 6.67551 10.3059 7.43524 10.3059 8.36821C10.3059 9.30097 10.9837 10.0607 11.8064 10.0607C12.6487 10.0607 13.3067 9.30097 13.3067 8.36821Z" fill="#BDC7C2"/>
  </g>
  <defs>
    <clipPath id="clip0_74_5080">
      <rect width="18" height="14" fill="white" transform="translate(0 0.729736)"/>
    </clipPath>
  </defs>
</svg>