<svg width="32" height="32" viewBox="0 0 32 32" fill="none" xmlns="http://www.w3.org/2000/svg">
<g clip-path="url(#clip0_41_798)">
<path d="M28 -0.379883H4C1.79086 -0.379883 0 1.41098 0 3.62012V27.6201C0 29.8293 1.79086 31.6201 4 31.6201H28C30.2091 31.6201 32 29.8293 32 27.6201V3.62012C32 1.41098 30.2091 -0.379883 28 -0.379883Z" fill="#F1F7F6"/>
<g clip-path="url(#clip1_41_798)">
<path d="M15.7621 8.67207C15.7047 8.70762 14.8871 9.83145 13.2191 12.1639L10.7637 15.6037V15.8033C10.7637 16.1314 10.5941 16.0412 13.4133 17.217C15.4859 18.0838 15.8906 18.2451 16 18.2451C16.1121 18.2451 16.5141 18.0865 18.5895 17.2197C21.4059 16.0412 21.2363 16.1314 21.2363 15.8033V15.6037L18.7809 12.1639C17.1129 9.83145 16.2953 8.70762 16.2379 8.67207C16.1805 8.63652 16.1012 8.62012 16 8.62012C15.8988 8.62012 15.8195 8.63652 15.7621 8.67207ZM15.5543 17.1158C15.5352 17.1322 11.9148 15.6064 11.9148 15.5818C11.9176 15.5709 12.7352 14.4143 13.7332 13.017L15.5488 10.474L15.557 13.7908C15.5598 15.6146 15.5598 17.1104 15.5543 17.1158ZM18.3297 13.1045C19.3031 14.4662 20.0906 15.5873 20.0797 15.5982C20.0605 15.6174 16.473 17.124 16.4484 17.124C16.443 17.124 16.4375 15.6256 16.4375 13.7936L16.4402 10.4658L16.5004 10.5479C16.5332 10.5916 17.3563 11.7428 18.3297 13.1045Z" fill="black"/>
<path d="M10.9469 17.452C10.8156 17.5312 10.75 17.657 10.75 17.8293C10.75 17.9086 10.7664 18.007 10.7883 18.0508C10.8293 18.1246 15.6746 22.5215 15.7895 22.5844C15.866 22.6281 16.134 22.6281 16.2105 22.5844C16.3254 22.5215 21.1707 18.1246 21.2117 18.0508C21.2336 18.007 21.25 17.9086 21.25 17.8293C21.25 17.5668 21.0832 17.3973 20.8234 17.3973C20.7031 17.3973 20.3887 17.5203 18.3625 18.368C16.8094 19.0187 16.0191 19.3387 15.9727 19.3305C15.9344 19.325 14.8734 18.8875 13.6102 18.357C11.1109 17.3098 11.1547 17.3262 10.9469 17.452ZM14.7094 19.8008C15.5516 20.1535 15.9262 20.2957 16 20.2957C16.0902 20.2957 17.1457 19.8746 18.3926 19.3387C18.4828 19.3004 18.5156 19.2949 18.4883 19.3223C18.3543 19.4535 16.0137 21.5535 16 21.5535C15.9863 21.5535 13.6074 19.418 13.5117 19.3195C13.4898 19.2949 13.4844 19.284 13.498 19.2922C13.5145 19.3004 14.0586 19.5273 14.7094 19.8008Z" fill="black"/>
</g>
</g>
<defs>
<clipPath id="clip0_41_798">
<rect width="32" height="32" fill="white"/>
</clipPath>
<clipPath id="clip1_41_798">
<rect width="14" height="14" fill="white" transform="translate(9 8.62012)"/>
</clipPath>
</defs>
</svg>
