<svg xmlns="http://www.w3.org/2000/svg" width="204" height="196" viewBox="0 0 204 196" fill="none">
  <path d="M203.999 107.248C203.999 155.959 158.5 195.445 102.373 195.445C46.2471 195.445 3.67942 155.869 0.744109 107.248C0 94.8669 0 94.8669 0 87.8969C18.5841 70.1991 72.6088 19.0498 102.373 19.0498C131.614 19.0498 157.976 29.7665 176.515 46.9259C184.973 54.7522 200.297 62.2644 201.811 73.3176C204.126 90.219 203.999 95.4914 203.999 107.248Z" fill="#17876D"/>
  <path d="M203.251 88.1978C203.251 136.909 157.752 176.396 101.625 176.396C45.4992 176.396 0 136.909 0 88.1978C0 39.4865 45.4992 0 101.625 0C157.752 0 203.251 39.4865 203.251 88.1978Z" fill="#00DF81"/>
  <path d="M63.7878 47.5834C68.5418 49.6082 68.5418 49.6082 68.5418 87.9924C68.5418 111.674 68.1897 124.088 67.5734 125.232C67.0452 126.289 65.3725 127.609 63.8759 128.225C61.4108 129.37 63.2596 129.458 81.1311 129.546C109.919 129.546 118.547 127.433 129.111 117.661C137.211 110.178 140.82 101.11 140.996 88.1685C141.084 80.1571 139.588 73.4663 136.242 67.0396C131.664 58.0598 125.942 53.2178 115.906 49.6082C109.655 47.4073 108.687 47.3193 85.7091 47.0552C70.7428 46.8791 62.6434 47.1432 63.7878 47.5834ZM110.976 54.0101C122.773 60.2607 128.671 71.9697 128.671 88.8728C128.671 98.1167 128.055 100.406 126.47 97.4124C124.357 93.5387 118.987 89.9292 104.813 82.6221C96.7137 78.3964 88.6143 73.7304 86.8536 72.3218C82.7158 68.8884 80.9551 63.9583 82.5397 60.1727C86.5894 50.5767 99.2668 47.7595 110.976 54.0101ZM84.1244 83.2384C86.5014 84.8231 93.6324 89.0488 100.147 92.4823C116.962 101.55 119.603 103.927 119.603 110.706C119.603 118.981 112.296 124.264 101.116 124.264C92.0477 124.176 85.8851 121.711 82.1876 116.516L79.5465 112.643L79.2824 96.444C79.1063 87.5522 79.1943 80.2451 79.4584 80.2451C79.7226 80.2451 81.8354 81.5657 84.1244 83.2384Z" fill="white"/>
</svg>