<svg width="32" height="32" viewBox="0 0 32 32" fill="none" xmlns="http://www.w3.org/2000/svg">
<g clip-path="url(#clip0_67_353)">
<path d="M28 0H4C1.79086 0 0 1.79086 0 4V28C0 30.2091 1.79086 32 4 32H28C30.2091 32 32 30.2091 32 28V4C32 1.79086 30.2091 0 28 0Z" fill="#06644E"/>
<path d="M16.1027 8.04763C15.9797 8.10038 15.88 8.19123 15.8155 8.30845C15.7745 8.37878 15.7628 8.51358 15.7511 9.0235L15.7364 9.65356L15.3848 9.70338C14.4235 9.84111 13.6851 10.1723 13.0989 10.7291C12.4103 11.3826 12.1026 12.1914 12.1788 13.1526C12.2022 13.4779 12.2579 13.7211 12.3634 13.9849C12.6095 14.5915 13.1722 15.1278 13.9517 15.4912C14.1979 15.6084 15.0771 15.9161 15.5899 16.0626L15.7364 16.1066L15.7452 17.9909L15.7511 19.8782L15.5811 19.8577C14.9042 19.7815 13.981 19.3741 13.3363 18.8642C13.0374 18.6298 12.8381 18.5741 12.5802 18.6503C12.2432 18.747 12 19.0693 12 19.4239C12 19.7228 12.0762 19.8577 12.4015 20.1243C12.9934 20.6137 13.8052 21.0211 14.5642 21.2145C14.8631 21.2907 15.3174 21.3639 15.4873 21.3639C15.7687 21.3639 15.7511 21.3229 15.7511 21.9794C15.7511 22.5274 15.754 22.5625 15.8185 22.6856C15.9972 23.0256 16.4456 23.1047 16.7357 22.8497C16.9262 22.6856 16.935 22.6446 16.9467 21.9735L16.9585 21.3669L17.1226 21.3493C18.3856 21.2174 19.3498 20.7427 19.9212 19.9749C20.3373 19.4181 20.522 18.873 20.5483 18.1199C20.5689 17.6217 20.5366 17.3491 20.4223 16.9857C20.0765 15.8985 19.1651 15.2128 17.3629 14.6882L16.9672 14.571L16.9585 12.9006L16.9526 11.2302L17.1489 11.2741C17.6706 11.3884 18.2244 11.6258 18.6552 11.9159C19.0245 12.1621 19.1036 12.1973 19.2999 12.1943C19.7395 12.1943 20.0941 11.8397 20.0941 11.4031C20.0941 11.069 19.9593 10.8961 19.4172 10.5356C18.7168 10.0726 17.9431 9.79422 17.1226 9.71217L16.9233 9.69459V9.06452C16.9233 8.50772 16.9174 8.42567 16.8676 8.32896C16.724 8.04763 16.387 7.92455 16.1027 8.04763ZM15.7511 12.7042C15.7511 13.9439 15.7423 14.2428 15.713 14.2428C15.6221 14.2428 14.951 13.9966 14.7019 13.8706C14.3884 13.7123 14.1276 13.4838 14.0279 13.2728C13.7847 12.7687 13.9341 12.1123 14.3884 11.6991C14.6873 11.4265 15.247 11.2009 15.7013 11.1686C15.7481 11.1657 15.7511 11.2566 15.7511 12.7042ZM17.4537 16.6282C18.4061 16.9711 18.8281 17.44 18.8281 18.1521C18.8281 18.8144 18.4501 19.377 17.8024 19.673C17.6178 19.7551 17.1196 19.8987 17.0083 19.8987C16.9555 19.8987 16.9526 19.8401 16.9526 18.1843V16.47L17.0346 16.4875C17.0786 16.4993 17.2662 16.5608 17.4537 16.6282Z" fill="#AACAC3"/>
</g>
<defs>
<clipPath id="clip0_67_353">
<rect width="32" height="32" fill="white"/>
</clipPath>
</defs>
</svg>
