<svg xmlns="http://www.w3.org/2000/svg" width="71" height="31" viewBox="0 0 71 31" fill="none">
  <path d="M8.61157 0.50358C7.25832 1.43855 6.81544 2.49654 6.79084 4.88318C6.76623 6.03959 6.84005 7.61428 6.96307 8.37702C7.1107 9.50882 7.06149 9.80408 6.79084 9.80408C6.20033 9.80408 3.8383 10.8621 2.50966 11.7232C1.03339 12.6828 0 14.2329 0 15.4631C0 17.3577 2.04217 19.326 5.38838 20.6547L7.01228 21.319L6.88926 22.623C6.49558 26.9042 6.84005 28.9218 8.2425 30.2258C8.7838 30.7425 9.12826 30.8409 10.4323 30.8409C12.253 30.8409 13.4833 30.275 15.7715 28.4543L17.2477 27.2487L19.0193 28.5773C21.2829 30.2996 22.0456 30.6687 23.6695 30.8409C26.4006 31.1362 27.9261 29.3892 27.9261 25.92C27.9261 24.8374 27.8277 23.3365 27.7293 22.5738L27.5324 21.196L28.5904 20.9007C31.2723 20.0887 33.9296 18.1204 34.4463 16.5457C35.2582 14.1099 33.0438 11.6002 28.7134 10.0255C27.9261 9.75487 27.4586 9.45961 27.5078 9.26278C27.8523 8.00795 28.0737 5.5229 27.9753 4.34188C27.5324 -0.480598 23.6203 -1.39096 19.0931 2.29971C18.4042 2.84101 17.7152 3.38231 17.543 3.48072C17.3462 3.60374 16.6818 3.21007 15.8207 2.52115C12.8927 0.134514 10.2355 -0.603621 8.61157 0.50358ZM12.253 1.93064C13.3602 2.42273 16.239 4.56332 16.239 4.88318C16.239 4.9816 16.0667 5.22764 15.8453 5.39987C15.6238 5.5721 14.9841 6.33484 14.3936 7.09758C13.3356 8.47543 13.311 8.47543 11.5149 8.77069C10.5307 8.91831 9.47273 9.11515 9.20208 9.21357C8.56236 9.3858 8.41473 8.96752 8.19329 6.21182C7.89804 2.12748 9.3497 0.601997 12.253 1.93064ZM25.3672 1.75841C26.2284 2.42273 26.4498 3.23468 26.4252 5.76894C26.376 8.40162 26.0808 9.45961 25.4164 9.18896C25.195 9.11515 24.1862 8.91831 23.1528 8.77069C22.1194 8.62306 21.2091 8.35241 21.086 8.18018C20.9876 8.00795 20.3479 7.196 19.6344 6.33484L18.3549 4.80936L19.4129 3.8744C21.5289 2.00445 24.3584 0.99567 25.3672 1.75841ZM18.3549 7.14679L19.3145 8.20478L17.4938 8.2786C16.5096 8.32781 15.6238 8.3032 15.5746 8.22939C15.427 8.10637 17.0017 6.1134 17.2477 6.1134C17.3462 6.1134 17.8383 6.58089 18.3549 7.14679ZM21.3567 11.3296C21.898 12.1907 22.6361 13.4701 23.0052 14.1591L23.6941 15.4631L23.1282 16.6195C22.8084 17.2838 22.0702 18.5387 21.4797 19.449L20.4217 21.1221H17.3462H14.2706L13.188 19.449C12.5975 18.5387 11.8348 17.2592 11.5395 16.6195L10.949 15.4385L11.6871 14.0607C12.0808 13.2979 12.8189 12.0185 13.3356 11.2311L14.2706 9.80408H17.3216H20.3725L21.3567 11.3296ZM12.0562 10.3946C12.0562 10.4438 11.6625 11.1327 11.195 11.9201C10.7276 12.7074 10.3339 13.4455 10.3339 13.5932C10.3339 14.036 10.0632 13.5686 9.59575 12.2399C9.07905 10.8867 9.12826 10.6652 9.96482 10.4684C10.5799 10.3208 12.0562 10.2716 12.0562 10.3946ZM25.3426 10.6652C25.4656 10.739 25.318 11.4772 25.0474 12.2891L24.5307 13.79L23.5957 12.1415C23.0544 11.2557 22.6361 10.4438 22.6361 10.37C22.6361 10.1977 24.9982 10.4684 25.3426 10.6652ZM7.87344 11.6248C7.87344 11.797 8.19329 12.732 8.58696 13.7162L9.3251 15.4631L8.58696 17.21C8.19329 18.1942 7.87344 19.1292 7.87344 19.3014C7.87344 19.9411 7.35674 19.8919 5.5114 19.1292C3.14937 18.145 1.47627 16.6441 1.47627 15.5123C1.47627 14.1099 3.32161 12.5352 6.17573 11.5264C7.52897 11.0589 7.87344 11.0835 7.87344 11.6248ZM29.3285 11.8462C31.5676 12.7812 33.2161 14.4051 33.2161 15.6353C33.2161 16.4965 31.7398 17.899 29.9437 18.7601C27.1141 20.1134 27.1141 20.1134 26.253 17.8005C25.8593 16.7179 25.5149 15.6599 25.5395 15.4631C25.5395 15.1432 25.8593 14.1345 26.7943 11.7232C27.0649 11.0097 27.3602 11.0097 29.3285 11.8462ZM11.1704 19.0062C11.6625 19.8673 12.0562 20.63 12.0562 20.7039C12.0562 20.8269 9.3005 20.4086 9.15287 20.261C9.07905 20.2118 9.15287 19.8427 9.3005 19.4736C9.44812 19.1046 9.69417 18.4895 9.81719 18.0958C9.96482 17.7267 10.1124 17.4315 10.1863 17.4315C10.2355 17.4315 10.6783 18.145 11.1704 19.0062ZM25.441 19.7935C25.5887 20.261 25.4656 20.3348 24.1124 20.5562C23.3004 20.6793 22.6361 20.7039 22.6361 20.6054C22.6361 20.507 23.0544 19.7197 23.5465 18.8585L24.4569 17.3084L24.8751 18.2926C25.0966 18.8339 25.3672 19.4982 25.441 19.7935ZM14.2214 23.6072C14.6643 24.1977 15.3286 24.985 15.6977 25.3787L16.3374 26.043L15.2302 27.0272C13.1388 28.8972 10.5553 29.8813 9.3497 29.2416C8.48855 28.7741 8.02106 26.978 8.19329 24.739C8.46394 21.442 8.2425 21.6388 10.9982 22.1063C13.3602 22.5 13.3848 22.5246 14.2214 23.6072ZM26.2284 22.5246C26.3268 22.8937 26.4252 24.1977 26.4252 25.4279C26.4498 28.1836 26.0315 29.1432 24.7275 29.3892C23.5465 29.6107 22.0456 28.9956 20.1757 27.5931C19.3637 27.0026 18.6502 26.3875 18.5764 26.2891C18.5026 26.1661 19.0439 25.3049 19.8066 24.3945C20.5447 23.4842 21.1599 22.6476 21.1599 22.5492C21.1599 22.4508 21.5781 22.3278 22.0948 22.3278C22.5869 22.3032 23.3497 22.2047 23.7433 22.1063C24.1616 22.0079 24.8505 21.9095 25.2688 21.8849C25.9577 21.8603 26.1054 21.9587 26.2284 22.5246ZM18.9455 23.0167C18.8224 23.2627 18.3795 23.8286 18.0105 24.2715L17.297 25.0589L16.5834 24.1485C15.304 22.5492 15.2794 22.5984 17.3462 22.5984C19.0439 22.5984 19.1915 22.623 18.9455 23.0167Z" fill="white"/>
  <path d="M16.0647 12.6333C13.5551 13.7159 13.7765 17.4804 16.4092 18.3908C19.9276 19.621 22.0436 14.454 18.6974 12.7563C17.5656 12.1904 17.1473 12.1658 16.0647 12.6333Z" fill="white"/>
  <path d="M36.4141 15.0696V19.646H37.0292C37.6443 19.646 37.6443 19.6214 37.6443 17.653V15.6355L38.8007 15.7831C40.1047 15.9307 40.646 16.4474 41.6056 18.4404C42.0731 19.4738 42.2699 19.646 42.8604 19.646H43.5494L42.7128 17.9729C42.2699 17.0625 41.6548 16.1276 41.3842 15.8569L40.8675 15.414L41.5318 14.8481C42.0977 14.356 42.1961 14.0854 42.1961 13.0274C42.1961 11.0836 41.6794 10.7146 38.7515 10.5915L36.4141 10.4931V15.0696ZM40.2524 11.7234C40.7691 12.0432 41.0889 13.0028 40.9413 13.6179C40.7445 14.4298 40.1539 14.7251 38.7761 14.7251H37.6443V13.1258V11.5265H38.8253C39.465 11.5265 40.1047 11.6249 40.2524 11.7234Z" fill="white"/>
  <path d="M66.9256 11.7726C66.9256 12.4861 66.8272 12.7567 66.5566 12.7567C66.3597 12.7567 66.1875 12.9782 66.1875 13.2488C66.1875 13.5195 66.3597 13.7409 66.5566 13.7409C66.8518 13.7409 66.9256 14.1592 66.9256 16.0537C66.9256 17.9975 66.9994 18.4404 67.4423 19.0063C67.8606 19.5476 68.1313 19.646 69.1646 19.646C70.198 19.646 70.3703 19.5722 70.3703 19.1785C70.3703 18.7848 70.1734 18.6864 69.3369 18.6126L68.2789 18.5388L68.2051 16.1276L68.1313 13.7409H69.2631C70.198 13.7409 70.3703 13.6671 70.3703 13.2488C70.3703 12.8306 70.198 12.7567 69.2631 12.7567H68.1559V11.7726C68.1559 10.8868 68.1066 10.7884 67.5407 10.7884C66.9994 10.7884 66.9256 10.8868 66.9256 11.7726Z" fill="white"/>
  <path d="M45.3963 13.2976C44.0922 14.3064 43.674 16.4469 44.4367 18.0462C45.0026 19.2519 45.8884 19.744 47.4876 19.7686C49.3822 19.7686 50.1941 19.4979 50.1941 18.8828C50.1941 18.4891 50.0957 18.4153 49.7759 18.5383C49.5298 18.6367 48.7671 18.7598 48.0535 18.8336C46.8725 18.9566 46.7249 18.9074 46.036 18.2185C45.6177 17.8002 45.2732 17.2343 45.2732 16.9636C45.2732 16.4716 45.3963 16.4469 47.8567 16.4469H50.4402V15.8318C50.4402 14.8969 49.8251 13.6174 49.1854 13.1499C48.3242 12.5594 46.2574 12.6333 45.3963 13.2976ZM48.5948 14.1095C48.9393 14.4294 49.21 14.9215 49.21 15.2167C49.21 15.6596 49.0623 15.7088 47.2416 15.7088C46.159 15.7088 45.2732 15.6104 45.2732 15.4628C45.2732 14.9461 45.8637 14.0111 46.3558 13.7897C47.217 13.3468 47.9797 13.4698 48.5948 14.1095Z" fill="white"/>
  <path d="M52.851 12.9287C52.6049 12.9779 52.4081 13.2732 52.4081 13.5438C52.4081 13.9621 52.5065 14.0113 53.097 13.8391C54.4011 13.4454 55.6313 13.593 56.148 14.2327C56.394 14.528 56.5663 14.9217 56.5171 15.0693C56.4678 15.2169 55.7051 15.3645 54.8193 15.4138C52.7772 15.5122 51.916 16.1519 51.916 17.6036C51.916 18.6615 52.039 18.883 52.9002 19.4735C53.6875 20.0148 54.5487 19.9902 55.6805 19.3997C56.4432 18.9814 56.5909 18.9814 56.5909 19.2767C56.5909 19.4735 56.8123 19.6457 57.083 19.6457C57.5504 19.6457 57.575 19.4735 57.575 16.9146C57.575 14.2327 57.575 14.1835 56.8615 13.47C56.2218 12.8303 55.9758 12.7565 54.6963 12.7811C53.909 12.8057 53.0724 12.8549 52.851 12.9287ZM56.4924 16.9884C56.0742 19.1536 53.1462 19.6211 53.1462 17.5297C53.1462 16.521 53.6383 16.2503 55.4591 16.2257L56.6647 16.2011L56.4924 16.9884Z" fill="white"/>
  <path d="M61.2653 13.0759C60.2811 13.568 59.543 14.8966 59.543 16.176C59.543 18.5135 61.1177 20.0389 63.3075 19.7929C64.7099 19.6453 64.956 19.5222 64.956 18.9071C64.956 18.4888 64.8575 18.4642 64.3162 18.6611C63.2829 19.0548 62.3233 18.9317 61.5851 18.3166C60.97 17.7753 60.8962 17.5539 60.8962 16.2252C60.8962 15.0196 60.9946 14.6259 61.4375 14.1831C62.028 13.6172 63.3567 13.4449 64.4147 13.814C64.8575 13.9862 64.956 13.937 64.956 13.5433C64.956 13.2727 64.7837 12.9774 64.5623 12.9036C63.898 12.6576 61.905 12.756 61.2653 13.0759Z" fill="white"/>
</svg>