<svg width="32" height="32" viewBox="0 0 32 32" fill="none" xmlns="http://www.w3.org/2000/svg">
<g clip-path="url(#clip0_67_366)">
<path d="M28 0H4C1.79086 0 0 1.79086 0 4V28C0 30.2091 1.79086 32 4 32H28C30.2091 32 32 30.2091 32 28V4C32 1.79086 30.2091 0 28 0Z" fill="#06644E"/>
<g clip-path="url(#clip1_67_366)">
<path d="M10.1108 9.0303C9.60223 9.15608 9.14559 9.61819 9.03074 10.1213C8.96238 10.4166 9.0116 10.8596 9.14285 11.1166C9.30418 11.4366 10.5429 13.4627 10.6139 13.5229C10.6604 13.5612 10.7397 13.5994 10.7917 13.6104C10.9694 13.6432 11.0679 13.6022 11.2675 13.4135L11.4561 13.2385L12.6866 14.5428C13.8761 15.8061 14.1139 16.0658 14.1139 16.1069C14.1139 16.1151 13.8268 16.4104 13.4741 16.7631L12.837 17.4002L12.6073 17.3401C12.2655 17.2498 11.6475 17.2334 11.2975 17.3073C10.1436 17.5451 9.28778 18.401 9.04988 19.5549C8.97059 19.9377 8.98973 20.5612 9.09363 20.9084C9.18934 21.2229 9.30965 21.469 9.39988 21.5346C9.48192 21.592 9.67059 21.6221 9.78543 21.5948C9.83465 21.5811 10.0698 21.3678 10.4499 20.9932C10.7725 20.6733 11.0679 20.3889 11.1061 20.3643C11.1964 20.3041 11.3741 20.3096 11.4835 20.3752C11.653 20.4791 11.7214 20.676 11.6503 20.8592C11.6339 20.9002 11.3522 21.2065 11.0241 21.5373C10.6386 21.9256 10.4198 22.1662 10.4089 22.2155C10.3788 22.3303 10.4089 22.519 10.4663 22.601C10.562 22.7323 10.9913 22.9018 11.4179 22.9756C11.5382 22.9948 11.7487 23.003 11.9921 22.992C12.58 22.9701 13.0038 22.8334 13.4768 22.519C14.1468 22.0733 14.6007 21.3569 14.7182 20.5694C14.7647 20.2467 14.7374 19.6834 14.6608 19.3936L14.6007 19.1639L15.1503 18.6143C15.4811 18.2862 15.7081 18.0756 15.7218 18.0948C15.7327 18.1112 16.3124 18.8166 17.0097 19.667C18.087 20.9768 18.3632 21.294 18.8417 21.778C19.487 22.4315 19.6784 22.5955 19.9655 22.7487C20.4823 23.0276 21.1632 23.0768 21.7018 22.8772C22.1858 22.6967 22.5823 22.3276 22.8093 21.8381C23.0745 21.2748 23.069 20.5748 22.7956 20.0389C22.6507 19.7573 22.5139 19.5987 21.8194 18.9096L21.1823 18.2752L19.5554 17.0776C18.6612 16.4213 17.9229 15.8772 17.9147 15.8717C17.9093 15.8662 18.1882 15.5764 18.5354 15.2319L19.1643 14.6002L19.394 14.6604C19.7167 14.7451 20.3237 14.767 20.66 14.7041C21.762 14.4963 22.6206 13.6951 22.9186 12.5959C22.9624 12.4401 22.9815 12.2651 22.9925 11.9807C23.0089 11.524 22.9706 11.2506 22.8311 10.8705C22.7436 10.6217 22.6589 10.4987 22.5331 10.4358C22.4429 10.3865 22.2569 10.3811 22.1722 10.4248C22.1393 10.4412 21.8468 10.7174 21.5241 11.0401C21.2014 11.36 20.9007 11.6362 20.8597 11.6498C20.5972 11.7483 20.321 11.5596 20.321 11.2807C20.321 11.1276 20.3811 11.0537 21.0046 10.4358C21.2917 10.1487 21.546 9.88342 21.5679 9.84241C21.6143 9.75491 21.6171 9.56624 21.5761 9.48421C21.4804 9.29827 21.2042 9.15882 20.7339 9.05217C20.4139 8.98382 19.878 8.98108 19.5417 9.05217C18.4014 9.28733 17.5456 10.1514 17.3077 11.2971C17.2311 11.6608 17.2475 12.276 17.3378 12.6069L17.4034 12.8338L16.6815 13.5557C16.285 13.9522 15.946 14.2776 15.9296 14.2776C15.8722 14.2776 15.5987 13.9987 14.4175 12.7463L13.2198 11.4748L13.4057 11.278C13.6054 11.0674 13.6436 10.9717 13.6108 10.7885C13.5999 10.7338 13.5534 10.6518 13.5042 10.5998C13.3893 10.4823 11.1143 9.12327 10.9339 9.06585C10.7671 9.01116 10.2667 8.98928 10.1108 9.0303ZM10.685 9.88889C10.7561 9.91897 12.4432 10.9143 12.4979 10.958C12.5034 10.9635 12.446 11.0346 12.3694 11.1166C12.1507 11.3491 12.1425 11.5596 12.3448 11.7838C12.6675 12.142 15.1311 14.7424 15.2214 14.819L15.3253 14.9119L15.0354 15.2018L14.7456 15.4916L14.5733 15.303C14.4776 15.1991 13.794 14.4717 13.0557 13.6869C12.1179 12.6944 11.6831 12.2514 11.6229 12.2295C11.4261 12.1612 11.2839 12.2022 11.1007 12.3826C11.0296 12.4537 10.9667 12.5057 10.9612 12.4975C10.9175 12.4455 9.91942 10.7584 9.88934 10.6846C9.86746 10.6299 9.84832 10.5233 9.84832 10.444C9.84832 10.0311 10.305 9.7303 10.685 9.88889ZM20.0448 10.1951C19.5608 10.6901 19.4569 10.9006 19.4788 11.3463C19.5116 11.9971 19.9819 12.4783 20.6272 12.5221C21.0729 12.5494 21.3163 12.4346 21.8003 11.9615L22.153 11.617V11.8768C22.153 12.9951 21.2452 13.8975 20.1241 13.8948C19.837 13.892 19.6292 13.8537 19.353 13.7471C19.1534 13.6705 19.0304 13.6596 18.9073 13.7033C18.8198 13.7362 13.7776 18.7619 13.7147 18.8768C13.6546 18.9944 13.6682 19.1366 13.7776 19.4455C13.8788 19.7244 13.8815 19.7436 13.8815 20.1155C13.8815 20.4627 13.8733 20.5201 13.8022 20.7389C13.5233 21.5893 12.7577 22.1526 11.8772 22.1526H11.6175L11.962 21.7998C12.4104 21.3377 12.528 21.1135 12.528 20.6979C12.528 20.3588 12.394 20.0498 12.1397 19.8092C11.8991 19.585 11.6202 19.4729 11.3003 19.4729C10.8847 19.4729 10.655 19.5932 10.1929 20.0444L9.84285 20.3889L9.85653 20.0471C9.86746 19.7983 9.8866 19.6588 9.93035 19.5276C10.119 18.9698 10.4936 18.5432 11.005 18.2998C11.2921 18.1631 11.5573 18.1057 11.8772 18.1057C12.1643 18.1084 12.3722 18.1467 12.6483 18.2533C12.8479 18.3299 12.971 18.3408 13.094 18.2971C13.1979 18.2588 18.2374 13.2248 18.2866 13.11C18.344 12.9815 18.3331 12.8584 18.2538 12.6479C18.1472 12.369 18.1089 12.1612 18.1089 11.8576C18.1061 10.9389 18.7487 10.1213 19.6483 9.89983C19.7632 9.87249 19.9546 9.85061 20.1132 9.85061L20.3839 9.84788L20.0448 10.1951ZM17.7042 17.8104C17.3761 18.1385 17.0999 18.4037 17.0889 18.401C17.0807 18.3955 16.8975 18.1823 16.687 17.928L16.3042 17.4631L16.7991 16.9682L17.294 16.4705L17.7972 16.8424L18.3003 17.2143L17.7042 17.8104ZM19.8972 18.3928C20.5917 18.9014 20.671 18.9698 21.2452 19.5385C21.5788 19.8721 21.896 20.203 21.9479 20.2795C22.3225 20.8209 22.1776 21.5948 21.6389 21.953C21.4065 22.1061 21.2042 22.1608 20.9061 22.1444C20.6819 22.1334 20.6327 22.1225 20.4167 22.0186C20.1925 21.9092 20.1405 21.8655 19.6046 21.3377C19.1397 20.8811 18.8964 20.6076 18.3331 19.9268L17.6386 19.0791L18.3167 18.401L18.9921 17.7256L19.0768 17.7885C19.1206 17.8213 19.4925 18.0948 19.8972 18.3928Z" fill="#AACAC3"/>
<path d="M19.159 18.8579C18.9484 18.9317 18.8391 19.145 18.8992 19.3637C18.9293 19.4731 19.0277 19.5825 19.7961 20.3536C20.2719 20.8321 20.6984 21.2395 20.7477 21.2641C21.1496 21.4555 21.5242 21.0235 21.2809 20.6462C21.2371 20.5805 20.8297 20.154 20.3731 19.7001C19.6813 19.0137 19.5227 18.8716 19.4324 18.8469C19.2984 18.8114 19.293 18.8114 19.159 18.8579Z" fill="#AACAC3"/>
</g>
</g>
<defs>
<clipPath id="clip0_67_366">
<rect width="32" height="32" fill="white"/>
</clipPath>
<clipPath id="clip1_67_366">
<rect width="14" height="14" fill="white" transform="translate(9 9)"/>
</clipPath>
</defs>
</svg>
