<svg xmlns="http://www.w3.org/2000/svg" width="103" height="29" viewBox="0 0 103 29" fill="none">
  <path d="M34.8301 7.26026V7.97791L36.5012 7.98816C37.4136 7.98816 38.3056 8.00867 38.4696 8.00867L38.7772 8.02917L38.8079 13.3295L38.8284 18.6401H39.5973H40.3662V13.3705C40.3662 8.53153 40.3765 8.10094 40.5405 8.03943C40.6328 7.99842 41.5042 7.97791 42.4782 7.97791C43.4521 7.98816 44.3031 7.96766 44.3646 7.92665C44.4158 7.8959 44.4671 7.56783 44.4671 7.19875V6.54261H39.6486H34.8301V7.26026Z" fill="white"/>
  <path d="M53.2832 12.5914V18.6401H54.0521H54.821V12.5914V6.54261H54.0521H53.2832V12.5914Z" fill="white"/>
  <path d="M46.7738 9.69005C46.5483 9.71056 46.3227 9.77207 46.2612 9.81308C46.2099 9.86434 45.9946 9.95661 45.7896 10.0181C45.2462 10.1924 44.3235 11.1151 44.0262 11.7712C43.5956 12.7452 43.5649 12.8375 43.4931 13.7294C43.4213 14.6521 43.6264 16.3129 43.8417 16.4872C43.8724 16.518 43.9955 16.723 44.1082 16.9486C44.7029 18.1071 46.0664 18.8452 47.635 18.8452C48.3731 18.8452 49.5931 18.5787 49.5931 18.4146C49.5931 18.3736 49.6649 18.3326 49.7469 18.3326C50.0032 18.3326 50.9977 17.2869 51.2232 16.7948C51.5513 16.0669 51.5308 16.0156 50.7926 15.8823C50.4338 15.8208 50.116 15.7696 50.075 15.7696C50.0442 15.7696 49.8802 16.0156 49.7059 16.3129C49.2241 17.1639 48.814 17.4612 47.9835 17.5739C47.4504 17.6355 46.3125 17.3997 46.3125 17.2049C46.3125 17.1536 46.2304 17.0921 46.1382 17.0613C45.7178 16.9178 45.0822 15.6671 45.0822 14.9699V14.6418H48.2604C51.0079 14.6418 51.4488 14.6213 51.5 14.4881C51.6026 14.2215 51.3463 12.4274 51.131 11.9353C50.9054 11.4022 50.5466 10.8588 50.2903 10.664C50.198 10.5922 50.0545 10.4795 49.9827 10.4077C49.911 10.3359 49.6649 10.1924 49.4394 10.0899C49.2138 9.98737 48.9575 9.85409 48.855 9.81308C48.6397 9.71056 47.3069 9.62854 46.7738 9.69005ZM48.3424 11.0126C48.6807 11.0843 49.3573 11.6482 49.6034 12.0788C49.8187 12.4274 50.0237 13.186 49.952 13.3091C49.8699 13.4321 45.2155 13.4526 45.1437 13.3296C45.0514 13.1655 45.3795 12.2838 45.6973 11.8328C46.0049 11.4124 46.2817 11.2074 46.7738 11.0433C47.0404 10.9511 47.9425 10.9306 48.3424 11.0126Z" fill="white"/>
  <path d="M59.846 9.69005C59.6512 9.71056 59.4461 9.77207 59.3846 9.82333C59.3333 9.86434 59.1181 9.95661 58.913 10.0181C58.3184 10.2129 57.447 11.1049 57.0676 11.9148C56.4935 13.186 56.4217 15.2365 56.9343 16.3437C57.0676 16.641 57.1804 16.9383 57.1804 16.9896C57.1804 17.0511 57.2317 17.1024 57.2829 17.1024C57.3444 17.1024 57.3854 17.1536 57.3854 17.2151C57.3854 17.3689 57.9596 17.9225 58.4619 18.2403C59.0668 18.6197 59.9075 18.8452 60.7584 18.8452C61.4965 18.8452 62.7166 18.5787 62.7166 18.4146C62.7166 18.3736 62.7883 18.3326 62.8703 18.3326C63.1266 18.3326 64.1211 17.2869 64.3466 16.7948C64.6747 16.0771 64.6542 16.0259 63.8955 15.8823C63.5265 15.8208 63.1779 15.7901 63.1369 15.8208C63.0856 15.8516 62.9421 16.0669 62.8191 16.3027C62.5628 16.8153 61.9681 17.3894 61.5888 17.4919C60.9327 17.6765 59.4359 17.4714 59.4359 17.1946C59.4359 17.1536 59.3539 17.0921 59.2616 17.0613C58.8412 16.9178 58.2056 15.6465 58.2056 14.9186V14.6418H61.3838C64.1313 14.6418 64.5722 14.6213 64.6235 14.4881C64.7157 14.242 64.4799 12.4889 64.2851 11.9763C64.1313 11.5764 63.9263 11.2484 63.547 10.7973C63.3522 10.5615 62.9421 10.2744 62.5628 10.0899C62.3372 9.98737 62.0707 9.85409 61.9784 9.81308C61.7631 9.70031 60.3278 9.61829 59.846 9.69005ZM61.5478 11.0331C61.9066 11.1459 62.6038 11.7815 62.7576 12.1198C63.0036 12.7144 63.1369 13.2065 63.0754 13.3091C63.0344 13.3706 62.1219 13.4116 60.6559 13.4116H58.3081V13.1758C58.3081 12.3044 59.0258 11.3406 59.8972 11.0433C60.1535 10.9511 61.2607 10.9511 61.5478 11.0331Z" fill="white"/>
  <path d="M68.97 9.67986C68.8265 9.71061 68.6214 9.77212 68.5087 9.81313C68.3959 9.86439 68.1704 9.95666 67.9961 10.0182C67.2989 10.2847 66.53 11.2689 66.1814 12.3147C65.8739 13.2579 65.8841 15.1647 66.2019 16.0669C66.3352 16.436 66.5198 16.8256 66.6223 16.9384C66.7351 17.0511 66.8171 17.1742 66.8171 17.2049C66.8171 17.369 67.5757 18.0353 68.0576 18.3019C68.5497 18.5685 68.683 18.589 69.6262 18.589C70.5694 18.5787 70.7026 18.5582 71.1435 18.3019C71.3998 18.1481 71.6766 17.9533 71.7381 17.8713C72.0252 17.5227 72.1174 17.697 72.0764 18.5069C72.0149 19.5629 71.6971 20.2191 71.041 20.6291C70.6104 20.8957 70.4668 20.9265 69.6877 20.9265C68.9085 20.9367 68.765 20.9059 68.3856 20.6599C68.0986 20.4754 67.8833 20.2293 67.75 19.9422C67.545 19.4912 67.5347 19.4912 66.9093 19.4194C66.5608 19.3886 66.243 19.3784 66.2122 19.4091C66.0892 19.5322 66.3967 20.7932 66.6018 21.0085C66.7248 21.1417 66.8171 21.275 66.8171 21.3058C66.8171 21.4083 67.9448 21.9517 68.4574 22.0952C69.3596 22.3412 70.6206 22.249 71.5331 21.8594C72.4763 21.4596 72.5788 21.3673 73.0811 20.5061C73.5322 19.7372 73.604 19.0093 73.6552 14.1498L73.6963 9.92591H72.9273H72.1482V10.336C72.1482 10.7871 72.1072 10.7871 71.6151 10.254C71.492 10.1309 71.3485 10.0284 71.287 10.0284C71.2255 10.0284 71.041 9.95666 70.8769 9.87465C70.5694 9.71061 69.4211 9.59784 68.97 9.67986ZM70.8257 11.1869C71.1332 11.351 71.41 11.6278 71.6868 12.0378L72.0969 12.6427V14.2113C72.0969 15.1442 72.0559 15.8106 71.9944 15.8516C71.9329 15.8927 71.8201 16.0567 71.7381 16.2105C71.5536 16.5693 71.0307 17.1024 70.8564 17.1024C70.7846 17.1024 70.7129 17.1537 70.6924 17.2254C70.6616 17.3074 70.3951 17.3485 69.8825 17.3485C69.2263 17.3485 69.0623 17.3074 68.6317 17.0409C67.8525 16.559 67.4322 15.5338 67.4322 14.0883C67.4322 13.0426 67.6885 12.2224 68.2011 11.6278C68.7957 10.9409 69.9747 10.7461 70.8257 11.1869Z" fill="white"/>
  <path d="M78.6162 9.69002C78.3394 9.74128 78.2266 9.83355 77.7243 10.3359C77.5295 10.5307 77.3757 10.746 77.3757 10.8178C77.3757 10.8895 77.3347 10.951 77.2732 10.951C77.2219 10.951 77.1707 10.7255 77.1707 10.4487V9.94633L76.5453 9.90532C76.207 9.89506 75.8994 9.89506 75.8789 9.91557C75.8584 9.93607 75.8379 11.9147 75.8379 14.3035V18.6504L76.5863 18.6196L77.3245 18.5889L77.3757 15.6158C77.4372 12.3453 77.468 12.171 78.0626 11.5764C78.4112 11.2381 78.4317 11.2381 79.1391 11.2791C79.5389 11.3099 79.8977 11.3919 79.9387 11.4534C80.0208 11.5969 80.4206 10.828 80.5129 10.3564C80.5641 10.1104 80.5231 10.0591 80.1745 9.90532C79.744 9.72078 78.9955 9.608 78.6162 9.69002Z" fill="white"/>
  <path d="M84.143 9.69005C83.8867 9.71056 83.6407 9.77207 83.5894 9.83358C83.5279 9.88485 83.4254 9.92585 83.3434 9.92585C83.1588 9.92585 82.4925 10.2437 82.3182 10.4077C82.2464 10.4795 82.1234 10.5717 82.0516 10.6127C81.8466 10.7358 81.2724 11.843 81.2724 12.1096C81.2724 12.3249 81.3442 12.3556 81.9183 12.4581C82.6257 12.5812 82.759 12.5299 82.841 12.0891C82.923 11.6892 83.5279 11.1049 83.938 11.0126C84.5429 10.8998 85.6809 10.9511 86.0602 11.1049C86.7368 11.3919 87.0136 11.8225 87.0136 12.5812C87.0136 13.0117 86.9829 13.104 86.8291 13.104C86.7266 13.104 86.6036 13.145 86.5523 13.1963C86.46 13.2886 85.9167 13.3706 83.8867 13.6269C82.9948 13.7294 82.0721 14.0985 81.7851 14.4676C81.6825 14.5906 81.4877 14.8264 81.3442 14.9904C80.8521 15.5543 80.8214 17.1024 81.2827 17.6047C81.3955 17.7175 81.4775 17.861 81.4775 17.9225C81.4775 17.9738 81.5082 18.025 81.5595 18.025C81.6005 18.025 81.744 18.1276 81.8876 18.2608C82.2567 18.5992 83.0973 18.8452 83.8867 18.8452C84.5121 18.8452 85.7014 18.5889 85.9372 18.4146C85.9987 18.3736 86.2755 18.1788 86.5626 17.9943L87.0854 17.6457L87.2392 18.1173L87.3827 18.5889L88.1721 18.6197C88.6027 18.6402 88.9616 18.6299 88.9616 18.5992C88.9616 18.5684 88.9103 18.4249 88.8488 18.2608C88.6642 17.7995 88.5822 16.7128 88.531 14.0267C88.49 11.7815 88.4592 11.4637 88.2747 11.0433C87.8953 10.1822 87.0239 9.75157 85.5271 9.6798C85.0247 9.6593 84.3994 9.6593 84.143 9.69005ZM87.0136 14.9392C87.0136 16.0259 86.7881 16.4975 85.9372 17.1946C85.4246 17.6047 84.0713 17.7482 83.3536 17.4612C82.6155 17.1639 82.3592 16.1592 82.8513 15.5133C83.0871 15.216 83.2101 15.1544 84.2968 14.8469C84.4711 14.8059 84.8812 14.7341 85.2195 14.6931C85.9064 14.6213 86.6036 14.447 86.7573 14.3138C86.9624 14.1292 87.0136 14.2625 87.0136 14.9392Z" fill="white"/>
  <path d="M94.0668 9.69002C93.8515 9.71053 93.6772 9.77204 93.6772 9.8233C93.6772 9.86431 93.5542 9.93607 93.4107 9.96683C93.2569 10.0078 92.9391 10.2436 92.693 10.4897L92.2419 10.9305V10.4282V9.92582H91.5243H90.8066V14.283V18.6401H91.5756H92.3445V15.8413C92.3445 12.8579 92.4265 12.212 92.8468 11.761C92.9698 11.6277 93.0621 11.4944 93.0621 11.4636C93.0621 11.4226 93.2364 11.3201 93.4517 11.2278C94.4564 10.787 95.2663 10.9203 95.7072 11.5969L95.984 12.0275L96.0147 15.3389L96.0455 18.6504L96.7836 18.6196L97.5218 18.5889L97.5731 15.5132C97.6243 12.2223 97.6551 12.0583 98.1677 11.5559C98.5983 11.1356 98.9058 11.0228 99.5722 11.0125C100.064 11.0023 100.259 11.0536 100.526 11.2381C101.11 11.6584 101.11 11.6584 101.131 15.1544C101.151 16.928 101.182 18.4351 101.213 18.5069C101.243 18.5991 101.479 18.6401 101.93 18.6401H102.597V15.0416C102.597 11.7199 102.586 11.4226 102.402 11.0228C101.971 10.0796 101.264 9.67977 99.9823 9.67977C99.5107 9.66952 99.0801 9.72078 98.9981 9.78229C98.9161 9.8438 98.7315 9.92582 98.5778 9.96683C98.4137 9.99759 98.2907 10.0796 98.2907 10.1309C98.2907 10.1924 98.2292 10.2334 98.1677 10.2334C98.0959 10.2334 97.9216 10.3974 97.7781 10.5922C97.6346 10.787 97.4705 10.9613 97.409 10.992C97.3475 11.0125 97.163 10.8588 96.9989 10.6435C96.8349 10.4179 96.5376 10.1616 96.3428 10.0591C96.148 9.95658 95.9635 9.8438 95.9327 9.8028C95.8609 9.71053 94.5384 9.62851 94.0668 9.69002Z" fill="white"/>
  <path d="M13.4677 0.210194C11.6354 0.378008 9.98813 0.836926 8.27918 1.65887C5.7654 2.86781 3.84068 4.62814 2.37831 7.05629C0.491266 10.1934 -0.142315 13.8613 0.604284 17.3374C1.24471 20.3067 2.83723 23.1219 4.91948 24.9609C6.74831 26.5809 8.76207 27.6562 11.1046 28.2693C11.632 28.4063 12.2793 28.5296 12.954 28.622C13.543 28.7008 15.4609 28.7111 16.0534 28.6357C18.7213 28.3069 21.1083 27.3583 23.2522 25.7692C25.1872 24.3376 26.8722 22.0773 27.8277 19.6423C29.0435 16.536 29.1565 13.2757 28.1531 10.1728C27.6222 8.52209 26.7078 6.83368 25.5468 5.36104C24.9372 4.58704 24.4475 4.09387 23.6221 3.42262C21.5056 1.69654 18.8891 0.597191 16.1048 0.258141C15.5534 0.189646 13.9917 0.162247 13.4677 0.210194ZM21.2453 8.87484C21.4919 9.04951 21.6084 9.34403 21.5741 9.69336C21.5604 9.80295 21.5125 10.0701 21.4645 10.2824C21.42 10.4948 21.3035 11.0393 21.2077 11.4914C21.0467 12.2517 20.7522 13.6421 20.4165 15.2244C20.3412 15.5805 20.2282 16.1148 20.1631 16.4059C20.0158 17.1011 19.9165 17.5669 19.6836 18.6662C19.3001 20.4848 19.1494 21.1663 19.098 21.3102C19.0364 21.4917 18.9028 21.6663 18.7624 21.7519C18.5295 21.8924 18.0706 21.7862 17.6973 21.5054C17.4301 21.2999 16.2281 20.4094 14.8718 19.4094C14.6184 19.221 14.3924 19.0532 14.3718 19.0395C14.3513 19.0224 14.002 19.3375 13.4643 19.8512C12.9848 20.317 12.5156 20.7451 12.4163 20.8101C12.2348 20.9266 11.9471 21.0259 11.906 20.9848C11.8923 20.9711 11.9471 20.1526 12.0259 19.1594L12.1663 17.358L12.4334 17.1114C12.7519 16.8169 12.7725 16.7997 14.067 15.6182C14.6321 15.1011 15.341 14.4538 15.6424 14.1764C16.8479 13.077 17.9302 12.0873 18.3754 11.6797C18.6322 11.4434 18.8548 11.2208 18.8651 11.1866C18.8959 11.0872 18.7863 11.0187 18.6391 11.0461C18.574 11.0598 18.2795 11.2208 17.9884 11.4057C17.6973 11.5873 17.1664 11.9229 16.8068 12.1489C15.7246 12.8304 14.6801 13.4846 14.067 13.8716C12.0053 15.1696 10.5772 16.0703 10.3923 16.1833L10.1731 16.3168L9.98128 16.2655C9.87169 16.2347 9.52579 16.1319 9.20386 16.0326C8.88536 15.9333 8.50521 15.8168 8.36479 15.7723C8.22438 15.7312 7.84766 15.6148 7.52573 15.5155C7.20723 15.4196 6.79968 15.2928 6.62502 15.2415C6.13527 15.0976 5.99143 14.9127 6.1387 14.6284C6.26884 14.3716 6.34761 14.3305 7.76546 13.786C8.23808 13.6044 9.16276 13.2483 9.82032 12.9914C10.4813 12.738 11.3204 12.4126 11.6868 12.2722C12.0533 12.1318 12.4471 11.9777 12.5601 11.9366C13.4745 11.5804 14.5842 11.1523 15.1287 10.9434C16.889 10.2687 18.2315 9.75158 18.4165 9.67624C19.0192 9.43308 20.6049 8.83375 20.7179 8.80635C20.8994 8.7584 21.1255 8.78922 21.2453 8.87484Z" fill="white"/>
</svg>