<svg xmlns="http://www.w3.org/2000/svg" width="98" height="29" viewBox="0 0 98 29" fill="none">
  <g clip-path="url(#clip0_70_2100)">
    <path d="M10.7105 0.701447C9.56594 0.876047 8.52481 1.58738 7.61301 2.82898C7.06981 3.55971 6.34554 5.04705 5.99634 6.12698C5.84761 6.60551 5.69887 7.03878 5.67947 7.08405C5.65361 7.13578 4.97461 7.38798 4.15981 7.65311C3.24154 7.95705 2.64661 8.18985 2.56901 8.26745C2.49787 8.34505 2.42674 8.49378 2.40734 8.60371C2.31034 9.12105 0.292739 24.8932 0.318606 24.9191C0.325073 24.9256 0.887673 25.029 1.56021 25.1584C2.23921 25.2877 5.72474 25.9473 9.30727 26.6198L15.8257 27.855L19.9773 26.9432C22.26 26.4388 24.1547 26.0055 24.1806 25.9796C24.2129 25.9538 23.6956 22.2354 23.036 17.7282C22.3764 13.2144 21.7168 8.69425 21.5745 7.67898C21.4323 6.66371 21.29 5.79071 21.2577 5.73898C21.2189 5.66785 20.9214 5.61611 20.0225 5.53205L18.8327 5.42211L18.1213 4.71725C17.0026 3.61791 17.0155 3.62438 16.2719 3.88951L15.858 4.03825L15.6575 3.57265C15.1143 2.33105 14.3448 1.62618 13.3554 1.46451C13.0191 1.41278 12.9027 1.35458 12.6635 1.14118C12.5083 0.998913 12.2884 0.837248 12.172 0.791981C11.8745 0.669113 11.2149 0.623846 10.7105 0.701447ZM11.6288 1.71671C11.7193 1.75551 11.6611 1.80725 11.3895 1.94951C10.9433 2.18231 10.232 2.92598 9.86987 3.52738C9.54654 4.07705 9.26847 4.76898 9.03567 5.60318L8.86754 6.21105L7.86521 6.48911C7.31554 6.64431 6.85641 6.76718 6.84994 6.77365C6.84347 6.77365 6.95341 6.47618 7.09567 6.11405C8.20147 3.27518 9.68234 1.68438 11.2279 1.67791C11.3895 1.67791 11.5706 1.69085 11.6288 1.71671ZM14.1379 2.87425C14.3707 3.13938 14.8039 3.91538 14.8621 4.18051C14.8751 4.24518 14.7134 4.32278 14.3189 4.44565L13.7628 4.62025L13.724 4.06411C13.6787 3.48858 13.5882 2.77725 13.5171 2.51858C13.4718 2.36338 13.4783 2.36338 13.6658 2.46685C13.7757 2.51858 13.9891 2.70611 14.1379 2.87425ZM12.5859 3.29458C12.6635 3.63085 12.7281 4.10291 12.7346 4.45211L12.7475 5.04705L11.4219 5.41565C10.6911 5.62258 10.0897 5.77778 10.0768 5.77131C10.0703 5.76485 10.1285 5.57085 10.2126 5.33805C10.6782 4.11585 11.2861 3.30105 12.1332 2.77725C12.2561 2.70611 12.3789 2.66085 12.3983 2.68671C12.4242 2.71258 12.5083 2.98418 12.5859 3.29458ZM11.8745 10.0716C12.4242 10.1622 12.9092 10.3238 12.9092 10.4208C12.9092 10.492 11.9521 13.3114 11.9133 13.3502C11.9004 13.3632 11.7064 13.2985 11.4801 13.2144C10.911 13.001 10.1544 12.8911 9.59827 12.9364C8.64767 13.014 8.12387 13.4731 8.12387 14.2232C8.12387 14.7212 8.31141 14.954 9.39134 15.7752C10.7946 16.8487 11.2925 17.4307 11.6288 18.4072C11.8163 18.9504 11.8293 20.082 11.6611 20.7416C11.2537 22.3001 10.1156 23.4124 8.6994 23.6516C8.12387 23.7486 7.10214 23.7034 6.50721 23.5546C5.86701 23.393 4.85174 22.8692 4.39907 22.4747L4.01107 22.1255L4.32794 21.0197L4.65127 19.9139L5.20094 20.276C5.94461 20.761 6.55247 20.9938 7.07627 21.0003C7.81347 21.0003 8.18854 20.7028 8.24027 20.0562C8.30494 19.2802 8.08507 18.918 7.01807 18.0256C5.64067 16.8616 5.27854 16.202 5.27854 14.8828C5.27854 12.9428 6.44901 11.2098 8.24027 10.4855C9.24907 10.0781 10.7946 9.90351 11.8745 10.0716Z" fill="white"/>
    <path d="M84.7224 6.0362C83.248 6.35953 81.9611 7.48473 81.3274 9.01087C81.1204 9.50233 80.7454 10.8668 80.7454 11.1125C80.7454 11.2225 80.6742 11.2354 79.9564 11.2483L79.161 11.2677L78.9218 12.4964C78.7924 13.1689 78.6825 13.7768 78.6825 13.835C78.676 13.932 78.7666 13.9514 79.4391 13.9643L80.2022 13.9837L79.3421 18.4781C78.8765 20.9483 78.4885 23.0241 78.4885 23.0823C78.482 23.1923 78.6049 23.1987 80.1569 23.1987C81.7024 23.1987 81.8382 23.1923 81.8706 23.0823C81.9029 22.9659 83.5907 14.0613 83.5907 13.9902C83.5907 13.9708 84.1016 13.9514 84.7224 13.9514C85.3432 13.9514 85.854 13.9449 85.854 13.932C85.854 13.9191 85.9575 13.4017 86.0804 12.7874C86.2032 12.1731 86.3067 11.5975 86.3067 11.5135V11.3647H85.175C83.8817 11.3647 83.9852 11.4294 84.1339 10.7181C84.2632 10.0973 84.5219 9.6058 84.9099 9.24366C85.4014 8.77806 85.9704 8.66166 86.7464 8.8686C86.934 8.91387 87.0956 8.93326 87.1086 8.91387C87.1474 8.85567 87.794 6.34013 87.794 6.26253C87.794 6.00386 85.6212 5.83573 84.7224 6.0362Z" fill="white"/>
    <path d="M38.6266 14.6108C37.7471 19.2474 37.0229 23.0757 37.0293 23.1145C37.0293 23.1791 37.4109 23.1985 38.7107 23.1985C39.6354 23.1985 40.392 23.1856 40.392 23.1727C40.392 22.9851 41.5883 16.8353 41.6918 16.5055C42.0151 15.4385 42.72 14.4491 43.3796 14.1193C43.8064 13.9059 44.3367 13.893 44.6471 14.0805C44.9963 14.2939 45.0803 14.572 45.0674 15.4709C45.0609 16.1628 44.9898 16.6025 44.4078 19.6289C44.0457 21.4913 43.7547 23.0692 43.7547 23.1403C43.7547 23.2567 43.8193 23.2632 45.436 23.2632C46.3607 23.2632 47.1173 23.2503 47.1173 23.2373C47.1173 23.2179 47.3954 21.7112 47.7381 19.8876C48.0744 18.064 48.3977 16.2339 48.4495 15.8265C48.5659 14.863 48.5659 13.6473 48.443 13.117C48.249 12.2893 47.7769 11.6814 47.0979 11.3581C45.8175 10.7631 44.0521 11.1382 42.8364 12.2569C42.4096 12.6579 42.3837 12.6708 42.4225 12.4962C42.4419 12.3863 42.7071 11.0089 43.011 9.42452C43.3149 7.84018 43.5736 6.46925 43.5995 6.36579L43.6383 6.19118H41.9311H40.2303L38.6266 14.6108Z" fill="white"/>
    <path d="M76.3605 6.50823C75.8885 6.6699 75.5716 6.9415 75.3323 7.4071C74.6857 8.65516 75.2806 10.0067 76.5351 10.1166C77.2723 10.1878 77.9966 9.82563 78.3781 9.20483C78.5527 8.92676 78.5786 8.8233 78.598 8.25423C78.6239 7.70456 78.6045 7.5817 78.4881 7.3295C78.2941 6.93503 77.9125 6.60523 77.5051 6.48883C77.0654 6.35303 76.7873 6.3595 76.3605 6.50823Z" fill="white"/>
    <path d="M55.2593 11.1123C54.548 11.1834 54.0242 11.3322 53.3323 11.662C52.5498 12.0306 52.0519 12.3927 51.444 13.0264C50.1765 14.3521 49.504 15.917 49.3165 17.9928C49.1031 20.2368 49.9243 22.028 51.541 22.8364C52.2717 23.205 52.8925 23.3408 53.8755 23.3408C55.4727 23.3472 56.7208 22.8752 57.9624 21.7952C58.6996 21.155 59.4885 19.9716 59.8959 18.8852C60.3615 17.6501 60.562 15.7877 60.3486 14.656C59.9541 12.5802 58.5897 11.3322 56.4686 11.1058C56.1453 11.0735 55.8543 11.0476 55.8155 11.0541C55.7831 11.0541 55.5309 11.08 55.2593 11.1123ZM56.0612 13.8412C56.3716 13.977 56.7337 14.4103 56.8437 14.7983C56.973 15.2251 56.9795 16.124 56.8566 16.8676C56.5591 18.6912 55.7831 20.1656 54.9037 20.5536C54.354 20.7994 53.5845 20.6894 53.2547 20.3144C52.9637 19.9781 52.7438 19.2538 52.7438 18.6136C52.7438 17.7083 53.1059 16.2468 53.5521 15.3415C54.0889 14.2616 54.6903 13.7572 55.4469 13.7572C55.6667 13.7572 55.9448 13.796 56.0612 13.8412Z" fill="white"/>
    <path d="M68.36 11.1059C67.487 11.2223 66.5235 11.7461 65.8251 12.4833L65.4177 12.9037L65.45 12.6709C65.4953 12.354 65.6117 11.3517 65.6117 11.287C65.6117 11.2547 64.9456 11.2353 64.1308 11.2353C62.5012 11.2353 62.5723 11.2159 62.5723 11.6427C62.5723 12.0436 62.2425 14.0741 61.861 16.0206C61.5118 17.8183 60.2831 24.188 59.7981 26.7165C59.6882 27.2855 59.5977 27.7705 59.5977 27.8029C59.5977 27.8481 62.9539 27.8869 62.9668 27.8352C62.9668 27.8287 63.1608 26.7423 63.4001 25.4296C63.7493 23.5478 63.8592 23.0369 63.9303 23.0499C63.9821 23.0499 64.2601 23.121 64.5447 23.1986C65.2625 23.3991 66.4588 23.3991 67.196 23.2051C68.5087 22.8559 69.6792 22.0281 70.6233 20.7736C71.0243 20.2433 71.7162 18.8271 71.9167 18.1352C72.6603 15.5097 72.3564 13.1171 71.1277 11.9401C70.4229 11.2611 69.4335 10.9637 68.36 11.1059ZM68.069 14.0741C68.5799 14.3393 68.8967 15.1541 68.8191 15.9947C68.7286 17.0165 68.2953 18.3615 67.7845 19.241C67.4611 19.7842 66.9244 20.3533 66.5041 20.5796C66.2066 20.7477 66.0967 20.7736 65.644 20.7736C65.2172 20.7736 65.062 20.7413 64.7581 20.599C64.4929 20.4761 64.383 20.3856 64.383 20.3015C64.383 20.0881 64.9521 17.1393 65.0943 16.6155C65.3983 15.4968 66.1031 14.4621 66.7886 14.1194C67.2025 13.9125 67.7327 13.8931 68.069 14.0741Z" fill="white"/>
    <path d="M33.3763 11.2353C32.4968 11.3711 31.7467 11.675 31.0418 12.1794C29.5157 13.2593 29.0501 15.5291 30.0654 16.9065C30.4598 17.4303 30.8284 17.7537 31.6756 18.3033C32.5227 18.853 32.859 19.1699 32.9624 19.5191C33.1112 20.0105 32.859 20.5149 32.3416 20.7477C31.7726 21.0064 30.3952 20.8512 29.2764 20.3921C29.0501 20.3015 28.8561 20.2304 28.8496 20.2433C28.8432 20.2498 28.6686 20.7671 28.4616 21.3879C28.2547 22.0087 28.0736 22.5519 28.0607 22.5972C28.0219 22.7007 28.5263 22.9464 29.173 23.1533C30.6668 23.6189 32.7296 23.5349 34.0294 22.9399C35.5556 22.248 36.3768 21.0064 36.3833 19.3768C36.3833 18.0059 35.6978 17.0165 34.107 16.0788C33.7837 15.8913 33.3698 15.6003 33.1952 15.4386C32.8913 15.1605 32.8719 15.1153 32.8396 14.7725C32.8137 14.4169 32.8202 14.3975 33.0594 14.1517C33.2082 14.0095 33.428 13.8672 33.5703 13.8284C34.1652 13.6667 35.3551 13.7896 36.0535 14.0935C36.2087 14.1582 36.3574 14.1905 36.3833 14.1647C36.4868 14.0547 37.1722 11.8755 37.1334 11.7785C36.9847 11.384 34.6308 11.0413 33.3763 11.2353Z" fill="white"/>
    <path d="M74.5773 11.4747C74.5385 11.604 72.3398 23.0888 72.3398 23.16C72.3398 23.1794 73.1029 23.1923 74.0341 23.1858L75.7284 23.1664L76.8471 17.3464C77.4614 14.1454 77.9658 11.4876 77.9658 11.4424C77.9658 11.3842 77.5908 11.3648 76.291 11.3648C74.7454 11.3648 74.6096 11.3712 74.5773 11.4747Z" fill="white"/>
    <path d="M86.8559 11.5069C87.024 12.2441 88.7829 22.1252 88.7765 22.3127C88.7635 22.8301 87.9035 23.9165 86.9593 24.6149C86.5584 24.9123 85.7242 25.3585 85.2651 25.5202C85.1487 25.559 85.0775 25.6237 85.0969 25.6689C85.1099 25.7142 85.2974 26.3156 85.5043 27.0011L85.8859 28.2427H86.4549C87.0951 28.2427 87.2827 28.1715 88.2139 27.5701C89.5007 26.7295 90.6389 25.4232 91.8934 23.3474C92.4043 22.4938 93.2579 20.8577 93.7429 19.8037C93.8593 19.5515 94.0274 19.1893 94.1115 18.9953C94.202 18.8013 94.9586 17.1588 95.7863 15.3546C97.1185 12.4705 97.2995 12.0307 97.2995 11.7527V11.4293H96.6011C96.2131 11.4293 95.5083 11.4099 95.0297 11.3905L94.1632 11.3453L93.4389 13.2141C92.6823 15.1671 91.5183 18.2517 91.3114 18.866L91.195 19.2217L90.9881 17.1847C90.8781 16.0659 90.7035 14.2941 90.6065 13.2529L90.4255 11.3647H88.6213H86.8235L86.8559 11.5069Z" fill="white"/>
  </g>
  <defs>
    <clipPath id="clip0_70_2100">
      <rect width="97" height="27.6127" fill="white" transform="translate(0.298828 0.630371)"/>
    </clipPath>
  </defs>
</svg>