<svg width="32" height="32" viewBox="0 0 32 32" fill="none" xmlns="http://www.w3.org/2000/svg">
<g clip-path="url(#clip0_119_194)">
<path d="M28 0H4C1.79086 0 0 1.79086 0 4V28C0 30.2091 1.79086 32 4 32H28C30.2091 32 32 30.2091 32 28V4C32 1.79086 30.2091 0 28 0Z" fill="#06644E"/>
<g clip-path="url(#clip1_119_194)">
<g clip-path="url(#clip2_119_194)">
<path d="M13.2741 10.6404C13.0744 10.6157 13.0649 10.6074 13.16 10.5991C13.3406 10.5744 13.7589 10.6074 14.0536 10.6652C14.7381 10.8055 15.3561 11.1688 16.0121 11.8045L16.1832 11.9779L16.4304 11.9449C17.4856 11.7963 18.5694 11.9118 19.4725 12.2751C19.7197 12.3742 20.1095 12.5723 20.157 12.6218C20.176 12.6384 20.2046 12.7457 20.2236 12.853C20.2901 13.241 20.2616 13.53 20.119 13.7529C20.0429 13.8767 20.0429 13.9098 20.0905 14.0171C20.1285 14.0997 20.2426 14.1574 20.3472 14.1574C20.5753 14.1574 20.813 13.8437 20.9271 13.4062L20.9746 13.2328L21.0602 13.3153C21.545 13.7859 21.9253 14.4381 21.9823 14.9005L22.0014 15.0243L21.9158 14.917C21.7732 14.7271 21.6401 14.6033 21.4595 14.4959C21.1362 14.3061 20.794 14.2483 19.8908 14.207C19.0733 14.1657 18.6074 14.1079 18.1511 13.9758C17.3715 13.7529 16.9722 13.4639 16.0501 12.3989C15.6413 11.9283 15.3846 11.6724 15.1279 11.4578C14.567 10.9872 14.0061 10.7395 13.2741 10.6404Z" fill="#F1F7F6"/>
<path d="M20.3562 11.6892C20.3753 11.3755 20.4228 11.1691 20.5274 10.9792C20.5654 10.9049 20.6034 10.8389 20.6129 10.8389C20.6224 10.8389 20.6034 10.8967 20.5749 10.9627C20.4988 11.1443 20.4893 11.4003 20.5369 11.6892C20.6034 12.0607 20.6319 12.1103 21.0883 12.5148C21.2974 12.7047 21.5446 12.9441 21.6397 13.0432L21.8013 13.2248L21.6397 13.0927C21.44 12.9276 20.9837 12.6139 20.8791 12.5726C20.8126 12.5396 20.8031 12.5396 20.7555 12.5809C20.7175 12.6139 20.708 12.6634 20.708 12.9029C20.6985 13.2744 20.6414 13.5055 20.4988 13.745C20.4228 13.8688 20.4133 13.844 20.4798 13.7037C20.5274 13.5963 20.5369 13.5468 20.5369 13.1918C20.5369 12.4735 20.4418 12.3002 19.8619 12.0112C19.7193 11.9369 19.4721 11.8296 19.3295 11.7718C19.1774 11.714 19.0633 11.6645 19.0728 11.6645C19.0918 11.6479 19.6527 11.7883 19.8714 11.8709C20.2041 11.9864 20.2612 11.9947 20.2992 11.9864C20.3277 11.9617 20.3467 11.8956 20.3562 11.6892Z" fill="#F1F7F6"/>
<path d="M13.6635 12.9191C13.2642 12.4403 13.0075 11.6972 13.0646 11.1441L13.0836 10.9707L13.1786 10.9872C13.3498 11.012 13.6445 11.1111 13.7871 11.1854C14.1673 11.3835 14.3385 11.6559 14.5001 12.3329C14.5476 12.5311 14.6142 12.7622 14.6427 12.8365C14.6902 12.9604 14.8709 13.2493 15.023 13.431C15.1275 13.5631 15.061 13.6291 14.8233 13.6126C14.4621 13.5796 13.9772 13.2906 13.6635 12.9191Z" fill="#F1F7F6"/>
<path d="M19.872 16.5106C17.9897 15.8501 17.3242 15.2805 17.3242 14.3145C17.3242 14.1742 17.3337 14.0586 17.3337 14.0586C17.3432 14.0586 17.4098 14.1081 17.4953 14.1659C17.8756 14.4301 18.3034 14.5457 19.4918 14.6943C20.1858 14.7851 20.5851 14.8512 20.9463 14.9585C22.0966 15.2887 22.8097 15.9657 22.9808 16.8821C23.0283 17.1463 22.9998 17.6499 22.9237 17.9141C22.8572 18.1205 22.6671 18.5003 22.6195 18.5085C22.61 18.5085 22.591 18.4673 22.591 18.4012C22.572 18.0545 22.3723 17.7242 22.0396 17.4683C21.6403 17.1711 21.127 16.9482 19.872 16.5106Z" fill="#F1F7F6"/>
<path d="M18.5413 16.7831C18.5223 16.6592 18.4747 16.5024 18.4462 16.4363L18.3987 16.3125L18.4842 16.4033C18.6078 16.5272 18.7029 16.6758 18.7885 16.8822C18.855 17.039 18.855 17.0886 18.855 17.3445C18.855 17.5922 18.8455 17.65 18.7885 17.7903C18.6934 18.0132 18.5793 18.1701 18.3892 18.3435C18.0469 18.6489 17.6001 18.814 16.9631 18.8884C16.8491 18.8966 16.5258 18.9214 16.2406 18.9379C15.5276 18.9709 15.0523 19.037 14.6245 19.1691C14.5674 19.1856 14.5104 19.2021 14.5009 19.1938C14.4819 19.1773 14.7766 19.0287 15.0142 18.9296C15.347 18.7893 15.6892 18.715 16.4403 18.5994C16.811 18.5499 17.1913 18.4838 17.2864 18.4508C18.2276 18.1949 18.6934 17.5591 18.5413 16.7831Z" fill="#F1F7F6"/>
<path d="M19.407 18.1124C19.1598 17.6418 19.1028 17.196 19.2359 16.7749C19.2549 16.7337 19.2739 16.6924 19.2929 16.6924C19.3119 16.6924 19.369 16.7172 19.426 16.7502C19.5401 16.8162 19.7778 16.9318 20.3862 17.2208C21.1563 17.584 21.5936 17.8647 21.8978 18.1867C22.164 18.4674 22.3256 18.7894 22.4017 19.1857C22.4492 19.4086 22.4207 19.9452 22.3541 20.1681C22.145 20.8699 21.6696 21.4313 20.9756 21.7533C20.8711 21.8028 20.7855 21.8358 20.776 21.8358C20.7665 21.8358 20.8045 21.7533 20.8616 21.6542C21.0897 21.2331 21.1182 20.8286 20.9471 20.3745C20.8425 20.0938 20.6239 19.7553 20.1866 19.1857C19.6637 18.5252 19.5401 18.3518 19.407 18.1124Z" fill="#F1F7F6"/>
<path d="M12.3246 20.6391C13.0281 20.1273 13.8933 19.764 14.6918 19.6484C15.0341 19.5989 15.6045 19.6154 15.9182 19.6897C16.4221 19.8053 16.8784 20.053 17.1161 20.3584C17.3443 20.6557 17.4488 20.9116 17.5534 21.4812C17.5914 21.7042 17.639 21.9353 17.6485 21.9849C17.7245 22.2821 17.8766 22.5132 18.0668 22.6371C18.3615 22.827 18.8749 22.8352 19.3787 22.6701C19.4643 22.6453 19.5403 22.6206 19.5403 22.6288C19.5593 22.6453 19.3027 22.7939 19.1315 22.8682C18.8939 22.9756 18.7037 23.0086 18.447 23.0086C17.9907 23.0086 17.6009 22.8022 17.2872 22.3894C17.2207 22.3068 17.0876 22.0674 16.9735 21.8445C16.6407 21.1758 16.4696 20.9776 16.0798 20.7547C15.7376 20.5648 15.3003 20.5236 14.9675 20.6639C14.5302 20.8455 14.4161 21.3326 14.7204 21.6299C14.844 21.7537 15.0721 21.8528 15.2623 21.8775C15.614 21.9188 15.9182 21.6794 15.9182 21.3739C15.9182 21.1758 15.8327 21.0602 15.6045 20.9694C15.3003 20.8538 14.9675 20.9859 14.9771 21.2418C14.9771 21.3492 15.0341 21.4152 15.1577 21.4647C15.2337 21.4978 15.2337 21.4978 15.1767 21.4895C14.901 21.44 14.8344 21.1428 15.0531 20.9529C15.3193 20.7217 15.8802 20.8208 16.0703 21.1428C16.1464 21.2749 16.1559 21.539 16.0893 21.7042C15.9277 22.0674 15.4714 22.2573 15.0056 22.15C14.6918 22.0757 14.5587 22.0014 14.1785 21.6629C13.513 21.0685 13.2563 20.9529 12.3056 20.829L12.125 20.8043L12.3246 20.6391Z" fill="#F1F7F6"/>
<path fill-rule="evenodd" clip-rule="evenodd" d="M7.32366 7.35501C9.53875 9.69143 12.9517 13.324 13.1228 13.5222C13.2654 13.6873 13.2084 13.8442 12.9707 13.9598C12.8376 14.0258 12.5619 14.0918 12.4288 14.0918C12.2767 14.0918 12.0961 14.0258 11.9725 13.9185C11.8869 13.8442 11.5162 13.3736 10.6796 12.2425C10.0426 11.3756 9.50072 10.6574 9.49121 10.6491C9.45319 10.6326 9.45319 10.6326 10.613 12.4324C11.345 13.5635 11.5827 13.968 11.5827 14.0175C11.5827 14.1249 11.5447 14.1827 11.3926 14.3313C11.1359 14.5789 11.0218 14.8596 10.9363 15.4458C10.8412 16.098 10.5845 16.5604 9.85247 17.3447C9.42467 17.807 9.35812 17.8896 9.25354 18.0795C9.12045 18.3106 9.08242 18.4427 9.06341 18.7399C9.04439 19.0537 9.08242 19.2518 9.18699 19.549C9.28206 19.8132 9.38664 19.9866 9.64332 20.3251C9.86198 20.6223 9.99508 20.8452 9.99508 20.9278C9.99508 20.9938 10.0141 20.9938 10.3563 20.9278C11.1739 20.7626 11.8489 20.4819 12.2197 20.1352C12.4478 19.9205 12.5049 19.805 12.5049 19.5077C12.5049 19.3179 12.4954 19.2766 12.4383 19.161C12.3433 18.9794 12.1626 18.8308 11.7729 18.5996C11.2595 18.2941 11.0408 18.0464 10.9838 17.7162C10.9363 17.4355 10.9933 17.2456 11.2785 16.7255C11.5732 16.1889 11.6493 15.9659 11.6968 15.4211C11.7253 15.0743 11.7729 14.934 11.8869 14.8266C12.0105 14.711 12.1151 14.6698 12.4098 14.6367C12.8947 14.5789 13.2084 14.4716 13.4556 14.2652C13.6742 14.0918 13.7693 13.9185 13.7788 13.6625L13.7883 13.4727L13.6647 13.3571C13.2179 12.9112 7.02894 7 7.00042 7C6.99092 7 7.14303 7.15686 7.32366 7.35501ZM10.2423 19.0949C10.3468 18.9381 10.2898 18.7399 10.1187 18.6409C9.95705 18.5501 9.70987 18.5913 9.70987 18.7152C9.70987 18.7482 9.72888 18.7812 9.78592 18.7977C9.87149 18.839 9.88099 18.8803 9.81445 18.9711C9.7479 19.0619 9.7479 19.1445 9.83346 19.2023C9.96655 19.2931 10.1472 19.2436 10.2423 19.0949Z" fill="#F1F7F6"/>
<path fill-rule="evenodd" clip-rule="evenodd" d="M14.0913 14.7526C13.8632 14.8104 13.6445 15.025 13.578 15.2397C13.5399 15.3718 13.559 15.6112 13.6255 15.6855C13.7301 15.8011 13.8252 15.8341 14.0913 15.8341C14.6142 15.8341 15.061 15.636 15.1086 15.3966C15.1561 15.1984 14.9565 14.926 14.6808 14.8021C14.5382 14.7361 14.2435 14.7113 14.0913 14.7526ZM14.6998 15.1654C14.7758 15.0663 14.7473 14.959 14.6047 14.8847C14.348 14.7443 13.9582 14.8599 13.9582 15.0746C13.9582 15.1819 14.1579 15.2975 14.348 15.2975C14.4716 15.2975 14.6427 15.2314 14.6998 15.1654Z" fill="#F1F7F6"/>
</g>
</g>
</g>
<defs>
<clipPath id="clip0_119_194">
<rect width="32" height="32" fill="white"/>
</clipPath>
<clipPath id="clip1_119_194">
<rect width="16" height="16" fill="white" transform="translate(7 7)"/>
</clipPath>
<clipPath id="clip2_119_194">
<rect width="16" height="16" fill="white" transform="translate(7 7)"/>
</clipPath>
</defs>
</svg>
