<svg xmlns="http://www.w3.org/2000/svg" width="145" height="30" viewBox="0 0 145 30" fill="none">
  <path d="M10.3427 1.37122C7.66493 2.24062 4.5351 4.60538 2.86586 7.03969C0.84886 9.99563 0.222894 12.3604 0.396774 16.1857C0.535877 18.8287 0.709756 19.559 1.82258 21.8194C6.30867 30.9307 18.3759 32.739 25.3311 25.3666C32.1819 18.1332 30.1649 6.7267 21.2971 2.34495C18.8975 1.16257 18.3759 1.02346 15.3156 0.953913C13.0552 0.884361 11.4555 1.02346 10.3427 1.37122ZM20.5668 2.69271C24.7746 4.74448 27.6263 8.4655 28.5304 13.1255C29.3651 17.1942 27.8349 21.7846 24.6008 25.0536C17.8195 32.0087 6.5521 29.9917 2.17034 21.0891C1.30095 19.3156 1.19662 18.7591 1.19662 15.4554C1.19662 12.2213 1.30095 11.5953 2.13557 9.78698C3.90913 5.99641 5.96091 4.04896 9.96013 2.37972C11.6989 1.64943 12.3944 1.5451 15.2808 1.61465C18.0629 1.71898 18.9323 1.89286 20.5668 2.69271Z" fill="white"/>
  <path d="M10.377 4.08421C8.18614 5.02316 6.20391 6.41419 5.40407 7.63135L4.84766 8.46597L7.03853 8.5703C9.09031 8.67462 9.89015 9.23104 8.32524 9.47447C7.94271 9.54402 7.62972 9.78745 7.62972 9.99611C7.62972 10.6221 11.5942 22.0633 11.8376 22.0633C11.9419 22.0633 12.5331 20.4289 13.1939 18.4466L14.3415 14.8299L13.4025 12.187C12.5679 9.89178 12.3245 9.54402 11.5942 9.54402C11.0725 9.54402 10.7596 9.33536 10.7596 9.02238C10.7596 8.60507 11.4203 8.50074 14.5849 8.50074C17.7495 8.50074 18.4102 8.60507 18.4102 9.02238C18.4102 9.33536 18.0625 9.54402 17.5061 9.54402C16.9149 9.54402 16.6714 9.7179 16.741 9.96133C16.8453 10.2048 17.819 13.1607 18.9319 16.4992L20.9489 22.585L21.7835 19.9768C22.2356 18.551 22.6877 16.4296 22.792 15.282C22.9659 13.4041 22.8963 12.9868 21.9226 11.2133C20.6011 8.74417 20.5663 7.73567 21.7835 6.79673C22.6529 6.06643 22.6877 6.03166 22.0269 5.5448C19.0362 3.28437 13.8198 2.62362 10.377 4.08421Z" fill="white"/>
  <path d="M25.7494 11.2824C25.7147 11.9779 24.7062 15.4555 23.489 19.0374C22.2371 22.6194 21.3677 25.5405 21.5068 25.5405C22.1675 25.5405 25.0887 21.9934 25.9233 20.1503C26.7232 18.4115 26.897 17.6116 26.897 15.2817C26.8623 13.5081 26.6536 12.0475 26.3059 11.2824L25.7842 10.0653L25.7494 11.2824Z" fill="white"/>
  <path d="M3.10734 12.1172C2.48137 14.3777 2.79436 18.3421 3.76808 20.3939C4.70703 22.3761 6.79358 24.7756 8.28894 25.645L9.36699 26.271L8.28894 23.3846C7.69775 21.7849 6.51537 18.5508 5.64598 16.1512C4.77658 13.7517 3.94196 11.4913 3.80286 11.1435C3.62898 10.6219 3.48987 10.8305 3.10734 12.1172Z" fill="white"/>
  <path d="M13.4385 21.4027C12.5691 23.9761 11.7692 26.2713 11.7344 26.5495C11.5258 27.5232 16.8813 27.871 18.3071 27.0016C18.6896 26.7582 17.8898 24.1847 15.3859 17.5773C15.1077 16.8818 14.8295 17.4035 13.4385 21.4027Z" fill="white"/>
  <path d="M32.3207 9.12715C33.503 9.68356 33.6074 9.96177 35.7635 16.2562C36.9806 19.8729 38.0935 22.6897 38.2326 22.5158C38.3717 22.3767 39.1715 20.1511 40.0061 17.6125C40.8408 15.1086 41.6058 13.022 41.7449 13.022C41.8493 13.022 42.6143 15.2129 43.4489 17.8907C44.2836 20.5684 45.0834 22.7593 45.2225 22.7593C45.3616 22.7593 46.4397 19.8729 47.622 16.3605C48.8044 12.8134 49.952 9.75311 50.2302 9.54446C50.5084 9.3358 51.1344 9.02282 51.6908 8.84894C52.3863 8.64028 51.7604 8.57073 49.5347 8.57073C47.8307 8.57073 46.7526 8.67506 47.17 8.74461C48.7696 9.05759 48.8044 9.61401 47.4134 13.8914C46.6831 16.0823 45.9876 17.8907 45.8833 17.8907C45.7789 17.8907 44.9791 15.7693 44.1445 13.1959C43.3098 10.6225 42.4404 8.53596 42.2666 8.60551C42.0927 8.67506 41.2233 10.7964 40.3887 13.335C39.554 15.8737 38.7194 17.8211 38.5803 17.6472C38.4412 17.5081 37.8153 15.6998 37.1893 13.648C35.9721 9.64878 36.0069 9.05759 37.6414 8.74461C38.0587 8.67506 36.772 8.57073 34.755 8.53596L31.1035 8.50118L32.3207 9.12715Z" fill="white"/>
  <path d="M90.2924 8.74422C91.8573 9.05721 92.1355 9.99615 92.1355 15.3864C92.1355 18.1685 91.9616 20.6723 91.7877 21.0549C91.5791 21.4374 91.0574 21.7156 90.5706 21.7156C90.0837 21.7156 89.7012 21.8547 89.7012 22.0634C89.7012 22.272 91.1618 22.4111 93.3526 22.4111C95.5435 22.4111 97.0041 22.272 97.0041 22.0634C97.0041 21.8547 96.6216 21.7156 96.1695 21.7156C94.9175 21.7156 94.4655 20.881 94.4307 18.4815L94.3959 16.3254L96.6563 16.1167C99.4036 15.908 100.69 15.1082 101.212 13.4042C101.525 12.3957 101.49 11.8741 101.073 10.9003C100.273 8.9181 98.9168 8.50079 93.8047 8.53557C91.4747 8.57034 89.8751 8.67467 90.2924 8.74422ZM98.3256 10.4482C99.2993 11.5263 99.2993 12.9869 98.3604 14.204C97.7692 14.9691 97.3866 15.1082 95.926 15.1082H94.222V12.3957C94.222 10.9003 94.3264 9.54407 94.5002 9.40497C95.0219 8.88333 97.5257 9.54407 98.3256 10.4482Z" fill="white"/>
  <path d="M54.2307 11.8392C51.866 12.8477 50.6836 14.5865 50.6836 17.0208C50.6836 19.003 51.5182 20.4636 53.257 21.646C54.4742 22.4459 55.0654 22.585 57.0128 22.585C58.9602 22.585 59.5514 22.4459 60.7686 21.646C61.5684 21.0896 62.4726 20.1854 62.7856 19.5942C63.8289 17.5077 63.342 14.4822 61.638 12.9521C59.8644 11.3524 56.5259 10.8307 54.2307 11.8392ZM59.3776 12.8825C61.2555 14.0997 61.7423 18.238 60.247 20.255C59.2385 21.6112 57.3606 22.1677 55.7261 21.6112C53.1527 20.7766 52.0399 16.3949 53.7091 13.8214C54.8915 12.0479 57.4649 11.6306 59.3776 12.8825Z" fill="white"/>
  <path d="M127.573 12.291C125.73 14.1689 126.53 15.9424 130.042 17.716C131.816 18.6202 132.511 19.1766 132.685 19.8026C132.998 21.0545 132.302 21.7152 130.668 21.7152C129.625 21.7152 129.068 21.4718 128.268 20.7067C127.712 20.1503 127.26 19.42 127.26 19.1418C127.26 18.8288 127.121 18.5854 126.912 18.5854C126.704 18.5854 126.564 19.5243 126.564 20.6719C126.564 22.6542 126.947 23.3845 127.399 22.2369C127.573 21.75 127.712 21.75 128.616 22.2369C131.329 23.6279 134.563 22.0282 134.563 19.3157C134.563 18.2376 133.207 16.8814 131.12 15.8033C128.095 14.308 127.538 13.1604 129.451 12.291C130.598 11.7693 132.094 12.4301 132.581 13.7168C133.172 15.2469 133.52 14.9687 133.52 12.9865C133.52 11.4563 133.45 11.2477 133.033 11.5955C132.65 11.9084 132.337 11.9084 131.816 11.665C130.494 10.9347 128.686 11.2129 127.573 12.291Z" fill="white"/>
  <path d="M138.211 11.7001C136.542 12.6043 136.16 14.3779 137.342 15.8732C137.725 16.3601 138.872 17.1599 139.915 17.6468C141.585 18.4466 142.906 19.6638 142.906 20.3941C142.906 21.0201 141.689 21.7156 140.507 21.7156C139.533 21.7156 138.942 21.4721 138.246 20.8114C137.759 20.2898 137.342 19.6638 137.342 19.4204C137.342 19.1769 137.203 18.864 136.994 18.7596C136.786 18.6205 136.646 19.3508 136.646 20.7419C136.681 22.6197 136.716 22.8632 137.133 22.3415C137.551 21.7504 137.655 21.7504 138.698 22.272C141.237 23.5239 144.297 21.9938 144.297 19.4899C144.297 17.925 143.741 17.299 140.959 15.8385C138.976 14.7952 138.524 14.4126 138.455 13.6476C138.351 12.8825 138.524 12.6043 139.22 12.2565C140.402 11.7349 141.689 12.2913 142.489 13.7171C143.323 15.1777 143.602 15.0038 143.602 13.0216C143.602 11.4567 143.15 10.6916 142.837 11.6654C142.767 11.9088 142.419 11.9088 141.759 11.6654C140.507 11.1785 139.116 11.2133 138.211 11.7001Z" fill="white"/>
  <path d="M64.8363 12.0134C66.1925 12.8133 66.4012 13.4045 66.4012 16.9516C66.4012 20.4292 66.0882 21.7159 65.184 21.7159C64.9406 21.7159 64.5929 21.855 64.4885 22.0636C64.3494 22.2723 65.4275 22.4114 67.514 22.3766C70.2265 22.3766 70.6091 22.3071 69.8788 21.9593C69.3919 21.7507 68.9051 21.4029 68.766 21.1943C68.3834 20.6726 68.4182 17.8905 68.8007 17.8905C68.9746 17.8905 69.9483 18.9338 70.9568 20.1858L72.7652 22.481L78.7118 22.3419C85.354 22.2375 86.7798 21.855 87.997 19.838C88.8664 18.3774 88.8664 15.6301 87.9622 14.1695C86.8146 12.2569 85.5627 11.8395 80.6593 11.7004L76.3123 11.5961L77.4599 12.2916L78.5727 13.0219V17.0211C78.5727 20.8465 78.538 21.0204 77.7381 21.542C76.521 22.3419 75.2343 21.8898 73.1129 19.8728C71.235 18.0992 70.9221 17.5428 71.7567 17.5428C72.0001 17.5428 72.6261 17.195 73.1477 16.8125C73.9476 16.1865 74.0867 15.8388 73.9823 14.6564C73.8085 12.3612 72.7652 11.8395 68.0357 11.7004C64.9754 11.6309 64.2799 11.7004 64.8363 12.0134ZM71.5132 13.2654C72.1392 14.0652 72.0697 15.6301 71.4089 16.2909C71.1307 16.6038 70.3309 16.8473 69.6701 16.8473H68.4877V14.5521V12.2221L69.7745 12.4307C70.5047 12.5698 71.3046 12.9176 71.5132 13.2654ZM85.1106 13.4392C86.8842 15.1085 86.8146 19.0381 84.9715 20.6031C84.2412 21.229 83.7196 21.3681 82.4329 21.2986L80.8332 21.1943L80.7288 16.7082L80.6245 12.2221L82.4676 12.4655C83.6152 12.6394 84.6237 12.9872 85.1106 13.4392Z" fill="white"/>
  <path d="M103.125 12.1175C104.376 12.6739 104.689 13.6476 104.62 17.16C104.55 20.568 104.307 21.3679 103.09 21.8895C102.151 22.3068 102.359 22.3416 105.524 22.3416C108.828 22.3416 108.932 22.3416 107.889 21.8547C106.811 21.4026 106.741 21.2635 106.741 19.6291C106.741 18.6553 106.88 17.8903 107.019 17.8903C107.193 17.8903 108.132 18.8988 109.106 20.1507L110.949 22.4111H117.487H124.06L124.303 21.1592C124.581 19.5595 124.373 19.3509 123.642 20.4985C123.121 21.2635 122.842 21.3679 120.999 21.3679C119.052 21.3679 118.878 21.2983 118.565 20.4637C118.356 19.9768 118.217 19.0379 118.217 18.3771C118.217 17.2643 118.287 17.1948 119.434 17.1948C120.373 17.1948 120.721 17.4034 121.138 18.1337C121.66 19.0727 121.66 19.0379 121.66 16.6731C121.695 14.4822 121.625 14.3431 121.243 15.1082C120.93 15.7689 120.478 16.0124 119.504 16.0819L118.182 16.1863L118.287 14.3431C118.391 12.5696 118.426 12.5 119.434 12.3957C121.034 12.187 122.982 12.9173 123.26 13.8215C123.468 14.4822 123.538 14.517 123.677 13.9606C123.781 13.6128 123.747 12.9521 123.642 12.4652C123.434 11.6306 123.399 11.6306 118.635 11.6306C114.218 11.6654 113.94 11.7002 115.018 12.1523L116.131 12.6391V16.7427C116.131 19.0031 115.992 21.0201 115.853 21.2635C115.609 21.6808 114.983 21.8199 113.94 21.7504C113.349 21.7156 109.523 18.3771 109.523 17.925C109.523 17.8207 110.045 17.473 110.671 17.1948C112.862 16.1863 112.827 13.3694 110.567 12.2566C109.628 11.7697 108.515 11.6306 105.698 11.6306C102.325 11.6654 102.116 11.7002 103.125 12.1175ZM108.932 12.7087C109.906 13.2303 110.219 13.6824 110.219 14.7257C110.219 15.9776 109.245 16.847 107.889 16.847H106.741V14.5866C106.741 12.5348 106.811 12.3261 107.472 12.3261C107.854 12.3261 108.515 12.5 108.932 12.7087Z" fill="white"/>
</svg>