<svg xmlns="http://www.w3.org/2000/svg" width="16" height="16" viewBox="0 0 16 16" fill="none">
<path d="M0.151981 0.150715C1.06906 0.541325 1.06906 0.541325 1.06906 7.94592C1.06906 12.5144 1.00113 14.909 0.882252 15.1297C0.780353 15.3335 0.457676 15.5883 0.168964 15.7072C-0.30656 15.9279 0.0500833 15.9449 3.49764 15.9619C9.05109 15.9619 10.7154 15.5543 12.7534 13.6692C14.3158 12.2256 15.0121 10.4764 15.0461 7.97989C15.0631 6.43443 14.7744 5.14372 14.129 3.90396C13.2459 2.17169 12.142 1.23763 10.2059 0.541325C9.00014 0.116749 8.81332 0.0997658 4.38075 0.0488167C1.49364 0.0148506 -0.068798 0.0657997 0.151981 0.150715ZM9.25488 1.39048C11.5306 2.59627 12.6685 4.85501 12.6685 8.11576C12.6685 9.89897 12.5496 10.3405 12.2439 9.76311C11.8363 9.01586 10.8003 8.31955 8.06607 6.90996C6.50363 6.09477 4.94119 5.19467 4.60153 4.92295C3.80333 4.26061 3.46367 3.30956 3.76937 2.57929C4.55059 0.728138 6.99614 0.184681 9.25488 1.39048ZM4.07506 7.02884C4.5336 7.33454 5.90923 8.14972 7.16597 8.81206C10.4097 10.5613 10.9192 11.0199 10.9192 12.3275C10.9192 13.924 9.50963 14.9429 7.35278 14.9429C5.60353 14.9259 4.41472 14.4504 3.70143 13.4484L3.19194 12.7012L3.14099 9.5763C3.10703 7.86101 3.12401 6.45142 3.17496 6.45142C3.22591 6.45142 3.6335 6.70616 4.07506 7.02884Z" fill="#00DF81"/>
<path d="M14.3151 14.0604C13.8735 14.4171 13.8056 15.1983 14.1622 15.5379C14.6038 15.9625 15.0963 15.9795 15.5548 15.6059C16.1153 15.1813 16.1492 14.5699 15.6397 14.0944C15.1812 13.6698 14.8076 13.6698 14.3151 14.0604Z" fill="#00DF81"/>
</svg>