<svg xmlns="http://www.w3.org/2000/svg" width="18" height="19" viewBox="0 0 18 19" fill="none">
  <g clip-path="url(#clip0_74_5078)">
    <path fill-rule="evenodd" clip-rule="evenodd" d="M17.8444 9.83162C17.8444 14.6599 13.9302 18.5741 9.10188 18.5741C4.27354 18.5741 0.359375 14.6599 0.359375 9.83162C0.359375 5.00328 4.27354 1.08911 9.10188 1.08911C13.9302 1.08911 17.8444 5.00328 17.8444 9.83162ZM9.93966 7.14902C8.43774 7.79776 4.10714 9.64014 4.10714 9.64014C3.08083 10.0553 3.68157 10.4446 3.68157 10.4446C3.68157 10.4446 4.5577 10.7559 5.30869 10.9895C6.05965 11.223 6.46018 10.9635 6.46018 10.9635C6.46018 10.9635 8.21244 9.7699 9.98972 8.49837C11.2413 7.61611 10.941 8.34268 10.6406 8.65409C9.98972 9.32877 8.91334 10.3927 8.01216 11.249C7.61167 11.6123 7.81191 11.9236 7.98715 12.0793C8.49677 12.5264 9.69706 13.3393 10.242 13.7084C10.393 13.8107 10.4937 13.8789 10.5154 13.8958C10.6406 13.9996 11.3415 14.4667 11.767 14.3629C12.1926 14.2591 12.2426 13.6622 12.2426 13.6622C12.2426 13.6622 12.5681 11.5344 12.8685 9.58825C12.9241 9.20613 12.9797 8.83203 13.0316 8.48319C13.1665 7.57649 13.2759 6.84049 13.294 6.57813C13.3691 5.69587 12.4679 6.05914 12.4679 6.05914C12.4679 6.05914 10.5154 6.88954 9.93966 7.14902Z" fill="#BDC7C2"/>
  </g>
  <defs>
    <clipPath id="clip0_74_5078">
      <rect width="18" height="18" fill="white" transform="translate(0 0.729736)"/>
    </clipPath>
  </defs>
</svg>