<svg xmlns="http://www.w3.org/2000/svg" width="22" height="22" viewBox="0 0 22 22" fill="none">
  <path d="M0.207975 0.258884C1.46293 0.793404 1.46293 0.793404 1.46293 10.926C1.46293 17.1776 1.36997 20.4544 1.20729 20.7565C1.06785 21.0354 0.626293 21.384 0.231214 21.5467C-0.419504 21.8488 0.068535 21.872 4.78624 21.8953C12.3857 21.8953 14.6632 21.3375 17.452 18.7579C19.5901 16.7825 20.5429 14.3888 20.5894 10.9725C20.6126 8.85766 20.2176 7.09142 19.3344 5.39491C18.126 3.02444 16.6154 1.74624 13.966 0.793404C12.316 0.212404 12.0603 0.189165 5.99472 0.119444C2.04393 0.0729656 -0.0941446 0.142685 0.207975 0.258884ZM12.6646 1.9554C15.7787 3.60543 17.3358 6.69635 17.3358 11.1584C17.3358 13.5986 17.1731 14.2028 16.7548 13.4127C16.197 12.3901 14.7794 11.4373 11.0378 9.50838C8.89971 8.39286 6.76163 7.16115 6.29684 6.78931C5.20456 5.88295 4.73976 4.58151 5.15808 3.5822C6.22712 1.04904 9.57367 0.305365 12.6646 1.9554ZM5.5764 9.67106C6.20388 10.0894 8.08631 11.2049 9.80607 12.1113C14.2449 14.505 14.9421 15.1324 14.9421 16.9219C14.9421 19.1065 13.0132 20.5009 10.0617 20.5009C7.66799 20.4776 6.0412 19.8269 5.06512 18.4558L4.36792 17.4332L4.2982 13.157C4.25172 10.8098 4.27496 8.8809 4.34468 8.8809C4.4144 8.8809 4.97216 9.2295 5.5764 9.67106Z" fill="white"/>
  <path d="M19.5884 19.2926C18.9842 19.7806 18.8912 20.8497 19.3792 21.3145C19.9835 21.8955 20.6574 21.9187 21.2849 21.4074C22.0518 20.8264 22.0983 19.9898 21.4011 19.3391C20.7736 18.7581 20.2624 18.7581 19.5884 19.2926Z" fill="white"/>
</svg>