<svg xmlns="http://www.w3.org/2000/svg" width="15" height="14" viewBox="0 0 15 14" fill="none">
  <path d="M14.7754 7C14.7754 10.8633 11.6387 14 7.77539 14C3.91209 14 0.775391 10.8633 0.775391 7C0.775391 3.1367 3.91209 0 7.77539 0C11.6387 0 14.7754 3.1367 14.7754 7Z" fill="#00DF81"/>
  <path d="M4.9508 4.15885C5.30216 4.30026 5.30216 4.30026 5.30216 6.98087C5.30216 8.63473 5.27613 9.50162 5.23058 9.58155C5.19155 9.65533 5.06792 9.74755 4.95731 9.79059C4.77513 9.87052 4.91177 9.87666 6.23259 9.88281C8.36022 9.88281 8.99785 9.73526 9.77863 9.05281C10.3772 8.53021 10.644 7.89695 10.657 6.99316C10.6635 6.43368 10.5529 5.96642 10.3057 5.5176C9.96732 4.89048 9.5444 4.55233 8.80266 4.30026C8.3407 4.14655 8.26912 4.1404 6.57093 4.12196C5.46482 4.10966 4.86622 4.12811 4.9508 4.15885ZM8.43829 4.60767C9.31017 5.04419 9.7461 5.8619 9.7461 7.04235C9.7461 7.68791 9.70056 7.84776 9.58344 7.63872C9.42728 7.3682 9.03039 7.11613 7.98284 6.60583C7.38424 6.31071 6.78564 5.98486 6.65551 5.88649C6.3497 5.64671 6.21957 5.30241 6.33669 5.03804C6.63599 4.36789 7.57293 4.17114 8.43829 4.60767ZM6.45381 6.64886C6.62948 6.75953 7.15651 7.05465 7.63799 7.29442C8.88074 7.92769 9.07593 8.09369 9.07593 8.5671C9.07593 9.14503 8.53589 9.51392 7.70956 9.51392C7.03939 9.50777 6.58394 9.33562 6.31067 8.97288L6.11547 8.70236L6.09595 7.57109C6.08294 6.95013 6.08944 6.43983 6.10896 6.43983C6.12848 6.43983 6.28464 6.53205 6.45381 6.64886Z" fill="black"/>
</svg>