<svg xmlns="http://www.w3.org/2000/svg" width="148" height="31" viewBox="0 0 148 31" fill="none">
  <path d="M10.3435 5.26547L5.81191 9.7971L7.46437 11.4496C7.9279 11.9131 8.3673 12.3325 8.70262 12.6359C8.87035 12.7876 9.01166 12.91 9.11677 12.9943C9.1694 13.0365 9.21236 13.0687 9.24469 13.0901C9.26091 13.1009 9.27372 13.1084 9.28328 13.1132C9.28688 13.1149 9.28952 13.1161 9.29133 13.1168C9.29449 13.1152 9.29888 13.1128 9.30464 13.1091C9.31843 13.1005 9.3372 13.087 9.36103 13.0686C9.40853 13.0317 9.47349 12.9769 9.55414 12.9058C9.71529 12.7635 9.93731 12.5575 10.2041 12.3027C10.7376 11.7932 11.449 11.0897 12.2086 10.3142L12.2086 10.3141L14.9758 7.49894L15.0029 7.47143L15.0302 7.49871L17.8613 10.3299L20.6844 13.153L21.0405 12.8711C21.2334 12.6941 22.015 11.9284 22.7654 11.1621C22.7654 11.162 22.7655 11.162 22.7655 11.1619L24.083 9.78172L19.5667 5.26547C18.3111 4.00988 17.1636 2.8703 16.3239 2.04464C15.9041 1.63179 15.5613 1.29752 15.3205 1.0665C15.2001 0.950962 15.1054 0.861412 15.0394 0.800818C15.0063 0.770473 14.9807 0.747677 14.9629 0.732584C14.96 0.730206 14.9575 0.728062 14.9551 0.726142C14.9528 0.728062 14.9502 0.730206 14.9474 0.732584C14.9295 0.747677 14.904 0.770473 14.8709 0.800818C14.8049 0.861412 14.7101 0.950962 14.5897 1.0665C14.349 1.29752 14.0062 1.63179 13.5864 2.04464C12.7467 2.8703 11.5991 4.00988 10.3435 5.26547Z" fill="#F1F7F6" stroke="#F1F7F6" stroke-width="0.0765008"/>
  <path d="M118.415 11.5425L118.415 11.5427C117.508 13.3254 117.252 15.875 117.762 17.8659C119.035 22.736 124.305 25.2544 129.34 23.358L129.341 23.3579C129.8 23.1917 130.536 22.7544 131.179 22.3028C131.5 22.0774 131.797 21.8493 132.023 21.6511C132.136 21.5519 132.231 21.4607 132.302 21.3813C132.375 21.301 132.42 21.236 132.437 21.1892L132.437 21.1892L132.438 21.1869C132.442 21.1784 132.444 21.1636 132.44 21.1395C132.436 21.1156 132.426 21.0855 132.409 21.049C132.375 20.9761 132.316 20.8825 132.232 20.7695C132.064 20.5437 131.797 20.2453 131.438 19.8859C131.134 19.5823 130.847 19.3069 130.626 19.1075C130.515 19.0078 130.421 18.9275 130.351 18.8723C130.315 18.8447 130.286 18.8239 130.264 18.8102C130.253 18.8033 130.245 18.7987 130.238 18.7959C130.235 18.7945 130.233 18.7938 130.232 18.7936L130.231 18.7937C130.23 18.7939 130.228 18.7943 130.225 18.795C130.22 18.7964 130.214 18.7987 130.206 18.802C130.19 18.8088 130.17 18.8191 130.146 18.8331C130.097 18.861 130.035 18.9017 129.964 18.9524C129.821 19.0536 129.642 19.1928 129.458 19.3443C128.571 20.1022 127.267 20.5689 126.043 20.5689C125.417 20.5689 124.945 20.5168 124.522 20.3832C124.098 20.2495 123.726 20.0349 123.3 19.7135L123.3 19.7134C121.913 18.6652 121.189 16.9566 121.318 15.0896L121.318 15.0894C121.479 12.9231 122.764 11.4065 124.426 10.8115C126.088 10.2167 128.121 10.5442 129.779 12.0564C129.882 12.1436 129.98 12.2182 130.054 12.2647C130.091 12.2884 130.12 12.3034 130.139 12.3099C130.141 12.3106 130.143 12.3111 130.145 12.3116C130.194 12.259 130.728 11.6473 131.34 10.9404L131.341 10.9401L132.467 9.67307L131.792 9.07467C130.958 8.33602 129.764 7.77045 128.467 7.44159C127.169 7.11278 125.771 7.02136 124.529 7.2283C122.045 7.64237 119.465 9.45905 118.415 11.5425Z" fill="#F1F7F6" stroke="#F1F7F6" stroke-width="0.0765008"/>
  <path d="M86.5049 7.60441L86.505 7.60435C86.5368 7.5208 86.5642 7.46429 86.6097 7.42207C86.6547 7.38028 86.7217 7.34876 86.8402 7.32641C87.0796 7.28127 87.5068 7.27708 88.3247 7.27708H90.0266L90.3687 8.10125L90.3689 8.10166C90.4169 8.2136 90.5508 8.52744 90.7517 8.99822C90.9527 9.46908 91.2206 10.0969 91.5365 10.8368C92.1683 12.3163 92.9921 14.2437 93.8558 16.2591L86.5049 7.60441ZM86.5049 7.60441C86.3606 7.98118 84.7086 11.8771 83.0734 15.7114C82.2556 17.6288 81.4418 19.5313 80.8225 20.9714C80.5128 21.6915 80.2518 22.296 80.0631 22.729C79.9688 22.9455 79.8925 23.1192 79.8373 23.2431C79.7843 23.3621 79.7495 23.4379 79.7371 23.4598C79.7217 23.4928 79.7113 23.5188 79.7067 23.5399C79.7022 23.5608 79.7044 23.5723 79.7088 23.58C79.7134 23.5882 79.7244 23.5993 79.7528 23.6103C79.7811 23.6213 79.8226 23.6307 79.8818 23.6381C80.1203 23.6676 80.6042 23.6598 81.5258 23.6438C81.5259 23.6438 81.5259 23.6438 81.526 23.6438L83.4519 23.5964L84.1623 21.8124L84.1624 21.8123L84.8822 20.0208L84.8918 19.9968H84.9177H88.2927H91.6677H91.6935L91.7032 20.0208L92.423 21.8123L92.423 21.8124L93.1335 23.5964L95.0593 23.6438C95.0593 23.6438 95.0594 23.6438 95.0595 23.6438C95.5952 23.6518 96.0825 23.6558 96.4359 23.6518C96.6127 23.6498 96.7553 23.6458 96.8534 23.6394C96.9014 23.6362 96.9376 23.6326 96.9616 23.6285C96.9606 23.6259 96.9595 23.6231 96.9583 23.6201C96.9477 23.5933 96.9318 23.5541 96.9109 23.5031C96.8691 23.4013 96.8075 23.253 96.7282 23.0632C96.5695 22.6836 96.3401 22.1383 96.0572 21.4676C95.5309 20.2198 94.8196 18.5379 94.0342 16.6808L93.8559 16.2593L86.5049 7.60441ZM86.3212 16.5354L86.3212 16.5354L86.3215 16.5346C86.4977 16.0699 86.9778 14.9056 87.4177 13.862C87.6376 13.3401 87.8476 12.8481 88.0047 12.4885C88.0832 12.3087 88.1486 12.1618 88.1954 12.0608C88.2187 12.0104 88.2377 11.9709 88.2514 11.9443C88.2581 11.9313 88.2641 11.9204 88.269 11.9127C88.2712 11.9093 88.2744 11.9045 88.2783 11.9004C88.2798 11.8988 88.2843 11.8941 88.2913 11.8908C88.2951 11.889 88.3019 11.8865 88.3106 11.8871C88.3203 11.8877 88.3292 11.8919 88.3357 11.8984C88.3396 11.9023 88.342 11.9064 88.3424 11.907L88.3452 11.9119L88.3512 11.9239C88.3558 11.9334 88.362 11.9467 88.3697 11.9635C88.3851 11.9971 88.4067 12.0456 88.4337 12.1073C88.4877 12.2307 88.5638 12.4073 88.6558 12.6243C88.8398 13.0583 89.0878 13.6542 89.3517 14.3102C89.6237 14.9581 89.8677 15.554 90.0437 15.9941C90.1317 16.2141 90.2028 16.3953 90.2519 16.5245C90.2764 16.5891 90.2955 16.641 90.3086 16.6783C90.3151 16.697 90.3202 16.7123 90.3237 16.724C90.3255 16.7298 90.327 16.7351 90.3281 16.7397C90.3289 16.7431 90.3303 16.7496 90.3303 16.7561C90.3303 16.7739 90.3196 16.7851 90.314 16.7899C90.3079 16.7949 90.3012 16.7981 90.2962 16.8002C90.2858 16.8045 90.2726 16.8079 90.2583 16.8108C90.2292 16.8166 90.1877 16.822 90.136 16.8269C90.0322 16.8367 89.8829 16.8453 89.6997 16.8523C89.3332 16.8663 88.8288 16.8743 88.2767 16.8743C87.3507 16.8743 86.8431 16.8704 86.5796 16.8319C86.5134 16.8222 86.4605 16.8101 86.4195 16.7945C86.3786 16.7789 86.3466 16.7587 86.3254 16.7311C86.2813 16.6736 86.2975 16.6025 86.3212 16.5354Z" fill="#F1F7F6" stroke="#F1F7F6" stroke-width="0.0765008"/>
  <path d="M44.4768 10.72L44.4767 10.72C44.2974 10.6792 43.9227 10.6391 43.4671 10.6091C43.0104 10.5791 42.4698 10.5591 41.957 10.5591H40.0696H40.0313V10.5973V12.2928V13.9883V14.0277L40.0707 14.0266L42.278 13.9626C42.278 13.9626 42.278 13.9626 42.278 13.9626M44.4768 10.72L44.4683 10.7573C45.236 10.9332 45.8279 11.557 45.8279 12.2129C45.8279 13.5085 45.1401 13.8444 42.2769 13.9244L42.278 13.9626M44.4768 10.72C45.2566 10.8987 45.8661 11.5342 45.8661 12.2129C45.8661 12.5396 45.8229 12.8104 45.7098 13.0329C45.5962 13.2565 45.4139 13.4279 45.1427 13.5589C44.8725 13.6894 44.5136 13.7801 44.0448 13.8433C43.5757 13.9065 42.9943 13.9426 42.278 13.9626M44.4768 10.72L42.278 13.9626M49.4251 12.4324C49.4723 12.1553 49.4686 11.8553 49.4367 11.3999C49.3651 10.4781 49.0992 9.72603 48.627 9.1254C48.1547 8.52464 47.4737 8.07239 46.567 7.75426L46.5669 7.75424C45.7589 7.46906 45.2713 7.43651 41.0293 7.43651H36.4289V15.5719V23.6909L41.5568 23.6433L46.7145 23.5954L47.9383 22.9914L47.9385 22.9913C48.2967 22.8162 48.643 22.6132 48.9272 22.4164C49.2124 22.219 49.432 22.03 49.54 21.8833L49.5404 21.8828C50.158 21.0752 50.4914 19.8376 50.3646 18.7915L50.3645 18.7913C50.285 18.0991 50.1222 17.5449 49.8379 17.0691C49.5536 16.5933 49.1463 16.1933 48.5738 15.8116L48.5735 15.8114L47.6138 15.1556L47.5717 15.1269L47.611 15.0945L48.1549 14.6466L48.1548 14.6466L48.1562 14.6455C48.3118 14.5289 48.4971 14.3244 48.6701 14.0858C48.8427 13.8477 49.001 13.5784 49.1036 13.3337L49.1036 13.3337L49.1044 13.332C49.2798 12.9652 49.378 12.709 49.4251 12.4324ZM40.1078 13.9872V13.9883H40.0696L40.0684 13.9501L40.0696 13.9501V12.2928V10.6356V10.5973H40.1078V13.9872ZM45.2773 17.1343L45.2775 17.1343C46.2674 17.3859 46.766 18.083 46.7619 18.7812C46.7577 19.4794 46.2509 20.1644 45.2607 20.3917C45.0888 20.4326 44.6735 20.4727 44.1485 20.5026C43.622 20.5327 42.9814 20.5527 42.3569 20.5527H40.0696H40.0313V20.5144V18.7549V16.9955V16.9572H40.0696H42.3249C42.9415 16.9572 43.582 16.9772 44.1167 17.0093C44.6499 17.0412 45.0813 17.0853 45.2773 17.1343Z" fill="#F1F7F6" stroke="#F1F7F6" stroke-width="0.0765008"/>
  <path d="M54.1828 15.5562V23.6756H56.064H57.9452V15.5562V7.43688H56.064H54.1828V15.5562Z" fill="#F1F7F6" stroke="#F1F7F6" stroke-width="0.0765008"/>
  <path d="M73.3874 17.0985L69.7246 12.252L69.7245 12.2519L66.0571 7.43651H64.3486H62.6593V15.5559V23.6752H64.4606H66.262L66.2938 18.7227L66.2938 18.7226L66.3417 13.732L66.3428 13.6196L66.4105 13.7094L68.5218 16.5084C68.5219 16.5085 68.5219 16.5085 68.5219 16.5085C69.6896 18.0441 71.3849 20.2673 72.2966 21.4508L72.2967 21.4509L73.9331 23.5958L75.5464 23.6433L77.1386 23.6901V15.5559V7.43651H75.3374H73.5359L73.5042 12.2291L73.5042 12.2292L73.4562 17.0758L73.4551 17.188L73.3874 17.0985Z" fill="#F1F7F6" stroke="#F1F7F6" stroke-width="0.0765008"/>
  <path d="M103.243 18.7551L103.243 18.7549L103.291 13.7964L103.292 13.6843L103.36 13.7737L105.455 16.5407C105.455 16.5407 105.455 16.5408 105.455 16.5408C106.303 17.6474 107.445 19.1525 108.353 20.3483C108.678 20.7774 108.974 21.1666 109.214 21.4834L109.214 21.4834L110.867 23.6598L112.495 23.6756H112.495H114.088V15.5562V7.43688H112.287H110.486L110.454 12.3094L110.454 12.3096L110.406 17.2041L110.405 17.3242L110.336 17.2256L109.936 16.6499C109.936 16.6498 109.936 16.6498 109.936 16.6498C109.713 16.3303 108.066 14.1239 106.258 11.7566L106.258 11.7565L102.991 7.45269L101.314 7.43688C101.314 7.43688 101.314 7.43688 101.314 7.43688C100.561 7.43688 100.137 7.44498 99.8924 7.48242C99.7702 7.50114 99.6984 7.52654 99.6538 7.55808C99.6117 7.58779 99.5906 7.62528 99.5761 7.6788C99.5761 7.67891 99.5761 7.67904 99.5761 7.67919L99.5757 7.68261L99.5747 7.69429C99.574 7.70404 99.5733 7.71711 99.5726 7.73353C99.5713 7.76633 99.57 7.81166 99.5687 7.86885C99.5662 7.98317 99.564 8.14417 99.5619 8.34564C99.5579 8.74855 99.5547 9.31285 99.5525 9.98825C99.548 11.339 99.547 13.1339 99.549 14.9704C99.553 18.6435 99.569 22.4815 99.593 23.2647L99.6076 23.6756H101.41H103.212L103.243 18.7551Z" fill="#F1F7F6" stroke="#F1F7F6" stroke-width="0.0765008"/>
  <path d="M141.639 23.6756H147.839V22.1143V20.5531H143.478H139.08H139.041V20.5148V18.8353V17.1558V17.1175H139.08H142.919H146.719V15.4763V13.835H142.919H139.08H139.041V13.7968V12.1972V10.5977V10.5594H139.08H143.398H147.679V8.99816V7.43688H141.575C138.719 7.43688 137.185 7.44089 136.356 7.47683C135.941 7.49484 135.707 7.52078 135.572 7.55702C135.506 7.57506 135.467 7.59476 135.445 7.61443C135.423 7.63272 135.413 7.65291 135.406 7.67859C135.406 7.67875 135.406 7.67895 135.406 7.67919L135.406 7.68261L135.405 7.69429C135.404 7.70404 135.403 7.71711 135.403 7.73353C135.401 7.76633 135.4 7.81166 135.399 7.86885C135.396 7.98317 135.394 8.14417 135.392 8.34564C135.388 8.74855 135.385 9.31285 135.383 9.98825C135.378 11.339 135.377 13.1339 135.379 14.9704C135.383 18.6435 135.399 22.4815 135.423 23.2647L135.438 23.6756H141.639Z" fill="#F1F7F6" stroke="#F1F7F6" stroke-width="0.0765008"/>
  <path d="M1.70656 13.9036L0.0540943 15.556L1.70656 17.2085C2.17017 17.6721 2.60562 18.0916 2.93698 18.395C3.10273 18.5467 3.24205 18.6691 3.34567 18.7534C3.39756 18.7956 3.43988 18.8278 3.47176 18.8492C3.48775 18.8599 3.50037 18.8674 3.50979 18.8722C3.51431 18.8744 3.51729 18.8756 3.51897 18.8762C3.52066 18.8756 3.52363 18.8744 3.52816 18.8722C3.53757 18.8674 3.55019 18.8599 3.56619 18.8492C3.59807 18.8278 3.64039 18.7956 3.69228 18.7534C3.79589 18.6691 3.93522 18.5467 4.10096 18.395C4.43233 18.0916 4.86778 17.6721 5.33139 17.2085L6.98385 15.556L5.33139 13.9036C4.86778 13.4399 4.43233 13.0205 4.10096 12.7171C3.93522 12.5653 3.79589 12.4429 3.69228 12.3586C3.64039 12.3164 3.59807 12.2843 3.56619 12.2629C3.55019 12.2521 3.53757 12.2446 3.52816 12.2399C3.52363 12.2376 3.52066 12.2364 3.51897 12.2358C3.51729 12.2364 3.51431 12.2376 3.50979 12.2399C3.50037 12.2446 3.48775 12.2521 3.47176 12.2629C3.43988 12.2843 3.39756 12.3164 3.34567 12.3586C3.24205 12.4429 3.10273 12.5653 2.93698 12.7171C2.60562 13.0205 2.17017 13.4399 1.70656 13.9036Z" fill="#F1F7F6" stroke="#F1F7F6" stroke-width="0.0765008"/>
  <path d="M13.2241 13.9036L11.5717 15.556L13.2241 17.2085C13.6878 17.6722 14.1194 18.0917 14.4429 18.3953C14.6047 18.5471 14.7392 18.6697 14.8371 18.7541C14.8861 18.7964 14.9255 18.8287 14.9542 18.8503C14.9687 18.8612 14.9798 18.8688 14.9877 18.8735C14.9884 18.8739 14.989 18.8743 14.9896 18.8746C14.9907 18.8741 14.9919 18.8734 14.9933 18.8726C15.0021 18.8676 15.0142 18.8596 15.0297 18.8482C15.0604 18.8256 15.1018 18.7919 15.1525 18.7483C15.2537 18.661 15.39 18.5359 15.5496 18.3847C15.8686 18.0824 16.2791 17.6773 16.6848 17.2666C17.0906 16.8559 17.4911 16.4399 17.7901 16.1157C17.9397 15.9535 18.0635 15.8147 18.1498 15.7111C18.193 15.6592 18.2263 15.6168 18.2487 15.5849C18.2599 15.569 18.2678 15.5564 18.2728 15.5471C18.274 15.5448 18.275 15.5428 18.2758 15.5412C18.2751 15.54 18.2744 15.5387 18.2735 15.5371C18.2685 15.5286 18.2605 15.5168 18.2491 15.5016C18.2266 15.4714 18.193 15.4304 18.1495 15.38C18.0627 15.2794 17.9382 15.1431 17.7879 14.9831C17.4873 14.6634 17.0847 14.2503 16.677 13.8415C16.2693 13.4328 15.8567 13.0287 15.5362 12.727C15.3759 12.576 15.2389 12.451 15.1372 12.3638C15.0863 12.3201 15.0448 12.2864 15.0139 12.2638C14.9984 12.2525 14.9863 12.2445 14.9774 12.2395C14.9766 12.239 14.9758 12.2386 14.9751 12.2382C14.9678 12.243 14.9576 12.2506 14.9443 12.2611C14.9168 12.2828 14.8786 12.3153 14.8307 12.3576C14.7349 12.4422 14.6018 12.5648 14.441 12.7167C14.1194 13.0203 13.6878 13.4399 13.2241 13.9036Z" fill="#F1F7F6" stroke="#F1F7F6" stroke-width="0.0765008"/>
  <path d="M24.7398 13.9037L23.0873 15.5561L24.7877 17.2566L26.4722 18.941L28.1567 17.2566L29.8571 15.5561L28.2046 13.9037C27.7409 13.4399 27.3132 13.0203 26.9956 12.7166C26.8368 12.5647 26.7056 12.4421 26.6114 12.3575C26.5642 12.3152 26.5266 12.2827 26.4996 12.261C26.4882 12.2519 26.4791 12.245 26.4722 12.2402C26.4653 12.245 26.4562 12.2519 26.4448 12.261C26.4178 12.2827 26.3802 12.3152 26.333 12.3575C26.2388 12.4421 26.1076 12.5647 25.9488 12.7166C25.6312 13.0203 25.2035 13.4399 24.7398 13.9037Z" fill="#F1F7F6" stroke="#F1F7F6" stroke-width="0.0765008"/>
  <path d="M14.9597 23.6284L12.2086 20.7973C12.2086 20.7973 12.2085 20.7973 12.2085 20.7972C11.449 20.0217 10.7375 19.3183 10.2041 18.8088C9.93731 18.554 9.71529 18.348 9.55414 18.2057C9.47349 18.1346 9.40853 18.0798 9.36103 18.0429C9.3372 18.0245 9.31843 18.011 9.30464 18.0024C9.29888 17.9987 9.29449 17.9963 9.29133 17.9947C9.28952 17.9954 9.28688 17.9966 9.28328 17.9983C9.27372 18.0031 9.26091 18.0106 9.24469 18.0214C9.21236 18.0428 9.1694 18.075 9.11677 18.1172C9.01166 18.2015 8.87035 18.3239 8.70262 18.4756C8.3673 18.779 7.9279 19.1984 7.46437 19.6619L5.81191 21.3144L10.3915 25.894L14.9551 30.4576L19.4868 25.926C20.7423 24.6705 21.8778 23.5189 22.6974 22.6753C23.1073 22.2535 23.438 21.9088 23.6652 21.6666C23.7788 21.5455 23.8664 21.4502 23.9249 21.3839C23.9542 21.3506 23.9759 21.3251 23.9898 21.3074C23.9925 21.304 23.9948 21.301 23.9967 21.2984C23.9961 21.2975 23.9955 21.2965 23.9948 21.2956C23.9882 21.2859 23.979 21.2734 23.967 21.2582C23.943 21.2278 23.9093 21.1878 23.8671 21.1394C23.7826 21.0427 23.665 20.9136 23.5246 20.7629C23.244 20.4615 22.8733 20.0743 22.4975 19.6875C22.1217 19.3008 21.741 18.9145 21.4402 18.6151C21.2899 18.4653 21.1596 18.3373 21.06 18.2419C20.963 18.149 20.8974 18.0891 20.8702 18.0687C20.8687 18.0684 20.8651 18.068 20.8584 18.069C20.8478 18.0705 20.8328 18.0749 20.8128 18.0836C20.7728 18.101 20.7189 18.133 20.6499 18.1812C20.5123 18.2773 20.3207 18.4341 20.071 18.6558C19.5721 19.0989 18.8449 19.798 17.8613 20.7816L15.0142 23.6288L14.9867 23.6562L14.9597 23.6284Z" fill="#F1F7F6" stroke="#F1F7F6" stroke-width="0.0765008"/>
</svg>