<svg xmlns="http://www.w3.org/2000/svg" width="147" height="36" viewBox="0 0 147 36" fill="none">
  <g clip-path="url(#clip0_132_469)">
    <path d="M16.8356 -0.0919375C16.8702 -0.092483 16.9087 -0.0861597 16.9358 -0.081315C16.9701 -0.0751848 17.0121 -0.0663023 17.0603 -0.0552788C17.157 -0.0331607 17.2857 -0.000740051 17.4408 0.040236C17.7515 0.122293 18.1743 0.240257 18.672 0.382823C19.6678 0.668049 20.9674 1.05287 22.2783 1.4486C23.5893 1.84435 24.9123 2.25124 25.9548 2.58065C26.9886 2.90727 27.7656 3.16345 27.9677 3.25522L27.9689 3.25577C28.2194 3.37151 28.4126 3.53202 28.507 3.75373C28.6022 3.97709 28.5805 4.22295 28.4838 4.47287L28.4836 4.4734C28.4224 4.63029 28.3394 4.82152 28.1131 4.91282C27.9126 4.9937 27.6354 4.97969 27.2429 4.90516C26.4421 4.7531 24.9632 4.30308 22.1389 3.43335L16.8742 1.81721L11.8154 3.36033L11.8152 3.36042C10.4079 3.78743 9.09121 4.17797 8.1032 4.46186C7.60934 4.60377 7.19674 4.71927 6.8957 4.79942C6.74536 4.83944 6.6215 4.87101 6.5287 4.8927C6.48243 4.90351 6.44228 4.91225 6.40962 4.9184C6.38226 4.92355 6.34487 4.93001 6.3124 4.93001C5.87374 4.93001 5.56056 4.63626 5.44673 4.29662C5.33264 3.95623 5.40933 3.53675 5.77786 3.29476M16.8356 -0.0919375C16.7625 -0.0915837 16.6544 -0.0748849 16.535 -0.0516887C16.4088 -0.027184 16.2536 0.00797749 16.0802 0.0511866C15.7336 0.137567 15.3085 0.257533 14.8865 0.392817M16.8356 -0.0919375C16.8364 -0.0919414 16.8372 -0.0919433 16.838 -0.0919433V0.108057L16.8315 -0.0918384C16.8329 -0.0918827 16.8342 -0.0919156 16.8356 -0.0919375ZM14.8865 0.392817C14.886 0.39295 14.8856 0.393084 14.8852 0.393218L14.9463 0.583666M14.8865 0.392817C14.8869 0.392685 14.8873 0.392555 14.8877 0.392424L14.9463 0.583666M14.8865 0.392817C14.7967 0.420284 14.69 0.452925 14.5686 0.49008C13.5565 0.799685 11.5197 1.42275 9.73379 1.97788C8.73231 2.28309 7.79115 2.5823 7.0816 2.81761C6.72692 2.93524 6.42912 3.03723 6.21023 3.11619C6.10095 3.15561 6.00994 3.1898 5.94078 3.21764C5.88058 3.24187 5.81689 3.26893 5.77786 3.29476M14.9463 0.583666C14.8562 0.611225 14.7491 0.644009 14.627 0.681349C13.6147 0.991005 11.5781 1.61401 9.79263 2.16903C7.7918 2.77879 6.03349 3.36415 5.88798 3.46172M14.9463 0.583666L11.7571 3.16903M5.77786 3.29476C5.77744 3.29504 5.77702 3.29532 5.7766 3.2956L5.88798 3.46172M5.77786 3.29476C5.778 3.29466 5.77815 3.29457 5.77829 3.29448L5.88798 3.46172M5.88798 3.46172C5.33017 3.82757 5.63333 4.73001 6.3124 4.73001C6.49429 4.73001 8.94379 4.02269 11.7571 3.16903M11.7571 3.16903L16.8744 1.60806L22.1978 3.2422C27.8607 4.98611 28.0548 5.02269 28.2973 4.40074C28.467 3.96172 28.3337 3.64464 27.885 3.43733L11.7571 3.16903Z" fill="#F1F7F6" stroke="#F1F7F6" stroke-width="0.4"/>
    <path d="M1.40935 4.70606L1.40936 4.70607C1.30705 4.82015 1.2326 5.00552 1.17295 5.21092C1.11073 5.42516 1.05597 5.69353 1.00838 6.00089C0.913098 6.61628 0.844038 7.40491 0.805197 8.26503C0.727551 9.98448 0.769843 12.0091 0.971941 13.5366M1.40935 4.70606L0.971942 13.5366C0.971941 13.5366 0.971941 13.5366 0.971941 13.5366M1.40935 4.70606L1.41131 4.70393C1.81688 4.26468 2.48937 4.31983 2.83825 4.82324L2.83846 4.8231L2.84374 4.8316C2.90976 4.93783 3.31238 5.70188 3.89882 6.83291C4.48872 7.97059 5.2711 9.49241 6.10199 11.127L6.10206 11.1272L9.06584 16.9687L17.0674 16.9567H17.0677H25.066L27.8612 11.0833C28.6437 9.43022 29.3807 7.89895 29.9374 6.76087C30.2157 6.19191 30.4492 5.72072 30.6209 5.38153C30.7067 5.21204 30.7775 5.07471 30.8308 4.97432C30.8796 4.8826 30.9234 4.80304 30.9511 4.76688L30.9514 4.76638C31.314 4.29537 32.0512 4.26948 32.3801 4.76569L32.3801 4.76566L32.3823 4.76902C32.5914 5.09851 32.7183 5.61887 32.7974 6.41901C32.8773 7.22665 32.9106 8.35076 32.9106 9.91278L32.9106 9.91352C32.8984 13.1829 32.7273 14.6509 32.0555 17.2794L32.0553 17.2803C30.321 23.9376 26.4597 29.3689 20.6958 33.2374L20.6957 33.2374C19.8372 33.813 19.0075 34.3224 18.3402 34.6887C18.0069 34.8717 17.7113 35.0205 17.4714 35.1242C17.3516 35.176 17.2428 35.2177 17.1485 35.2468C17.0576 35.2749 16.9662 35.2957 16.8858 35.2957C16.7818 35.2957 16.6552 35.2636 16.5247 35.2196C16.389 35.1738 16.2296 35.1081 16.0529 35.0269C15.6992 34.8643 15.2649 34.6343 14.7927 34.3619C13.848 33.8171 12.7405 33.0961 11.8056 32.3894L11.8054 32.3893C5.66211 27.7341 2.00947 21.3807 0.971941 13.5366H0.971941M1.40935 4.70606L0.971941 13.5366M27.7254 15.7915C27.1653 16.9669 24.9681 21.1908 22.859 25.177L22.8587 25.1775C21.7978 27.1711 20.837 28.9879 20.1445 30.3075C19.8094 30.9462 19.5373 31.4681 19.3471 31.8372C19.4726 31.7532 19.6123 31.658 19.7598 31.5562C20.3054 31.1792 20.9507 30.7151 21.371 30.389C23.1007 29.036 25.4138 26.5521 26.6384 24.7047L26.639 24.7038C29.4535 20.5065 30.8748 15.8973 31.0798 10.2964C31.0974 9.72488 31.1064 9.2031 31.1056 8.81781C30.9722 9.0759 30.7954 9.42887 30.5679 9.89132C29.9864 11.073 29.0774 12.9622 27.7254 15.7915ZM27.7254 15.7915L27.5448 15.7055M27.7254 15.7915C27.7253 15.7916 27.7253 15.7916 27.7253 15.7917L27.5448 15.7055M27.5448 15.7055C26.987 16.8762 24.7921 21.0957 22.6822 25.0835L31.0989 8.40301C30.7227 9.08795 29.6918 11.2129 27.5448 15.7055ZM2.66383 8.67685L2.70404 10.3348L2.70405 10.3353C2.80047 14.7956 3.64297 18.3023 5.51991 21.9928L5.5204 21.9938C7.46898 25.8768 10.259 29.0341 13.9547 31.5645C14.1392 31.6895 14.3136 31.8047 14.4653 31.9017C14.4092 31.7874 14.3445 31.6564 14.2717 31.5096C13.9713 30.9039 13.5339 30.0317 12.9921 28.9571C11.9085 26.808 10.408 23.851 8.75279 20.6011C5.84381 14.8894 3.32354 9.95003 2.66383 8.67685ZM20.4803 25.551L20.4804 25.5507L24.0472 18.8323H17.0435C15.0251 18.8323 13.1981 18.8445 11.8789 18.8628C11.2192 18.8719 10.6874 18.8825 10.3225 18.8939C10.2209 18.8971 10.1328 18.9003 10.0589 18.9035C10.1174 19.0231 10.1965 19.1827 10.2946 19.3789C10.5013 19.7925 10.7863 20.3571 11.1231 21.0212C11.7967 22.3494 12.6772 24.0748 13.5533 25.785C14.4293 27.4952 15.3008 29.1901 15.9562 30.4573C16.2839 31.091 16.5575 31.6174 16.7506 31.9853C16.8042 32.0874 16.8515 32.1772 16.8919 32.2535C16.9314 32.1829 16.9771 32.1004 17.0287 32.0065C17.2244 31.651 17.5033 31.1365 17.845 30.501C18.5283 29.2302 19.4618 27.4776 20.4803 25.551Z" fill="#F1F7F6" stroke="#F1F7F6" stroke-width="0.4"/>
    <path d="M41.7324 22.8396C41.987 23.4006 42.3872 23.803 42.8722 23.986L48.8747 10.8835L54.4766 10.8713L54.677 10.8709V11.0713V11.864V12.6567V12.8567H54.477H48.996C46.5327 12.8567 45.1639 12.8628 44.3848 12.8916C43.9938 12.9061 43.7612 12.926 43.6164 12.9514C43.4736 12.9765 43.4412 13.0031 43.4294 13.0136L43.4288 13.0142C43.4103 13.0306 43.3906 13.048 43.3696 13.132C43.3447 13.231 43.3244 13.4006 43.31 13.7131C43.2815 14.3338 43.2784 15.4589 43.2784 17.5713C43.2784 19.5915 43.2845 20.7204 43.313 21.3705C43.3274 21.6967 43.347 21.8918 43.3717 22.0149C43.3954 22.1336 43.4203 22.1668 43.4348 22.1833C43.4459 22.196 43.4535 22.2023 43.4654 22.2088C43.4801 22.2169 43.5088 22.229 43.5664 22.2416C43.6856 22.2677 43.8909 22.2884 44.2683 22.3029C45.0183 22.3317 46.3926 22.3348 48.9838 22.3348H54.477H54.677V22.5348V23.3274V24.1201V24.3201H54.477H48.8505C47.0006 24.3201 45.5619 24.3079 44.5562 24.285C44.0536 24.2736 43.6575 24.2594 43.3717 24.2426C43.229 24.2342 43.1117 24.2251 43.0214 24.215C42.9391 24.2058 42.858 24.194 42.8027 24.1735L42.8027 24.1735L42.8016 24.1731C42.2579 23.9681 41.8225 23.5218 41.5503 22.9225M41.7324 22.8396L41.5504 22.9227C41.5504 22.9227 41.5504 22.9226 41.5503 22.9225M41.7324 22.8396C41.5262 22.3884 41.502 21.9616 41.502 17.5957C41.502 13.2177 41.5262 12.803 41.7324 12.3396V22.8396ZM41.5503 22.9225C41.4312 22.6617 41.3722 22.4113 41.34 21.6946C41.308 20.9802 41.302 19.7767 41.302 17.5957C41.302 15.4087 41.308 14.2051 41.34 13.4907C41.3723 12.7731 41.4314 12.5241 41.5496 12.2583L41.5498 12.2579C41.7915 11.7179 42.294 11.2566 42.8948 11.0199C42.9307 11.0052 42.9718 10.9984 42.998 10.9944C43.0322 10.9891 43.0741 10.9844 43.1218 10.9801C43.2175 10.9713 43.3458 10.9633 43.5021 10.9558C43.8154 10.9408 44.2491 10.9278 44.7765 10.9171C45.8317 10.8957 47.2669 10.8835 48.8743 10.8835L41.5503 22.9225Z" fill="#F1F7F6" stroke="#F1F7F6" stroke-width="0.4"/>
    <path d="M62.7227 24.3201H62.5227V24.1201V17.5957V11.0713V10.8713H62.7227H68.6645H74.6064H74.8064V11.0713V11.864V12.6567V12.8567H74.6064H69.4527H64.4991V14.7299V16.603H68.422H72.5449H72.7449V16.803V17.5957V18.3884V18.5884H72.5449H68.422H64.4991V20.4616V22.3348H69.4527H74.6064H74.8064V22.5348V23.3274V24.1201V24.3201H74.6064H68.6645H62.7227Z" fill="#F1F7F6" stroke="#F1F7F6" stroke-width="0.4"/>
    <path d="M94.3128 11.1318L94.7615 11.4367C95.004 11.6074 95.3314 11.9611 95.4891 12.2294C95.7437 12.6806 95.768 12.8757 95.8043 15.0709L94.3128 11.1318ZM94.3128 11.1318L88.5771 11.0953L94.3128 11.1318ZM92.2599 19.5997L93.9323 21.5885L93.933 21.5893L94.0029 21.6733C94.5029 22.2744 94.9583 22.8219 95.2933 23.2288C95.4685 23.4416 95.6114 23.6167 95.7108 23.7413C95.7603 23.8034 95.8001 23.8542 95.8279 23.8914C95.8415 23.9097 95.854 23.9269 95.8638 23.9416C95.8684 23.9485 95.8747 23.9582 95.8805 23.9689C95.8833 23.9741 95.888 23.9831 95.8925 23.9943L95.8927 23.9948C95.8954 24.0016 95.9073 24.0314 95.9073 24.0709C95.9073 24.156 95.8568 24.2073 95.8361 24.225C95.8134 24.2445 95.7913 24.2547 95.7815 24.259C95.7601 24.2682 95.7399 24.273 95.7294 24.2753C95.7051 24.2806 95.6765 24.2845 95.6488 24.2876C95.5911 24.2939 95.5118 24.2995 95.4187 24.3041C95.2313 24.3135 94.9763 24.3196 94.7009 24.3196H93.6822H93.5888L93.5288 24.2479L91.5401 21.8699L91.5397 21.8694L89.6231 19.5635H87.3887C86.7504 19.5635 86.124 19.5544 85.6309 19.5406C85.3844 19.5337 85.1705 19.5257 85.0046 19.517C84.8439 19.5086 84.7157 19.499 84.6496 19.4873L84.6496 19.4875L84.6403 19.4854L84.5087 19.4555V21.6684V24.1318V24.3418L84.2989 24.3316L83.5473 24.295L83.5471 24.295L82.7833 24.2584L82.594 24.2494L82.5929 24.0598L82.5565 17.7183L82.5565 17.7179C82.5504 15.9737 82.5504 14.3694 82.5565 13.1903C82.5595 12.6008 82.5641 12.117 82.5702 11.7748C82.5732 11.6039 82.5767 11.4672 82.5805 11.37C82.5825 11.3216 82.5846 11.2812 82.5869 11.2505C82.5881 11.2354 82.5895 11.2204 82.5913 11.207L82.5914 11.206C82.5922 11.1995 82.5958 11.1717 82.607 11.1433C82.6351 11.0728 82.6899 11.0366 82.7188 11.0206C82.7512 11.0025 82.786 10.991 82.8164 10.9828C82.878 10.9662 82.9586 10.9541 83.0558 10.9443C83.2527 10.9244 83.5536 10.9106 83.9892 10.9014C84.8623 10.883 86.299 10.8831 88.5782 10.8953L88.5784 10.8953L94.3141 10.9318L94.3749 10.9322L94.4252 10.9664L94.8739 11.2713L94.8739 11.2713L94.8766 11.2732C95.1425 11.4604 95.4895 11.8353 95.6615 12.1281L95.6615 12.1281L95.6632 12.1311C95.7293 12.2482 95.7858 12.3579 95.8304 12.4918C95.8749 12.6254 95.9051 12.7754 95.9273 12.9739C95.9711 13.3652 95.9862 13.9742 96.0043 15.0675L96.0043 15.0677L96.0045 15.0809C96.0225 16.2304 96.0319 16.8328 95.9975 17.224C95.9611 17.6388 95.8735 17.8319 95.718 18.1571L95.718 18.1571L95.7171 18.1589C95.4816 18.6391 95.2135 18.9754 94.7846 19.1955C94.3678 19.4092 93.8196 19.5019 93.0523 19.5509L93.0518 19.551L92.2599 19.5997ZM95.6436 23.8846C95.6445 23.8844 95.6443 23.8844 95.6431 23.8847L95.6436 23.8846ZM94.028 15.275L94.028 15.2745C94.0463 14.2688 94.0518 13.7488 94.0257 13.4495C94.0128 13.3019 93.9933 13.2255 93.9727 13.1777C93.9542 13.1349 93.9303 13.104 93.88 13.0533C93.8318 13.0049 93.8058 12.9824 93.7351 12.9603C93.6474 12.9329 93.4955 12.9092 93.1952 12.8925C92.599 12.8594 91.4909 12.8562 89.3168 12.8562C88.0871 12.8562 86.9579 12.8684 86.1274 12.8867C85.712 12.8958 85.3725 12.9064 85.133 12.9177C85.0129 12.9234 84.92 12.9292 84.8559 12.9348C84.8335 12.9368 84.816 12.9386 84.8029 12.9403C84.7125 13.0082 84.6362 13.1235 84.5849 13.4398C84.5273 13.7946 84.5087 14.3545 84.5087 15.2782C84.5087 16.2203 84.5092 16.6771 84.5448 16.9404C84.5617 17.0659 84.5849 17.1303 84.6107 17.176C84.6383 17.2248 84.6764 17.2668 84.7536 17.3445L84.9975 17.5897L89.3879 17.5538L89.3882 17.5538C91.1285 17.5416 92.2559 17.5233 92.9628 17.493C93.3169 17.4778 93.5603 17.4598 93.7206 17.4389C93.8011 17.4283 93.8548 17.4178 93.8887 17.4084C93.8893 17.4082 93.8899 17.408 93.8906 17.4078C93.8966 17.3903 93.9038 17.365 93.9114 17.3298C93.9302 17.243 93.9479 17.115 93.9635 16.9361C93.9947 16.5792 94.0158 16.0425 94.028 15.275Z" fill="#F1F7F6" stroke="#F1F7F6" stroke-width="0.4"/>
    <path d="M103.346 12.8567H103.146V12.6567V11.864V11.0713V10.8713H103.346H109.833H116.321H116.521V11.0713V11.864V12.6567V12.8567H116.321H113.471H110.821V18.3884V24.1201V24.3201H110.621H109.894H109.166H108.966V24.1201V18.3884V12.8567H106.256H103.346Z" fill="#F1F7F6" stroke="#F1F7F6" stroke-width="0.4"/>
    <path d="M124.082 24.3201H123.882V24.1201V17.5957V11.0713V10.8713H124.082H124.87H125.658H125.858V11.0713V17.5957V24.1201V24.3201H125.658H124.87H124.082Z" fill="#F1F7F6" stroke="#F1F7F6" stroke-width="0.4"/>
    <path d="M134.51 24.3201H134.31V24.1201V17.5957V11.0713V10.8713H134.51H135.298H136.086H136.286V11.0713V13.9372V16.603H138.087H139.982L142.323 13.8088L144.724 10.9429L144.784 10.8713H144.878H145.824C146.084 10.8713 146.324 10.8838 146.503 10.903C146.591 10.9125 146.67 10.9242 146.73 10.9386C146.758 10.9454 146.793 10.9551 146.824 10.9701C146.839 10.9773 146.865 10.9909 146.889 11.014C146.913 11.0363 146.957 11.0884 146.957 11.1689C146.957 11.2163 146.94 11.2534 146.937 11.2586C146.937 11.2588 146.937 11.259 146.937 11.2591C146.931 11.2715 146.925 11.2825 146.921 11.2903C146.911 11.3066 146.899 11.3248 146.886 11.343C146.86 11.3803 146.824 11.4297 146.779 11.4888C146.689 11.6076 146.56 11.7726 146.401 11.9719C146.083 12.3709 145.644 12.9113 145.158 13.5032C144.186 14.6866 143.024 16.0783 142.264 16.9581L142.264 16.9584C142.105 17.1423 141.967 17.3222 141.872 17.4616C141.832 17.5196 141.801 17.5684 141.78 17.6062C141.813 17.6496 141.859 17.7087 141.917 17.7824C142.042 17.9404 142.221 18.1611 142.442 18.4291C142.882 18.9648 143.485 19.6866 144.145 20.4665L144.146 20.4678C144.243 20.5836 144.338 20.6986 144.433 20.8125C145.624 22.243 146.656 23.4826 146.793 23.6541L146.793 23.6541L146.796 23.6591L147.051 24.0006L147.289 24.3201H146.891H145.872H144.853H144.76L144.7 24.2482L142.311 21.3823L139.982 18.5884H138.087H136.286V21.2543V24.1201V24.3201H136.086H135.298H134.51Z" fill="#F1F7F6" stroke="#F1F7F6" stroke-width="0.4"/>
  </g>
  <defs>
    <clipPath id="clip0_132_469">
      <rect width="146" height="35" fill="white" transform="translate(0.878906 0.0957031)"/>
    </clipPath>
  </defs>
</svg>