<svg xmlns="http://www.w3.org/2000/svg" width="134" height="36" viewBox="0 0 134 36" fill="none">
  <path d="M80.9581 16.1007V21.817H79.7715V16.6108H79.7717L79.7713 16.5987C79.7481 15.8659 79.5966 15.2601 79.2283 14.8375C78.8474 14.4006 78.3005 14.2324 77.6592 14.2324C76.8989 14.2324 76.2564 14.5317 75.8078 15.0336C75.3627 15.5314 75.1255 16.2082 75.1255 16.9435V21.817H73.9389V13.6889H74.9925V14.6149V14.7733L75.1045 14.8853L75.1488 14.9297L75.4976 15.2786L75.7486 14.8538C76.2591 13.9899 77.1766 13.4477 78.1841 13.4671L78.1841 13.4671H78.1915C79.0903 13.4671 79.7736 13.7095 80.2293 14.1328C80.6806 14.552 80.9581 15.1948 80.9581 16.1007ZM92.3849 16.9823H89.5073V16.1062H93.9774L93.997 21.817H93.3101L93.0459 20.6719L92.8785 19.9465L92.3862 20.505C91.834 21.1316 91.3269 21.5247 90.7965 21.7651C90.2669 22.0052 89.687 22.1053 88.9696 22.1053C87.2387 22.1053 85.8757 21.4208 84.9402 20.3362C83.9997 19.2459 83.4751 17.7308 83.4751 16.0564C83.4751 14.3819 83.9997 12.8669 84.9402 11.7765C85.8757 10.692 87.2387 10.0075 88.9696 10.0075C90.2469 10.0075 91.3981 10.3455 92.2587 10.9877C93.0151 11.5523 93.5642 12.3639 93.7794 13.434H92.4398C92.0635 11.7845 90.5135 10.9945 88.9474 10.9945C87.4961 10.9945 86.4492 11.6435 85.7796 12.6186C85.1214 13.577 84.8391 14.83 84.8391 16.0564C84.8391 17.2842 85.1276 18.537 85.7883 19.4948C86.4595 20.4677 87.5045 21.1171 88.9435 21.1183C90.1197 21.1412 91.0821 20.7951 91.7529 20.1179C92.4221 19.4423 92.7555 18.4835 92.7674 17.3689L92.7715 16.9823H92.3849ZM97.9735 17.8694H97.591V18.2519C97.591 19.0141 97.7962 19.7665 98.2587 20.3364C98.73 20.9174 99.4412 21.2735 100.369 21.2735C100.989 21.2735 101.526 21.1394 101.964 20.8372C102.334 20.5819 102.606 20.2253 102.801 19.7876H103.899C103.379 21.2423 102.009 22.0609 100.369 22.0609C99.0662 22.0609 98.0889 21.6095 97.4332 20.8724C96.7723 20.1295 96.4044 19.0579 96.4044 17.764C96.4044 15.3943 97.9456 13.445 100.324 13.445C102.724 13.445 104.3 15.517 104.167 17.8694H97.9735ZM102.542 17.3482H102.946L102.924 16.9452C102.85 15.562 101.893 14.2324 100.302 14.2324C98.7191 14.2324 97.6447 15.4398 97.5693 16.9466L97.5492 17.3482H97.9514H102.542ZM111.559 20.6289C111.927 20.275 112.179 19.7976 112.308 19.2332H113.478C113.277 20.1002 112.899 20.7571 112.38 21.2136C111.777 21.7435 110.943 22.0387 109.861 22.0387C108.559 22.0387 107.587 21.5826 106.936 20.8526C106.28 20.1168 105.918 19.0668 105.918 17.8306C105.918 16.5543 106.267 15.4526 106.925 14.6767C107.577 13.9094 108.563 13.4228 109.927 13.4228C110.898 13.4228 111.766 13.6685 112.405 14.1408C112.943 14.5376 113.337 15.107 113.498 15.8735H112.317C112.186 15.4044 111.933 15.0191 111.578 14.7387C111.142 14.3945 110.581 14.2324 109.971 14.2324C109.4 14.2324 108.679 14.3815 108.102 14.9456C107.522 15.5121 107.149 16.4358 107.149 17.8527C107.149 18.6421 107.319 19.4823 107.747 20.138C108.186 20.8126 108.891 21.2735 109.883 21.2735C110.538 21.2735 111.118 21.053 111.559 20.6289ZM117.173 19.006V21.817H115.987V10.2958H117.196V16.8991V17.8307L117.85 17.1679L121.286 13.6889H122.589L119.864 16.2898L119.633 16.5107L119.81 16.7775L123.143 21.817H121.67L119.055 17.6709L118.804 17.2738L118.466 17.5993L117.291 18.7303L117.173 18.8432V19.006ZM55.5943 13.434C55.3924 12.7889 55.0646 12.2104 54.5663 11.7761C53.9894 11.2734 53.2189 10.9945 52.2441 10.9945C50.7929 10.9945 49.7459 11.6435 49.0763 12.6186C48.4181 13.577 48.1359 14.83 48.1359 16.0564C48.1359 17.2842 48.4243 18.537 49.0851 19.4948C49.7568 20.4686 50.8031 21.1183 52.2441 21.1183C53.3022 21.1183 54.1444 20.7203 54.7407 20.0574C55.2582 19.4821 55.5739 18.7268 55.7071 17.9026H57.0583C56.9046 19.1098 56.3997 20.1128 55.6448 20.8333C54.8075 21.6326 53.6408 22.1053 52.2441 22.1053C50.5133 22.1053 49.1503 21.4208 48.2148 20.3362C47.2743 19.2459 46.7497 17.7308 46.7497 16.0564C46.7497 14.3819 47.2743 12.8669 48.2148 11.7765C49.15 10.6923 50.5125 10.0079 52.2426 10.0075C53.5607 10.0183 54.7107 10.3873 55.5555 11.0418C56.2956 11.6152 56.8165 12.4187 57.0136 13.434H55.5943ZM59.1467 17.7419C59.1467 16.4534 59.5336 15.383 60.2207 14.6387C60.9041 13.8983 61.9169 13.445 63.244 13.445C64.5712 13.445 65.584 13.8983 66.2674 14.6387C66.9545 15.383 67.3413 16.4534 67.3413 17.7419C67.3413 19.0304 66.9544 20.1069 66.2665 20.8571C65.5826 21.6029 64.5698 22.0609 63.244 22.0609C61.9183 22.0609 60.9055 21.6029 60.2216 20.8571C59.5337 20.1069 59.1467 19.0304 59.1467 17.7419ZM66.1547 17.7419C66.1547 16.9195 65.9473 16.0554 65.4786 15.3853C65 14.7011 64.2551 14.2324 63.244 14.2324C62.233 14.2324 61.4881 14.7011 61.0095 15.3853C60.5407 16.0554 60.3333 16.9195 60.3333 17.7419C60.3333 18.5641 60.5407 19.433 61.0086 20.1081C61.4861 20.7972 62.2308 21.2735 63.244 21.2735C64.2552 21.2735 65.0004 20.8046 65.479 20.1172C65.9478 19.444 66.1547 18.5744 66.1547 17.7419ZM69.7918 10.2958H70.9784V11.3937H69.7918V10.2958ZM69.7918 13.6889H70.9784V21.817H69.7918V13.6889ZM124.769 17.7419C124.769 16.4534 125.156 15.383 125.843 14.6387C126.526 13.8983 127.539 13.445 128.866 13.445C130.205 13.445 131.217 13.8988 131.898 14.6382C132.582 15.3819 132.964 16.4521 132.964 17.7419C132.964 19.0304 132.577 20.1069 131.889 20.8571C131.205 21.6029 130.192 22.0609 128.866 22.0609C127.541 22.0609 126.528 21.6029 125.844 20.8571C125.156 20.1069 124.769 19.0304 124.769 17.7419ZM131.799 17.7419C131.799 16.9195 131.592 16.0554 131.123 15.3853C130.644 14.7011 129.9 14.2324 128.889 14.2324C127.878 14.2324 127.133 14.7011 126.654 15.3853C126.185 16.0554 125.978 16.9195 125.978 17.7419C125.978 18.5641 126.185 19.433 126.653 20.1081C127.131 20.7972 127.875 21.2735 128.889 21.2735C129.9 21.2735 130.645 20.8046 131.124 20.1172C131.592 19.444 131.799 18.5744 131.799 17.7419Z" fill="#F1F7F6" stroke="#F1F7F6" stroke-width="0.765008"/>
  <path d="M35.478 17.52C35.5002 24.6389 31.2643 31.0703 24.6999 33.8203C18.1354 36.5702 10.573 35.1066 5.51658 30.0945C0.460185 25.0825 -1.07004 17.52 1.6134 10.9334C4.29684 4.34678 10.706 0.0444014 17.8027 4.70024e-05C27.5385 -0.0221302 35.4336 7.80642 35.478 17.52Z" fill="#DDDDDD"/>
  <path d="M3.18807 11.6103L3.18825 11.6098C5.61322 5.65567 11.3947 1.7787 17.8058 1.73524C26.599 1.6921 33.7442 8.75194 33.7879 17.5212C33.8095 23.9537 29.9763 29.7573 24.0426 32.2477C18.1096 34.7379 11.2881 33.3959 6.71782 28.8909C2.14849 24.3647 0.76284 17.5434 3.18807 11.6103Z" fill="#F1F7F6" stroke="#F1F7F6" stroke-width="0.765008"/>
  <path d="M18.2012 2.39478C19.2435 2.21736 20.2858 2.21736 21.3282 2.39478C22.3705 2.55002 23.3906 2.90486 24.3221 3.39276C25.2535 3.90283 26.0519 4.59032 26.8503 5.23346C27.6487 5.8766 28.447 6.54192 29.2011 7.27377C29.9773 7.98344 30.6426 8.80399 31.197 9.69108C31.7736 10.5782 32.2393 11.5318 32.5942 12.5076C33.2817 14.5035 33.5034 16.6547 33.1708 18.695H33.0599C32.7272 16.6547 32.2615 14.7253 31.5297 12.8846C31.197 11.9532 30.7756 11.0439 30.3321 10.179C29.8442 9.31406 29.3341 8.44916 28.7575 7.65078C28.1809 6.83022 27.4491 6.09838 26.6285 5.49959C25.8079 4.90081 24.8543 4.5238 23.9451 4.16896C23.0358 3.81413 22.1044 3.43711 21.1507 3.14881C20.1971 2.88268 19.2213 2.66091 18.2012 2.46131V2.39478Z" fill="#DDDDDD"/>
  <path d="M26.1426 11.7765C24.9672 11.4438 23.7475 10.9559 22.5056 10.468C22.439 10.1575 22.1507 9.7805 21.5963 9.29261C20.7979 8.58294 19.2677 8.60512 17.9592 8.9156C16.5177 8.58294 15.0762 8.44988 13.7012 8.78253C2.45737 11.8873 8.82222 19.4276 4.69727 27.0344C5.27387 28.2763 11.6166 35.5504 20.7757 33.5988C20.7757 33.5988 17.6487 26.0807 24.7233 22.4659C30.4672 19.5385 34.5921 14.0829 26.1426 11.7765Z" fill="#DDDDDD"/>
  <path d="M17.959 8.91531C18.7795 8.98184 21.7513 9.93546 22.5053 10.4677C21.8622 8.627 19.7332 8.38305 17.959 8.91531Z" fill="#58595B"/>
  <path d="M27.1551 16.7222C27.1551 16.9907 26.8278 17.1125 26.6548 16.9396C26.4758 16.7605 26.5909 16.4414 26.8466 16.418C27.0391 16.4377 27.1551 16.5801 27.1551 16.7222ZM18.3507 13.5952C18.3507 14.7028 17.6694 15.7177 16.635 16.1471C15.6029 16.5755 14.4147 16.3424 13.6146 15.5424C12.8146 14.7424 12.5815 13.5542 13.01 12.5221C13.4393 11.4877 14.4543 10.8063 15.5619 10.8063C16.3043 10.8063 17.0051 11.0995 17.5091 11.6036C18.0604 12.1548 18.3507 12.8567 18.3507 13.5952Z" fill="#F1F7F6" stroke="#F1F7F6" stroke-width="0.765008"/>
  <path d="M17.8039 13.6168C17.8039 14.5039 17.2716 15.3245 16.4289 15.6571C15.6083 15.9898 14.6547 15.8124 14.0116 15.1692C13.3684 14.5261 13.191 13.5947 13.5237 12.7519C13.8563 11.9314 14.6769 11.377 15.564 11.377C16.8059 11.3991 17.8039 12.3971 17.8039 13.6168Z" fill="#58595B"/>
  <path d="M30.0879 18.1191C27.5375 19.9155 24.6323 21.2683 20.5295 21.2683C18.6001 21.2683 18.2231 19.228 16.9368 20.226C16.2715 20.736 13.9651 21.8892 12.1244 21.8227C10.2836 21.734 7.3119 20.6473 6.49135 16.7441C6.15869 20.6695 6.00345 23.5525 4.51758 26.8569C7.44497 31.5585 14.4308 35.1734 20.7735 33.621C20.086 28.8529 24.2553 24.1957 26.5839 21.8227C27.4932 20.8913 29.2008 19.4276 30.0879 18.1191Z" fill="#DDDDDD"/>
  <path d="M29.9781 18.2295C29.1797 18.9613 28.2483 19.4936 27.2946 19.9593C26.3188 20.425 25.3209 20.7799 24.2785 21.0682C23.2362 21.3343 22.1495 21.5339 21.0628 21.4452C19.954 21.3565 18.8451 20.9795 18.1133 20.1589L18.1576 20.1146C19.0447 20.6912 20.0871 20.8908 21.1072 20.9351C22.1495 20.9573 23.1919 20.8908 24.212 20.6912C25.2322 20.4694 26.2523 20.1589 27.2281 19.7597C28.2039 19.3605 29.1575 18.8948 30.0003 18.2295H29.9781Z" fill="#58595B"/>
</svg>