<svg xmlns="http://www.w3.org/2000/svg" width="205" height="36" viewBox="0 0 205 36" fill="none">
  <path d="M17.1976 31.7831C16.071 31.7831 15.4402 31.7748 14.9053 31.7038C14.3702 31.6327 13.9314 31.4989 13.1884 31.2485C11.2175 30.5971 9.43022 29.5615 8.01032 28.2585L8.01025 28.2584L6.94183 27.2568L6.9205 27.2796L6.94038 27.2464L7.59145 26.1613L7.59154 26.1612C7.9588 25.5769 9.57811 22.9893 11.1807 20.4018L11.1807 20.4018L14.1022 15.7107L14.117 15.687L14.1176 15.7149L14.2011 19.2541C14.2345 20.765 14.2679 21.6661 14.3263 22.2605C14.3846 22.8545 14.4679 23.1415 14.6009 23.4242C15.0085 24.2476 15.7444 24.6716 16.5489 24.6903C17.3536 24.709 18.2278 24.3222 18.9108 23.5225C19.0606 23.3477 19.4401 22.7932 19.9306 22.0397C20.4209 21.2865 21.0219 20.335 21.6145 19.3668L21.6216 19.3711L21.6145 19.3668L23.7847 15.8276L23.7987 15.8047L23.8001 15.8316L23.917 18.0853C24.0088 19.771 24.2383 21.0051 24.68 21.951C25.1215 22.8966 25.7755 23.5548 26.7174 24.0883C27.1346 24.3219 27.3966 24.4508 27.7146 24.5214C28.0329 24.5922 28.4076 24.6047 29.0504 24.6047C29.6598 24.6047 30.043 24.588 30.3697 24.5214C30.6962 24.4549 30.9666 24.3384 31.3503 24.1382C33.0174 23.2546 34.1178 21.7877 34.5513 19.8201L34.5513 19.8199C34.7013 19.2035 34.7347 18.1862 34.668 16.8174C34.4677 12.0951 32.649 8.09051 29.245 4.80326C26.7754 2.41713 24.1225 1.03227 20.7518 0.348133L20.7518 0.348122C18.783 -0.0689964 16.2633 -0.0856972 14.3111 0.264694C8.70464 1.28254 3.66541 5.30395 1.4963 10.4931C-2.17475 19.3036 1.4129 29.2319 9.78927 33.4367C12.4423 34.7549 15.0284 35.2888 18.1989 35.1553C21.5362 35.0052 24.1724 34.1376 26.959 32.3021C28.2694 31.4257 29.0901 30.6921 29.4626 30.0345C29.6487 29.7059 29.7227 29.3968 29.6903 29.0984C29.6579 28.8 29.5191 28.5114 29.2778 28.2244C29.0943 28.0075 28.9576 27.8794 28.7883 27.8051C28.6189 27.7307 28.4159 27.7098 28.0989 27.7098C27.7657 27.7098 27.5459 27.7389 27.27 27.8779C26.9934 28.0173 26.6602 28.2671 26.1008 28.7096C24.6141 29.9123 22.7268 30.8977 20.9227 31.4155C19.8198 31.733 19.2346 31.7998 17.1976 31.7831ZM17.1976 31.7831C17.1976 31.7831 17.1977 31.7831 17.1977 31.7831V31.7748L17.1976 31.7831C17.1976 31.7831 17.1976 31.7831 17.1976 31.7831ZM17.0166 10.6671C16.8988 10.4523 16.7494 10.2872 16.5578 10.1122C16.4587 10.0298 16.2846 9.94256 16.0827 9.87177C15.8808 9.801 15.652 9.74694 15.4441 9.73032L15.4438 9.73028C15.0931 9.68853 14.8238 9.66696 14.5427 9.77491C14.2614 9.8829 13.9673 10.121 13.569 10.6017C12.7723 11.5631 11.5624 13.4906 9.20832 17.2721L9.20831 17.2721C7.41373 20.1351 6.34104 21.8214 5.69612 22.7647C5.37373 23.2363 5.15795 23.5227 5.01216 23.6777C4.93941 23.755 4.88332 23.8004 4.83949 23.8194C4.81743 23.829 4.7978 23.8321 4.78042 23.8286C4.76287 23.8251 4.74871 23.8149 4.73732 23.8001L4.7373 23.8001L4.73699 23.7997C4.7115 23.7615 4.67473 23.6878 4.6304 23.5882C4.58599 23.4884 4.53377 23.362 4.4774 23.218C4.36466 22.9299 4.23523 22.5708 4.11832 22.2117C2.68184 17.9023 3.28317 13.3922 5.7553 9.65062L5.75532 9.65059C8.96243 4.83992 14.5917 2.5013 20.2043 3.65389C22.1254 4.03813 24.6475 5.2407 26.1843 6.49358C29.3915 9.11611 31.3959 13.3087 31.3959 17.4012C31.3959 18.7703 31.3292 19.2227 31.0445 19.8088C30.6263 20.6787 29.9731 21.1612 29.3205 21.2283C28.6675 21.2955 28.0176 20.9467 27.6073 20.1596C27.523 19.9994 27.4645 19.7182 27.427 19.2738C27.3894 18.8289 27.3727 18.2193 27.3727 17.4013C27.3643 15.2811 27.2599 13.8883 26.9745 12.9547C26.8318 12.4881 26.644 12.1366 26.4006 11.8665C26.1572 11.5964 25.8579 11.4072 25.4916 11.2656C25.0418 11.0949 24.6302 11.0316 24.2203 11.1056C23.8103 11.1796 23.401 11.3911 22.9563 11.7713C22.0664 12.532 21.0361 13.9665 19.5753 16.3205L19.5682 16.3161L19.5753 16.3205L17.572 19.5425L17.5571 19.5665L17.5566 19.5382L17.4898 15.565C17.4564 13.4613 17.4147 12.2726 17.2854 11.5222C17.2208 11.1471 17.1345 10.882 17.0166 10.6671Z" fill="#F1F7F6" stroke="#F1F7F6" stroke-width="0.016694"/>
  <path d="M52.3419 10.4144L52.3418 10.4144C47.3557 11.6318 44.7538 17.2686 47.0053 21.9884L47.0053 21.9884C49.1065 26.4076 54.7266 27.9086 58.7957 25.1403C59.0876 24.9402 59.3752 24.7109 59.6045 24.5004C59.7191 24.3951 59.819 24.2947 59.8975 24.205C59.9762 24.1151 60.0329 24.0366 60.0616 23.975L60.0617 23.9749C60.3604 23.3609 60.1779 22.6139 59.6467 22.1989L59.6466 22.1989C59.3642 21.9746 59.0615 21.8711 58.7445 21.8856C58.4273 21.9001 58.095 22.0328 57.7536 22.2825C55.8153 23.7028 53.9423 23.9878 52.2027 23.1514L52.2026 23.1514C51.6594 22.8839 51.2411 22.5912 50.8834 22.2042C50.5258 21.8173 50.2291 21.3365 49.9284 20.6934C49.6356 20.066 49.4852 19.2676 49.4789 18.4675C49.4727 17.6674 49.6105 16.8649 49.8949 16.2292C50.1292 15.6937 50.5473 15.1378 51.0403 14.6636C51.5333 14.1893 52.1018 13.7963 52.6373 13.5871L52.6373 13.5871C53.8086 13.1353 55.4305 13.3028 56.701 13.9882C57.3101 14.3137 57.7552 14.4797 58.1266 14.4859C58.4971 14.4922 58.7956 14.3392 59.1117 14.023C59.5775 13.549 59.7178 13.0388 59.5521 12.5416C59.3861 12.0437 58.9124 11.5567 58.1453 11.1315C56.4778 10.231 54.2263 9.94751 52.3419 10.4144ZM60.0692 23.9786C60.3697 23.3609 60.186 22.6097 59.6518 22.1923L58.8004 25.1472C59.3847 24.7465 59.9523 24.229 60.0692 23.9786Z" fill="#F1F7F6" stroke="#F1F7F6" stroke-width="0.016694"/>
  <path d="M74.9285 10.4479L74.9284 10.4479C73.9983 10.9462 73.7151 12.1759 74.2972 13.1406C75.0618 14.3705 76.8733 14.3039 77.538 13.0076L77.538 13.0076C78.4192 11.2953 76.6072 9.5171 74.9285 10.4479Z" fill="#F1F7F6" stroke="#F1F7F6" stroke-width="0.016694"/>
  <path d="M167.135 18.1184L167.135 18.1184C167.194 17.1325 167.415 16.3006 167.819 15.6002C168.222 14.8997 168.808 14.3312 169.593 13.8714C169.927 13.6709 170.162 13.5577 170.472 13.4948C170.782 13.432 171.167 13.4195 171.801 13.4195C172.444 13.4195 172.829 13.432 173.172 13.5053C173.515 13.5786 173.817 13.7126 174.292 13.9547L174.292 13.9547C174.877 14.2636 175.247 14.4257 175.554 14.4672C175.861 14.5086 176.105 14.4301 176.438 14.2552L176.438 14.2551C176.713 14.1219 176.882 13.9852 176.983 13.7872C177.085 13.5887 177.118 13.3275 177.118 12.9438C177.118 12.4877 176.884 12.0589 176.481 11.6816C176.078 11.3044 175.507 10.9794 174.835 10.7313C173.49 10.2351 171.743 10.0475 170.133 10.3644C169.108 10.5644 167.991 11.1229 167.011 11.8674C166.031 12.6118 165.189 13.5416 164.714 14.4834C162.479 18.9031 164.414 24.2564 168.916 26.0575C169.316 26.2159 169.629 26.3117 170.056 26.3679C170.483 26.4242 171.025 26.4409 171.885 26.4409H173.903L175.32 25.7406C176.154 25.3234 176.771 24.9191 177.179 24.5172C177.587 24.1154 177.786 23.7168 177.786 23.3108C177.778 22.663 177.433 22.1987 176.95 22.0017C176.467 21.8047 175.844 21.8749 175.279 22.2991C174.059 23.2265 172.788 23.6656 171.594 23.6175C170.4 23.5694 169.284 23.034 168.373 22.0142C167.871 21.4543 167.537 20.9191 167.34 20.3042C167.144 19.6894 167.085 18.9955 167.135 18.1184Z" fill="#F1F7F6" stroke="#F1F7F6" stroke-width="0.016694"/>
  <path d="M96.5778 18.1648L96.4946 21.7252C96.4446 24.1625 96.3444 25.3979 96.1941 25.6483L96.5778 18.1648ZM96.5778 18.1648L96.5719 18.1583L96.5781 18.1527M96.5778 18.1648L96.5781 18.1527M96.5781 18.1527L96.5865 18.1529L96.5862 18.1616M96.5781 18.1527L96.5862 18.1616M96.5862 18.1616L98.2475 19.989C100.084 22.009 100.451 22.2761 101.052 22.1259C101.269 22.0758 102.254 21.1576 103.272 20.0391L105.084 18.0614L105.084 18.0527L105.092 18.0525L105.098 18.0581L105.092 18.0646L105.176 21.792L105.259 25.5314M96.5862 18.1616L105.267 25.5279M105.259 25.5314L105.265 25.5255L105.267 25.5279M105.259 25.5314L105.693 25.9655C106.478 26.7501 107.963 26.4496 108.347 25.4313M105.259 25.5314L108.347 25.4313M105.267 25.5279L105.184 21.7918L105.1 18.0523L105.1 18.0315L105.086 18.0469L103.266 20.0335L103.266 20.0335C102.757 20.5926 102.257 21.1016 101.856 21.477C101.656 21.6648 101.481 21.819 101.342 21.9294C101.273 21.9846 101.213 22.0288 101.164 22.0607C101.114 22.0927 101.076 22.1118 101.05 22.1177L101.05 22.1178C100.901 22.1551 100.766 22.1664 100.621 22.1313C100.474 22.0962 100.316 22.0145 100.118 21.8646C99.7224 21.5647 99.172 20.9936 98.2537 19.9834L96.5843 18.1471L96.5703 18.1316L96.5698 18.1525L96.4863 21.725L96.4863 21.725C96.4613 22.9436 96.4237 23.8616 96.3736 24.5062C96.3486 24.8285 96.3204 25.0823 96.2892 25.271C96.2579 25.4603 96.2236 25.5829 96.187 25.644L96.1869 25.6442L96.1869 25.6442C95.8966 26.1583 95.3073 26.4078 94.7294 26.3953C94.1515 26.3829 93.5874 26.1085 93.3471 25.5781L93.3471 25.578C93.3387 25.5598 93.3302 25.5279 93.322 25.4826C93.3138 25.4375 93.3059 25.3798 93.2983 25.3102C93.283 25.1711 93.269 24.9849 93.2561 24.7586C93.2304 24.3058 93.2096 23.6926 93.1934 22.9737C93.1611 21.5357 93.1475 19.6749 93.1517 17.8292C93.1558 15.9836 93.1777 14.153 93.2163 12.7756C93.2356 12.0869 93.2591 11.5115 93.2866 11.1042C93.3004 10.9005 93.3151 10.739 93.3309 10.6265C93.3387 10.5701 93.3468 10.5263 93.355 10.4956C93.3592 10.4803 93.3633 10.4685 93.3673 10.4603C93.3714 10.4518 93.3746 10.4485 93.3763 10.4477C93.5166 10.3899 93.6491 10.3715 93.8152 10.4273C93.9821 10.4834 94.1835 10.6145 94.4608 10.8574C95.0154 11.3432 95.8706 12.2734 97.3565 13.9347L97.3565 13.9347C98.2497 14.928 99.0636 15.8045 99.6751 16.4328C99.9809 16.7468 100.236 16.999 100.425 17.1726C100.52 17.2594 100.598 17.3267 100.658 17.3723C100.688 17.3951 100.714 17.4127 100.735 17.4245C100.745 17.4305 100.754 17.4351 100.763 17.4382C100.771 17.4413 100.778 17.4432 100.785 17.4432C100.798 17.4432 100.815 17.4364 100.835 17.4251C100.856 17.4136 100.881 17.3967 100.91 17.3746C100.969 17.3304 101.046 17.2651 101.139 17.1809C101.324 17.0125 101.573 16.7677 101.872 16.462C102.469 15.8504 103.262 14.9948 104.13 14.0181C104.973 13.075 105.783 12.2028 106.409 11.556C106.722 11.2326 106.989 10.9656 107.191 10.7742C107.292 10.6786 107.377 10.6019 107.443 10.5465C107.476 10.5189 107.505 10.4966 107.528 10.48C107.552 10.4633 107.57 10.4527 107.582 10.4478L107.583 10.4478C107.724 10.3896 107.843 10.3651 107.95 10.3753C108.057 10.3855 108.151 10.4305 108.242 10.513L108.242 10.5134L108.242 10.5134C108.298 10.5572 108.343 10.6451 108.379 10.8533C108.415 11.0611 108.441 11.3867 108.46 11.9032C108.498 12.9359 108.506 14.7303 108.506 17.8689C108.506 19.9306 108.489 21.7585 108.46 23.1023C108.445 23.7742 108.428 24.325 108.407 24.7234C108.397 24.9227 108.386 25.0837 108.375 25.2028C108.369 25.2623 108.363 25.3112 108.358 25.3491C108.352 25.3872 108.346 25.4135 108.34 25.4282L108.34 25.4283C108.149 25.9343 107.684 26.2624 107.169 26.3663C106.654 26.4702 106.089 26.3496 105.699 25.9596L105.267 25.5279ZM108.347 25.4313C108.448 25.1809 108.514 21.9923 108.514 17.8689C108.514 11.5919 108.481 10.6904 108.247 10.5068C108.064 10.3399 107.863 10.3232 107.579 10.44L108.347 25.4313Z" fill="#F1F7F6" stroke="#F1F7F6" stroke-width="0.016694"/>
  <path d="M136.149 21.6531L138.036 23.84C138.562 24.4409 139.071 25.0085 139.469 25.4362C139.668 25.65 139.84 25.8289 139.972 25.9594C140.038 26.0247 140.094 26.0779 140.139 26.1173C140.184 26.1569 140.217 26.182 140.237 26.1919L140.237 26.192C140.735 26.4575 141.316 26.3913 141.773 26.1191C142.23 25.847 142.562 25.3695 142.562 24.8137C142.562 24.5737 142.5 24.3498 142.279 23.9939C142.058 23.6376 141.679 23.1497 141.045 22.3817L141.045 22.3817L139.525 20.5287L139.494 20.5542L139.526 20.5179L140.36 19.5497L140.36 19.5495C140.828 19.0321 141.396 18.4141 141.646 18.1801L141.646 18.1801C142.171 17.6967 142.454 17.2019 142.491 16.7332C142.528 16.2649 142.321 15.8208 141.864 15.4381L141.864 15.4381C141.618 15.2296 141.406 15.0898 141.19 15.0376C140.974 14.9855 140.753 15.0203 140.487 15.1636C140.221 15.307 139.911 15.5589 139.518 15.9401C139.125 16.3212 138.649 16.8313 138.052 17.4907L136.149 19.5941L136.135 19.6097L136.135 19.5887L136.051 15.3651L135.968 11.1452L135.503 10.747L135.503 10.747C135.254 10.5314 134.893 10.3983 134.525 10.3588C134.157 10.3192 133.783 10.3734 133.509 10.5309C133.322 10.6391 133.181 10.7394 133.073 10.9387C132.965 11.1386 132.891 11.4387 132.84 11.9477C132.737 12.9655 132.729 14.8138 132.729 18.3532C132.729 21.9176 132.737 23.7701 132.844 24.7857C132.897 25.2936 132.975 25.5911 133.087 25.7886C133.199 25.9855 133.347 26.0837 133.543 26.192C133.833 26.3413 134.198 26.3912 134.554 26.3496C134.91 26.3081 135.254 26.175 135.503 25.9593L135.503 25.9593C135.616 25.8633 135.701 25.7866 135.766 25.6962C135.832 25.606 135.878 25.5017 135.914 25.3502C135.984 25.0465 136.009 24.5551 136.051 23.6114L136.135 21.6582L136.136 21.6372L136.149 21.6531Z" fill="#F1F7F6" stroke="#F1F7F6" stroke-width="0.016694"/>
  <path d="M156.468 13.1949L156.468 13.195L156.401 15.0146L156.62 15.0227H156.393H155.842C155.441 15.0227 155.176 15.0561 154.975 15.1595C154.775 15.2626 154.639 15.436 154.497 15.7192L154.497 15.7193C154.339 16.0264 154.289 16.392 154.335 16.7306C154.381 17.0693 154.522 17.3803 154.746 17.579L154.746 17.579C154.836 17.6614 154.994 17.7445 155.175 17.8132C155.356 17.8819 155.56 17.936 155.743 17.9609L155.743 17.9609L156.427 18.0611L156.434 18.0123V18.0693V20.0893C156.443 21.9923 156.56 23.3268 156.843 24.275C157.126 25.2228 157.576 25.7842 158.25 26.1419C158.55 26.3002 158.795 26.3958 159.115 26.4519C159.436 26.5082 159.832 26.5249 160.433 26.5249C161.084 26.5249 161.455 26.5165 161.702 26.4645C161.825 26.4386 161.918 26.4019 161.999 26.3501C162.08 26.2983 162.15 26.2311 162.229 26.1436L162.23 26.1435C162.478 25.8783 162.595 25.5466 162.595 25.0975C162.595 24.6484 162.466 24.3002 162.224 24.0643C161.981 23.8284 161.625 23.7036 161.167 23.7036C160.991 23.7036 160.807 23.6868 160.653 23.6617C160.575 23.6492 160.505 23.6345 160.447 23.6188C160.389 23.6031 160.342 23.5861 160.312 23.5689L160.312 23.5689L160.311 23.5687C160.108 23.4415 159.97 23.1584 159.882 22.6365C159.794 22.1141 159.757 21.3498 159.757 20.2563V18.0193H159.765V18.0109H160.616C160.975 18.0109 161.203 17.99 161.394 17.9196C161.584 17.8493 161.738 17.7293 161.946 17.5292C162.544 16.9311 162.594 16.1012 162.079 15.4536L162.079 15.4535C161.929 15.262 161.813 15.1551 161.628 15.0953C161.442 15.0353 161.184 15.0227 160.75 15.0227H159.765V15.0143H159.757V13.3616C159.757 12.3932 159.723 11.7934 159.605 11.3899C159.545 11.1884 159.465 11.0362 159.357 10.9115C159.249 10.7868 159.114 10.6894 158.943 10.5979C158.668 10.4646 158.44 10.39 158.216 10.3734C157.992 10.3568 157.772 10.3982 157.514 10.498C157.31 10.5854 157.146 10.6778 157.014 10.7969C156.882 10.916 156.782 11.062 156.705 11.2571C156.551 11.6478 156.493 12.2348 156.468 13.1949Z" fill="#F1F7F6" stroke="#F1F7F6" stroke-width="0.016694"/>
  <path d="M118.932 25.2486L118.937 25.2551L118.998 25.3308L118.998 25.3309L119.289 25.7614C119.431 25.9697 119.551 26.102 119.704 26.1866C119.857 26.2712 120.043 26.3087 120.318 26.3254L120.318 26.3254C120.602 26.3504 120.784 26.346 120.932 26.2884C121.08 26.2308 121.196 26.1196 121.346 25.9279C121.429 25.8197 121.492 25.7278 121.54 25.5781C121.588 25.4281 121.622 25.2197 121.645 24.8787C121.69 24.1967 121.695 22.9867 121.695 20.6577V15.8367L121.28 15.4385L121.28 15.4383C120.616 14.7579 119.538 14.9742 119.24 15.8359L119.24 15.836L119.056 16.3369L119.049 16.334L119.041 16.3311L119.015 16.3215L118.209 15.7901L118.209 15.79C117.009 14.9733 115.676 14.7233 114.309 15.04C113.31 15.2733 112.476 15.7732 111.709 16.6068C111.125 17.2408 110.767 17.7489 110.555 18.3546C110.343 18.9605 110.276 19.6647 110.276 20.6911C110.276 21.4842 110.288 21.9468 110.355 22.3278C110.422 22.7086 110.542 23.0082 110.759 23.4755L110.759 23.4756C111.293 24.6591 112.326 25.7093 113.409 26.2093C114.084 26.5089 115.067 26.5883 116.018 26.4819C116.969 26.3756 117.885 26.0837 118.426 25.6428L118.426 25.6427L118.927 25.2421L118.932 25.2486ZM117.519 22.7834L117.519 22.7834C116.925 23.4614 116.192 23.7174 115.493 23.5811C114.795 23.4449 114.134 22.9169 113.682 22.0305C113.439 21.5691 113.398 20.8993 113.515 20.2577C113.632 19.6161 113.908 19.0005 114.302 18.6483C115.039 17.978 116.296 17.8775 117.133 18.4305C118.524 19.3352 118.707 21.4113 117.519 22.7834Z" fill="#F1F7F6" stroke="#F1F7F6" stroke-width="0.016694"/>
  <path d="M189.731 15.4308L190.148 15.8314V20.656C190.148 25.3137 190.131 25.4973 189.797 25.9313M189.731 15.4308L187.727 25.7644M189.731 15.4308C189.03 14.7129 187.994 14.93 187.661 15.8481L189.731 15.4308ZM189.797 25.9313C189.497 26.3153 189.33 26.3821 188.762 26.332C188.212 26.2986 188.011 26.1817 187.727 25.7644M189.797 25.9313L189.791 25.9262C189.791 25.9262 189.791 25.9262 189.791 25.9262L189.797 25.9313ZM187.727 25.7644L187.734 25.7597L187.734 25.7597L187.727 25.7644ZM187.382 25.2534L187.382 25.2538L187.377 25.2469M187.382 25.2534L190.14 15.835L189.725 15.4368L189.725 15.4366C189.376 15.0795 188.945 14.9555 188.56 15.0341C188.175 15.1128 187.835 15.3944 187.669 15.8509C187.668 15.8509 187.668 15.8509 187.668 15.851L187.502 16.3682L187.494 16.3657L187.486 16.3631L187.466 16.3567L186.638 15.7882L186.638 15.7882C185.454 14.9716 184.121 14.7216 182.754 15.0383C180.321 15.6049 178.804 17.5879 178.671 20.3726L178.671 20.3726C178.537 23.0909 179.721 25.2242 181.871 26.2075C182.537 26.5071 183.516 26.5824 184.465 26.4739C185.414 26.3655 186.33 26.0736 186.871 25.641L187.372 25.2404L187.377 25.2469M187.382 25.2534L187.377 25.2469M187.382 25.2534L187.377 25.2469M184.892 23.5353C184.162 23.7785 183.416 23.5477 182.853 23.0264C182.29 22.5052 181.91 21.6933 181.91 20.7729C181.91 19.6685 182.42 18.8017 183.143 18.3618C183.865 17.9218 184.8 17.9095 185.645 18.5124C186.517 19.1323 186.835 20.2209 186.682 21.2374C186.529 22.2538 185.906 23.2002 184.892 23.5353ZM184.892 23.5353L184.889 23.5274L184.892 23.5353Z" fill="#F1F7F6" stroke="#F1F7F6" stroke-width="0.016694"/>
  <path d="M71.9115 23.2238L71.9115 23.2239C71.1113 24.9577 69.4608 26.2412 67.7109 26.5245C65.1439 26.9246 62.6099 25.5244 61.4762 23.0569C60.9263 21.8404 60.8762 20.0397 61.3596 18.6894C61.5928 18.0481 62.0595 17.3688 62.6307 16.7809C63.2018 16.1931 63.877 15.6972 64.5268 15.4223C64.9606 15.2471 65.2604 15.1472 65.6141 15.0973L71.9115 23.2238ZM71.9115 23.2238C72.1034 22.8151 72.2157 22.5237 72.2802 22.1637C72.3448 21.8035 72.3615 21.3743 72.3615 20.6899C72.3615 19.9803 72.3489 19.5595 72.2844 19.214C72.2199 18.8688 72.1035 18.5984 71.8949 18.1896C71.2947 17.0224 70.4111 16.1055 69.3611 15.5555C69.0193 15.3805 68.7404 15.2723 68.395 15.2015C68.0493 15.1307 67.6367 15.0974 67.0274 15.0723L71.9115 23.2238ZM68.9386 21.9783C68.8129 22.3136 68.5742 22.6526 68.2856 22.9349C67.997 23.2173 67.6579 23.4434 67.3309 23.5525L67.3308 23.5525C66.4666 23.8377 65.5868 23.4137 64.997 22.6712C64.4072 21.9286 64.1057 20.8658 64.3988 19.8695L64.3988 19.8694C64.8844 18.2785 66.7938 17.5744 68.101 18.4961L68.101 18.4962C68.5538 18.8232 68.8802 19.3928 69.0349 20.0306C69.1897 20.6684 69.1731 21.3755 68.9386 21.9783ZM68.9386 21.9783C68.9386 21.9783 68.9387 21.9783 68.9387 21.9782L68.9308 21.9753L68.9386 21.9783C68.9386 21.9783 68.9386 21.9783 68.9386 21.9783Z" fill="#F1F7F6" stroke="#F1F7F6" stroke-width="0.016694"/>
  <path d="M75.1772 15.2721L75.177 15.2722C75.036 15.3303 74.8864 15.4217 74.7596 15.5235C74.6327 15.6254 74.5295 15.7372 74.4802 15.8358L74.48 15.836C74.4662 15.8619 74.4525 15.9117 74.4395 15.9863C74.4265 16.0606 74.4144 16.1584 74.403 16.2792C74.3803 16.5207 74.361 16.8539 74.3454 17.2743C74.3141 18.1152 74.2974 19.3045 74.2974 20.8069C74.2974 22.0924 74.2985 23.0637 74.3162 23.8017C74.3339 24.5399 74.3684 25.0443 74.435 25.3962C74.5016 25.7481 74.6002 25.9463 74.7453 26.0733C74.8907 26.2007 75.0838 26.2577 75.3429 26.3245L75.3429 26.3246C76.0248 26.5075 76.789 26.2909 77.1538 25.8101L77.1538 25.8101L77.1539 25.8099C77.2857 25.6452 77.3608 25.4306 77.4025 24.7378C77.4442 24.0454 77.4526 22.8771 77.4526 20.8069C77.4526 19.2961 77.4359 18.1068 77.4046 17.266C77.3889 16.8456 77.3696 16.5124 77.347 16.2698C77.3356 16.1485 77.3235 16.0499 77.3105 15.9745C77.2975 15.8988 77.2839 15.8472 77.2699 15.8192C77.2332 15.7499 77.1478 15.6643 77.0337 15.5747C76.9199 15.4853 76.7783 15.3926 76.6305 15.3093C76.4826 15.226 76.3286 15.1521 76.1898 15.1002C76.0511 15.0482 75.9286 15.0185 75.8428 15.0224C75.7751 15.0395 75.4763 15.1392 75.1772 15.2721Z" fill="#F1F7F6" stroke="#F1F7F6" stroke-width="0.016694"/>
  <path d="M83.4735 22.4427L83.4652 22.4425C83.4986 21.1571 83.532 20.3847 83.5905 19.8771C83.649 19.3694 83.7327 19.1261 83.867 18.8993L83.8671 18.8993C84.722 17.4911 86.8851 17.7587 87.3212 19.3187L87.3213 19.3189C87.3423 19.4031 87.3632 19.5623 87.3828 19.7769C87.4024 19.9917 87.4206 20.2626 87.4363 20.5705C87.4676 21.1862 87.4885 21.9501 87.4885 22.7098C87.4885 24.0791 87.4885 24.7753 87.5406 25.1816C87.5666 25.3845 87.6055 25.5143 87.6635 25.6192C87.7215 25.7241 87.7989 25.8048 87.9033 25.9091C88.153 26.1505 88.3938 26.2997 88.6632 26.3661C88.9327 26.4324 89.2317 26.416 89.5982 26.3243C89.8567 26.2576 90.0555 26.1839 90.2089 26.0558C90.3621 25.9278 90.471 25.7449 90.5479 25.458C90.6249 25.1709 90.6697 24.7804 90.6953 24.238C90.7208 23.6956 90.7271 23.002 90.7271 22.1089C90.7187 20.1471 90.6686 18.967 90.4727 18.1292C90.277 17.2923 89.9358 16.7969 89.3439 16.2051C88.8771 15.7466 88.4566 15.4511 87.9364 15.2701C87.4161 15.089 86.7953 15.0222 85.9276 15.0222C85.3934 15.0222 85.0478 15.0389 84.7337 15.1097C84.4197 15.1804 84.1367 15.3052 83.7279 15.5221C83.6994 15.5372 83.6717 15.5519 83.6447 15.5662C83.4105 15.6904 83.2309 15.7857 83.0933 15.8547C82.9401 15.9316 82.838 15.9764 82.7701 15.9923C82.7362 16.0003 82.7096 16.0013 82.6891 15.9946C82.6679 15.9877 82.6543 15.9729 82.6457 15.9522C82.6373 15.9319 82.6336 15.9056 82.6319 15.8746C82.6304 15.8473 82.6305 15.8154 82.6305 15.7798C82.6305 15.775 82.6305 15.7701 82.6305 15.7651C82.6305 15.736 82.6185 15.7023 82.5958 15.6653C82.573 15.6284 82.54 15.5888 82.4986 15.548C82.416 15.4665 82.3013 15.3808 82.1733 15.3027C82.0454 15.2247 81.9045 15.1545 81.7696 15.1039C81.6347 15.0532 81.5064 15.0222 81.4035 15.0222C81.3717 15.0222 81.3269 15.0333 81.2732 15.0538C81.2196 15.0742 81.1579 15.1037 81.0924 15.1401C80.9614 15.2129 80.8159 15.3127 80.6911 15.4208L80.6911 15.4209L80.2265 15.8191L80.1765 20.3227C80.1514 22.8939 80.1556 24.2786 80.2932 25.0727C80.362 25.4695 80.4638 25.7178 80.6112 25.8927C80.7585 26.0677 80.952 26.1704 81.2063 26.2746L81.2064 26.2747C81.3644 26.3412 81.5432 26.3911 81.7033 26.4181C81.8637 26.4452 82.0039 26.449 82.0855 26.4246C82.3939 26.3246 82.6519 26.2122 82.8494 26.0916C83.047 25.971 83.1832 25.8427 83.249 25.7112C83.2568 25.6935 83.2655 25.6553 83.2747 25.5975C83.2839 25.5399 83.2935 25.4639 83.3033 25.3716C83.3228 25.1871 83.3431 24.9379 83.363 24.6416C83.4026 24.0491 83.4402 23.2687 83.4652 22.4425L83.4735 22.4427ZM83.4735 22.4427C83.4235 24.0954 83.3233 25.5645 83.2565 25.7147L89.6002 26.3324C88.8657 26.5161 88.3983 26.3992 87.8975 25.9151C87.4801 25.4977 87.4801 25.4476 87.4801 22.7098C87.4801 21.1907 87.3966 19.6548 87.3132 19.3209C86.8791 17.7684 84.7256 17.5013 83.8742 18.9036C83.6071 19.3543 83.5403 19.8718 83.4735 22.4427Z" fill="#F1F7F6" stroke="#F1F7F6" stroke-width="0.016694"/>
  <path d="M124.679 15.4879L124.679 15.4883L129.949 18.0195L129.948 18.0113C129.948 18.0113 129.948 18.0113 129.948 18.0113C130.514 17.9279 130.955 17.7572 131.254 17.5143C131.553 17.2716 131.71 16.9568 131.71 16.5838C131.71 16.0597 131.556 15.6742 131.246 15.4175C130.935 15.1605 130.465 15.0313 129.832 15.0229C128.798 15.023 127.849 15.3398 127.284 15.8721L127.283 15.8722L127.283 15.8726C127.196 15.9515 127.13 16.0112 127.077 16.0496C127.025 16.0877 126.984 16.1065 126.947 16.0996C126.909 16.0926 126.879 16.0602 126.848 16.0064C126.816 15.9522 126.782 15.8736 126.736 15.7698L126.736 15.7692C126.487 15.2058 125.791 14.9237 125.211 15.1393C125.078 15.189 124.829 15.3386 124.679 15.4879Z" fill="#F1F7F6" stroke="#F1F7F6" stroke-width="0.016694"/>
  <path d="M153.12 21.7745L153.453 21.3572M153.12 21.7745L149.681 21.8246L153.453 21.3572M153.12 21.7745L153.113 21.7693L153.116 21.7662M153.12 21.7745L153.119 21.7662L153.116 21.7662M153.453 21.3572C153.737 21.0066 153.787 20.7729 153.721 19.8213L153.453 21.3572ZM153.116 21.7662L153.447 21.3519L153.447 21.3519C153.588 21.1773 153.671 21.0325 153.71 20.8131C153.75 20.5931 153.746 20.2977 153.712 19.8219L150.398 15.2972C149.43 14.98 147.11 14.93 146.325 15.2138L146.328 15.2216C146.328 15.2216 146.328 15.2216 146.328 15.2216C145.203 15.63 144.37 16.3008 143.818 17.2505C143.266 18.2003 142.995 19.4299 142.995 20.9565C143.003 21.7329 143.016 22.1703 143.091 22.545C143.165 22.9194 143.303 23.2316 143.561 23.7574L143.554 23.7611L143.561 23.7574C143.97 24.5827 144.47 25.195 145.128 25.6385C145.786 26.0821 146.603 26.3572 147.645 26.5073C148.662 26.6491 149.751 26.5866 150.666 26.3718C151.123 26.2645 151.537 26.1192 151.878 25.9424C152.218 25.7657 152.484 25.5578 152.645 25.3256L152.645 25.3255C153.044 24.761 152.977 23.9811 152.513 23.5502C152.397 23.4422 152.279 23.3626 152.142 23.3109C152.005 23.2592 151.848 23.2353 151.655 23.2394C151.268 23.2477 150.735 23.3684 149.917 23.6022C148.396 24.0535 146.988 23.6532 146.485 22.5961L146.484 22.5959C146.418 22.4457 146.355 22.3037 146.309 22.193C146.286 22.1376 146.267 22.09 146.254 22.053C146.248 22.0345 146.242 22.0186 146.239 22.0056C146.235 21.9929 146.233 21.9823 146.233 21.9748C146.233 21.9712 146.235 21.9684 146.237 21.9667C146.238 21.965 146.24 21.9637 146.242 21.9627C146.246 21.9607 146.251 21.9589 146.257 21.9572C146.27 21.9538 146.288 21.9505 146.311 21.9471C146.357 21.9404 146.426 21.9335 146.513 21.9266C146.688 21.9128 146.941 21.8987 147.253 21.8851C147.877 21.858 148.737 21.8329 149.68 21.8162L149.681 21.8162L153.116 21.7662ZM149.534 18.3279L149.534 18.328C149.852 18.4786 150.116 18.667 150.3 18.8704C150.485 19.0737 150.59 19.2927 150.59 19.5041C150.59 19.5236 150.575 19.5396 150.551 19.5529C150.527 19.5664 150.491 19.5788 150.444 19.5902C150.351 19.6131 150.211 19.6324 150.028 19.6481C149.66 19.6794 149.113 19.6961 148.395 19.6961H146.225V19.6878V19.6794V19.6547L146.317 19.3017L146.317 19.3017L146.317 19.3012C146.393 19.0667 146.485 18.8902 146.638 18.7325C146.792 18.575 147.006 18.4368 147.323 18.278C147.994 17.926 148.681 17.9432 149.534 18.3279Z" fill="#F1F7F6" stroke="#F1F7F6" stroke-width="0.016694"/>
  <path d="M196.167 25.9153H196.159H196.151V27.6849C196.151 28.1688 196.13 28.6778 196.099 29.1075C196.067 29.5373 196.026 29.8871 195.984 30.0533C195.652 31.2486 194.208 31.5979 193.31 30.7173C193.31 30.7173 193.31 30.7173 193.31 30.7173L192.829 30.2356V23.1107C192.829 20.7569 192.845 18.9499 192.877 17.7042C192.892 17.0813 192.912 16.5989 192.934 16.2587C192.946 16.0885 192.958 15.9541 192.971 15.8554C192.977 15.8061 192.984 15.7659 192.991 15.7346L196.167 25.9153ZM196.167 25.9153H196.186L197.113 26.2246L197.113 26.2246C198.372 26.6498 199.564 26.6872 200.612 26.3602C201.659 26.0332 202.564 25.3417 203.247 24.3081L203.247 24.3081C205.248 21.29 204.297 17.0223 201.297 15.5391L201.297 15.5391C200.855 15.3138 200.555 15.1848 200.216 15.112C199.877 15.0392 199.498 15.0225 198.897 15.0225C198.279 15.0225 197.909 15.035 197.572 15.112C197.235 15.1889 196.931 15.3304 196.447 15.5891L196.447 15.5892L195.362 16.1401L195.358 16.1326L195.354 16.1252L195.198 15.8183L195.167 15.7523L195.166 15.752C195.117 15.6364 195.026 15.5163 194.916 15.4147C194.806 15.313 194.678 15.2303 194.554 15.189L194.553 15.1888C194.302 15.0885 194.171 15.0392 194.041 15.0392C193.912 15.0392 193.784 15.0884 193.541 15.1888C193.442 15.23 193.335 15.3045 193.239 15.3917C193.144 15.4789 193.061 15.5784 193.011 15.6692L196.167 25.9153ZM199.669 18.3794L199.67 18.3795C200.138 18.7054 200.448 19.0067 200.643 19.361C200.837 19.7153 200.917 20.1216 200.925 20.6566V20.6567C200.925 21.317 200.812 21.8611 200.574 22.303C200.335 22.745 199.97 23.0841 199.468 23.3352C199.134 23.5021 198.921 23.5946 198.717 23.624C198.512 23.6535 198.319 23.6197 198.027 23.5361C196.912 23.2428 196.268 22.1873 196.161 21.079C196.055 19.9708 196.485 18.8065 197.524 18.2954C198.295 17.9102 199.016 17.9435 199.669 18.3794Z" fill="#F1F7F6" stroke="#F1F7F6" stroke-width="0.016694"/>
</svg>