<svg xmlns="http://www.w3.org/2000/svg" width="136" height="15" viewBox="0 0 136 15" fill="none">
  <mask id="path-1-inside-1_41_506" fill="white">
    <path d="M7.39354 3.11039V0.712276H0.775391V11.6127H3.26693V7.61072H7.31571V5.21261H3.26693V3.11039H7.39354ZM8.78767 11.6127H11.1235V0.245117H8.78767V11.6127ZM18.4854 3.82673V4.55858C17.9715 3.96688 17.2085 3.60866 16.1652 3.60866C14.1252 3.60866 12.4434 5.39947 12.4434 7.71967C12.4434 10.0399 14.1252 11.8307 16.1652 11.8307C17.2085 11.8307 17.9715 11.4725 18.4854 10.8808V11.6127H20.8212V3.82673H18.4854ZM16.6324 9.6195C15.5579 9.6195 14.7792 8.88757 14.7792 7.71967C14.7792 6.55177 15.5579 5.81991 16.6324 5.81991C17.7068 5.81991 18.4854 6.55177 18.4854 7.71967C18.4854 8.88757 17.7068 9.6195 16.6324 9.6195ZM24.67 6.10021C24.67 5.81991 24.9192 5.66417 25.3241 5.66417C25.8379 5.66417 26.1493 5.94446 26.3674 6.34939L28.3606 5.27492C27.7066 4.16926 26.5854 3.60866 25.3241 3.60866C23.7046 3.60866 22.2719 4.46515 22.2719 6.16253C22.2719 8.85645 26.1026 8.40489 26.1026 9.26129C26.1026 9.57279 25.8223 9.74405 25.2617 9.74405C24.5766 9.74405 24.1406 9.41704 23.9382 8.82533L21.9138 9.97763C22.5211 11.239 23.7046 11.8307 25.2617 11.8307C26.9435 11.8307 28.5007 11.0677 28.5007 9.27689C28.5007 6.3961 24.67 6.98781 24.67 6.10021ZM34.2296 3.60866C33.2021 3.60866 32.423 3.98239 32.0024 4.55858V0.712276H29.6669V11.6127H32.0024V7.36154C32.0024 6.25596 32.5945 5.7576 33.4512 5.7576C34.1985 5.7576 34.8054 6.20924 34.8054 7.17468V11.6127H37.1412V6.83207C37.1412 4.72985 35.8026 3.60866 34.2296 3.60866ZM50.0354 0.712276H41.9377V3.11039H44.7407V11.6127H47.2325V3.11039H50.0354V0.712276ZM51.7358 8.65399H57.2633C57.3262 8.35818 57.3572 8.04668 57.3572 7.71967C57.3572 5.36835 55.6756 3.60866 53.4019 3.60866C50.9411 3.60866 49.2595 5.39947 49.2595 7.71967C49.2595 10.0399 50.9101 11.8307 53.5734 11.8307C55.0525 11.8307 56.2048 11.2857 56.9677 10.2268L55.099 9.15234C54.7879 9.49487 54.2431 9.74405 53.6044 9.74405C52.7477 9.74405 52.0315 9.46376 51.7358 8.65399ZM51.6892 6.90998C51.9073 6.11581 52.4986 5.67977 53.3864 5.67977C54.0871 5.67977 54.7879 6.00678 55.037 6.90998H51.6892ZM62.3433 11.8307C63.8689 11.8307 65.1928 11.0365 65.8625 9.82189L63.8223 8.65399C63.5732 9.19906 62.9975 9.52607 62.3122 9.52607C61.2995 9.52607 60.5522 8.79414 60.5522 7.71967C60.5522 6.6452 61.2995 5.91335 62.3122 5.91335C62.9975 5.91335 63.5577 6.24036 63.8223 6.78535L65.8625 5.60193C65.1928 4.40284 63.8534 3.60866 62.3433 3.60866C59.9764 3.60866 58.2164 5.39947 58.2164 7.71967C58.2164 10.0399 59.9764 11.8307 62.3433 11.8307ZM71.3647 3.60866C70.3372 3.60866 69.5589 3.98239 69.1383 4.55858V0.712276H66.8025V11.6127H69.1383V7.36154C69.1383 6.25596 69.7296 5.7576 70.5863 5.7576C71.3336 5.7576 71.9413 6.20924 71.9413 7.17468V11.6127H74.2771V6.83207C74.2771 4.72985 72.9377 3.60866 71.3647 3.60866ZM80.4441 3.60866C79.4158 3.60866 78.6375 3.98239 78.2169 4.55858V3.82673H75.8811V11.6127H78.2169V7.36154C78.2169 6.25596 78.809 5.7576 79.6649 5.7576C80.4122 5.7576 81.0199 6.20924 81.0199 7.17468V11.6127H83.3557V6.83207C83.3557 4.72985 82.0162 3.60866 80.4441 3.60866ZM88.6969 11.8307C90.9862 11.8307 92.8238 10.0399 92.8238 7.71967C92.8238 5.39947 90.9862 3.60866 88.6969 3.60866C86.4077 3.60866 84.5701 5.39947 84.5701 7.71967C84.5701 10.0399 86.4077 11.8307 88.6969 11.8307ZM88.6969 9.55719C87.685 9.55719 86.9059 8.82533 86.9059 7.71967C86.9059 6.61408 87.685 5.88223 88.6969 5.88223C89.7089 5.88223 90.488 6.61408 90.488 7.71967C90.488 8.82533 89.7089 9.55719 88.6969 9.55719ZM94.1444 11.6127H96.4802V0.245117H94.1444V11.6127ZM101.927 11.8307C104.216 11.8307 106.054 10.0399 106.054 7.71967C106.054 5.39947 104.216 3.60866 101.927 3.60866C99.6376 3.60866 97.8008 5.39947 97.8008 7.71967C97.8008 10.0399 99.6376 11.8307 101.927 11.8307ZM101.927 9.55719C100.915 9.55719 100.137 8.82533 100.137 7.71967C100.137 6.61408 100.915 5.88223 101.927 5.88223C102.94 5.88223 103.718 6.61408 103.718 7.71967C103.718 8.82533 102.94 9.55719 101.927 9.55719ZM113.09 3.82673V4.6209C112.576 3.98239 111.829 3.60866 110.816 3.60866C108.605 3.60866 106.986 5.41507 106.986 7.564C106.986 9.71294 108.605 11.5193 110.816 11.5193C111.829 11.5193 112.576 11.1455 113.09 10.5071V11.2234C113.09 12.329 112.42 12.8896 111.33 12.8896C110.302 12.8896 109.851 12.4536 109.555 11.9086L107.561 13.0609C108.278 14.3378 109.633 14.9451 111.252 14.9451C113.323 14.9451 115.363 13.8395 115.363 11.2234V3.82673H113.09ZM111.206 9.37033C110.1 9.37033 109.321 8.63847 109.321 7.564C109.321 6.48954 110.1 5.7576 111.206 5.7576C112.311 5.7576 113.09 6.48954 113.09 7.564C113.09 8.63847 112.311 9.37033 111.206 9.37033ZM118.245 3.14151C119.008 3.14151 119.646 2.50308 119.646 1.74003C119.646 0.977054 119.008 0.338548 118.245 0.338548C117.482 0.338548 116.843 0.977054 116.843 1.74003C116.843 2.50308 117.482 3.14151 118.245 3.14151ZM117.077 11.6127H119.413V3.82673H117.077V11.6127ZM123.209 8.65399H128.736C128.799 8.35818 128.83 8.04668 128.83 7.71967C128.83 5.36835 127.149 3.60866 124.875 3.60866C122.414 3.60866 120.733 5.39947 120.733 7.71967C120.733 10.0399 122.383 11.8307 125.046 11.8307C126.525 11.8307 127.678 11.2857 128.441 10.2268L126.572 9.15234C126.261 9.49487 125.716 9.74405 125.077 9.74405C124.221 9.74405 123.504 9.46376 123.209 8.65399ZM123.162 6.90998C123.38 6.11581 123.972 5.67977 124.859 5.67977C125.56 5.67977 126.261 6.00678 126.51 6.90998H123.162ZM132.062 6.10021C132.062 5.81991 132.311 5.66417 132.716 5.66417C133.23 5.66417 133.541 5.94446 133.759 6.34939L135.753 5.27492C135.098 4.16926 133.977 3.60866 132.716 3.60866C131.097 3.60866 129.664 4.46515 129.664 6.16253C129.664 8.85645 133.494 8.40489 133.494 9.26129C133.494 9.57279 133.214 9.74405 132.654 9.74405C131.969 9.74405 131.533 9.41704 131.33 8.82533L129.306 9.97763C129.913 11.239 131.097 11.8307 132.654 11.8307C134.336 11.8307 135.892 11.0677 135.892 9.27689C135.892 6.3961 132.062 6.98781 132.062 6.10021Z"/>
  </mask>
  <path d="M7.39354 3.11039V0.712276H0.775391V11.6127H3.26693V7.61072H7.31571V5.21261H3.26693V3.11039H7.39354ZM8.78767 11.6127H11.1235V0.245117H8.78767V11.6127ZM18.4854 3.82673V4.55858C17.9715 3.96688 17.2085 3.60866 16.1652 3.60866C14.1252 3.60866 12.4434 5.39947 12.4434 7.71967C12.4434 10.0399 14.1252 11.8307 16.1652 11.8307C17.2085 11.8307 17.9715 11.4725 18.4854 10.8808V11.6127H20.8212V3.82673H18.4854ZM16.6324 9.6195C15.5579 9.6195 14.7792 8.88757 14.7792 7.71967C14.7792 6.55177 15.5579 5.81991 16.6324 5.81991C17.7068 5.81991 18.4854 6.55177 18.4854 7.71967C18.4854 8.88757 17.7068 9.6195 16.6324 9.6195ZM24.67 6.10021C24.67 5.81991 24.9192 5.66417 25.3241 5.66417C25.8379 5.66417 26.1493 5.94446 26.3674 6.34939L28.3606 5.27492C27.7066 4.16926 26.5854 3.60866 25.3241 3.60866C23.7046 3.60866 22.2719 4.46515 22.2719 6.16253C22.2719 8.85645 26.1026 8.40489 26.1026 9.26129C26.1026 9.57279 25.8223 9.74405 25.2617 9.74405C24.5766 9.74405 24.1406 9.41704 23.9382 8.82533L21.9138 9.97763C22.5211 11.239 23.7046 11.8307 25.2617 11.8307C26.9435 11.8307 28.5007 11.0677 28.5007 9.27689C28.5007 6.3961 24.67 6.98781 24.67 6.10021ZM34.2296 3.60866C33.2021 3.60866 32.423 3.98239 32.0024 4.55858V0.712276H29.6669V11.6127H32.0024V7.36154C32.0024 6.25596 32.5945 5.7576 33.4512 5.7576C34.1985 5.7576 34.8054 6.20924 34.8054 7.17468V11.6127H37.1412V6.83207C37.1412 4.72985 35.8026 3.60866 34.2296 3.60866ZM50.0354 0.712276H41.9377V3.11039H44.7407V11.6127H47.2325V3.11039H50.0354V0.712276ZM51.7358 8.65399H57.2633C57.3262 8.35818 57.3572 8.04668 57.3572 7.71967C57.3572 5.36835 55.6756 3.60866 53.4019 3.60866C50.9411 3.60866 49.2595 5.39947 49.2595 7.71967C49.2595 10.0399 50.9101 11.8307 53.5734 11.8307C55.0525 11.8307 56.2048 11.2857 56.9677 10.2268L55.099 9.15234C54.7879 9.49487 54.2431 9.74405 53.6044 9.74405C52.7477 9.74405 52.0315 9.46376 51.7358 8.65399ZM51.6892 6.90998C51.9073 6.11581 52.4986 5.67977 53.3864 5.67977C54.0871 5.67977 54.7879 6.00678 55.037 6.90998H51.6892ZM62.3433 11.8307C63.8689 11.8307 65.1928 11.0365 65.8625 9.82189L63.8223 8.65399C63.5732 9.19906 62.9975 9.52607 62.3122 9.52607C61.2995 9.52607 60.5522 8.79414 60.5522 7.71967C60.5522 6.6452 61.2995 5.91335 62.3122 5.91335C62.9975 5.91335 63.5577 6.24036 63.8223 6.78535L65.8625 5.60193C65.1928 4.40284 63.8534 3.60866 62.3433 3.60866C59.9764 3.60866 58.2164 5.39947 58.2164 7.71967C58.2164 10.0399 59.9764 11.8307 62.3433 11.8307ZM71.3647 3.60866C70.3372 3.60866 69.5589 3.98239 69.1383 4.55858V0.712276H66.8025V11.6127H69.1383V7.36154C69.1383 6.25596 69.7296 5.7576 70.5863 5.7576C71.3336 5.7576 71.9413 6.20924 71.9413 7.17468V11.6127H74.2771V6.83207C74.2771 4.72985 72.9377 3.60866 71.3647 3.60866ZM80.4441 3.60866C79.4158 3.60866 78.6375 3.98239 78.2169 4.55858V3.82673H75.8811V11.6127H78.2169V7.36154C78.2169 6.25596 78.809 5.7576 79.6649 5.7576C80.4122 5.7576 81.0199 6.20924 81.0199 7.17468V11.6127H83.3557V6.83207C83.3557 4.72985 82.0162 3.60866 80.4441 3.60866ZM88.6969 11.8307C90.9862 11.8307 92.8238 10.0399 92.8238 7.71967C92.8238 5.39947 90.9862 3.60866 88.6969 3.60866C86.4077 3.60866 84.5701 5.39947 84.5701 7.71967C84.5701 10.0399 86.4077 11.8307 88.6969 11.8307ZM88.6969 9.55719C87.685 9.55719 86.9059 8.82533 86.9059 7.71967C86.9059 6.61408 87.685 5.88223 88.6969 5.88223C89.7089 5.88223 90.488 6.61408 90.488 7.71967C90.488 8.82533 89.7089 9.55719 88.6969 9.55719ZM94.1444 11.6127H96.4802V0.245117H94.1444V11.6127ZM101.927 11.8307C104.216 11.8307 106.054 10.0399 106.054 7.71967C106.054 5.39947 104.216 3.60866 101.927 3.60866C99.6376 3.60866 97.8008 5.39947 97.8008 7.71967C97.8008 10.0399 99.6376 11.8307 101.927 11.8307ZM101.927 9.55719C100.915 9.55719 100.137 8.82533 100.137 7.71967C100.137 6.61408 100.915 5.88223 101.927 5.88223C102.94 5.88223 103.718 6.61408 103.718 7.71967C103.718 8.82533 102.94 9.55719 101.927 9.55719ZM113.09 3.82673V4.6209C112.576 3.98239 111.829 3.60866 110.816 3.60866C108.605 3.60866 106.986 5.41507 106.986 7.564C106.986 9.71294 108.605 11.5193 110.816 11.5193C111.829 11.5193 112.576 11.1455 113.09 10.5071V11.2234C113.09 12.329 112.42 12.8896 111.33 12.8896C110.302 12.8896 109.851 12.4536 109.555 11.9086L107.561 13.0609C108.278 14.3378 109.633 14.9451 111.252 14.9451C113.323 14.9451 115.363 13.8395 115.363 11.2234V3.82673H113.09ZM111.206 9.37033C110.1 9.37033 109.321 8.63847 109.321 7.564C109.321 6.48954 110.1 5.7576 111.206 5.7576C112.311 5.7576 113.09 6.48954 113.09 7.564C113.09 8.63847 112.311 9.37033 111.206 9.37033ZM118.245 3.14151C119.008 3.14151 119.646 2.50308 119.646 1.74003C119.646 0.977054 119.008 0.338548 118.245 0.338548C117.482 0.338548 116.843 0.977054 116.843 1.74003C116.843 2.50308 117.482 3.14151 118.245 3.14151ZM117.077 11.6127H119.413V3.82673H117.077V11.6127ZM123.209 8.65399H128.736C128.799 8.35818 128.83 8.04668 128.83 7.71967C128.83 5.36835 127.149 3.60866 124.875 3.60866C122.414 3.60866 120.733 5.39947 120.733 7.71967C120.733 10.0399 122.383 11.8307 125.046 11.8307C126.525 11.8307 127.678 11.2857 128.441 10.2268L126.572 9.15234C126.261 9.49487 125.716 9.74405 125.077 9.74405C124.221 9.74405 123.504 9.46376 123.209 8.65399ZM123.162 6.90998C123.38 6.11581 123.972 5.67977 124.859 5.67977C125.56 5.67977 126.261 6.00678 126.51 6.90998H123.162ZM132.062 6.10021C132.062 5.81991 132.311 5.66417 132.716 5.66417C133.23 5.66417 133.541 5.94446 133.759 6.34939L135.753 5.27492C135.098 4.16926 133.977 3.60866 132.716 3.60866C131.097 3.60866 129.664 4.46515 129.664 6.16253C129.664 8.85645 133.494 8.40489 133.494 9.26129C133.494 9.57279 133.214 9.74405 132.654 9.74405C131.969 9.74405 131.533 9.41704 131.33 8.82533L129.306 9.97763C129.913 11.239 131.097 11.8307 132.654 11.8307C134.336 11.8307 135.892 11.0677 135.892 9.27689C135.892 6.3961 132.062 6.98781 132.062 6.10021Z" fill="#F1F7F6" stroke="#F1F7F6" stroke-width="1.63343" mask="url(#path-1-inside-1_41_506)"/>
</svg>