<svg xmlns="http://www.w3.org/2000/svg" width="29" height="29" viewBox="0 0 29 29" fill="none">
  <path d="M25.7063 23.3321L23.6436 19.1843L23.6436 19.1843C22.3246 16.5349 20.602 13.1864 19.1892 10.5002C18.4829 9.15708 17.8539 7.97939 17.3915 7.13739C17.1603 6.71645 16.9706 6.3791 16.8336 6.14686C16.7652 6.03083 16.7096 5.94049 16.6684 5.87893C16.6479 5.84828 16.6304 5.82387 16.6163 5.80679C16.6093 5.79837 16.6023 5.79061 16.5954 5.7846C16.592 5.78161 16.5877 5.7782 16.5826 5.77535C16.5781 5.77282 16.5694 5.76859 16.558 5.76859C16.5463 5.76859 16.5375 5.7732 16.5334 5.77565C16.5286 5.7785 16.5245 5.78184 16.5215 5.78465C16.5153 5.79032 16.509 5.79754 16.5028 5.80522C16.4904 5.82084 16.475 5.84305 16.4571 5.87078C16.421 5.9265 16.3724 6.00803 16.313 6.11214C16.194 6.32055 16.0303 6.62158 15.8341 6.99265C15.4417 7.73486 14.9185 8.75838 14.3613 9.88413C13.793 11.0095 13.2645 12.0324 12.8696 12.7739C12.6721 13.1447 12.5082 13.4448 12.3895 13.6521C12.3301 13.7558 12.2823 13.8358 12.2474 13.8896C12.2317 13.9138 12.2191 13.9321 12.2095 13.9446C12.2078 13.9432 12.2061 13.9418 12.2042 13.9402C12.1866 13.9255 12.1622 13.9029 12.1312 13.8724C12.0692 13.8115 11.9827 13.7214 11.8743 13.6048C11.6576 13.3718 11.3544 13.0345 10.9864 12.6182C10.2504 11.7856 9.25581 10.6375 8.17581 9.37566L25.7063 23.3321ZM25.7063 23.3321L26.0985 22.816L26.0985 22.816L26.0999 22.8143C26.2221 22.6699 26.4193 22.3548 26.6413 21.965C26.8626 21.5763 27.1067 21.1165 27.3224 20.685C29.9748 15.3803 28.8642 8.87336 24.5562 4.63338L24.5561 4.63336C23.772 3.86055 23.211 3.35078 22.6396 2.94058C22.0685 2.53063 21.4856 2.21925 20.6569 1.84463C18.2301 0.755983 14.9183 0.234716 12.5624 0.597128C9.9088 1.02809 7.16466 2.27577 5.3291 3.86206L4.26816 4.79038L8.17576 9.37559L25.7063 23.3321Z" fill="#F1F7F6" stroke="#F1F7F6" stroke-width="0.0816713"/>
  <path d="M2.22711 4.32196L2.22717 4.32218L2.79564 6.48236L2.79952 6.49712L2.79277 6.51081L1.97418 8.17074L1.97401 8.17109C0.840114 10.4162 0.454898 12.1152 0.454898 14.7014C0.454898 18.6237 1.72347 21.5924 4.64982 24.5641L4.64983 24.5641C6.01198 25.949 6.87239 26.6052 8.16314 27.2392C12.8116 29.5068 18.367 29.1211 22.5613 26.2644L22.5616 26.2642C23.0393 25.9457 23.483 25.6557 23.813 25.4451C23.9779 25.3399 24.1147 25.2544 24.2132 25.1952C24.2624 25.1656 24.3025 25.1423 24.3318 25.1263C24.3465 25.1184 24.359 25.1119 24.369 25.1074C24.3715 25.1062 24.374 25.1051 24.3765 25.1041C24.3789 25.1031 24.3812 25.1022 24.3835 25.1014C24.3868 25.1003 24.3946 25.0976 24.4034 25.0976C24.4165 25.0976 24.4297 25.1025 24.4386 25.1063C24.4493 25.1107 24.4616 25.1168 24.4752 25.1242C24.5026 25.1391 24.5378 25.1606 24.5797 25.1877C24.6637 25.2418 24.7765 25.3197 24.9103 25.415C25.1779 25.6058 25.5306 25.8675 25.9058 26.1517C26.2921 26.4358 26.6497 26.6912 26.9133 26.8698C27.0453 26.9592 27.1531 27.0289 27.229 27.0733C27.24 27.0797 27.2501 27.0855 27.2595 27.0908C27.237 27.0552 27.2056 27.0093 27.1657 26.9537C27.0667 26.8159 26.918 26.6218 26.7306 26.3861C26.3558 25.9148 25.8275 25.2786 25.2366 24.5968L25.2364 24.5965C24.054 23.2095 21.7575 20.5264 20.1204 18.6392L20.1201 18.6388C19.313 17.684 18.5628 16.8145 18.0032 16.1838C17.7233 15.8684 17.4913 15.613 17.3237 15.4366C17.2399 15.3483 17.1726 15.2802 17.1236 15.2344C17.0991 15.2114 17.0799 15.1947 17.0659 15.1839C17.0646 15.183 17.0634 15.1821 17.0623 15.1812C17.0621 15.1815 17.0619 15.1817 17.0617 15.182C17.0507 15.1942 17.0359 15.2135 17.0171 15.2404C16.9797 15.2939 16.9294 15.3737 16.8675 15.4773C16.744 15.6845 16.5759 15.9844 16.3756 16.3552C15.9751 17.0965 15.4467 18.1193 14.8897 19.2445C14.3325 20.3704 13.8094 21.3939 13.4169 22.1362C13.2207 22.5072 13.057 22.8083 12.938 23.0167C12.8786 23.1208 12.83 23.2023 12.7939 23.258C12.776 23.2858 12.7606 23.308 12.7482 23.3236C12.742 23.3313 12.7358 23.3385 12.7296 23.3442C12.7265 23.347 12.7225 23.3503 12.7177 23.3532C12.7135 23.3556 12.7047 23.3602 12.693 23.3602C12.6588 23.3602 12.6319 23.3391 12.6006 23.3005C12.5684 23.2607 12.5232 23.1915 12.4541 23.0728C12.3153 22.8345 12.0754 22.3888 11.642 21.559C10.775 19.8989 9.13208 16.6982 5.97145 10.5361L5.9714 10.5361C4.8004 8.23952 3.72605 6.15335 2.93879 4.64136C2.54515 3.88534 2.22333 3.27297 1.99711 2.84965C1.88893 2.64721 1.80271 2.48819 1.74098 2.37742C1.76394 2.48404 1.79683 2.62746 1.838 2.79959C1.9317 3.19142 2.06803 3.73109 2.22711 4.32196ZM17.0489 15.1725C17.0487 15.1724 17.049 15.1726 17.0496 15.1728L17.0489 15.1725Z" fill="#F1F7F6" stroke="#F1F7F6" stroke-width="0.0816713"/>
</svg>