<svg width="1919" height="816" viewBox="0 0 1919 816" fill="none" xmlns="http://www.w3.org/2000/svg">
<mask id="mask0_39_9" style="mask-type:alpha" maskUnits="userSpaceOnUse" x="-1" y="0" width="1928" height="816">
<rect x="-1" width="1928" height="816" fill="url(#paint0_linear_39_9)"/>
</mask>
<g mask="url(#mask0_39_9)">
<g opacity="0.46">
<path d="M-1445.73 869.573H-1455.79L412.485 306.753H415.385L-1445.73 869.573ZM504.175 306.753H501.275L-1147.62 869.573H-1137.56L504.175 306.753ZM592.975 306.753H590.075L-839.445 869.573H-829.385L592.975 306.753ZM681.765 306.753H678.865L-531.285 869.573H-521.225L681.765 306.753ZM770.555 306.753H767.655L-223.115 869.573H-213.055L770.555 306.753ZM859.345 306.753H856.445L85.0546 869.573H95.1146L859.345 306.753ZM948.145 306.753H945.245L393.225 869.573H403.285L948.145 306.753ZM1036.93 306.753H1034.03L701.395 869.573H711.455L1036.93 306.753ZM1125.72 306.753H1122.82L1009.56 869.573H1019.62L1125.72 306.753ZM1214.52 306.753H1211.62L1317.73 869.573H1327.79L1214.52 306.753ZM1303.31 306.753H1300.41L1625.89 869.573H1635.95L1303.31 306.753ZM1392.1 306.753H1389.2L1934.06 869.573H1944.12L1392.1 306.753ZM1480.9 306.753H1478L2242.23 869.573H2252.29L1480.9 306.753ZM1569.69 306.753H1566.79L2550.4 869.573H2560.46L1569.69 306.753ZM1658.48 306.753H1655.58L2858.57 869.573H2868.63L1658.48 306.753ZM1747.28 306.753H1744.38L3166.74 869.573H3176.8L1747.28 306.753ZM1836.07 306.753H1833.17L3474.91 869.573H3484.97L1836.07 306.753ZM1924.86 306.753H1921.96L3783.08 869.573H3793.14L1924.86 306.753ZM4006.39 661.593H-1669.04L-1682.03 664.253H4019.37L4006.39 661.593ZM3705.79 599.873H-1368.45L-1378.83 602.003H3716.15L3705.79 599.873ZM3462.77 549.973H-1125.44L-1133.92 551.713H3471.25L3462.77 549.973ZM3262.24 508.803H-924.895L-931.955 510.253H3269.31L3262.24 508.803ZM3093.95 474.253H-756.605L-762.575 475.483H3099.92L3093.95 474.253ZM2950.71 444.843H-613.355L-618.465 445.893H2955.83L2950.71 444.843ZM2827.3 419.503H-489.955L-494.385 420.413H2831.72L2827.3 419.503ZM2719.88 397.443H-382.525L-386.395 398.243H2723.75L2719.88 397.443ZM2625.52 378.073H-288.175L-291.595 378.773H2628.93L2625.52 378.073ZM2541.99 360.923H-204.635L-207.665 361.543H2545.03L2541.99 360.923ZM2467.51 345.633H-130.165L-132.875 346.193H2470.23L2467.51 345.633Z" fill="#096865"/>
</g>
</g>
<defs>
<linearGradient id="paint0_linear_39_9" x1="963" y1="291.5" x2="963" y2="816" gradientUnits="userSpaceOnUse">
<stop stop-color="#D9D9D9" stop-opacity="0"/>
<stop offset="0.60629" stop-color="#D9D9D9"/>
<stop offset="1" stop-color="#D9D9D9" stop-opacity="0.1"/>
</linearGradient>
</defs>
</svg>
