<svg xmlns="http://www.w3.org/2000/svg" width="92" height="36" viewBox="0 0 92 36" fill="none">
  <mask id="path-1-inside-1_41_712" fill="white">
    <path fill-rule="evenodd" clip-rule="evenodd" d="M10.7408 0.000954193H14.0034V3.07225C14.3457 3.051 14.6981 3.03637 15.0073 3.03154C15.3732 3.0281 15.7373 3.03846 16.0988 3.06236V0.000954193H19.3615V3.66384C21.5099 4.32629 23.4907 5.49527 25.1602 7.10699C27.2218 9.10896 28.5087 11.4327 29.2356 14.4595C29.4978 15.5439 29.5931 18.1059 29.4263 19.3691C28.7232 24.6004 25.4104 28.9499 20.5962 30.94C20.1883 31.1088 19.7763 31.258 19.3615 31.3877V35.1913H16.0988V32.0082C15.3985 32.0588 14.6983 32.0576 14.0034 32.0055V35.1913H10.7408V31.3736C8.52933 30.6708 6.46788 29.4249 4.74723 27.6749C1.41061 24.2906 -0.0670328 19.2856 0.886287 14.6263C1.4702 11.8021 2.79293 9.34729 4.85448 7.29765C6.56654 5.59479 8.54878 4.37541 10.7408 3.67795V0.000954193ZM10.6459 9.39495H11.4801L11.5516 12.1357C11.5835 13.1508 11.6101 14.1766 11.6278 14.8572L11.6278 14.8575L11.6278 14.8587C11.6365 15.192 11.643 15.4423 11.6469 15.5677L11.6588 16.2469L12.1712 15.9967L12.8258 15.6546L12.8291 15.6529L12.8318 15.6515C13.4925 15.3061 14.538 14.7596 15.6151 14.1973L18.5585 12.6362L18.5942 11.0275L18.63 9.40687L18.9636 9.32345C19.1424 9.27579 19.2615 9.27579 19.2377 9.32345C19.2139 9.3592 19.5594 9.40687 20.0242 9.4307C20.0781 9.43209 20.1284 9.43299 20.1755 9.43383C20.3696 9.43732 20.5114 9.43986 20.6466 9.47124C21.0135 9.55643 21.3312 9.85419 22.5114 10.9605L22.8246 11.2539L23.6826 12.0642L23.7541 14.1854L23.8375 16.3065L17.7481 19.524L11.6588 22.7414V25.2082C11.6588 26.5785 11.6231 27.6868 11.5754 27.6868C11.5158 27.6868 11.1226 27.3412 10.6817 26.936C10.2407 26.5309 9.09676 25.4703 8.15535 24.5885L6.42746 22.9798L6.41554 17.5339V12.1L7.98852 10.67C8.85843 9.88353 9.62108 9.27579 9.69258 9.31154C9.75216 9.3592 10.1931 9.39495 10.6459 9.39495ZM23.8136 20.1079V22.8964L21.2278 25.3392L18.63 27.7702L18.5942 23.945C18.5704 20.3939 18.5823 20.1079 18.773 19.9649C19.059 19.7504 23.6111 17.3194 23.7302 17.3194C23.7779 17.3194 23.8136 18.5707 23.8136 20.1079Z"/>
  </mask>
  <path fill-rule="evenodd" clip-rule="evenodd" d="M10.7408 0.000954193H14.0034V3.07225C14.3457 3.051 14.6981 3.03637 15.0073 3.03154C15.3732 3.0281 15.7373 3.03846 16.0988 3.06236V0.000954193H19.3615V3.66384C21.5099 4.32629 23.4907 5.49527 25.1602 7.10699C27.2218 9.10896 28.5087 11.4327 29.2356 14.4595C29.4978 15.5439 29.5931 18.1059 29.4263 19.3691C28.7232 24.6004 25.4104 28.9499 20.5962 30.94C20.1883 31.1088 19.7763 31.258 19.3615 31.3877V35.1913H16.0988V32.0082C15.3985 32.0588 14.6983 32.0576 14.0034 32.0055V35.1913H10.7408V31.3736C8.52933 30.6708 6.46788 29.4249 4.74723 27.6749C1.41061 24.2906 -0.0670328 19.2856 0.886287 14.6263C1.4702 11.8021 2.79293 9.34729 4.85448 7.29765C6.56654 5.59479 8.54878 4.37541 10.7408 3.67795V0.000954193ZM10.6459 9.39495H11.4801L11.5516 12.1357C11.5835 13.1508 11.6101 14.1766 11.6278 14.8572L11.6278 14.8575L11.6278 14.8587C11.6365 15.192 11.643 15.4423 11.6469 15.5677L11.6588 16.2469L12.1712 15.9967L12.8258 15.6546L12.8291 15.6529L12.8318 15.6515C13.4925 15.3061 14.538 14.7596 15.6151 14.1973L18.5585 12.6362L18.5942 11.0275L18.63 9.40687L18.9636 9.32345C19.1424 9.27579 19.2615 9.27579 19.2377 9.32345C19.2139 9.3592 19.5594 9.40687 20.0242 9.4307C20.0781 9.43209 20.1284 9.43299 20.1755 9.43383C20.3696 9.43732 20.5114 9.43986 20.6466 9.47124C21.0135 9.55643 21.3312 9.85419 22.5114 10.9605L22.8246 11.2539L23.6826 12.0642L23.7541 14.1854L23.8375 16.3065L17.7481 19.524L11.6588 22.7414V25.2082C11.6588 26.5785 11.6231 27.6868 11.5754 27.6868C11.5158 27.6868 11.1226 27.3412 10.6817 26.936C10.2407 26.5309 9.09676 25.4703 8.15535 24.5885L6.42746 22.9798L6.41554 17.5339V12.1L7.98852 10.67C8.85843 9.88353 9.62108 9.27579 9.69258 9.31154C9.75216 9.3592 10.1931 9.39495 10.6459 9.39495ZM23.8136 20.1079V22.8964L21.2278 25.3392L18.63 27.7702L18.5942 23.945C18.5704 20.3939 18.5823 20.1079 18.773 19.9649C19.059 19.7504 23.6111 17.3194 23.7302 17.3194C23.7779 17.3194 23.8136 18.5707 23.8136 20.1079Z" fill="#F1F7F6"/>
  <path d="M14.0034 0.000954193H14.7125V-0.708079H14.0034V0.000954193ZM10.7408 0.000954193V-0.708079H10.0317V0.000954193H10.7408ZM14.0034 3.07225H13.2944V3.82667L14.0474 3.77992L14.0034 3.07225ZM15.0073 3.03154L15.0007 2.32253L14.9963 2.32259L15.0073 3.03154ZM16.0988 3.06236L16.052 3.76985L16.8079 3.81982V3.06236H16.0988ZM16.0988 0.000954193V-0.708079H15.3898V0.000954193H16.0988ZM19.3615 0.000954193H20.0705V-0.708079H19.3615V0.000954193ZM19.3615 3.66384H18.6525V4.18719L19.1526 4.3414L19.3615 3.66384ZM25.1602 7.10699L25.6542 6.59832L25.6527 6.59687L25.1602 7.10699ZM29.2356 14.4595L28.5462 14.625L28.5465 14.6261L29.2356 14.4595ZM29.4263 19.3691L30.129 19.4635L30.1292 19.4619L29.4263 19.3691ZM20.5962 30.94L20.3253 30.2847L20.325 30.2849L20.5962 30.94ZM19.3615 31.3877L19.1499 30.711L18.6525 30.8665V31.3877H19.3615ZM19.3615 35.1913V35.9003H20.0705V35.1913H19.3615ZM16.0988 35.1913H15.3898V35.9003H16.0988V35.1913ZM16.0988 32.0082H16.8079V31.2461L16.0477 31.301L16.0988 32.0082ZM14.0034 32.0055L14.0564 31.2985L13.2944 31.2414V32.0055H14.0034ZM14.0034 35.1913V35.9003H14.7125V35.1913H14.0034ZM10.7408 35.1913H10.0317V35.9003H10.7408V35.1913ZM10.7408 31.3736H11.4498V30.8549L10.9555 30.6979L10.7408 31.3736ZM4.74723 27.6749L5.25283 27.1778L5.25214 27.1771L4.74723 27.6749ZM0.886287 14.6263L0.191938 14.4827L0.191645 14.4842L0.886287 14.6263ZM4.85448 7.29765L5.35439 7.80046L5.35449 7.80036L4.85448 7.29765ZM10.7408 3.67795L10.9558 4.3536L11.4498 4.1964V3.67795H10.7408ZM11.4801 9.39495L12.1889 9.37646L12.1708 8.68592H11.4801V9.39495ZM11.5516 12.1357L10.8428 12.1542L10.8429 12.1581L11.5516 12.1357ZM11.6278 14.8572L10.919 14.8756L10.919 14.8762L11.6278 14.8572ZM11.6278 14.8575L12.3366 14.8386L12.3366 14.8385L11.6278 14.8575ZM11.6278 14.8587L12.3366 14.8403L12.3366 14.8398L11.6278 14.8587ZM11.6469 15.5677L12.3559 15.5553L12.3556 15.5456L11.6469 15.5677ZM11.6588 16.2469L10.9499 16.2594L10.9694 17.3727L11.97 16.8841L11.6588 16.2469ZM12.1712 15.9967L12.4824 16.6338L12.491 16.6296L12.4996 16.6251L12.1712 15.9967ZM12.8258 15.6546L13.1542 16.283L13.1543 16.2829L12.8258 15.6546ZM12.8291 15.6529L12.5007 15.0245L12.5006 15.0245L12.8291 15.6529ZM12.8318 15.6515L13.1603 16.2798L13.1603 16.2798L12.8318 15.6515ZM15.6151 14.1973L15.9432 14.8259L15.9473 14.8237L15.6151 14.1973ZM18.5585 12.6362L18.8907 13.2626L19.2581 13.0678L19.2673 12.652L18.5585 12.6362ZM18.5942 11.0275L19.3031 11.0433L19.3031 11.0431L18.5942 11.0275ZM18.63 9.40687L18.458 8.71901L17.933 8.85025L17.9211 9.39123L18.63 9.40687ZM18.9636 9.32345L19.1356 10.0114L19.1463 10.0085L18.9636 9.32345ZM19.2377 9.32345L19.8277 9.71675L19.8521 9.68003L19.8719 9.64055L19.2377 9.32345ZM20.0242 9.4307L19.9879 10.1388L19.9969 10.1393L20.006 10.1395L20.0242 9.4307ZM20.1755 9.43383L20.1882 8.72491H20.1882L20.1755 9.43383ZM20.6466 9.47124L20.4862 10.1619L20.4862 10.1619L20.6466 9.47124ZM22.5114 10.9605L22.0265 11.4778L22.0266 11.4779L22.5114 10.9605ZM22.8246 11.2539L23.3114 10.7384L23.3093 10.7365L22.8246 11.2539ZM23.6826 12.0642L24.3912 12.0404L24.3814 11.749L24.1694 11.5488L23.6826 12.0642ZM23.7541 14.1854L23.0454 14.2093L23.0456 14.2132L23.7541 14.1854ZM23.8375 16.3065L24.1687 16.9334L24.5635 16.7248L24.546 16.2787L23.8375 16.3065ZM17.7481 19.524L17.4169 18.8971L17.7481 19.524ZM11.6588 22.7414L11.3276 22.1145L10.9498 22.3141V22.7414H11.6588ZM8.15535 24.5885L8.64007 24.071L8.6385 24.0696L8.15535 24.5885ZM6.42746 22.9798L5.71843 22.9813L5.7191 23.289L5.94431 23.4987L6.42746 22.9798ZM6.41554 17.5339H5.70651L5.70651 17.5355L6.41554 17.5339ZM6.41554 12.1L5.9386 11.5754L5.70651 11.7863V12.1H6.41554ZM7.98852 10.67L7.51301 10.1441L7.51158 10.1454L7.98852 10.67ZM9.69258 9.31154L10.1355 8.75788L10.0769 8.71095L10.0097 8.67736L9.69258 9.31154ZM23.8136 22.8964L24.3005 23.4118L24.5227 23.2019V22.8964H23.8136ZM21.2278 25.3392L21.7122 25.8569L21.7147 25.8546L21.2278 25.3392ZM18.63 27.7702L17.921 27.7768L17.936 29.3906L19.1144 28.2879L18.63 27.7702ZM18.5942 23.945L17.8852 23.9498L17.8852 23.9516L18.5942 23.945ZM18.773 19.9649L18.3475 19.3977L18.3475 19.3977L18.773 19.9649ZM14.0034 -0.708079H10.7408V0.709988H14.0034V-0.708079ZM14.7125 3.07225V0.000954193H13.2944V3.07225H14.7125ZM14.9963 2.32259C14.6743 2.32763 14.3108 2.34277 13.9595 2.36458L14.0474 3.77992C14.3806 3.75923 14.7219 3.74512 15.0184 3.74049L14.9963 2.32259ZM16.1456 2.35488C15.7662 2.32979 15.3844 2.31893 15.0007 2.32254L15.014 3.74054C15.3621 3.73727 15.7083 3.74713 16.052 3.76985L16.1456 2.35488ZM15.3898 0.000954193V3.06236H16.8079V0.000954193H15.3898ZM19.3615 -0.708079H16.0988V0.709988H19.3615V-0.708079ZM20.0705 3.66384V0.000954193H18.6525V3.66384H20.0705ZM25.6527 6.59687C23.9043 4.90903 21.8268 3.68201 19.5704 2.98629L19.1526 4.3414C21.1931 4.97057 23.0771 6.08152 24.6677 7.6171L25.6527 6.59687ZM29.9251 14.2939C29.1696 11.1481 27.8202 8.70179 25.6542 6.59833L24.6662 7.61564C26.6233 9.51613 27.8479 11.7173 28.5462 14.625L29.9251 14.2939ZM30.1292 19.4619C30.2203 18.7722 30.2367 17.7699 30.2004 16.8201C30.1642 15.8761 30.0732 14.9065 29.9248 14.2929L28.5465 14.6261C28.6603 15.0969 28.748 15.9504 28.7833 16.8744C28.8185 17.7925 28.7991 18.7028 28.7234 19.2762L30.1292 19.4619ZM20.867 31.5952C25.9196 29.5067 29.3929 24.9404 30.129 19.4635L28.7236 19.2746C28.0535 24.2604 24.9013 28.3932 20.3253 30.2847L20.867 31.5952ZM19.5731 32.0644C20.0081 31.9284 20.4399 31.772 20.8674 31.5951L20.325 30.2849C19.9366 30.4456 19.5446 30.5876 19.1499 30.711L19.5731 32.0644ZM18.6525 31.3877V35.1913H20.0705V31.3877H18.6525ZM19.3615 34.4823H16.0988V35.9003H19.3615V34.4823ZM16.8079 35.1913V32.0082H15.3898V35.1913H16.8079ZM13.9505 32.7126C14.6799 32.7672 15.4149 32.7685 16.1499 32.7154L16.0477 31.301C15.3822 31.3491 14.7168 31.3479 14.0564 31.2985L13.9505 32.7126ZM14.7125 35.1913V32.0055H13.2944V35.1913H14.7125ZM10.7408 35.9003H14.0034V34.4823H10.7408V35.9003ZM10.0317 31.3736V35.1913H11.4498V31.3736H10.0317ZM4.24164 28.172C6.0434 30.0045 8.20475 31.3117 10.526 32.0493L10.9555 30.6979C8.8539 30.03 6.89235 28.8453 5.25283 27.1778L4.24164 28.172ZM0.191645 14.4842C-0.808905 19.3744 0.739192 24.6195 4.24233 28.1727L5.25214 27.1771C2.08203 23.9617 0.674839 19.1969 1.58093 14.7684L0.191645 14.4842ZM4.35458 6.79484C2.19413 8.94279 0.803948 11.5226 0.191939 14.4827L1.58064 14.7699C2.13644 12.0816 3.39172 9.75179 5.35439 7.80046L4.35458 6.79484ZM10.5258 3.00229C8.2209 3.73568 6.14226 5.01676 4.35447 6.79494L5.35449 7.80036C6.99082 6.17283 8.87665 5.01515 10.9558 4.3536L10.5258 3.00229ZM10.0317 0.000954193V3.67795H11.4498V0.000954193H10.0317ZM11.4801 8.68592H10.6459V10.104H11.4801V8.68592ZM12.2603 12.1173L12.1889 9.37646L10.7713 9.41344L10.8428 12.1542L12.2603 12.1173ZM12.3366 14.8388C12.3189 14.1584 12.2923 13.1308 12.2602 12.1134L10.8429 12.1581C10.8748 13.1709 10.9013 14.1949 10.919 14.8756L12.3366 14.8388ZM12.3366 14.8385L12.3366 14.8382L10.919 14.8762L10.919 14.8765L12.3366 14.8385ZM12.3366 14.8398L12.3366 14.8386L10.919 14.8764L10.9191 14.8776L12.3366 14.8398ZM12.3556 15.5456C12.3517 15.4226 12.3453 15.1749 12.3366 14.8403L10.919 14.8771C10.9276 15.2091 10.9342 15.4621 10.9382 15.5898L12.3556 15.5456ZM12.3677 16.2345L12.3558 15.5553L10.938 15.5801L10.9499 16.2594L12.3677 16.2345ZM11.8601 15.3596L11.3477 15.6098L11.97 16.8841L12.4824 16.6338L11.8601 15.3596ZM12.4974 15.0262L11.8428 15.3683L12.4996 16.6251L13.1542 16.283L12.4974 15.0262ZM12.5006 15.0245L12.4973 15.0263L13.1543 16.2829L13.1577 16.2812L12.5006 15.0245ZM12.5034 15.0231L12.5007 15.0245L13.1576 16.2812L13.1603 16.2798L12.5034 15.0231ZM15.287 13.5688C14.2097 14.1312 13.164 14.6778 12.5034 15.0231L13.1603 16.2798C13.8209 15.9345 14.8663 15.3881 15.9432 14.8258L15.287 13.5688ZM18.2262 12.0099L15.2829 13.5709L15.9473 14.8237L18.8907 13.2626L18.2262 12.0099ZM17.8854 11.0118L17.8496 12.6205L19.2673 12.652L19.3031 11.0433L17.8854 11.0118ZM17.9211 9.39123L17.8853 11.0119L19.3031 11.0431L19.3388 9.42251L17.9211 9.39123ZM18.7917 8.63559L18.458 8.71901L18.8019 10.0947L19.1356 10.0113L18.7917 8.63559ZM19.8719 9.64055C19.9249 9.53445 19.9889 9.33863 19.9198 9.10604C19.8499 8.87066 19.6862 8.73962 19.5772 8.67838C19.3966 8.57699 19.2184 8.57867 19.1766 8.57867C19.0376 8.57867 18.8945 8.60807 18.7809 8.63836L19.1463 10.0085C19.2115 9.99117 19.2174 9.99674 19.1766 9.99674C19.1629 9.99674 19.1327 9.99609 19.0923 9.98937C19.058 9.98368 18.9765 9.96741 18.883 9.9149C18.7845 9.85962 18.6276 9.73603 18.5604 9.50959C18.494 9.28594 18.5564 9.10054 18.6035 9.00635L19.8719 9.64055ZM20.0605 8.7226C19.8401 8.7113 19.6589 8.6948 19.5439 8.67906C19.4808 8.67043 19.462 8.66524 19.4711 8.66773C19.4755 8.66892 19.4883 8.6725 19.5064 8.67916C19.5213 8.68463 19.5595 8.69928 19.6062 8.72689C19.6363 8.74466 19.7611 8.81882 19.8519 8.97643C19.9042 9.06723 19.9494 9.19394 19.9453 9.34606C19.9412 9.49907 19.8885 9.62549 19.8277 9.71675L18.6477 8.93016C18.5854 9.02366 18.532 9.15233 18.5278 9.30762C18.5236 9.46202 18.5694 9.59102 18.6231 9.68415C18.7165 9.8464 18.8468 9.92527 18.8849 9.94781C18.9795 10.0037 19.0705 10.0284 19.0992 10.0362C19.181 10.0584 19.2731 10.0733 19.3516 10.084C19.5196 10.107 19.7435 10.1263 19.9879 10.1388L20.0605 8.7226ZM20.1882 8.72491C20.1408 8.72406 20.0932 8.72321 20.0424 8.7219L20.006 10.1395C20.0631 10.141 20.1159 10.1419 20.1628 10.1428L20.1882 8.72491ZM20.8069 8.78057C20.5844 8.72893 20.3618 8.72803 20.1882 8.72491L20.1628 10.1428C20.3773 10.1466 20.4384 10.1508 20.4862 10.1619L20.8069 8.78057ZM22.9963 10.4432C22.4156 9.89889 22.0193 9.52676 21.7232 9.28436C21.42 9.03611 21.1478 8.85971 20.8069 8.78057L20.4862 10.1619C20.5123 10.168 20.5824 10.183 20.8248 10.3815C21.0744 10.5859 21.427 10.9158 22.0265 11.4778L22.9963 10.4432ZM23.3093 10.7365L22.9962 10.4431L22.0266 11.4779L22.3398 11.7713L23.3093 10.7365ZM24.1694 11.5488L23.3114 10.7385L22.3377 11.7694L23.1957 12.5797L24.1694 11.5488ZM24.4627 14.1615L24.3912 12.0404L22.9739 12.0881L23.0454 14.2093L24.4627 14.1615ZM24.546 16.2787L24.4625 14.1575L23.0456 14.2132L23.129 16.3344L24.546 16.2787ZM18.0794 20.1509L24.1687 16.9334L23.5062 15.6796L17.4169 18.8971L18.0794 20.1509ZM11.99 23.3683L18.0794 20.1509L17.4169 18.8971L11.3276 22.1145L11.99 23.3683ZM12.3678 25.2082V22.7414H10.9498V25.2082H12.3678ZM11.5754 28.3958C11.9433 28.3958 12.1298 28.1353 12.1647 28.0844C12.2199 28.0038 12.246 27.93 12.2553 27.9027C12.2771 27.8387 12.2874 27.7807 12.2919 27.7539C12.3026 27.6899 12.3099 27.6167 12.3153 27.5489C12.3267 27.407 12.3361 27.2125 12.3436 26.9849C12.3589 26.5263 12.3678 25.8983 12.3678 25.2082H10.9498C10.9498 25.8884 10.9409 26.4997 10.9263 26.9378C10.919 27.1585 10.9105 27.3268 10.9018 27.4355C10.8996 27.4619 10.8977 27.4826 10.896 27.4981C10.8942 27.5145 10.8932 27.5205 10.8934 27.519C10.8936 27.5181 10.8946 27.512 10.8968 27.5022C10.8987 27.4938 10.9036 27.4729 10.913 27.4453C10.9195 27.4265 10.9427 27.359 10.9949 27.2828C11.0269 27.2361 11.2105 26.9778 11.5754 26.9778V28.3958ZM10.2019 27.4581C10.4241 27.6623 10.6405 27.8572 10.8117 28.0031C10.896 28.0749 10.9786 28.1428 11.0498 28.1956C11.084 28.221 11.1287 28.2528 11.177 28.2814C11.2007 28.2955 11.2387 28.3167 11.2858 28.3365C11.3164 28.3494 11.4274 28.3958 11.5754 28.3958V26.9778C11.7159 26.9778 11.8168 27.0215 11.835 27.0291C11.8695 27.0436 11.8925 27.0571 11.8989 27.0609C11.9126 27.069 11.9134 27.0706 11.8954 27.0573C11.8623 27.0327 11.8079 26.9889 11.7313 26.9236C11.5808 26.7954 11.3801 26.615 11.1614 26.414L10.2019 27.4581ZM7.67063 25.106C8.61338 25.989 9.75904 27.0512 10.2019 27.4581L11.1614 26.414C10.7224 26.0106 9.58014 24.9516 8.64007 24.071L7.67063 25.106ZM5.94431 23.4987L7.67221 25.1074L8.6385 24.0696L6.91061 22.4608L5.94431 23.4987ZM5.70651 17.5355L5.71843 22.9813L7.13649 22.9782L7.12458 17.5324L5.70651 17.5355ZM5.70651 12.1V17.5339H7.12458V12.1H5.70651ZM7.51158 10.1454L5.9386 11.5754L6.89249 12.6246L8.46547 11.1947L7.51158 10.1454ZM10.0097 8.67736C9.74962 8.54733 9.51005 8.62122 9.48289 8.6287C9.40892 8.64908 9.34955 8.6771 9.31682 8.69351C9.24663 8.72869 9.17797 8.77252 9.12175 8.81048C9.00369 8.89018 8.85756 9.00081 8.698 9.12799C8.37519 9.38531 7.95558 9.74395 7.51301 10.1441L8.46403 11.196C8.89137 10.8096 9.28804 10.4711 9.5819 10.2369C9.73069 10.1183 9.843 10.0345 9.91523 9.98576C9.95416 9.95948 9.9636 9.95555 9.9522 9.96126C9.94887 9.96294 9.91407 9.9808 9.85954 9.99583C9.85184 9.99795 9.62661 10.0713 9.37549 9.94572L10.0097 8.67736ZM10.6459 8.68592C10.4357 8.68592 10.2328 8.67754 10.0822 8.66466C10.0053 8.6581 9.95392 8.65134 9.92661 8.6465C9.91204 8.64393 9.91704 8.64409 9.93403 8.64914C9.94275 8.65173 9.96363 8.65824 9.99126 8.67028C10.0141 8.68023 10.0714 8.70657 10.1355 8.75788L9.24965 9.8652C9.37221 9.96324 9.5012 9.99988 9.53013 10.0085C9.58441 10.0246 9.63716 10.0354 9.67938 10.0429C9.76565 10.0581 9.86394 10.0692 9.96139 10.0776C10.1593 10.0945 10.4033 10.104 10.6459 10.104V8.68592ZM24.5227 22.8964V20.1079H23.1046V22.8964H24.5227ZM21.7147 25.8546L24.3005 23.4118L23.3267 22.3809L20.7408 24.8238L21.7147 25.8546ZM19.1144 28.2879L21.7122 25.8569L20.7433 24.8215L18.1455 27.2525L19.1144 28.2879ZM17.8852 23.9516L17.921 27.7768L19.339 27.7636L19.3032 23.9384L17.8852 23.9516ZM18.3475 19.3977C18.2743 19.4526 18.1895 19.5306 18.1154 19.6443C18.0453 19.752 18.0037 19.8627 17.9766 19.9635C17.9271 20.1474 17.9069 20.3758 17.8948 20.6452C17.87 21.2016 17.8733 22.1844 17.8852 23.9498L19.3032 23.9402C19.2912 22.1545 19.2887 21.2188 19.3115 20.7086C19.3233 20.4447 19.3403 20.3528 19.3459 20.332C19.3463 20.3304 19.3367 20.3676 19.3037 20.4183C19.2667 20.4751 19.2239 20.5129 19.1984 20.5321L18.3475 19.3977ZM23.7302 16.6104C23.6181 16.6104 23.5301 16.6384 23.5222 16.6407C23.4933 16.6492 23.4691 16.6581 23.4544 16.6636C23.4238 16.6753 23.3935 16.6884 23.3687 16.6995C23.3173 16.7225 23.2532 16.753 23.1826 16.7877C23.0396 16.8578 22.8457 16.9562 22.6204 17.0726C22.1684 17.3059 21.5762 17.6181 20.9802 17.9362C20.3842 18.2544 19.7818 18.5799 19.3095 18.8399C19.0737 18.9697 18.8681 19.0844 18.7111 19.1742C18.5758 19.2516 18.427 19.3381 18.3475 19.3977L19.1984 20.5321C19.1904 20.5381 19.2464 20.5017 19.4153 20.4051C19.5625 20.3209 19.7603 20.2104 19.9933 20.0822C20.4587 19.826 21.0554 19.5036 21.6481 19.1872C22.2408 18.8708 22.8268 18.5619 23.2708 18.3327C23.4934 18.2177 23.677 18.1246 23.8069 18.0609C23.8727 18.0287 23.9189 18.0068 23.9474 17.9941C23.9626 17.9873 23.9646 17.9867 23.9583 17.9892C23.9557 17.9901 23.9416 17.9955 23.9207 18.0017C23.9101 18.0048 23.8909 18.0101 23.8661 18.015C23.8461 18.0191 23.7958 18.0285 23.7302 18.0285V16.6104ZM24.5227 20.1079C24.5227 19.3348 24.5137 18.6304 24.4985 18.1163C24.491 17.8607 24.4817 17.6447 24.4706 17.4886C24.4653 17.4135 24.4585 17.3367 24.4488 17.2718C24.4447 17.2443 24.4359 17.189 24.4178 17.1289C24.4103 17.1041 24.3884 17.0336 24.3408 16.9551C24.3243 16.928 24.1391 16.6104 23.7302 16.6104V18.0285C23.3243 18.0285 23.1421 17.7133 23.1285 17.691C23.0839 17.6174 23.0648 17.554 23.0602 17.5388C23.0479 17.4978 23.0447 17.4709 23.0462 17.4806C23.0476 17.4901 23.0514 17.5231 23.0561 17.5893C23.0651 17.7158 23.0737 17.9087 23.0811 18.1581C23.0957 18.654 23.1046 19.3437 23.1046 20.1079H24.5227Z" fill="#F1F7F6" mask="url(#path-1-inside-1_41_712)"/>
  <path d="M53.1335 0.333899L53.1337 0.333873C57.3241 -0.198248 60.292 -0.0205278 63.1703 0.887249L63.1705 0.88729C65.1638 1.50742 68.3118 3.01471 71.1066 4.65604C71.1067 4.6561 71.1068 4.65615 71.1069 4.65621L72.5709 5.54353L72.579 5.5484L72.5884 5.54866L76.6712 5.6596C78.6895 5.71505 81.0131 5.87032 82.9123 6.05331C83.862 6.14481 84.7052 6.24321 85.351 6.33947C85.6739 6.38761 85.9471 6.43515 86.1593 6.48095C86.3724 6.52694 86.5204 6.57045 86.5963 6.60955C86.6998 6.66695 86.8691 6.72875 87.0579 6.78429C87.2477 6.84011 87.4598 6.89035 87.6498 6.92387C87.8342 6.95641 88.1969 7.08251 88.6385 7.26024C89.0787 7.43745 89.5939 7.66459 90.0815 7.89729L90.0818 7.89742C90.5805 8.13014 90.9378 8.32342 91.1596 8.47104C91.2708 8.5451 91.3459 8.60631 91.3877 8.65396C91.4088 8.67796 91.4193 8.69611 91.4231 8.70866C91.4265 8.71968 91.4241 8.7233 91.4225 8.72536C91.4192 8.72957 91.4096 8.73688 91.3862 8.74274C91.3634 8.74842 91.332 8.7517 91.2908 8.75166C91.2086 8.75157 91.0937 8.73832 90.9459 8.71041C90.6505 8.65464 90.2292 8.54144 89.6862 8.36414L89.6861 8.3641C86.1087 7.20867 84.1741 6.96448 77.6491 6.85351C71.5233 6.74254 68.0604 6.89794 61.1141 7.56373C59.2283 7.74121 56.6337 7.89638 55.3488 7.87423L55.3481 7.87422C52.1541 7.87422 44.3234 7.31955 42.0406 6.92061L42.0404 6.92056C40.1875 6.60991 38.9001 6.40459 38.0647 6.28802C37.6471 6.22975 37.3418 6.19357 37.1351 6.17753C37.0319 6.16952 36.9523 6.16646 36.8951 6.16834C36.8667 6.16928 36.8426 6.17148 36.8236 6.17528C36.8064 6.17871 36.7863 6.18466 36.7727 6.19821C36.7551 6.21583 36.7521 6.23872 36.758 6.25936C36.7631 6.27757 36.7751 6.29471 36.7888 6.31014C36.8168 6.34158 36.8629 6.37801 36.9226 6.41809C37.0428 6.49882 37.2269 6.60019 37.4562 6.71276C37.9152 6.9381 38.5599 7.21042 39.2488 7.45487C39.493 7.54364 39.6795 7.61274 39.8136 7.66755C39.8806 7.69496 39.934 7.71857 39.9746 7.73906C40.0159 7.7599 40.0415 7.7763 40.055 7.78876C40.0563 7.78995 40.0574 7.79103 40.0584 7.79199C40.0528 7.79521 40.0445 7.79893 40.0327 7.80293C39.9803 7.82059 39.8844 7.83553 39.7448 7.85228L39.7443 7.85234C39.5842 7.87369 39.2677 7.84161 38.8818 7.76943C38.4977 7.69758 38.0498 7.58699 37.6296 7.4543C37.6295 7.45429 37.6295 7.45428 37.6295 7.45427L36.0985 6.96613L36.0807 6.96047L36.066 6.97189L35.1784 7.65976L35.1779 7.66016L35.1779 7.66016C34.2744 8.38739 33.1097 8.715 32.1914 8.47449L32.191 8.47439L32.191 8.47439C32.0576 8.44103 31.9598 8.41154 31.8858 8.36711C31.8139 8.32391 31.7635 8.26584 31.7273 8.17157C31.6905 8.07552 31.6685 7.94193 31.6561 7.74826C31.6437 7.55504 31.6409 7.30509 31.6409 6.97772V5.63694L33.2257 5.61523C33.2258 5.61523 33.2258 5.61523 33.2258 5.61523M53.1335 0.333899L41.4132 3.42741C37.0641 5.00286 35.0004 5.5576 33.2253 5.57978L33.2258 5.61523M53.1335 0.333899C51.8474 0.489107 50.5205 0.710416 50.1449 0.820522M53.1335 0.333899L50.1449 0.820522M33.2258 5.61523C35.0078 5.59295 37.0768 5.03596 41.4253 3.46074L41.4254 3.4607C44.8208 2.21793 47.4362 1.3981 48.5864 1.19902L48.5867 1.19897C49.0742 1.11033 49.7861 0.954799 50.1449 0.820522M33.2258 5.61523L50.1449 0.820522M54.4607 6.28092C50.0898 6.29201 47.8365 6.29203 46.5484 6.23373C45.9043 6.20458 45.4999 6.16079 45.192 6.09606C44.8833 6.03117 44.6727 5.94543 44.4168 5.83419L44.4168 5.83421L44.4158 5.83374C43.8251 5.55508 43.4229 5.22352 43.2512 4.89444C43.165 4.72911 43.1362 4.56301 43.1732 4.40502C43.2102 4.24712 43.3118 4.10186 43.4776 3.97609L43.478 3.97575C43.7325 3.78912 44.2686 3.55741 44.9802 3.30729C45.6934 3.05658 46.5874 2.7859 47.5615 2.52226C49.5095 1.99501 51.7798 1.49539 53.5679 1.23995C54.6254 1.08412 56.3867 1.06764 58.0847 1.14809C59.7821 1.22853 61.4223 1.40612 62.2367 1.64037L62.2371 1.6405L67.4509 5.17374C67.4509 5.17372 67.4509 5.1737 67.4509 5.17368C67.4731 5.05756 67.4848 4.96688 67.4809 4.89381C67.477 4.82185 67.4581 4.76925 67.4204 4.72686C67.3819 4.68352 67.3206 4.64723 67.2248 4.61485C67.1291 4.5825 67.0024 4.55514 66.8364 4.5275L66.835 4.52719C66.4177 4.43935 65.6891 4.4171 65.2258 4.46123L65.2251 4.46129C64.9338 4.48327 64.7084 4.53946 64.5497 4.61629C64.3904 4.69339 64.3031 4.78875 64.2776 4.88694C64.2525 4.98381 64.2849 5.09464 64.3905 5.2102C64.4963 5.32596 64.6728 5.44273 64.9253 5.54702L65.6797 5.85766L65.7961 5.90556L65.6718 5.92544L64.5624 6.10296L64.5618 6.10305C64.2483 6.14782 62.9583 6.19218 61.1319 6.22544C59.3038 6.25873 56.9349 6.28092 54.4607 6.28092ZM54.4607 6.28092L54.4606 6.24547V6.28092C54.4606 6.28092 54.4606 6.28092 54.4607 6.28092Z" fill="#F1F7F6" stroke="#F1F7F6" stroke-width="0.0709033"/>
  <path d="M36.0055 13.1464V10.1862H34.0439H32.0823V18.028V25.8698H34.0439H36.0055V22.7988V19.6922V19.6568H36.041H38.9256H41.8102H41.8457V19.6922V22.7988V25.8698H43.8073H45.7689V18.028V10.1862H43.8073H41.8457V13.1464V16.1419V16.1774H41.8102H38.9256H36.041H36.0055V16.1419V13.1464Z" fill="#F1F7F6" stroke="#F1F7F6" stroke-width="0.0709033"/>
  <path d="M48.7783 24.8339L48.7783 24.8339L48.7788 24.8343C49.7893 25.6032 51.5537 25.9587 54.2381 25.9587C56.1889 25.9587 57.6415 25.7258 58.6772 25.2272C59.7108 24.7296 60.3308 23.9669 60.6166 22.9006L60.6166 22.9006L60.6168 22.8999C60.6544 22.7708 60.6889 22.5041 60.7192 22.1169C60.7493 21.731 60.7749 21.2289 60.7957 20.6314C60.8373 19.4365 60.8595 17.8615 60.8595 16.0755V10.1863H58.9201H56.9581L56.8919 15.9206V15.9206C56.8878 16.2412 56.8841 16.5462 56.8806 16.8363C56.8655 18.1018 56.8537 19.0843 56.8201 19.8465C56.7789 20.7821 56.7047 21.3911 56.5482 21.7857C56.4696 21.9839 56.3697 22.1298 56.2413 22.2359C56.113 22.342 55.9587 22.4063 55.7748 22.4452C55.5912 22.4841 55.3767 22.498 55.1269 22.5023C54.9696 22.5051 54.7969 22.504 54.6083 22.5029C54.4978 22.5022 54.3819 22.5015 54.2603 22.5015C54.1394 22.5015 54.0238 22.5021 53.9132 22.5026C53.3818 22.5053 52.9663 22.5074 52.6448 22.4415C52.4492 22.4014 52.2857 22.3357 52.1503 22.2282C52.0147 22.1205 51.9097 21.9727 51.8282 21.7721C51.666 21.373 51.5947 20.7588 51.5632 19.818C51.5373 19.0462 51.5382 18.0507 51.5394 16.7678C51.5396 16.4847 51.5399 16.1876 51.5399 15.8758V10.1863H49.4674H47.3948V16.0977C47.3948 19.5048 47.4338 21.4653 47.6274 22.6879C47.7241 23.2986 47.8591 23.7225 48.0455 24.0496C48.2315 24.3761 48.4702 24.6083 48.7783 24.8339Z" fill="#F1F7F6" stroke="#F1F7F6" stroke-width="0.0709033"/>
  <path d="M67.7391 16.2529V10.1862H65.6666H63.594V18.028V25.8698H68.995H74.396V24.1301V22.3904H71.103H67.7746H67.7391V22.355V16.2529Z" fill="#F1F7F6" stroke="#F1F7F6" stroke-width="0.0709033"/>
  <path d="M86.745 20.0473C86.9891 20.3801 87.8323 21.5118 88.6312 22.5547C89.43 23.5976 90.3175 24.7958 90.5838 25.173M86.745 20.0473L86.0794 25.9053H88.5868H91.051L91.0263 25.8698M86.745 20.0473C86.501 19.6922 86.1903 19.315 86.0572 19.1597M86.745 20.0473L80.4211 25.8698H80.3856M90.5838 25.173L91.0695 25.8698H91.0263M90.5838 25.173L90.5549 25.1935L91.0263 25.8698M90.5838 25.173L90.5547 25.1933L90.5548 25.1934C90.2889 24.8167 89.4017 23.619 88.603 22.5762C87.804 21.5331 86.9607 20.4013 86.7165 20.0682L86.7158 20.0674C86.4733 19.7146 86.1644 19.3393 86.0311 19.1838M91.0263 25.8698H88.5868H86.0976L84.1555 23.1553L84.1555 23.1553C84.0234 22.9709 83.8922 22.7878 83.7635 22.6081C82.8559 21.3406 82.0699 20.2432 81.9134 20.0475M86.0311 19.1838C85.8941 19.0463 85.671 18.7106 85.5156 18.4221L85.5156 18.422C85.4313 18.2647 85.3735 18.1244 85.3856 17.939C85.3976 17.7556 85.4777 17.5323 85.6572 17.2065C86.0164 16.5551 86.7836 15.4767 88.2473 13.4585L88.2473 13.4585L88.2761 13.4792M86.0311 19.1838C86.0315 19.1841 86.0318 19.1844 86.0321 19.1848L86.0572 19.1597M86.0311 19.1838C86.0308 19.1834 86.0306 19.1831 86.0303 19.1828L86.0572 19.1597M88.2761 13.4792L88.2474 13.4584L90.5161 10.2953M88.2761 13.4792L90.5589 10.2965L90.5161 10.2953M88.2761 13.4792C85.3471 17.5177 85.214 17.7839 85.5468 18.4053C85.7021 18.6937 85.924 19.0266 86.0572 19.1597M90.5161 10.2953L88.2309 10.2306L88.2317 10.1952M90.5161 10.2953L90.5411 10.2605L88.2317 10.1952M88.2317 10.1952L88.2307 10.2306L88.2308 10.2306C87.9928 10.2249 87.7794 10.2171 87.5862 10.21C87.2144 10.1964 86.9175 10.1856 86.6649 10.1976C86.2836 10.2158 86.0093 10.2861 85.7392 10.4765C85.4672 10.6683 85.1969 10.9836 84.8281 11.4983C84.5799 11.8448 84.2883 12.2797 83.9224 12.8254C83.7452 13.0897 83.5506 13.38 83.3351 13.6988L83.335 13.6988C82.6143 14.7632 82.1745 15.3814 81.8506 15.7332C81.6884 15.9094 81.5535 16.0209 81.4249 16.0881C81.2954 16.1557 81.1745 16.1774 81.0424 16.1774H80.4211H80.3856V16.1419V13.1464V10.1862M88.2317 10.1952C87.09 10.1678 86.5009 10.0915 86.0189 10.2836C85.3298 10.5582 84.8593 11.3811 83.3057 13.6789C81.8634 15.8091 81.5527 16.1419 81.0424 16.1419H80.4565H80.4211V16.1065V13.1464V10.1862H80.3856M80.3856 10.1862H78.3131H76.2405M80.3856 10.1862V10.1508H78.3131H76.2405V10.1862M76.2405 10.1862V18.028V25.8698M76.2405 10.1862H76.2051V18.028V25.8698H76.2405M76.2405 25.8698H78.3131H80.3856M76.2405 25.8698V25.9053H78.3131H80.3856V25.8698M80.3856 25.8698V22.7988V19.6922V19.6568H80.4211H80.998C81.1702 19.6568 81.358 19.7026 81.5224 19.7734C81.6861 19.844 81.8306 19.9412 81.9134 20.0475M81.9134 20.0475C81.9134 20.0474 81.9133 20.0474 81.9133 20.0473L81.8856 20.0695L81.9136 20.0477C81.9135 20.0476 81.9135 20.0476 81.9134 20.0475Z" fill="#F1F7F6" stroke="#F1F7F6" stroke-width="0.0709033"/>
  <path d="M36.0325 28.1214H36.1179L35.2239 27.7956L35.1915 27.781C35.1916 27.781 35.1916 27.7809 35.1917 27.7808C35.2176 27.7235 35.2671 27.6732 35.323 27.6375C35.3791 27.6017 35.4456 27.578 35.5083 27.578C35.5973 27.578 35.672 27.6131 35.7294 27.6823C35.7856 27.75 35.824 27.8487 35.8469 27.9747L35.8469 27.9747L35.8469 27.9751C35.86 28.0519 35.8725 28.0821 35.8918 28.0977C35.9012 28.1053 35.9149 28.1115 35.9378 28.1156C35.9611 28.1198 35.9915 28.1214 36.0325 28.1214ZM35.3089 27.389C35.1661 27.4247 35.0585 27.5074 34.97 27.66L34.97 27.6602C34.9481 27.6973 34.9335 27.7226 34.9224 27.7514C34.9115 27.7797 34.9037 27.8127 34.8979 27.8643C34.8862 27.9692 34.8837 28.1434 34.8789 28.4961L34.8789 28.4963C34.8725 28.8709 34.8734 29.0896 34.8911 29.2374C34.9084 29.3824 34.9415 29.4569 35.0006 29.5432L34.9713 29.5632L35.0005 29.5431C35.063 29.6337 35.1157 29.6874 35.181 29.7211C35.2468 29.7551 35.3294 29.7708 35.4558 29.7772C35.5512 29.7819 35.6118 29.7809 35.6624 29.772C35.7122 29.7633 35.7542 29.7467 35.8118 29.7171L35.828 29.7486L35.8117 29.7172C35.9758 29.6322 36.0777 29.4512 36.1027 29.1733L36.1027 29.1733L36.1028 29.173C36.1083 29.1171 36.1109 29.0758 36.1092 29.0445C36.1075 29.0131 36.1017 28.9968 36.0947 28.9874C36.0886 28.979 36.0781 28.9717 36.0553 28.9666C36.0316 28.9613 35.9988 28.9594 35.9526 28.9594H35.8657L35.8472 29.1105L35.8472 29.1106C35.8211 29.3172 35.7512 29.472 35.6502 29.5473C35.5987 29.5857 35.5395 29.603 35.4766 29.5949C35.4147 29.5868 35.3526 29.5546 35.2931 29.5003L35.3089 27.389Z" fill="#F1F7F6" stroke="#F1F7F6" stroke-width="0.0709033"/>
  <path d="M40.597 28.4164C40.5746 29.305 40.6641 29.6278 40.9678 29.7621C41.182 29.858 41.5336 29.8324 41.6966 29.7077L40.6769 27.71C40.6194 27.8315 40.6098 27.9401 40.597 28.4164ZM40.597 28.4164L40.6325 28.4173C40.6213 28.8615 40.6383 29.1596 40.6943 29.3627C40.7495 29.5628 40.8416 29.6675 40.9821 29.7297L40.9821 29.7297L40.9823 29.7297C41.0825 29.7746 41.2177 29.792 41.3487 29.7823C41.4803 29.7725 41.6012 29.7361 41.675 29.6796L41.6751 29.6795C41.7241 29.6422 41.7608 29.6083 41.7896 29.5683C41.8182 29.5286 41.8401 29.4813 41.8573 29.4159C41.892 29.2831 41.9056 29.0812 41.9168 28.7285L41.9169 28.7285C41.9297 28.338 41.923 28.0348 41.9014 27.9111L41.9013 27.9108C41.8828 27.7995 41.8465 27.6973 41.7993 27.615C41.7519 27.5324 41.6948 27.4722 41.6357 27.4411C41.6174 27.432 41.5827 27.4214 41.5368 27.4111C41.4917 27.4009 41.4388 27.3916 41.3864 27.3843C41.334 27.377 41.2828 27.3719 41.2411 27.3699C41.2202 27.3689 41.2022 27.3687 41.1879 27.3694C41.1754 27.37 41.1677 27.3711 41.1637 27.3721C41.1571 27.3755 41.1496 27.3782 41.1427 27.3805C41.1336 27.3836 41.1229 27.3866 41.1117 27.3895C41.0894 27.3953 41.0633 27.401 41.0391 27.4058C40.9838 27.4184 40.9183 27.4578 40.8572 27.5159C40.7963 27.5738 40.7425 27.6474 40.7095 27.724L40.7095 27.724L40.709 27.7252C40.6553 27.8383 40.6453 27.9382 40.6324 28.4173L40.597 28.4164ZM40.9467 29.325C40.9392 29.3013 40.9333 29.2654 40.9285 29.2209C40.9237 29.1754 40.9196 29.1185 40.9164 29.0518C40.91 28.9183 40.9068 28.7443 40.9068 28.5411C40.9068 28.2823 40.9092 28.1149 40.9168 28.0013C40.9245 27.888 40.9376 27.824 40.9614 27.7745L40.9934 27.7899L40.9613 27.7747C41.0651 27.5564 41.3302 27.5127 41.5156 27.6803L41.6209 27.7729L41.6327 27.7832L41.6329 27.7989L41.6425 28.3869C41.6425 28.3869 41.6425 28.387 41.6425 28.387C41.6505 28.7781 41.649 29.0226 41.6307 29.1843C41.6123 29.3473 41.5762 29.4321 41.511 29.4991L41.511 29.4991L41.5107 29.4995C41.4154 29.5948 41.2938 29.621 41.1852 29.5865C41.0773 29.5522 40.9864 29.4594 40.9467 29.325ZM40.9467 29.325C40.9467 29.3251 40.9468 29.3252 40.9468 29.3254L40.9806 29.3146L40.9466 29.3246C40.9466 29.3247 40.9466 29.3249 40.9467 29.325Z" fill="#F1F7F6" stroke="#F1F7F6" stroke-width="0.0709033"/>
  <path d="M45.3251 29.4518C45.3794 29.3207 45.405 28.0901 45.357 27.8727L44.2063 29.6403C44.315 29.7682 44.4557 29.8193 44.7146 29.8193C44.999 29.8161 45.2324 29.6787 45.3251 29.4518ZM44.2336 29.6177C44.2841 29.677 44.3412 29.7179 44.416 29.7444C44.4917 29.7712 44.587 29.7839 44.7144 29.7839C44.9879 29.7807 45.2062 29.6491 45.2923 29.4383L45.2923 29.4382C45.297 29.4269 45.3029 29.3982 45.3088 29.3508C45.3145 29.3051 45.3197 29.2462 45.3244 29.1779C45.3336 29.0414 45.3404 28.8691 45.344 28.6939C45.3476 28.5187 45.348 28.3409 45.3445 28.1936C45.341 28.0448 45.3335 27.9307 45.3224 27.8804L45.3224 27.8804L45.3223 27.8798C45.3024 27.7818 45.2625 27.6851 45.2131 27.6058C45.1632 27.5258 45.106 27.4672 45.0535 27.441L45.0535 27.441L45.0526 27.4405C44.9909 27.4075 44.8781 27.3846 44.7592 27.3775C44.6406 27.3704 44.5252 27.3795 44.4586 27.4041C44.3021 27.4643 44.1816 27.5845 44.118 27.7511L44.118 27.7512C44.0729 27.8683 44.0628 27.9883 44.0628 28.5568C44.0628 28.9298 44.0693 29.1505 44.0943 29.3013C44.1188 29.449 44.1607 29.528 44.2336 29.6177ZM45.0633 28.6339L45.0633 28.6339L45.0537 29.3787L45.0535 29.3945L45.0416 29.4049L44.9363 29.4975C44.9362 29.4975 44.9362 29.4975 44.9362 29.4975C44.8612 29.5639 44.7791 29.6006 44.6962 29.6015C44.6128 29.6024 44.5337 29.5671 44.4658 29.4992C44.3993 29.4327 44.3627 29.3563 44.3445 29.2014C44.3266 29.0487 44.3259 28.8144 44.3339 28.4283C44.3387 28.1025 44.3449 27.9172 44.3712 27.8066C44.3847 27.75 44.4042 27.709 44.4344 27.6782C44.4642 27.6477 44.5013 27.6306 44.5425 27.6157C44.6075 27.5918 44.6784 27.5806 44.7433 27.5828C44.8073 27.5849 44.8694 27.6001 44.9141 27.6329C44.9492 27.6569 44.979 27.6834 45.002 27.7236C45.0246 27.7633 45.0391 27.8136 45.0486 27.8827C45.0674 28.0198 45.068 28.2435 45.0633 28.6339Z" fill="#F1F7F6" stroke="#F1F7F6" stroke-width="0.0709033"/>
  <path d="M46.4602 27.3953L46.4602 27.3953C46.522 27.3751 46.6353 27.3698 46.7514 27.3785C46.8678 27.3873 46.9766 27.4093 47.0304 27.4377L47.0306 27.4378C47.1041 27.4759 47.1789 27.565 47.2361 27.6802C47.2929 27.7944 47.3296 27.9289 47.3311 28.0522C47.3311 28.0687 47.3299 28.0755 47.3287 28.0787C47.3286 28.0787 47.3286 28.0787 47.3286 28.0788C47.3286 28.079 47.3286 28.0797 47.325 28.0812C47.3186 28.0838 47.3065 28.0865 47.2832 28.0881C47.2606 28.0896 47.2308 28.09 47.1908 28.09H47.0504V27.988C47.0504 27.8338 46.9917 27.7099 46.8945 27.6407C46.7966 27.5711 46.6661 27.5614 46.5333 27.6235L46.5327 27.6238L46.5327 27.6238C46.4838 27.6478 46.4422 27.6737 46.4085 27.7103C46.3745 27.7473 46.3505 27.793 46.3332 27.8537C46.2993 27.9725 46.2891 28.1565 46.2827 28.4635M46.4602 27.3953L47.0273 29.584C47.0432 29.5725 47.067 29.5595 47.0932 29.5675C47.1198 29.5756 47.1319 29.6001 47.1381 29.6182C47.1449 29.6382 47.1493 29.6642 47.1525 29.6943L47.1525 29.6943L47.1526 29.6947C47.155 29.72 47.157 29.7361 47.16 29.7473C47.1627 29.7576 47.1652 29.7596 47.1658 29.76L47.1658 29.76C47.1672 29.7611 47.172 29.764 47.1876 29.7659C47.203 29.7677 47.2241 29.7682 47.2547 29.7682H47.3477L47.3567 29.2023C47.3567 29.2022 47.3567 29.2022 47.3567 29.2022C47.3599 28.9379 47.3599 28.7895 47.3536 28.7047C47.3504 28.6618 47.3459 28.6387 47.341 28.626C47.3385 28.6194 47.3365 28.617 47.3351 28.616C47.3338 28.6157 47.3312 28.6153 47.3269 28.6148C47.3206 28.6142 47.3122 28.6136 47.3018 28.6132C47.2812 28.6124 47.254 28.6124 47.222 28.6132C47.1582 28.6148 47.0767 28.6195 46.9927 28.6275L46.9927 28.6275L46.9901 28.6277C46.9145 28.6348 46.8582 28.6401 46.8157 28.6453C46.7722 28.6507 46.7462 28.6558 46.73 28.6615C46.7154 28.6667 46.7133 28.6709 46.7122 28.673C46.7093 28.6787 46.7076 28.6877 46.705 28.7112L46.705 28.7112L46.7049 28.712C46.7003 28.7455 46.7035 28.7589 46.708 28.7663C46.7127 28.7739 46.7235 28.7832 46.7556 28.7954C46.7972 28.8102 46.8728 28.8252 46.9191 28.8252C46.9506 28.8252 46.9802 28.8271 47.0048 28.836C47.0321 28.8458 47.0523 28.864 47.0641 28.8921C47.0748 28.9176 47.0777 28.9495 47.0772 28.9865C47.0768 29.0242 47.0726 29.0714 47.0662 29.1298L47.0662 29.1298L47.0661 29.1305C47.0549 29.2168 47.0441 29.2752 47.0213 29.3252C46.9981 29.3761 46.9639 29.4158 46.9122 29.4675C46.8348 29.5449 46.7593 29.5918 46.6805 29.598C46.6004 29.6043 46.5264 29.5678 46.4538 29.5003L46.4538 29.5003C46.3759 29.4277 46.3295 29.3322 46.3043 29.1739C46.2794 29.0169 46.2747 28.7942 46.2827 28.4635M46.4602 27.3953L46.4595 27.3955M46.4602 27.3953L46.4595 27.3955M46.2827 28.4635C46.2827 28.4635 46.2827 28.4636 46.2827 28.4636L46.3182 28.4643L46.2827 28.4635C46.2827 28.4635 46.2827 28.4635 46.2827 28.4635ZM46.4595 27.3955C46.3827 27.4187 46.3007 27.4757 46.2304 27.5525C46.1604 27.6291 46.1043 27.7227 46.0773 27.8157L46.0773 27.8157M46.4595 27.3955L46.0773 27.8157M46.0773 27.8157L46.0771 27.8164M46.0773 27.8157L46.0771 27.8164M46.0771 27.8164C46.0419 27.9299 46.0172 28.144 46.0072 28.3783M46.0771 27.8164L46.0072 28.3783M46.5645 29.7747L46.5643 29.7747C46.3958 29.7594 46.2791 29.7028 46.1955 29.5913C46.1101 29.4775 46.0559 29.3022 46.0241 29.0418L46.5645 29.7747ZM46.5645 29.7747C46.6623 29.784 46.7375 29.7782 46.8006 29.7568M46.5645 29.7747L46.8006 29.7568M46.0072 28.3783C45.9972 28.6117 46.0021 28.8606 46.0241 29.0418L46.0072 28.3783ZM46.8006 29.7568C46.8632 29.7356 46.9166 29.6981 46.9694 29.6393L46.8006 29.7568ZM47.015 28.09V28.1255H47.0504L47.015 28.09Z" fill="#F1F7F6" stroke="#F1F7F6" stroke-width="0.0709033"/>
  <path d="M52.0236 29.4102L52.0084 29.4422C51.9745 29.4261 51.9453 29.4085 51.9288 29.3852C51.9197 29.3725 51.9143 29.3579 51.914 29.3416C51.9137 29.3265 51.918 29.3124 51.9241 29.2998C51.962 29.2066 52.0046 29.0881 52.0378 28.9854C52.0545 28.9338 52.0686 28.8865 52.0786 28.8486C52.089 28.8091 52.0936 28.784 52.0936 28.7741C52.0936 28.7523 52.091 28.7389 52.0872 28.7306C52.0841 28.7237 52.08 28.7193 52.0722 28.7158C52.0631 28.7117 52.0482 28.7086 52.0237 28.7085C51.9996 28.7083 51.9689 28.711 51.9298 28.7165L51.8191 28.7345L51.8031 28.871L51.8031 28.871L51.803 28.8719C51.7965 28.9173 51.7883 28.9624 51.7796 28.9986C51.7752 29.0166 51.7706 29.0331 51.7657 29.0466C51.7633 29.0533 51.7606 29.0598 51.7576 29.0656C51.7549 29.071 51.7508 29.0779 51.745 29.0837C51.7291 29.0996 51.7093 29.0963 51.7002 29.0934C51.6906 29.0904 51.682 29.0849 51.6751 29.0798C51.6608 29.0692 51.6441 29.0529 51.6263 29.0334C51.5902 28.994 51.5445 28.936 51.4961 28.8683L51.4961 28.8683L51.4957 28.8677L51.3295 28.6248L51.3146 28.603L51.3312 28.5825L51.4652 28.4165C51.4653 28.4164 51.4653 28.4164 51.4653 28.4164C51.6481 28.1862 51.7374 27.9715 51.7404 27.7986C51.7419 27.7127 51.7221 27.6374 51.6824 27.5747C51.6427 27.512 51.5817 27.46 51.4977 27.4225L51.4975 27.4224C51.4131 27.384 51.3367 27.3657 51.2626 27.366C51.1887 27.3664 51.1149 27.3854 51.0358 27.425L51.0355 27.4251C50.8887 27.497 50.8045 27.6106 50.7804 27.7597C50.756 27.911 50.7931 28.1024 50.8986 28.3276L50.8986 28.3276L50.8987 28.3279L51.0202 28.5932L51.0303 28.6152L51.0134 28.6326L50.9145 28.7347C50.9145 28.7347 50.9145 28.7348 50.9144 28.7348C50.8509 28.8014 50.7939 28.8926 50.7529 28.9897C50.7119 29.0869 50.6878 29.1875 50.6878 29.2726C50.6909 29.5139 50.801 29.6825 50.9564 29.7583C51.1122 29.8344 51.3217 29.8211 51.5308 29.6812L51.6778 29.5822L51.6973 29.5691L51.717 29.5819L51.8736 29.6842L51.8736 29.6842L51.8744 29.6847C51.9144 29.7125 51.9584 29.7379 51.9963 29.7563C52.0153 29.7655 52.0322 29.7727 52.0461 29.7775C52.0609 29.7826 52.069 29.7839 52.0715 29.7839C52.08 29.7839 52.0841 29.7833 52.0859 29.7829C52.0862 29.7822 52.0866 29.7812 52.087 29.7797C52.0892 29.772 52.0908 29.7583 52.0909 29.7343C52.091 29.7108 52.0897 29.6799 52.0873 29.6393L52.0873 29.6392C52.0824 29.5541 52.0775 29.5141 52.067 29.4899C52.0588 29.4711 52.0466 29.4606 52.0083 29.4422L52.0236 29.4102ZM52.0236 29.4102C52.1035 29.4486 52.1131 29.471 52.1227 29.6372L51.9245 28.6814C52.0843 28.6591 52.1291 28.6783 52.1291 28.7741C52.1291 28.8349 52.0332 29.1257 51.9565 29.3143C51.9373 29.3527 51.9565 29.3783 52.0236 29.4102ZM51.042 27.9244C51.0421 28.0004 51.0667 28.1044 51.0972 28.1903C51.1126 28.2336 51.1301 28.274 51.1478 28.3051C51.1566 28.3206 51.166 28.3347 51.1758 28.346C51.1847 28.3562 51.1973 28.368 51.2134 28.3731C51.2361 28.3809 51.2572 28.3735 51.2724 28.3638C51.2877 28.354 51.3016 28.3393 51.3138 28.3232C51.3386 28.2907 51.363 28.2443 51.3843 28.1928C51.4269 28.0899 51.4613 27.9573 51.4613 27.8536C51.4613 27.8137 51.4609 27.7813 51.459 27.7552C51.4571 27.7292 51.4536 27.7067 51.4461 27.6875C51.429 27.6442 51.395 27.6276 51.3556 27.6128C51.309 27.5941 51.2745 27.5819 51.2449 27.5808C51.211 27.5796 51.1872 27.5929 51.1629 27.6101M51.042 27.9244C51.042 27.9245 51.042 27.9247 51.042 27.9248L51.0775 27.9239H51.042C51.042 27.9241 51.042 27.9242 51.042 27.9244ZM51.042 27.9244C51.0404 27.8579 51.0514 27.7928 51.0718 27.7381C51.0918 27.6844 51.1224 27.6368 51.1629 27.6101M51.1629 27.6101C51.1627 27.6103 51.1625 27.6104 51.1623 27.6106L51.1829 27.6394L51.1636 27.6097C51.1634 27.6098 51.1632 27.61 51.1629 27.6101ZM51.3271 29.0703L51.3272 29.0704C51.3707 29.1332 51.411 29.1954 51.4406 29.2445C51.4554 29.269 51.4678 29.2906 51.4765 29.3077C51.4809 29.3161 51.4846 29.324 51.4874 29.3308C51.4894 29.3359 51.4933 29.3458 51.4933 29.3559C51.4933 29.3727 51.4861 29.3881 51.4791 29.3997C51.4715 29.4121 51.4614 29.4247 51.4501 29.4368C51.4274 29.4611 51.3972 29.4868 51.3652 29.51C51.3332 29.5333 51.2983 29.555 51.2659 29.5711C51.235 29.5863 51.2013 29.5991 51.1734 29.5991C51.1194 29.5991 51.0758 29.5703 51.044 29.5289C51.0126 29.4879 50.9909 29.4326 50.9784 29.3718C50.9535 29.2501 50.9635 29.0965 51.0192 28.9649L51.0192 28.9649L51.0196 28.9642C51.0341 28.9318 51.049 28.9012 51.0617 28.8784C51.0679 28.8671 51.0742 28.8568 51.08 28.8489C51.0828 28.845 51.0864 28.8406 51.0906 28.8368C51.0927 28.8348 51.0958 28.8323 51.0998 28.8301C51.1035 28.828 51.1103 28.825 51.119 28.825C51.1265 28.825 51.1322 28.8273 51.1348 28.8285C51.1378 28.8298 51.1401 28.8313 51.1417 28.8324C51.1449 28.8346 51.1477 28.8371 51.1499 28.8391C51.1545 28.8433 51.1596 28.8488 51.165 28.855C51.176 28.8673 51.1902 28.8848 51.2065 28.9058C51.2393 28.9479 51.2821 29.006 51.3271 29.0703ZM51.119 28.8604C51.1286 28.8604 51.2085 28.9627 51.298 29.0906C51.3843 29.2152 51.4578 29.3367 51.4578 29.3559C51.4578 29.4134 51.2501 29.5637 51.1734 29.5637C51.0135 29.5637 50.9464 29.228 51.0519 28.9787C51.0807 28.9148 51.1094 28.8604 51.119 28.8604Z" fill="#F1F7F6" stroke="#F1F7F6" stroke-width="0.0709033"/>
  <path d="M58.946 28.4669C58.9332 29.1765 58.9651 29.4002 59.0898 29.4993L58.946 28.4669ZM58.946 28.4669C58.9556 27.9363 58.9651 27.8372 59.0131 27.7605L58.946 28.4669ZM59.0679 29.5271L59.0679 29.5271C59.2527 29.6729 59.5476 29.5858 59.6128 29.3563C59.6204 29.3328 59.6258 29.2969 59.6298 29.2522C59.634 29.206 59.6371 29.1475 59.6391 29.0776L59.0679 29.5271ZM59.0679 29.5271L59.0677 29.5271C58.9947 29.469 58.9536 29.3771 58.9312 29.2169C58.9088 29.0568 58.9041 28.8209 58.9105 28.4662L58.9105 28.4662C58.9153 28.2013 58.9201 28.0424 58.9299 27.9401C58.9397 27.8371 58.9548 27.7868 58.983 27.7417L58.983 27.7417L58.9836 27.7408C59.0831 27.5915 59.2748 27.5391 59.4434 27.6164C59.4826 27.6343 59.5182 27.6535 59.5464 27.6864C59.5748 27.7195 59.5928 27.7629 59.6052 27.8241C59.6296 27.9445 59.6351 28.1501 59.6399 28.5239L59.0679 29.5271ZM59.0924 27.3888L59.0921 27.3889C58.8898 27.4402 58.74 27.5846 58.686 27.7765L58.686 27.7765L58.6859 27.7771C58.682 27.7897 58.6773 27.817 58.6723 27.8581C58.6674 27.8983 58.6624 27.9492 58.6577 28.0075C58.6481 28.124 58.6394 28.2689 58.633 28.414C58.6186 28.8096 58.6308 29.0928 58.6746 29.2969C58.7182 29.5001 58.7923 29.6211 58.8994 29.6974L58.8788 29.7263L58.8994 29.6974C58.9246 29.7153 58.9661 29.7323 59.0198 29.7465C59.0728 29.7604 59.135 29.7708 59.1994 29.7769C59.3292 29.7891 59.4624 29.7831 59.5453 29.7566C59.6207 29.7303 59.6978 29.6727 59.7614 29.5965C59.825 29.5203 59.8732 29.428 59.8926 29.3354L59.8926 29.3352C59.903 29.2868 59.9114 29.1799 59.917 29.0403C59.9226 28.902 59.9254 28.7348 59.9254 28.568C59.9254 28.4011 59.9226 28.2349 59.917 28.0986C59.9114 27.9608 59.903 27.8573 59.8927 27.8133L59.8927 27.813C59.8562 27.6521 59.7436 27.4987 59.6264 27.4371C59.577 27.4117 59.4766 27.3906 59.3683 27.3806C59.2602 27.3707 59.1534 27.3729 59.0924 27.3888Z" fill="#F1F7F6" stroke="#F1F7F6" stroke-width="0.0709033"/>
  <path d="M66.7268 27.7101L66.7268 27.7101C66.8093 27.5511 66.9146 27.4584 67.0591 27.4042C67.1152 27.3841 67.2151 27.3744 67.3213 27.3772C67.4272 27.3799 67.532 27.3949 67.5967 27.4199C67.5967 27.4199 67.5967 27.4199 67.5967 27.4199L66.7268 27.7101ZM66.7268 27.7101L66.7265 27.7106M66.7268 27.7101L66.7265 27.7106M66.7265 27.7106C66.711 27.7392 66.6999 27.7625 66.6913 27.7914C66.6827 27.8206 66.6762 27.8568 66.6715 27.9109C66.6621 28.0201 66.6605 28.1965 66.6605 28.5248C66.6605 28.9155 66.6661 29.1434 66.6908 29.2975C66.7149 29.4482 66.7568 29.5264 66.8312 29.6176C66.8817 29.677 66.9389 29.7179 67.0136 29.7444C67.0894 29.7712 67.1847 29.7839 67.3122 29.7839C67.5425 29.7839 67.7123 29.6985 67.8132 29.5442L67.8132 29.5442M66.7265 27.7106L67.8132 29.5442M67.8132 29.5442L67.8133 29.544M67.8132 29.5442L67.8133 29.544M67.8133 29.544C67.8532 29.4842 67.8729 29.4488 67.887 29.3678M67.8133 29.544L67.887 29.3678M67.6513 27.7832L67.6393 27.7726L67.5339 27.68L67.5338 27.6799L67.6513 27.7832ZM67.6513 27.7832V27.7992V28.5887V29.3782V29.3943L67.6393 29.4049L67.5339 29.4975C67.5339 29.4975 67.5339 29.4975 67.5339 29.4975C67.4739 29.5506 67.4096 29.5838 67.3401 29.5947C67.2705 29.6055 67.1989 29.5934 67.1253 29.5609L67.1253 29.5609L67.1246 29.5606C67.0853 29.5422 67.0511 29.5194 67.0242 29.4801C66.998 29.4418 66.981 29.3909 66.9692 29.3205C66.9458 29.1807 66.9412 28.9488 66.9412 28.5472V27.7992V27.7832L66.9532 27.7726L67.0586 27.68L67.6513 27.7832ZM67.887 29.3678C67.9017 29.2829 67.9097 29.1505 67.9225 28.897L67.887 29.3678Z" fill="#F1F7F6" stroke="#F1F7F6" stroke-width="0.0709033"/>
  <path d="M73.5986 27.3936L73.5991 27.3934C73.9408 27.3103 74.2486 27.4369 74.3869 27.7105C74.4281 27.7929 74.4444 27.8483 74.4431 27.8856C74.4425 27.9031 74.438 27.9156 74.4311 27.9253C74.424 27.9353 74.4125 27.9448 74.3941 27.9533L74.409 27.9855M73.5986 27.3936L73.5971 27.7138L73.5699 27.6911C73.5699 27.6911 73.5699 27.6911 73.5699 27.6911C73.6573 27.5862 73.768 27.5499 73.8765 27.5876C73.9814 27.6241 74.075 27.7268 74.141 27.8785C74.162 27.9253 74.1771 27.9577 74.1913 27.9799C74.2052 28.0019 74.2149 28.0084 74.2225 28.0108C74.2311 28.0134 74.2456 28.0135 74.2751 28.0038C74.3042 27.9943 74.3417 27.9775 74.3942 27.9533L74.409 27.9855M73.5986 27.3936C73.3119 27.4586 73.1402 27.7839 73.2285 28.1006L73.1944 28.1101L73.2285 28.1006C73.2762 28.2705 73.4335 28.4529 73.7724 28.7183M73.5986 27.3936L73.7724 28.7183M74.409 27.9855C74.2013 28.0814 74.1917 28.0782 74.1086 27.8928L73.5907 27.359C73.9455 27.2727 74.2716 27.4037 74.4186 27.6946C74.5017 27.8608 74.4985 27.9439 74.409 27.9855ZM73.7724 28.7183C73.9731 28.8741 74.102 29.0148 74.1532 29.1461C74.1792 29.2127 74.1854 29.2776 74.1702 29.3403C74.1551 29.4027 74.1194 29.4599 74.0665 29.5129C74.0181 29.5612 73.9677 29.5908 73.9088 29.5962C73.8511 29.6015 73.7912 29.5829 73.7248 29.5481C73.6933 29.5323 73.6628 29.5046 73.6354 29.4724C73.6075 29.4397 73.581 29.4003 73.5581 29.3586C73.5129 29.2765 73.4786 29.18 73.4786 29.1042C73.4786 29.0841 73.4776 29.0734 73.4764 29.0678C73.4663 29.0679 73.4476 29.0719 73.4138 29.0838C73.3805 29.0954 73.3366 29.113 73.2782 29.137L73.2647 29.1042C73.172 29.1426 73.1624 29.1554 73.1816 29.2353M73.7724 28.7183L73.2159 29.2265L73.1816 29.2353M73.1816 29.2353C73.2487 29.4974 73.399 29.7051 73.5716 29.7787L73.2783 29.137C73.2551 29.1466 73.239 29.1538 73.2276 29.1604C73.2162 29.1669 73.2124 29.1712 73.211 29.1734C73.2101 29.1748 73.2087 29.1774 73.2089 29.1855C73.2091 29.1945 73.2113 29.2071 73.216 29.2267M73.1816 29.2353L73.2161 29.227C73.2161 29.2269 73.216 29.2268 73.216 29.2267M73.216 29.2267C73.2816 29.4827 73.4268 29.6784 73.5853 29.746C73.6447 29.7705 73.7479 29.7856 73.8551 29.7876C73.9625 29.7895 74.0655 29.7782 74.1244 29.7552L74.1244 29.7552L74.1247 29.7551C74.2488 29.7078 74.3449 29.6131 74.412 29.4697C74.4477 29.392 74.4648 29.334 74.4659 29.2718C74.467 29.2089 74.4518 29.1384 74.417 29.0357L74.417 29.0357L74.4168 29.0352C74.3532 28.8382 74.2329 28.6968 73.8754 28.4095L73.216 29.2267Z" fill="#F1F7F6" stroke="#F1F7F6" stroke-width="0.0709033"/>
  <path d="M83.7986 27.3898L83.7986 27.3898C83.8624 27.3724 83.9721 27.371 84.0844 27.3829C84.1967 27.3948 84.3035 27.419 84.3616 27.4481C84.4347 27.4846 84.4878 27.5438 84.5568 27.6785C84.5568 27.6785 84.5568 27.6786 84.5568 27.6786L84.6488 27.8626V28.5735C84.6488 28.9531 84.6448 29.1676 84.6244 29.3088C84.6144 29.3787 84.6004 29.4293 84.5817 29.4722C84.563 29.515 84.5387 29.5517 84.5062 29.5936C84.4098 29.7146 84.2216 29.7823 84.0266 29.7866C83.8314 29.7909 83.6438 29.7313 83.5481 29.6153L83.7986 27.3898ZM83.7986 27.3898L83.7979 27.39M83.7986 27.3898L83.7979 27.39M83.7979 27.39C83.7192 27.4097 83.6575 27.4402 83.605 27.4865C83.5521 27.5331 83.5067 27.5974 83.4632 27.6875L83.4631 27.6877M83.7979 27.39L83.4631 27.6877M83.4631 27.6877C83.4189 27.7777 83.3988 27.8195 83.3882 27.9203M83.4631 27.6877L83.3882 27.9203M84.1845 27.6175L84.1844 27.6174C84.0224 27.5435 83.8525 27.5832 83.731 27.7187C83.7144 27.7371 83.7003 27.7568 83.6896 27.7866C83.6792 27.8152 83.6724 27.8518 83.6673 27.9035C83.6571 28.0068 83.6531 28.1804 83.6484 28.493L84.1845 27.6175ZM84.1845 27.6175C84.2288 27.6379 84.267 27.6622 84.2969 27.7022M84.1845 27.6175L84.2969 27.7022M83.3882 27.9203C83.3773 28.025 83.3772 28.1903 83.3772 28.5255M83.3882 27.9203L83.3772 28.5255M83.3772 28.5255C83.3772 28.9015 83.3845 29.1312 83.41 29.2894M83.3772 28.5255L83.41 29.2894M83.41 29.2894C83.435 29.4451 83.4773 29.5294 83.5481 29.6153L83.41 29.2894ZM84.2969 27.7022C84.3265 27.7418 84.3455 27.7936 84.358 27.8645M84.2969 27.7022L84.358 27.8645M84.358 27.8645C84.3827 28.0048 84.3841 28.2349 84.3777 28.6315M84.358 27.8645L84.3777 28.6315M84.3777 28.6315C84.3729 29.018 84.3683 29.2291 84.3443 29.3518C84.3321 29.4141 84.3142 29.4582 84.2855 29.4915C84.2571 29.5246 84.2209 29.5436 84.1811 29.5615M84.3777 28.6315L83.8284 29.5307C83.8888 29.5676 83.946 29.5902 84.0046 29.5956C84.0635 29.6011 84.1209 29.589 84.1811 29.5615M84.1811 29.5615C84.1811 29.5614 84.1812 29.5614 84.1812 29.5614L84.1665 29.5292L84.181 29.5615C84.181 29.5615 84.1811 29.5615 84.1811 29.5615Z" fill="#F1F7F6" stroke="#F1F7F6" stroke-width="0.0709033"/>
  <path d="M31.6504 27.5068L31.6504 27.5068L31.658 27.6285L31.8404 27.6366L31.8404 27.6367L32.0577 27.6462L32.0914 27.6477L32.0916 27.6814L32.098 28.7425L32.098 28.7426L32.1073 29.7707L32.2278 29.7783L32.2278 29.7783L32.3407 29.7855L32.3467 29.0463C32.3499 28.6179 32.3563 28.1669 32.3595 28.0451L32.3595 28.0451L32.3596 28.0442C32.3659 27.92 32.3691 27.7895 32.3691 27.7488L32.3692 27.7469C32.37 27.7311 32.3718 27.7141 32.378 27.6988C32.385 27.6816 32.397 27.6682 32.4144 27.6593C32.4301 27.6512 32.4489 27.6476 32.4689 27.6456C32.4894 27.6436 32.5147 27.643 32.5452 27.643C32.6066 27.643 32.6529 27.6416 32.6882 27.6373C32.724 27.633 32.7446 27.6262 32.7572 27.618C32.7781 27.6044 32.7878 27.58 32.7878 27.4995V27.3943H32.2128H31.6433L31.6504 27.5068Z" fill="#F1F7F6" stroke="#F1F7F6" stroke-width="0.0709033"/>
  <path d="M34.291 27.3936V27.486V27.5763L34.0153 27.5848L34.0153 27.5848L33.7021 27.5944L33.6677 27.5954V27.6298V28.0134V28.3969V28.4299L33.7006 28.4323L33.9177 28.4483C33.9177 28.4483 33.9177 28.4483 33.9178 28.4483C33.9762 28.453 34.0286 28.4593 34.0658 28.4658C34.0797 28.4683 34.0909 28.4706 34.0992 28.4728V28.4728V28.473V28.4732V28.4734V28.4736V28.4738V28.474V28.4742V28.4744V28.4746V28.4748V28.475V28.4752V28.4754V28.4756V28.4758V28.476V28.4762V28.4764V28.4766V28.4768V28.477V28.4772V28.4774V28.4777V28.4779V28.4781V28.4783V28.4785V28.4787V28.4789V28.4791V28.4794V28.4796V28.4798V28.48V28.4802V28.4804V28.4806V28.4809V28.4811V28.4813V28.4815V28.4817V28.482V28.4822V28.4824V28.4826V28.4828V28.4831V28.4833V28.4835V28.4837V28.484V28.4842V28.4844V28.4846V28.4849V28.4851V28.4853V28.4856V28.4858V28.486V28.4863V28.4865V28.4867V28.4869V28.4872V28.4874V28.4876V28.4879V28.4881V28.4883V28.4886V28.4888V28.4891V28.4893V28.4895V28.4898V28.49V28.4902V28.4905V28.4907V28.491V28.4912V28.4914V28.4917V28.4919V28.4922V28.4924V28.4927V28.4929V28.4931V28.4934V28.4936V28.4939V28.4941V28.4944V28.4946V28.4949V28.4951V28.4954V28.4956V28.4959V28.4961V28.4964V28.4966V28.4969V28.4971V28.4974V28.4976V28.4979V28.4981V28.4984V28.4986V28.4989V28.4992V28.4994V28.4997V28.4999V28.5002V28.5004V28.5007V28.5009V28.5012V28.5015V28.5017V28.502V28.5022V28.5025V28.5028V28.503V28.5033V28.5036V28.5038V28.5041V28.5043V28.5046V28.5049V28.5051V28.5054V28.5057V28.5059V28.5062V28.5065V28.5067V28.507V28.5073V28.5075V28.5078V28.5081V28.5083V28.5086V28.5089V28.5092V28.5094V28.5097V28.51V28.5102V28.5105V28.5108V28.5111V28.5113V28.5116V28.5119V28.5122V28.5124V28.5127V28.513V28.5133V28.5135V28.5138V28.5141V28.5144V28.5146V28.5149V28.5152V28.5155V28.5158V28.516V28.5163V28.5166V28.5169V28.5172V28.5174V28.5177V28.518V28.5183V28.5186V28.5189V28.5191V28.5194V28.5197V28.52V28.5203V28.5206V28.5208V28.5211V28.5214V28.5217V28.522V28.5223V28.5226V28.5228V28.5231V28.5234V28.5237V28.524V28.5243V28.5246V28.5249V28.5252V28.5254V28.5257V28.526V28.5263V28.5266V28.5269V28.5272V28.5275V28.5278V28.5281V28.5284V28.5287V28.5289V28.5292V28.5295V28.5298V28.5301V28.5304V28.5307V28.531V28.5313V28.5316V28.5319V28.5322V28.5325V28.5328V28.5331V28.5334V28.5337V28.534V28.5343V28.5346V28.5349V28.5352V28.5355V28.5358V28.5361V28.5364V28.5367V28.537V28.5373V28.5376V28.5379V28.5382V28.5385V28.5388V28.5391V28.5394V28.5397V28.54V28.5403V28.5406V28.5409V28.5412V28.5415V28.5418V28.5421V28.5424V28.5427V28.543V28.5433V28.5436V28.5439V28.5442V28.5446V28.5449V28.5452V28.5455V28.5458V28.5461V28.5464V28.5467V28.547V28.5473V28.5476V28.5479V28.5482V28.5486V28.5489V28.5492V28.5495V28.5498V28.5501V28.5504V28.5507V28.551V28.5513V28.5516V28.552V28.5523V28.5526V28.5529V28.5532V28.5535V28.5538V28.5541V28.5544V28.5548V28.5551V28.5554V28.5557V28.556V28.5563V28.5566V28.5569V28.5573V28.5576V28.5579V28.5582V28.5585V28.5588V28.5591V28.5595V28.5598V28.5601V28.5604V28.5607V28.561V28.5613V28.5617V28.562V28.5623V28.5626V28.5629V28.5632V28.5635V28.5639V28.5642V28.5645V28.5648V28.5651V28.5654V28.5658V28.5661V28.5664V28.5667V28.567V28.5673V28.5677V28.568V28.5683V28.5686V28.5689V28.5692V28.5696V28.5699V28.5702V28.5705V28.5708V28.5711V28.5715V28.5718V28.5721V28.5724V28.5727C34.0992 28.5978 34.099 28.6099 34.097 28.6178C34.0966 28.6193 34.0962 28.6201 34.096 28.6206L34.0958 28.621L34.0957 28.6211L34.0956 28.6212L34.0953 28.6215C34.0949 28.6218 34.0941 28.6224 34.0926 28.6231C34.0855 28.6265 34.0711 28.6299 34.0411 28.6327C34.012 28.6354 33.9729 28.6372 33.919 28.6396L34.291 27.3936ZM34.291 27.3936H33.8502C33.615 27.3936 33.4996 27.3937 33.4404 27.402C33.4105 27.4062 33.4036 27.4116 33.4023 27.413C33.4013 27.4139 33.3995 27.4158 33.3961 27.4346C33.3903 27.4677 33.387 27.5455 33.387 27.784C33.387 28.0212 33.3902 28.4141 33.3966 29.0742L33.3966 29.0743L33.4027 29.7839H33.6808C33.8495 29.7839 34.0656 29.7743 34.1566 29.7649L34.1603 29.8002M34.291 27.3936L33.9189 28.6396L33.7016 28.6492L33.6677 28.6507V28.6846V29.1161V29.5476V29.582L33.7021 29.5831L34.0153 29.5927L34.0153 29.5927L34.291 29.6012V29.6723C34.291 29.6997 34.2907 29.7158 34.2886 29.7271C34.2868 29.7363 34.2847 29.7379 34.2832 29.7391L34.2831 29.7391C34.2792 29.742 34.2702 29.7462 34.2478 29.7509C34.2262 29.7553 34.197 29.7593 34.156 29.765L34.1554 29.765L34.1603 29.8002M34.1603 29.8002C34.0676 29.8097 33.8502 29.8193 33.6808 29.8193H33.3675L34.0164 29.5572L34.3265 29.5668V29.6723C34.3265 29.7773 34.3233 29.7778 34.1623 29.7999L34.1603 29.8002Z" fill="#F1F7F6" stroke="#F1F7F6" stroke-width="0.0709033"/>
  <path d="M37.7087 29.2342L37.7147 29.7521H37.8554H37.9958V28.5729V27.3937H37.8554H37.7151V27.8857V28.4163V28.4529L37.6785 28.4517L37.3844 28.4421L37.3844 28.4421L37.0871 28.4326L37.0535 28.4315L37.0528 28.3978L37.0433 27.8768L37.0433 27.8765L37.0373 27.3937H36.8965H36.7562V28.5729C36.7562 28.9068 36.7586 29.2102 36.7629 29.4304C36.7651 29.5406 36.7678 29.6297 36.7709 29.6913C36.7724 29.7201 36.7739 29.7424 36.7755 29.7579C36.8294 29.7626 36.8816 29.765 36.9251 29.7653C36.9504 29.7655 36.9724 29.765 36.99 29.7639C37.0005 29.7633 37.0087 29.7624 37.0148 29.7616C37.0156 29.7591 37.0165 29.7558 37.0175 29.7514C37.0218 29.733 37.0256 29.7034 37.0285 29.6593C37.0344 29.5716 37.0369 29.4328 37.0369 29.225V28.6656V28.629L37.0734 28.6302L37.3707 28.6398L37.3707 28.6398L37.6648 28.6494L37.6985 28.6505L37.6991 28.6842L37.7087 29.234H37.7087L37.7087 29.2342Z" fill="#F1F7F6" stroke="#F1F7F6" stroke-width="0.0709033"/>
  <path d="M39.2134 28.4323C39.2614 28.5476 39.4022 28.8963 39.5206 29.2099C39.6134 29.4468 39.6711 29.5881 39.713 29.6718C39.734 29.7138 39.7499 29.739 39.7629 29.7541C39.7752 29.7684 39.7832 29.7717 39.7889 29.7729L39.7889 29.7728L39.7903 29.7732C39.7963 29.7747 39.8017 29.7762 39.8069 29.7775C39.8221 29.7815 39.8341 29.7846 39.8451 29.7864C39.8595 29.7888 39.8653 29.7876 39.8678 29.7864C39.8692 29.7858 39.874 29.7834 39.8799 29.7698C39.8862 29.7556 39.8921 29.7327 39.8971 29.6965C39.9157 29.5601 39.9156 29.2762 39.9155 28.7029C39.9155 28.6614 39.9155 28.6184 39.9155 28.5738V27.3946H39.772H39.6321L39.6412 28.0746C39.6412 28.0746 39.6412 28.0746 39.6412 28.0746C39.6417 28.1108 39.6423 28.1455 39.6428 28.1787C39.6454 28.3399 39.6474 28.4655 39.6453 28.554C39.644 28.607 39.6413 28.649 39.6357 28.6781C39.633 28.6922 39.6291 28.7067 39.6221 28.7183C39.6147 28.7307 39.5989 28.7467 39.5741 28.7436C39.5554 28.7412 39.5421 28.7283 39.5345 28.7198C39.5256 28.7098 39.5167 28.6966 39.5077 28.6814C39.4897 28.6509 39.4683 28.6069 39.443 28.5503C39.4008 28.4558 39.3459 28.3227 39.2752 28.1512C39.2611 28.117 39.2464 28.0813 39.231 28.044C39.1624 27.8812 39.0969 27.7287 39.0467 27.6143C39.0215 27.557 39.0003 27.5094 38.9843 27.4748C38.9763 27.4575 38.9698 27.4436 38.9648 27.4334C38.9617 27.4272 38.9596 27.4232 38.9583 27.4209L38.9574 27.4202C38.9552 27.4188 38.9523 27.4172 38.9486 27.4155C38.9412 27.412 38.9315 27.4084 38.9201 27.4052C38.8973 27.3988 38.8702 27.3946 38.845 27.3946H38.7718V28.5706V29.7475L38.894 29.7628C38.9349 29.7675 38.9725 29.7706 39 29.7722C39.0048 29.7724 39.0093 29.7727 39.0133 29.7728C39.0135 29.7689 39.0137 29.7647 39.0138 29.7601C39.0149 29.7314 39.0161 29.6902 39.0173 29.6393C39.0197 29.5376 39.0221 29.3979 39.0237 29.2446L39.0237 29.2446L39.0237 29.2443C39.0301 28.9375 39.0397 28.5854 39.0461 28.4601L39.0461 28.4598L39.0589 28.2393L39.127 28.2275L39.2133 28.4321L39.2134 28.4323Z" fill="#F1F7F6" stroke="#F1F7F6" stroke-width="0.0709033"/>
  <path d="M42.6695 29.7668C42.671 29.7671 42.6733 29.7674 42.6765 29.7677C42.6843 29.7685 42.6951 29.7692 42.7086 29.7697C42.7355 29.7708 42.7718 29.7713 42.8151 29.7711C42.9016 29.7707 43.0145 29.7676 43.1322 29.7612L43.1322 29.7612L43.1325 29.7612L43.527 29.7435V29.6688V29.5987H43.2588H42.9551H42.9197V29.5633V28.4605V27.3932H42.7793H42.639V28.5692C42.639 29.1033 42.6406 29.4061 42.6477 29.5774C42.6513 29.6635 42.6563 29.7141 42.6625 29.7436C42.6653 29.757 42.6679 29.7638 42.6695 29.7668Z" fill="#F1F7F6" stroke="#F1F7F6" stroke-width="0.0709033"/>
  <path d="M48.6411 29.7517H48.52H48.3975L48.3828 29.3609C48.3828 29.3609 48.3828 29.3608 48.3828 29.3608C48.3764 29.1532 48.3716 29.0424 48.3397 28.8942C48.3088 28.7512 48.2527 28.5733 48.1465 28.2365L48.1382 28.2102C48.0759 28.012 48.0159 27.8241 47.9691 27.6805C47.9457 27.6087 47.9256 27.5479 47.9101 27.5024C47.8951 27.4585 47.8838 27.4266 47.8779 27.4138M48.6411 29.7517L47.8455 27.4282M48.6411 29.7517V29.6656H48.6411L48.6411 29.6652C48.6476 29.1648 48.7031 28.8925 48.9433 28.1398L48.9433 28.1397C49.0104 27.932 49.0711 27.7411 49.115 27.601C49.137 27.5309 49.1547 27.4736 49.167 27.4332C49.171 27.4199 49.1744 27.4085 49.1772 27.3991C49.174 27.3987 49.1705 27.3983 49.1667 27.3979C49.1381 27.3949 49.0979 27.3933 49.0538 27.3933H48.9111L48.7587 27.9299C48.7587 27.9299 48.7587 27.93 48.7587 27.93C48.7154 28.0853 48.673 28.228 48.6396 28.3327C48.623 28.385 48.6086 28.4282 48.5974 28.4589C48.5918 28.4742 48.5869 28.4869 48.5827 28.4962C48.5807 28.5008 48.5785 28.5054 48.5763 28.5093C48.5752 28.5112 48.5737 28.5137 48.5717 28.5162L48.5717 28.5162C48.5706 28.5176 48.5671 28.5222 48.561 28.5259M48.6411 29.7517L48.7245 27.9204C48.6382 28.2305 48.5551 28.4894 48.5423 28.4958M47.8779 27.4138C47.8779 27.4136 47.8778 27.4135 47.8777 27.4133L47.8455 27.4282M47.8779 27.4138C47.878 27.4139 47.8781 27.4141 47.8781 27.4142L47.8455 27.4282M47.8779 27.4138C47.8749 27.4067 47.8727 27.4013 47.8711 27.3972M47.8455 27.4282C47.8168 27.361 47.82 27.3578 47.9989 27.3578H48.1811M47.8711 27.3972C47.8643 27.3982 47.8609 27.3992 47.8594 27.3999L47.8594 27.3999C47.8594 27.3999 47.8626 27.3983 47.8652 27.3937C47.8678 27.3891 47.8675 27.3854 47.8675 27.3854L47.8675 27.3854C47.8677 27.3873 47.8686 27.3907 47.8711 27.3972ZM47.8711 27.3972C47.877 27.3963 47.8855 27.3954 47.8973 27.3948C47.9212 27.3935 47.954 27.3933 47.9989 27.3933H48.1539M48.1539 27.3933L48.1469 27.3669L48.1811 27.3578M48.1539 27.3933L48.2556 27.7761L48.2556 27.7762C48.3196 28.0131 48.3758 28.201 48.4197 28.3276C48.4416 28.3907 48.4609 28.4397 48.4769 28.4722C48.4847 28.488 48.4929 28.5023 48.5015 28.5123C48.5056 28.5171 48.5121 28.5238 48.5212 28.5281C48.532 28.5331 48.5471 28.5347 48.561 28.5259M48.1539 27.3933H48.1811V27.3578M48.1811 27.3578L48.561 28.5259M48.561 28.5259C48.5601 28.5264 48.5592 28.527 48.5582 28.5275L48.5423 28.4958M48.561 28.5259L48.2898 27.767C48.3913 28.1426 48.4727 28.3933 48.5163 28.471C48.5156 28.4726 48.5151 28.4735 48.5148 28.474C48.5145 28.4744 48.5149 28.4738 48.5158 28.4726L48.5158 28.4726C48.5159 28.4725 48.5162 28.4721 48.5166 28.4716C48.5278 28.4913 48.5365 28.4997 48.5423 28.4958M48.561 28.5259C48.5613 28.5257 48.5617 28.5255 48.562 28.5253L48.5423 28.4958M49.185 27.3713C49.1852 27.3705 49.1851 27.3706 49.185 27.3714L49.185 27.3713Z" fill="#F1F7F6" stroke="#F1F7F6" stroke-width="0.0709033"/>
  <path d="M54.0255 29.7683C54.0378 29.7683 54.0481 29.7679 54.0561 29.7672C54.0561 29.7667 54.0562 29.7662 54.0562 29.7656C54.0579 29.7496 54.0596 29.7256 54.0611 29.6942C54.0642 29.6316 54.0669 29.5414 54.0691 29.4302C54.0735 29.208 54.0759 28.903 54.0759 28.5691V27.3931H53.9356H53.7952V28.5691V29.7461L53.9142 29.7613C53.9562 29.766 53.9955 29.7683 54.0255 29.7683Z" fill="#F1F7F6" stroke="#F1F7F6" stroke-width="0.0709033"/>
  <path d="M55.8612 29.7444C55.871 29.7549 55.8775 29.759 55.8808 29.7605L55.8906 29.764C55.9074 29.7702 55.9201 29.7749 55.9314 29.7777C55.9448 29.7811 55.9492 29.7798 55.9501 29.7794C55.9504 29.7793 55.9513 29.7789 55.9528 29.7772C55.9546 29.7752 55.9571 29.7715 55.9601 29.7646C55.9661 29.7505 55.9719 29.7276 55.9767 29.6913C55.9956 29.55 55.9956 29.2496 55.9956 28.6384C55.9956 28.6168 55.9956 28.5948 55.9956 28.5725V27.3933H55.8744H55.754L55.7308 27.715C55.7308 27.715 55.7308 27.7151 55.7308 27.7151C55.7181 27.9085 55.7181 28.2361 55.7308 28.4392L55.7308 28.4393C55.7388 28.5687 55.7421 28.6605 55.7404 28.7174C55.7396 28.7448 55.7377 28.7679 55.7329 28.7835C55.7316 28.7877 55.7298 28.7927 55.7268 28.7976C55.7241 28.8023 55.7189 28.8093 55.7099 28.8141C55.6996 28.8195 55.6883 28.8199 55.6786 28.8166C55.6701 28.8138 55.6642 28.8088 55.6608 28.8053C55.6548 28.7994 55.6492 28.7905 55.645 28.7834C55.64 28.775 55.6343 28.7644 55.6279 28.7521C55.615 28.7273 55.599 28.6941 55.5809 28.6549C55.5447 28.5764 55.4997 28.4728 55.4548 28.3621C55.3655 28.1419 55.2314 27.829 55.161 27.666L55.0425 27.3933H54.9411H54.8519V28.5693V29.7483L54.9633 29.7582C55.0007 29.7613 55.0388 29.7629 55.0697 29.7629C55.0852 29.7629 55.0985 29.7625 55.1088 29.7618C55.1093 29.7617 55.1097 29.7617 55.1101 29.7617C55.1114 29.7548 55.1126 29.7457 55.1139 29.7342C55.1177 29.7004 55.121 29.6501 55.1238 29.5839C55.1294 29.4515 55.1326 29.2579 55.1326 29.0104C55.1326 28.788 55.1358 28.5981 55.141 28.4656C55.1436 28.3995 55.1467 28.3471 55.1503 28.3119C55.152 28.2947 55.154 28.28 55.1565 28.2697C55.1574 28.2656 55.1595 28.2576 55.1639 28.2506C55.1658 28.2477 55.1724 28.2379 55.1858 28.2342C55.203 28.2294 55.2161 28.238 55.2218 28.2438L55.2219 28.2437L55.224 28.2461C55.2287 28.2517 55.2329 28.2593 55.2363 28.2657C55.2401 28.2729 55.2445 28.2819 55.2492 28.2923C55.2588 28.313 55.2706 28.3404 55.2839 28.3723C55.3104 28.4363 55.3433 28.5197 55.3769 28.6078L55.3769 28.6078L55.3771 28.6082C55.5321 29.0301 55.6428 29.3144 55.7246 29.4969C55.7655 29.5883 55.7987 29.6531 55.826 29.6965C55.8397 29.7182 55.8514 29.7338 55.8612 29.7444Z" fill="#F1F7F6" stroke="#F1F7F6" stroke-width="0.0709033"/>
  <path d="M57.8197 29.7836C57.8348 29.79 57.8517 29.7895 57.88 29.7791C57.8815 29.7767 57.8847 29.7698 57.8881 29.7534C57.8943 29.7236 57.8992 29.6729 57.9028 29.5866C57.91 29.4149 57.9116 29.1113 57.9116 28.574V27.3948H57.7872H57.6629V28.1009V28.1018C57.6629 28.3136 57.6629 28.4733 57.6594 28.5842C57.6576 28.6397 57.6549 28.684 57.6508 28.717C57.6487 28.7335 57.6462 28.748 57.6429 28.7602C57.6399 28.7714 57.6352 28.7844 57.6269 28.7946C57.6225 28.8001 57.6159 28.806 57.6068 28.8096C57.5971 28.8133 57.5873 28.8134 57.5785 28.8111C57.563 28.807 57.5522 28.7958 57.5456 28.788C57.5314 28.7711 57.5166 28.7437 57.5009 28.7102C57.4694 28.6432 57.4279 28.5376 57.3738 28.3998L57.3708 28.3923C57.3708 28.3922 57.3708 28.3922 57.3707 28.3922C57.2973 28.2101 57.1727 27.9067 57.0929 27.715L56.9582 27.3948H56.8571H56.7679V28.5708V29.7499L56.8732 29.7597L56.8732 29.7597L56.8737 29.7598C56.8867 29.7612 56.8984 29.7626 56.9092 29.7639C56.9243 29.7657 56.9377 29.7673 56.9505 29.7684C56.9721 29.7703 56.9871 29.7704 56.9981 29.7684C57.0081 29.7666 57.0135 29.7635 57.0178 29.7589C57.0228 29.7535 57.0288 29.7433 57.0341 29.723C57.045 29.6813 57.0495 29.6112 57.0497 29.4938C57.0499 29.403 57.0477 29.2865 57.0447 29.1369C57.0439 29.0949 57.0431 29.0503 57.0422 29.003L57.0422 29.0029C57.0374 28.6979 57.0358 28.5052 57.0394 28.3943C57.0412 28.3399 57.0443 28.3015 57.0501 28.2792C57.0516 28.2734 57.0537 28.2667 57.0571 28.2606C57.0601 28.2552 57.0668 28.245 57.0799 28.24C57.0953 28.2341 57.109 28.2391 57.1169 28.2443C57.1241 28.249 57.129 28.2551 57.1321 28.2593L57.1321 28.2593L57.1327 28.2603C57.1369 28.2666 57.1424 28.2779 57.1482 28.2902C57.1544 28.3037 57.1624 28.3215 57.1717 28.343C57.1905 28.3861 57.2152 28.4449 57.2442 28.5149C57.3022 28.6549 57.3774 28.8405 57.4558 29.0372L57.4558 29.0373C57.6002 29.403 57.6836 29.6023 57.747 29.7044C57.7788 29.7556 57.8019 29.776 57.8197 29.7836Z" fill="#F1F7F6" stroke="#F1F7F6" stroke-width="0.0709033"/>
  <path d="M60.4882 27.3995L60.4884 27.3994L60.4893 27.4025C60.4994 27.4363 60.5605 27.7 60.6179 27.9906C60.7138 28.4554 60.8072 28.8907 60.8791 29.2121C60.915 29.3728 60.9455 29.5049 60.9682 29.5979C60.9796 29.6445 60.9889 29.681 60.996 29.7063C60.9995 29.7189 61.0023 29.7283 61.0044 29.7347C61.0056 29.7352 61.0071 29.7359 61.0088 29.7366C61.0165 29.7397 61.0271 29.7433 61.0402 29.7471C61.0662 29.7547 61.1 29.7624 61.1356 29.7686C61.1755 29.775 61.2023 29.7775 61.2223 29.7753C61.2402 29.7733 61.2512 29.7677 61.2613 29.7566C61.2729 29.7437 61.2847 29.7216 61.298 29.6824C61.3112 29.6438 61.3246 29.5923 61.3415 29.5234L61.3415 29.5234C61.3653 29.4265 61.4826 28.8926 61.5942 28.3792C61.6499 28.1227 61.7041 27.8716 61.7444 27.6833C61.7646 27.5891 61.7812 27.5107 61.7928 27.4551L61.8044 27.3988C61.8004 27.3984 61.796 27.398 61.7912 27.3976C61.7603 27.3953 61.7172 27.3938 61.67 27.3938C61.6223 27.3938 61.579 27.3945 61.5479 27.3961C61.539 27.3965 61.5313 27.397 61.525 27.3976L61.5205 27.4213C61.5151 27.4501 61.5072 27.4909 61.4974 27.5409C61.4778 27.6409 61.4506 27.7776 61.4202 27.9279L61.4202 27.928C61.3595 28.2252 61.2926 28.5947 61.2736 28.753L61.2736 28.753C61.2498 28.9503 61.2336 29.067 61.219 29.1271C61.2153 29.1422 61.2113 29.1553 61.2068 29.1657C61.2031 29.1743 61.196 29.1887 61.1817 29.1968C61.173 29.2016 61.1627 29.2036 61.1522 29.2015C61.1426 29.1996 61.1354 29.1948 61.1308 29.1908C61.1222 29.1834 61.1159 29.1734 61.1116 29.1655L61.1115 29.1655L61.1108 29.1641C61.1075 29.1575 61.1045 29.1478 61.102 29.1387C61.0991 29.1286 61.0957 29.1156 61.092 29.1003C61.0846 29.0696 61.0755 29.0287 61.0655 28.9805C61.0454 28.8842 61.0214 28.7584 60.999 28.627C60.916 28.1676 60.8044 27.5906 60.7724 27.4366C60.7686 27.4217 60.7657 27.4147 60.7629 27.4106C60.7611 27.408 60.7587 27.4055 60.7514 27.4029C60.7428 27.3998 60.7289 27.3972 60.7053 27.3957C60.682 27.3942 60.6519 27.3938 60.612 27.3938C60.5728 27.3938 60.5432 27.3942 60.5207 27.3954C60.5056 27.3963 60.4951 27.3975 60.488 27.3988C60.4881 27.3991 60.4882 27.3993 60.4882 27.3995ZM61.5296 27.3679C61.5296 27.3692 61.5295 27.3705 61.5294 27.3716L61.5296 27.3679Z" fill="#F1F7F6" stroke="#F1F7F6" stroke-width="0.0709033"/>
  <path d="M62.1798 29.6981L62.2144 29.7056C62.2098 29.7273 62.2076 29.7393 62.2073 29.7469C62.2121 29.7482 62.2213 29.7498 62.2385 29.7508C62.2615 29.7522 62.2928 29.7522 62.3364 29.7522H62.486L62.5157 29.5956L62.5157 29.5956L62.516 29.5944C62.5308 29.5287 62.5469 29.4482 62.5599 29.3834C62.5664 29.3506 62.5722 29.3217 62.5766 29.3009L62.6113 29.3082M62.1798 29.6981L62.2144 29.7056C62.2656 29.469 62.6204 27.8294 62.6683 27.6121C62.6683 27.6121 62.6683 27.6121 62.6683 27.6121L62.7165 27.3938H62.8446C62.8816 27.3938 62.9083 27.3942 62.9289 27.3962C62.9496 27.3981 62.9609 27.4013 62.9682 27.4051C62.9811 27.4117 62.9899 27.4237 63.0099 27.4738L63.0103 27.4749M62.1798 29.6981C62.1606 29.7876 62.1638 29.7876 62.3364 29.7876H62.5154L62.1798 29.6981ZM63.0103 27.4749L63.0104 27.4749C63.0103 27.4749 63.0103 27.4749 63.0103 27.4749ZM63.0103 27.4749C63.0103 27.4749 63.0103 27.4749 63.0104 27.4749C63.0104 27.4751 63.0107 27.4758 63.0111 27.4771L63.0133 27.4842C63.0151 27.4902 63.0173 27.4982 63.0199 27.5083C63.0251 27.5284 63.0318 27.5558 63.0398 27.5896C63.0558 27.6571 63.0768 27.7494 63.1009 27.8583C63.1493 28.0761 63.2105 28.3599 63.2706 28.6435C63.3308 28.9271 63.3898 29.2105 63.4337 29.4275C63.4557 29.536 63.4739 29.6278 63.4866 29.6948C63.493 29.7283 63.4979 29.7554 63.5013 29.7751C63.5014 29.776 63.5016 29.7768 63.5017 29.7776C63.4982 29.7778 63.4945 29.778 63.4905 29.7782C63.4613 29.7793 63.4208 29.7793 63.3769 29.7778L63.2357 29.7698L63.1896 29.516L63.1896 29.5159C63.175 29.4366 63.1571 29.361 63.1395 29.3027C63.1307 29.2736 63.1217 29.2481 63.1129 29.2284C63.1085 29.2185 63.1039 29.2093 63.0989 29.2016C63.0945 29.1947 63.0876 29.1853 63.0776 29.179C63.0654 29.1714 63.0484 29.1668 63.033 29.1637C63.0162 29.1602 62.9959 29.1575 62.9738 29.1554C62.9294 29.1513 62.8752 29.1496 62.8212 29.1513L62.8205 29.1513L62.8205 29.1513L62.8191 29.1514C62.7731 29.1537 62.7368 29.1556 62.7088 29.1588C62.6811 29.162 62.6566 29.167 62.6368 29.1784C62.6148 29.191 62.6023 29.2093 62.5941 29.2306C62.5869 29.2494 62.5822 29.2729 62.577 29.2987C62.5769 29.2995 62.5767 29.3004 62.5765 29.3012L62.6113 29.3082M62.6113 29.3082C62.6205 29.2624 62.6259 29.2353 62.642 29.2187C62.6653 29.1947 62.7109 29.1924 62.8223 29.1867L62.5506 29.6022C62.5655 29.5362 62.5818 29.4545 62.5948 29.3894C62.6014 29.3568 62.607 29.3284 62.6113 29.3082ZM63.0428 27.4607C63.0045 27.3648 62.9917 27.3584 62.8446 27.3584H62.688L63.0428 27.4607ZM62.9882 28.4546L62.9882 28.4546L62.9883 28.4551C63.0091 28.577 63.026 28.6902 63.0364 28.7752C63.0417 28.8177 63.0454 28.8535 63.0471 28.8799C63.048 28.8931 63.0484 28.9046 63.0483 28.9138C63.0482 28.9183 63.048 28.9229 63.0474 28.9273C63.047 28.9302 63.0459 28.9383 63.0412 28.946L63.0108 28.9278L63.0416 28.9454C63.0345 28.9578 63.0227 28.9628 63.0186 28.9645C63.0127 28.9668 63.0065 28.9683 63.0009 28.9693C62.9896 28.9714 62.9755 28.9726 62.9605 28.9733C62.9303 28.9746 62.8916 28.9738 62.853 28.9716C62.8143 28.9693 62.7746 28.9656 62.7421 28.9606C62.7259 28.9581 62.7109 28.9553 62.6984 28.952C62.6879 28.9492 62.6732 28.9447 62.6627 28.9363L62.6625 28.9365L62.6597 28.9337C62.6549 28.9288 62.6526 28.9238 62.6517 28.9214C62.6506 28.9186 62.65 28.9162 62.6497 28.9147C62.6491 28.9118 62.6489 28.9092 62.6488 28.9076C62.6487 28.9043 62.6488 28.9008 62.649 28.8977C62.6493 28.8914 62.6501 28.883 62.6512 28.8733C62.6534 28.8536 62.6571 28.8263 62.6618 28.7937C62.6714 28.7283 62.6854 28.6402 62.701 28.5468C62.7321 28.3603 62.7698 28.1508 62.7909 28.057L62.7909 28.0568C62.7959 28.035 62.8024 28.0146 62.8102 28C62.8137 27.9937 62.82 27.9831 62.8308 27.9763C62.837 27.9724 62.8463 27.9688 62.8575 27.97C62.8687 27.9712 62.8771 27.9768 62.8825 27.9822C62.8865 27.9862 62.8888 27.9903 62.8897 27.992C62.8908 27.9942 62.8918 27.9963 62.8925 27.998C62.8938 28.0014 62.8951 28.0053 62.8964 28.0093C62.8988 28.0172 62.9016 28.0277 62.9046 28.0401C62.9107 28.0649 62.9183 28.0994 62.9269 28.1406C62.9441 28.2233 62.9658 28.3346 62.9882 28.4546Z" fill="#F1F7F6" stroke="#F1F7F6" stroke-width="0.0709033"/>
  <path d="M64.4008 29.7614C64.4197 29.7617 64.4441 29.7604 64.4766 29.758L64.5911 29.7481V28.7321V27.6869V27.6552L64.6225 27.6517L64.8207 27.6293L64.8211 27.6293C64.8752 27.6237 64.916 27.6181 64.9471 27.6107C64.9784 27.6032 64.9968 27.5947 65.0084 27.5852C65.0292 27.5681 65.0386 27.5395 65.0386 27.46V27.3931H64.4667H63.8948V27.4983C63.8948 27.5313 63.8953 27.5547 63.8971 27.5722C63.8989 27.5899 63.9019 27.5976 63.9043 27.6014C63.9059 27.604 63.9085 27.6071 63.9174 27.6108C63.9275 27.6149 63.9419 27.6185 63.9651 27.6233C64.0179 27.6326 64.1113 27.6419 64.1662 27.6419H64.2749H64.3104V27.6773V28.665C64.3104 28.9365 64.3136 29.1919 64.3187 29.3844C64.3213 29.4808 64.3244 29.5612 64.3278 29.6199C64.3295 29.6493 64.3313 29.673 64.3331 29.6904C64.334 29.6991 64.3349 29.7059 64.3357 29.7108C64.3364 29.7153 64.3369 29.717 64.3369 29.717C64.3369 29.717 64.3369 29.717 64.3369 29.7169C64.3491 29.7491 64.3555 29.7537 64.364 29.7568C64.3708 29.7592 64.3817 29.7611 64.4008 29.7614ZM64.3368 29.7167L64.3368 29.7168L64.3368 29.7167Z" fill="#F1F7F6" stroke="#F1F7F6" stroke-width="0.0709033"/>
  <path d="M65.7267 29.7583L65.7267 29.7583L65.728 29.7584C65.7633 29.763 65.8001 29.7653 65.8305 29.7653C65.8457 29.7653 65.8588 29.7648 65.869 29.7637C65.8717 29.7634 65.874 29.7632 65.8761 29.7628C65.878 29.7551 65.8801 29.7433 65.8821 29.7262C65.8869 29.686 65.8907 29.6227 65.8937 29.5292C65.8997 29.3424 65.9021 29.0393 65.9021 28.5694V27.3934H65.7617H65.6214V28.5694V29.7485L65.7267 29.7583Z" fill="#F1F7F6" stroke="#F1F7F6" stroke-width="0.0709033"/>
  <path d="M68.6605 27.3944V28.5704V29.7495L68.7657 29.7593L68.7657 29.7593L68.767 29.7595C68.8023 29.7641 68.8391 29.7664 68.8695 29.7664C68.8847 29.7664 68.8979 29.7658 68.9081 29.7648C68.9123 29.7643 68.9158 29.7639 68.9185 29.7634C68.9198 29.7598 68.9213 29.7543 68.9228 29.7462C68.9273 29.7227 68.9308 29.6848 68.9332 29.6266C68.9379 29.5106 68.938 29.3205 68.9348 29.0183L68.9348 29.0183C68.9316 28.7148 68.9315 28.5253 68.936 28.4167C68.9382 28.3635 68.9415 28.3263 68.9471 28.3046C68.9486 28.299 68.9507 28.2926 68.9538 28.2867C68.9566 28.2816 68.9629 28.2715 68.9754 28.2662C68.9907 28.2598 69.0047 28.2644 69.0132 28.2699C69.0205 28.2746 69.0253 28.2809 69.0281 28.2849L68.6605 27.3944Z" fill="#F1F7F6" stroke="#F1F7F6" stroke-width="0.0709033"/>
  <path d="M71.7935 27.6757L71.7935 27.6756L71.8576 27.3931H71.9987C72.0644 27.3931 72.1028 27.3965 72.1257 27.4032C72.1365 27.4064 72.1417 27.4098 72.1443 27.4122C72.1466 27.4143 72.1485 27.417 72.1502 27.4224L72.1841 27.412M71.7935 27.6757L71.5331 29.7617C71.5362 29.762 71.5391 29.7622 71.5419 29.7625C71.5587 29.7639 71.5704 29.7647 71.5798 29.7642C71.5888 29.7639 71.593 29.7624 71.5953 29.7612C71.5973 29.7601 71.6004 29.7579 71.6045 29.7512C71.6142 29.7353 71.6239 29.7049 71.6373 29.6441C71.6454 29.6071 71.6545 29.5612 71.6658 29.5038C71.6726 29.4692 71.6803 29.4304 71.689 29.3869L71.7242 29.2049L71.7297 29.1761H71.759H71.9955H72.232H72.2613L72.2668 29.2049L72.302 29.3868C72.302 29.3869 72.302 29.3869 72.302 29.3869C72.3066 29.4098 72.3108 29.4312 72.3148 29.4513C72.3283 29.5193 72.3387 29.5718 72.3483 29.613C72.361 29.6672 72.3712 29.6966 72.3822 29.714C72.3912 29.7281 72.4007 29.7345 72.4193 29.7392C72.4363 29.7435 72.4571 29.7455 72.4874 29.7484C72.4973 29.7494 72.5081 29.7504 72.5202 29.7517C72.5654 29.7563 72.6052 29.7578 72.633 29.7567C72.6365 29.7566 72.6397 29.7564 72.6427 29.7562L72.6425 29.7555C72.6391 29.7372 72.634 29.7113 72.6275 29.6786C72.6144 29.6134 72.5957 29.5221 72.5732 29.4131C72.5283 29.1952 72.468 28.9072 72.4071 28.618C72.3462 28.3287 72.2846 28.0383 72.2368 27.8156C72.2129 27.7042 72.1925 27.6099 72.1773 27.5411C72.1619 27.4711 72.1524 27.4298 72.1502 27.4223L72.1841 27.412M71.7935 27.6757C71.7233 27.9806 71.6098 28.5038 71.5152 28.952C71.4678 29.1761 71.4252 29.3813 71.395 29.5311C71.3799 29.606 71.368 29.6669 71.3601 29.7093C71.3575 29.7231 71.3554 29.7348 71.3538 29.7443C71.3593 29.7452 71.3655 29.7461 71.3725 29.747C71.4015 29.7509 71.4406 29.7548 71.4831 29.7579L71.7935 27.6757ZM72.1841 27.412C72.2065 27.4855 72.6827 29.7454 72.6827 29.7805C72.6827 29.7933 72.6092 29.7965 72.5165 29.7869C72.4469 29.7797 72.4057 29.7788 72.3771 29.7594C72.3296 29.727 72.3171 29.6433 72.2672 29.3938L71.8293 27.3577H71.9987C72.1297 27.3577 72.1713 27.3704 72.1841 27.412ZM72.0087 28.9848L72.0087 28.9848L72.0077 28.9847C71.9625 28.9799 71.9194 28.9742 71.886 28.9684C71.8694 28.9656 71.8546 28.9626 71.8429 28.9595C71.8371 28.958 71.8314 28.9562 71.8263 28.9542C71.8226 28.9528 71.8142 28.9494 71.8074 28.9426C71.7987 28.9339 71.7964 28.9231 71.7957 28.9198C71.7946 28.9147 71.794 28.9092 71.7938 28.9043C71.7933 28.8942 71.7936 28.8817 71.7944 28.8676C71.7961 28.8393 71.8001 28.8012 71.8057 28.7572C71.8169 28.669 71.8349 28.5545 71.8547 28.4415C71.8745 28.3285 71.8963 28.2164 71.9152 28.133C71.9246 28.0914 71.9335 28.0561 71.9412 28.0313C71.945 28.0191 71.9489 28.0079 71.953 27.9995C71.9549 27.9956 71.9579 27.9899 71.9623 27.9849C71.9647 27.9821 71.9796 27.9657 72.0025 27.9726L72.0025 27.9724L72.0055 27.9736C72.0172 27.9783 72.0234 27.9877 72.0251 27.9902L72.0252 27.9903C72.028 27.9945 72.0302 27.999 72.0321 28.0031C72.0358 28.0114 72.0396 28.0221 72.0434 28.0342C72.0512 28.0586 72.0601 28.0923 72.0696 28.1327C72.0886 28.2135 72.1103 28.3229 72.1295 28.4417C72.1503 28.5584 72.1695 28.6703 72.1835 28.7564C72.1905 28.7994 72.1963 28.8361 72.2002 28.8637C72.204 28.8898 72.2068 28.9111 72.2068 28.9207C72.2068 28.9367 72.2015 28.9534 72.1871 28.9664C72.1744 28.9778 72.1582 28.9829 72.1431 28.9856C72.1132 28.9909 72.0689 28.9896 72.0087 28.9848Z" fill="#F1F7F6" stroke="#F1F7F6" stroke-width="0.0709033"/>
  <path d="M76.2299 29.4037L76.2299 29.4037C76.2243 29.4326 76.2191 29.4592 76.2143 29.4839C76.2014 29.5506 76.1914 29.6025 76.1822 29.6434C76.1694 29.7006 76.1595 29.7303 76.1493 29.7463C76.1448 29.7533 76.141 29.7564 76.1379 29.7582C76.1346 29.7601 76.1294 29.7618 76.1203 29.7627C76.1108 29.7636 76.0987 29.7634 76.0822 29.7624C76.0763 29.7621 76.0689 29.7616 76.0607 29.761L76.2299 29.4037ZM76.2299 29.4037L76.23 29.4033M76.2299 29.4037L76.23 29.4033M76.23 29.4033L76.2715 29.2051L76.2774 29.1769M76.23 29.4033L76.2774 29.1769M76.2774 29.1769H76.3062M76.2774 29.1769H76.3062M76.3062 29.1769H76.5396C76.5556 29.1769 76.5709 29.1768 76.5854 29.1767C76.628 29.1764 76.6636 29.1762 76.6919 29.1788C76.7313 29.1825 76.7659 29.1924 76.7922 29.222C76.8164 29.2492 76.8293 29.2887 76.8403 29.3381C76.8487 29.3757 76.8568 29.4236 76.867 29.4831C76.8704 29.5035 76.8741 29.5252 76.8782 29.5483L76.8432 29.5544L76.8782 29.5483C76.8892 29.6112 76.9025 29.6689 76.9151 29.7112C76.9215 29.7325 76.9275 29.7489 76.9325 29.7598C76.9334 29.7617 76.9342 29.7634 76.9349 29.7647C76.9373 29.765 76.9401 29.7653 76.9434 29.7655C76.9532 29.7661 76.9659 29.7664 76.9806 29.7662C77.0101 29.7659 77.0463 29.7636 77.0816 29.759L77.0816 29.7589M76.3062 29.1769L77.0816 29.7589M77.0816 29.7589L77.0824 29.7588M77.0816 29.7589L77.0824 29.7588M77.0824 29.7588C77.1127 29.7557 77.1349 29.7528 77.1512 29.7495C77.1661 29.7465 77.1731 29.7437 77.1761 29.742C77.1763 29.7385 77.1758 29.7317 77.1729 29.7183L77.1729 29.7183M77.0824 29.7588L77.1729 29.7183M77.1729 29.7183L77.1727 29.7173M77.1729 29.7183L77.1727 29.7173M77.1727 29.7173C77.1696 29.7001 77.1427 29.5698 77.1024 29.3737C77.0616 29.1759 77.007 28.9111 76.9491 28.6281L76.9839 28.621M77.1727 29.7173L76.3664 27.5166M76.3664 27.5166C76.3664 27.5166 76.3664 27.5165 76.3664 27.5165L76.3951 27.3939H76.5396C76.5602 27.3939 76.579 27.3925 76.5944 27.3913C76.5992 27.391 76.6036 27.3907 76.6077 27.3904C76.6263 27.3892 76.6366 27.3896 76.6443 27.3919C76.6547 27.395 76.6716 27.405 76.6959 27.4741C76.7196 27.5415 76.7464 27.6531 76.7858 27.8378C76.8101 27.9515 76.8389 28.0919 76.8745 28.2656C76.8966 28.3732 76.9213 28.4936 76.9492 28.6282L76.9839 28.621M76.3664 27.5166C76.3185 27.729 76.1979 28.2936 76.09 28.8061C76.0361 29.0624 75.9854 29.3056 75.9485 29.485C75.9301 29.5748 75.9152 29.6485 75.905 29.7C75.9014 29.7183 75.8984 29.7337 75.8961 29.746C75.9012 29.7467 75.9068 29.7474 75.9129 29.7481C75.9422 29.7516 75.9815 29.7556 76.024 29.7587L76.3664 27.5166ZM76.9839 28.621C76.7681 27.5779 76.7405 27.3876 76.6572 27.3589C76.6282 27.3489 76.5924 27.3585 76.5396 27.3585H76.367M76.9839 28.621C77.0414 28.9023 77.0957 29.166 77.1365 29.3638L76.367 27.3585M76.367 27.3585L76.3318 27.5087L76.367 27.3585ZM76.6355 28.2238L76.6355 28.2238C76.6482 28.3349 76.6768 28.5223 76.7021 28.6391L76.7021 28.6391L76.7022 28.6396C76.704 28.6485 76.7058 28.6572 76.7075 28.6657C76.7216 28.7355 76.7326 28.7901 76.7388 28.8317C76.7423 28.8551 76.7444 28.8756 76.7445 28.8933C76.7446 28.9106 76.7428 28.9278 76.7366 28.943C76.7298 28.9594 76.7183 28.9723 76.7023 28.9804C76.6877 28.9878 76.6714 28.99 76.6563 28.9904C76.6306 28.9911 76.5969 28.9865 76.5581 28.9813C76.5526 28.9805 76.547 28.9798 76.5413 28.979L76.5411 28.979C76.4942 28.9725 76.4504 28.9652 76.4172 28.9587C76.4007 28.9554 76.3864 28.9522 76.3756 28.9494C76.3702 28.948 76.3651 28.9465 76.3607 28.9449C76.3585 28.9441 76.3559 28.9431 76.3534 28.9418C76.352 28.9411 76.3487 28.9395 76.3451 28.9366C76.3365 28.9299 76.3335 28.9212 76.3329 28.9194L76.3329 28.9193C76.3316 28.9154 76.3311 28.9119 76.3309 28.9101C76.3305 28.9062 76.3305 28.9023 76.3306 28.8992C76.3308 28.8926 76.3315 28.8842 76.3326 28.8746C76.3347 28.8551 76.3385 28.8279 76.3435 28.7954C76.3536 28.7302 76.3688 28.6419 76.3865 28.5474L76.3865 28.5474L76.3865 28.547C76.4056 28.4516 76.4223 28.3555 76.4342 28.2769C76.4463 28.1972 76.453 28.1384 76.453 28.116C76.453 28.0875 76.4573 28.0598 76.4683 28.0378C76.4797 28.015 76.5011 27.9942 76.5332 27.9942C76.5543 27.9942 76.5707 28.0049 76.5821 28.0186C76.5928 28.0314 76.6004 28.0481 76.6064 28.066C76.6184 28.1021 76.6275 28.1548 76.6355 28.2238ZM76.6003 28.2279C76.6131 28.3397 76.6419 28.5283 76.6674 28.6466C76.7062 28.8387 76.7237 28.9166 76.6944 28.9432C76.6731 28.9626 76.6269 28.9547 76.546 28.9439L76.6003 28.2279ZM75.8908 29.7765L75.8908 29.7765L75.8908 29.7765Z" fill="#F1F7F6" stroke="#F1F7F6" stroke-width="0.0709033"/>
  <path d="M78.976 29.7855L78.8599 29.7783L78.8598 29.7783L78.7426 29.7708L78.7333 28.5765L78.7332 28.5764L78.7271 27.3861L79.112 27.4006L79.1122 27.4006C79.267 27.4054 79.379 27.4126 79.4608 27.4231C79.5432 27.4338 79.5914 27.4475 79.6206 27.4635L79.6213 27.4639L79.6213 27.4639C79.6708 27.4893 79.7168 27.5381 79.7558 27.6049C79.7946 27.6714 79.8251 27.7533 79.8447 27.8412L78.976 29.7855ZM78.976 29.7855L78.982 29.2539L78.982 29.2539L78.982 29.2537L78.9916 28.6847L78.9921 28.6525L79.0242 28.65L79.2671 28.6308C79.2671 28.6308 79.2671 28.6308 79.2671 28.6308C79.423 28.6182 79.5382 28.5901 79.6248 28.5438C79.7104 28.498 79.7701 28.4335 79.8134 28.3439L78.976 29.7855ZM79.4986 27.6843L79.4986 27.6844C79.4727 27.6605 79.4348 27.6409 79.3905 27.6257C79.3457 27.6104 79.292 27.5987 79.2323 27.5921C79.1893 27.5873 79.1553 27.5838 79.1286 27.5824C79.1025 27.5811 79.0798 27.5816 79.0609 27.5867C79.0396 27.5925 79.0236 27.6041 79.0124 27.6218C79.0028 27.6369 78.9974 27.6554 78.9928 27.6723L78.9925 27.6737L78.9925 27.6737C78.9867 27.6986 78.9828 27.7575 78.9808 27.8285C78.9788 27.9011 78.9788 27.9905 78.982 28.0792C78.982 28.0792 78.982 28.0793 78.982 28.0793L78.9916 28.3987L78.9927 28.4343L79.0282 28.4331L79.22 28.4267L79.2202 28.4267C79.3012 28.4235 79.3566 28.4187 79.4005 28.4036C79.447 28.3876 79.4781 28.3612 79.5135 28.3225L79.5146 28.3213L79.5145 28.3213C79.5479 28.2812 79.5706 28.2478 79.5812 28.1966L79.4986 27.6843ZM79.4986 27.6843L79.5004 27.6862M79.4986 27.6843L79.5004 27.6862M79.5004 27.6862C79.5548 27.7445 79.5739 27.8272 79.5834 27.9895L79.5004 27.6862Z" fill="#F1F7F6" stroke="#F1F7F6" stroke-width="0.0709033"/>
  <path d="M80.5079 29.7264C80.5101 29.7433 80.5123 29.7549 80.5143 29.7624C80.516 29.7626 80.5178 29.7629 80.5198 29.7631C80.5291 29.7642 80.5407 29.7651 80.5539 29.7659C80.5803 29.7675 80.6116 29.7683 80.6398 29.7683C80.677 29.7683 80.6957 29.7653 80.7079 29.7579C80.7179 29.7518 80.7296 29.7387 80.7392 29.6997C80.7489 29.6605 80.7549 29.6016 80.7585 29.5123C80.7621 29.4236 80.7633 29.3074 80.7641 29.1547L80.7641 29.1546L80.7673 28.6688L80.7676 28.6335H80.8028H80.9083C80.9727 28.6335 81.0236 28.6395 81.0626 28.6648C81.103 28.691 81.1237 28.7332 81.1403 28.7863L81.1403 28.7863L81.1405 28.7871C81.1531 28.8313 81.2265 29.0705 81.3064 29.3198L81.3065 29.32L81.4425 29.7523H81.5859H81.7037L81.5297 29.2007L81.5297 29.2006C81.4421 28.9202 81.3958 28.767 81.3781 28.6796C81.3694 28.6365 81.3665 28.6042 81.372 28.5788C81.3785 28.5491 81.3954 28.5332 81.4124 28.5215L81.4325 28.5507L81.4119 28.5218C81.5095 28.4526 81.561 28.4014 81.5907 28.3298C81.6212 28.256 81.6304 28.1564 81.6304 27.985C81.6304 27.863 81.608 27.7637 81.5643 27.683C81.5208 27.6026 81.4549 27.5385 81.3642 27.4886L81.3642 27.4886C81.3062 27.4565 81.2612 27.4382 81.1895 27.4258C81.1159 27.413 81.0144 27.4067 80.843 27.4003L80.8429 27.4003L80.4866 27.3858V28.5667C80.4866 29.0383 80.489 29.3421 80.4954 29.5292C80.4986 29.623 80.5027 29.6863 80.5079 29.7264ZM81.254 27.7181L81.254 27.7181L81.2545 27.7186C81.2911 27.7602 81.3162 27.7965 81.3312 27.8426C81.3457 27.8877 81.3497 27.9396 81.3497 28.0105C81.3497 28.1183 81.3298 28.2069 81.2837 28.2756C81.2371 28.345 81.1667 28.3898 81.0744 28.4155L81.0743 28.4155C81.0048 28.4347 80.9461 28.4473 80.8986 28.4459C80.8484 28.4444 80.8068 28.4268 80.7796 28.3839C80.7549 28.3449 80.7451 28.2893 80.7422 28.2196C80.7393 28.1487 80.7434 28.0569 80.7514 27.941L80.7514 27.941L80.7514 27.9407L80.777 27.6051L80.7798 27.569L80.8158 27.5725L80.9788 27.5885L80.9788 27.5885L80.9798 27.5886C81.045 27.5967 81.0949 27.6077 81.1383 27.628C81.1822 27.6486 81.217 27.6777 81.254 27.7181Z" fill="#F1F7F6" stroke="#F1F7F6" stroke-width="0.0709033"/>
  <path d="M82.5939 29.7614C82.596 29.7503 82.5981 29.7337 82.6001 29.711C82.6045 29.6616 82.6081 29.5873 82.6109 29.4868C82.6165 29.286 82.6189 28.9827 82.6189 28.5688V27.3929H82.4785H82.3382V28.425C82.3382 28.7173 82.3406 29 82.3442 29.2195C82.3478 29.4399 82.3526 29.5938 82.3571 29.6319C82.3619 29.6673 82.3657 29.6918 82.3702 29.7097C82.3748 29.7277 82.3791 29.7348 82.3825 29.7384C82.3854 29.7415 82.3905 29.7451 82.4045 29.7485L82.5939 29.7614ZM82.5939 29.7614C82.5854 29.762 82.5745 29.7624 82.5616 29.7624C82.5349 29.7624 82.5018 29.7609 82.4693 29.7578L82.5939 29.7614ZM82.6192 29.7931C82.6447 29.7835 82.6543 29.3967 82.6543 28.5688V27.3929L82.6192 29.7931Z" fill="#F1F7F6" stroke="#F1F7F6" stroke-width="0.0709033"/>
  <path d="M85.656 28.6683V28.6329H85.6914H85.8001C85.8325 28.6329 85.8661 28.6382 85.8944 28.6462C85.9086 28.6502 85.9221 28.655 85.9338 28.6605C85.945 28.6658 85.9568 28.6726 85.9658 28.6816L85.9662 28.6813L85.9696 28.6861C85.9742 28.6925 85.9788 28.7025 85.9826 28.7114C85.987 28.7216 85.9924 28.7349 85.9985 28.7508C86.0108 28.7825 86.0265 28.8254 86.0445 28.8763C86.0806 28.9781 86.1262 29.1126 86.1727 29.2551L86.1727 29.2551L86.3341 29.7516H86.4618C86.5035 29.7516 86.5404 29.7485 86.5661 29.7438C86.5711 29.7429 86.5754 29.742 86.5791 29.7411C86.5789 29.7401 86.5787 29.7391 86.5784 29.7381C86.575 29.7241 86.57 29.7053 86.5639 29.6831C86.5516 29.6387 86.5349 29.5815 86.5174 29.5226C86.4851 29.4204 86.426 29.2197 86.3739 29.0429C86.3638 29.0086 86.354 28.9752 86.3447 28.9437L86.3447 28.9437L86.3446 28.9433L86.2423 28.5821L86.2351 28.5567L86.2574 28.5425L86.3628 28.4754L86.3628 28.4754L86.3636 28.4749C86.42 28.4411 86.4579 28.3953 86.4825 28.3226C86.5078 28.2479 86.519 28.1448 86.519 27.9971C86.519 27.8598 86.4979 27.7578 86.4532 27.678C86.4089 27.5987 86.3392 27.5376 86.2351 27.4855C86.1719 27.4547 86.1216 27.436 86.0487 27.4235C85.9743 27.4108 85.8758 27.4044 85.716 27.3996L85.7158 27.3996L85.3753 27.3881V28.5693C85.3753 29.0456 85.3777 29.3495 85.3841 29.5345C85.3873 29.6273 85.3914 29.689 85.3966 29.7274C85.3983 29.74 85.4 29.7493 85.4015 29.7558C85.429 29.7579 85.4707 29.7631 85.5047 29.768L85.4997 29.8031L85.5043 29.7679C85.5064 29.7682 85.5084 29.7685 85.5104 29.7687C85.5325 29.7716 85.5507 29.774 85.5666 29.7752C85.584 29.7766 85.5962 29.7763 85.605 29.7745C85.6131 29.7729 85.6177 29.7703 85.6213 29.7668C85.6252 29.763 85.6302 29.7557 85.635 29.7412C85.645 29.7109 85.6507 29.6601 85.6535 29.5749C85.656 29.4961 85.656 29.3918 85.656 29.2532C85.656 29.2438 85.656 29.2342 85.656 29.2245V28.6683ZM85.3753 27.3526L85.3398 27.3514V27.3869L85.3753 27.3526ZM86.1427 27.7174L86.1427 27.7174L86.143 27.7178C86.217 27.8006 86.252 27.9144 86.2507 28.0235C86.2494 28.1324 86.2119 28.2418 86.1343 28.3139L86.1343 28.314C86.0849 28.3596 85.997 28.3983 85.9163 28.4208C85.8753 28.4323 85.8342 28.4401 85.7983 28.4425C85.7645 28.4447 85.7279 28.4426 85.702 28.427L85.7018 28.4273L85.6981 28.4243C85.6906 28.4183 85.6868 28.4108 85.6851 28.4073C85.6831 28.4028 85.6815 28.3982 85.6803 28.3939C85.6778 28.3852 85.6758 28.3746 85.6739 28.3629C85.6703 28.3393 85.6671 28.3077 85.6645 28.2705C85.6592 28.1959 85.656 28.0968 85.656 27.9907V27.6039V27.5642L85.6954 27.5687L85.8648 27.5879L85.8651 27.5879C85.9319 27.5961 85.9826 27.607 86.0264 27.6273C86.0708 27.6479 86.1057 27.677 86.1427 27.7174Z" fill="#F1F7F6" stroke="#F1F7F6" stroke-width="0.0709033"/>
  <path d="M87.5184 28.1262L87.5184 28.1262V28.125C87.5184 28.0295 87.5152 27.8156 87.512 27.6526L87.512 27.6523L87.5092 27.3933H87.3844H87.2601V28.5725V29.7517H87.3844H87.5091L87.5152 29.0421C87.5184 28.6354 87.5216 28.2211 87.5184 28.1262Z" fill="#F1F7F6" stroke="#F1F7F6" stroke-width="0.0709033"/>
  <path d="M89.3015 27.4991V27.3939H88.7328C88.4325 27.3939 88.2843 27.394 88.2081 27.4025C88.1693 27.4068 88.1569 27.4128 88.1528 27.416C88.1506 27.4177 88.1488 27.4194 88.1438 27.4378C88.1304 27.4909 88.1234 27.5295 88.1233 27.5581C88.1233 27.5859 88.1297 27.5996 88.1387 27.6084C88.149 27.6185 88.1687 27.628 88.2073 27.6343C88.2454 27.6404 88.2968 27.6426 88.3652 27.6426H88.5378H88.5733V27.6781V28.7297V29.7487L88.6942 29.7588L88.6942 29.7588L88.6953 29.7589C88.7357 29.7636 88.7745 29.7659 88.8048 29.7662C88.8173 29.7664 88.8281 29.7662 88.8368 29.7658C88.8381 29.752 88.8393 29.7326 88.8405 29.7079C88.8432 29.6534 88.8456 29.5751 88.8476 29.4785C88.8516 29.2855 88.854 29.0204 88.854 28.7297V27.6781V27.6426H88.8894H89.062C89.1252 27.6426 89.1722 27.6416 89.2077 27.6378C89.2438 27.6339 89.2633 27.6276 89.2747 27.6201C89.2841 27.6139 89.2906 27.6053 89.2951 27.5873C89.3 27.5676 89.3015 27.54 89.3015 27.4991Z" fill="#F1F7F6" stroke="#F1F7F6" stroke-width="0.0709033"/>
  <path d="M89.7526 27.5295L89.7527 27.5298C89.7728 27.5922 89.792 27.6517 89.8104 27.7087C90.0062 28.3159 90.1046 28.6209 90.1564 28.8215C90.2088 29.0243 90.214 29.1225 90.2243 29.3133C90.2253 29.3314 90.2263 29.3503 90.2274 29.3702L90.2274 29.3704L90.248 29.7683H90.3582H90.4687L90.4922 29.3733L90.4922 29.3732C90.505 29.1654 90.5139 29.0486 90.549 28.8945C90.5838 28.7415 90.6443 28.552 90.7592 28.1978C90.8904 27.7915 91.0052 27.4341 91.0147 27.4026L91.0147 27.4026L91.015 27.4016C91.0152 27.4009 91.0154 27.4003 91.0156 27.3997C91.0084 27.3981 90.9972 27.3966 90.98 27.3956C90.9582 27.3943 90.9295 27.3939 90.892 27.3939H90.746L90.5809 27.9595C90.5809 27.9595 90.5809 27.9596 90.5809 27.9596C90.5344 28.123 90.4895 28.2682 90.4545 28.3711C90.4371 28.4225 90.4219 28.464 90.41 28.4921C90.4042 28.5059 90.3987 28.5179 90.3936 28.5264C90.3914 28.5301 90.3875 28.5362 90.382 28.5412C90.3795 28.5435 90.3732 28.5487 90.3637 28.5507C90.3513 28.5533 90.3387 28.5494 90.3299 28.5406C90.3259 28.5365 90.3231 28.532 90.3216 28.5295C90.3198 28.5265 90.3181 28.5231 90.3166 28.5198C90.3134 28.5131 90.31 28.5048 90.3063 28.4953C90.299 28.4763 90.2902 28.4509 90.2805 28.421C90.2612 28.3613 90.2379 28.2825 90.2154 28.1991C90.2114 28.1852 90.2072 28.1708 90.2029 28.1558C90.1554 27.991 90.0903 27.7653 90.0494 27.6309L89.9772 27.3939H89.8308H89.7074L89.7526 27.5295Z" fill="#F1F7F6" stroke="#F1F7F6" stroke-width="0.0709033"/>
</svg>