<svg xmlns="http://www.w3.org/2000/svg" width="159" height="36" viewBox="0 0 159 36" fill="none">
  <g clip-path="url(#clip0_41_719)">
    <path d="M15.2536 0.272335L15.2539 0.272285C16.1157 0.114601 17.4681 0.050045 18.8076 0.0690956C20.1471 0.0881462 21.4692 0.190735 22.2708 0.365822C25.8702 1.17368 28.5926 2.63657 31.22 5.18874C34.0152 7.90473 35.622 10.9004 36.2697 14.6106C36.4734 15.7918 36.4975 16.3404 36.4494 18.1219C36.3774 20.3592 36.2457 21.1767 35.6219 23.0966L35.6218 23.0966C34.7825 25.6941 33.3797 27.8825 31.2078 30.0136C28.4366 32.7295 25.3424 34.3094 21.5516 34.9416C20.3409 35.1404 19.7786 35.1639 17.9528 35.117C15.6599 35.0467 14.8219 34.9181 12.8542 34.3093L12.8541 34.3093C10.1919 33.4901 7.94919 32.1211 5.76529 30.0017C2.97005 27.2858 1.36331 24.2901 0.715623 20.5799L15.2536 0.272335ZM15.2536 0.272335C11.5711 0.916126 8.48875 2.51943 5.77745 5.1769C3.60555 7.30801 2.20276 9.49636 1.36345 12.0938L1.36343 12.0939M15.2536 0.272335L1.36343 12.0939M1.36343 12.0939C0.739611 14.0138 0.607877 14.8313 0.535852 17.0685M1.36343 12.0939L0.535852 17.0685M20.0936 20.6833H20.9088H21.7623H21.7784L21.7897 20.6717L22.4507 19.9915C22.4507 19.9915 22.4508 19.9914 22.4508 19.9914L22.4508 19.9914L22.4234 19.9647L20.0936 20.6833ZM20.0936 20.6833V21.5835V22.4836H21.2574C21.9735 22.4836 22.3903 22.4598 22.7464 22.3248C23.1019 22.1901 23.4004 21.9432 23.8754 21.4856L23.8757 21.4852L24.5489 20.8518L24.5557 20.8454L24.5647 20.8429L27.2573 20.0804L20.0936 20.6833ZM14.5253 18.4546L14.5359 18.4336L15.0888 17.3429L14.5253 18.4546ZM14.5253 18.4546H14.5018M14.5253 18.4546H14.5018M14.5018 18.4546H11.9534C11.2499 18.4546 10.6034 18.4458 10.1282 18.4326C9.89059 18.426 9.69553 18.4183 9.55745 18.41C9.48849 18.4059 9.43324 18.4016 9.39383 18.3971C9.37423 18.3949 9.35779 18.3926 9.34527 18.3901C9.33907 18.3888 9.33297 18.3874 9.32756 18.3856C9.32423 18.3845 9.31556 18.3816 9.30797 18.375C9.29876 18.3673 9.29522 18.3574 9.29389 18.3511C9.29248 18.3444 9.29277 18.3384 9.29321 18.3343C9.29408 18.3261 9.29654 18.3176 9.29915 18.31C9.30455 18.2942 9.31374 18.2735 9.32576 18.2489C9.35003 18.1995 9.38834 18.1295 9.43888 18.0417C9.54008 17.8659 9.69174 17.6162 9.88189 17.3111C10.2623 16.7008 10.7973 15.8677 11.3924 14.9585C12.0054 14.0219 12.5991 13.12 13.0521 12.4317C13.4788 11.7834 13.7807 11.3246 13.8564 11.2053C13.9358 11.0801 14.0248 10.9692 14.1039 10.892C14.1433 10.8535 14.1815 10.8222 14.2157 10.8019C14.2329 10.7918 14.2502 10.7837 14.2671 10.7791C14.2838 10.7746 14.3028 10.7728 14.3213 10.7789C14.3404 10.7851 14.3572 10.8006 14.3706 10.8152C14.3853 10.8312 14.4011 10.8523 14.4178 10.8771C14.4512 10.9268 14.4903 10.9949 14.5327 11.0761C14.6175 11.2387 14.7172 11.4569 14.8136 11.6922C15.3678 13.0441 15.6459 14.2574 15.6459 15.2961M14.5018 18.4546L15.6459 15.2961M0.535852 17.0685C0.487808 18.8501 0.511871 19.3986 0.71561 20.5798L0.535852 17.0685ZM15.6459 15.2961C15.6459 15.7416 15.6371 16.0015 15.5619 16.2769M15.6459 15.2961L15.5619 16.2769M15.5619 16.2769C15.4871 16.5512 15.3468 16.8393 15.0888 17.3427L15.5619 16.2769ZM23.9107 13.3644L23.9108 13.3646L27.2573 20.0804C27.9967 19.8692 28.6851 19.6786 29.2007 19.5407C29.4585 19.4717 29.6733 19.4159 29.8297 19.3774C29.9079 19.3581 29.9718 19.3431 30.0192 19.3328C30.0429 19.3277 30.0628 19.3237 30.0785 19.321C30.0933 19.3184 30.107 19.3165 30.1167 19.3165C30.1579 19.3165 30.1919 19.3365 30.2175 19.371C30.2418 19.4039 30.2595 19.4506 30.2727 19.5091C30.2992 19.6265 30.3112 19.8061 30.3112 20.0586V20.7624V20.7863L30.2897 20.7968L29.7848 21.0431C29.2216 21.3179 28.844 21.5504 28.4844 21.8984C28.1241 22.2471 27.7804 22.7132 27.2876 23.4579C26.206 25.0998 25.4199 25.976 24.7008 26.3447C24.5825 26.4069 24.4815 26.4555 24.3179 26.4928C24.1555 26.5299 23.9323 26.5556 23.5689 26.5747C22.842 26.6129 21.5456 26.6246 19.0338 26.6422L19.0338 26.6422C16.1376 26.6598 14.5487 26.6569 13.5203 26.5688C12.4889 26.4804 12.0185 26.3059 11.3597 25.9815C10.8506 25.739 10.3066 25.3495 9.8298 24.9092C9.35311 24.4691 8.94131 23.9762 8.69824 23.5256C8.28686 22.7816 7.99636 21.7197 7.99636 20.9735V20.4105V20.3719L8.03493 20.3722L10.8358 20.3957L10.8359 20.3957L13.6247 20.4309L13.6581 20.4313L13.6622 20.4644L13.7222 20.9447C13.7222 20.9448 13.7223 20.945 13.7223 20.9451C13.8049 21.5322 14.0871 21.9673 14.5811 22.2542L14.5811 22.2542L14.5819 22.2547C14.8954 22.4473 15.1716 22.4836 16.4852 22.4836H17.9736V21.5835V20.6833H16.7015C16.3342 20.6833 15.9966 20.6716 15.746 20.6524C15.6208 20.6429 15.5165 20.6314 15.4408 20.6184C15.4031 20.612 15.3713 20.605 15.3472 20.5973C15.3352 20.5935 15.324 20.5892 15.3145 20.5841C15.3065 20.5798 15.2957 20.5729 15.2881 20.5619C15.2741 20.5435 15.2724 20.5201 15.2734 20.5018C15.2744 20.4813 15.2794 20.4575 15.287 20.4321C15.3022 20.3808 15.3296 20.3159 15.3661 20.2424C15.4392 20.0952 15.5514 19.9089 15.6844 19.7201C16.3078 18.8075 16.9428 17.5443 17.1819 16.7747C17.6823 15.1118 17.2312 12.8475 15.7776 9.83479L15.7774 9.83441C15.615 9.48808 15.4704 9.16491 15.371 8.92367C15.3213 8.80317 15.2825 8.70245 15.2584 8.62926C15.2464 8.59286 15.2377 8.56209 15.2331 8.53862C15.2309 8.52705 15.2293 8.51562 15.2294 8.50544C15.2294 8.50033 15.2299 8.49422 15.2315 8.48794C15.2331 8.48189 15.2365 8.47297 15.2444 8.46529L15.2442 8.46512L15.2475 8.46251C15.2545 8.45707 15.2618 8.45482 15.2659 8.45378C15.2706 8.45259 15.2752 8.452 15.2792 8.45167C15.2873 8.451 15.2967 8.45112 15.3065 8.45166C15.3265 8.45274 15.3528 8.45579 15.3842 8.46036C15.4472 8.46954 15.5338 8.48536 15.6368 8.50612C15.8431 8.54767 16.1174 8.60937 16.4054 8.67834C16.9805 8.81606 17.6139 8.98372 17.8689 9.0785L17.8694 9.07873C17.8806 9.08309 17.8879 9.0837 17.8924 9.08318C17.8963 9.08274 17.9002 9.08129 17.9047 9.07707C17.9159 9.06678 17.9297 9.04165 17.9414 8.98879C17.9644 8.88503 17.9736 8.70445 17.9736 8.42229C17.9736 8.09999 17.9854 7.89273 18.0306 7.73161C18.0764 7.56801 18.156 7.45424 18.2844 7.31698L18.2844 7.31696C18.6839 6.89057 19.3576 6.87872 19.7814 7.30388C19.8509 7.36877 19.9068 7.42684 19.9503 7.49286C19.9944 7.55959 20.0249 7.63295 20.0461 7.72774C20.0878 7.91461 20.0936 8.18928 20.0936 8.66862C20.0936 8.91507 20.0943 9.10355 20.0994 9.24922C20.1044 9.3953 20.1138 9.49596 20.1302 9.5677C20.1464 9.6387 20.1688 9.67785 20.1978 9.70437C20.2278 9.73183 20.2687 9.7496 20.3313 9.76997C20.3626 9.77962 20.4011 9.79996 20.4446 9.82742C20.4889 9.85537 20.5406 9.8922 20.5985 9.93653C20.7143 10.0252 20.8565 10.1452 21.0161 10.2874C21.3354 10.5718 21.726 10.9463 22.117 11.3396C22.508 11.7329 22.8999 12.1454 23.222 12.506C23.5433 12.8657 23.7974 13.1761 23.9107 13.3644Z" fill="#F1F7F6" stroke="#F1F7F6" stroke-width="0.0765008"/>
    <path d="M45.3466 19.6246L45.3839 19.6161C45.623 20.6661 46.3296 22.1034 46.9988 22.9081L46.9989 22.9082C48.099 24.2384 49.8826 25.3135 51.7267 25.7693C53.0189 26.0845 55.0803 26.0846 56.4331 25.7692L56.4331 25.7692C59.5933 25.0332 62.0817 22.6155 62.7634 19.6279C62.9006 19.0166 62.9457 18.1378 62.9097 17.2743C62.8737 16.4106 62.7568 15.5674 62.5722 15.0271C61.687 12.4357 59.4855 10.4267 56.708 9.65569L56.708 9.65568C56.2071 9.51604 55.387 9.41358 54.5734 9.36818C53.7595 9.32275 52.958 9.33475 52.494 9.42183L52.4935 9.42191C50.4929 9.77262 48.9856 10.5201 47.6694 11.8162C46.603 12.8685 46.0656 13.6614 45.611 14.9337L45.6109 14.9341C45.4025 15.4978 45.2706 16.3379 45.2286 17.2042C45.1866 18.0702 45.2347 18.958 45.3839 19.6162L45.3466 19.6246ZM45.3466 19.6246C45.0461 18.2991 45.1543 16.0587 45.575 14.9209L56.4418 25.8064C55.0834 26.1231 53.0158 26.1231 51.7176 25.8064C49.8664 25.3489 48.0753 24.2698 46.9694 22.9325C46.2963 22.1232 45.587 20.6803 45.3466 19.6246ZM54.2549 13.0175C54.7716 13.0293 55.099 13.0469 55.3714 13.0973C55.645 13.148 55.8617 13.2317 56.1577 13.3732L56.1578 13.3732C57.9306 14.2263 58.934 16.3912 58.5711 18.5752L58.571 18.5758C58.4867 19.0338 58.3299 19.6358 58.1955 19.9221C58.0425 20.2622 57.7266 20.6764 57.3662 21.0458C57.0057 21.4152 56.5965 21.7441 56.2544 21.9111C55.3931 22.3372 54.3636 22.4698 53.3895 22.3414C52.4156 22.213 51.4938 21.8232 50.8496 21.2005L50.8493 21.2003C50.0111 20.3764 49.567 19.105 49.5262 17.8297C49.4854 16.5545 49.8477 15.268 50.6316 14.4141L50.6317 14.4139C51.1508 13.8544 51.6152 13.4922 52.1726 13.2767C52.7295 13.0614 53.3754 12.994 54.2549 13.0175ZM54.2549 13.0175C54.2549 13.0175 54.2549 13.0175 54.2548 13.0175L54.254 13.0558L54.255 13.0175C54.255 13.0175 54.255 13.0175 54.2549 13.0175Z" fill="#F1F7F6" stroke="#F1F7F6" stroke-width="0.0765008"/>
    <path d="M113.518 14.4617L113.518 14.4616C113.477 13.7613 113.539 13.1712 113.719 12.6433C113.899 12.1157 114.196 11.6482 114.626 11.194C115.544 10.228 116.762 9.64445 118.45 9.37561C118.783 9.32934 119.56 9.33784 120.34 9.38037C121.121 9.42293 121.895 9.49909 122.221 9.58588C124.483 10.2047 126.042 11.79 126.244 13.6586L126.244 13.6586L126.312 14.2731H124.046C123 14.2731 122.425 14.2672 122.104 14.2381C121.943 14.2234 121.851 14.2033 121.796 14.1777C121.769 14.1653 121.752 14.1521 121.741 14.1385C121.729 14.1248 121.721 14.1089 121.715 14.0886C121.715 14.0886 121.715 14.0886 121.715 14.0885L121.678 14.1002L113.518 14.4617ZM113.518 14.4617C113.554 15.0922 113.656 15.5887 113.852 16.0229C114.047 16.4569 114.338 16.8311 114.756 17.2157L114.756 17.2159M113.518 14.4617L114.756 17.2159M114.756 17.2159C115.543 17.9483 116.545 18.4038 118.889 19.1311C119.917 19.4479 120.635 19.7187 121.125 19.9935C121.614 20.2687 121.879 20.5507 121.991 20.8917L121.991 20.8918M114.756 17.2159L121.991 20.8918M121.991 20.8918C122.188 21.4929 122.004 22.1092 121.508 22.4598L121.508 22.4598M121.991 20.8918L121.508 22.4598M121.508 22.4598L121.507 22.4603M121.508 22.4598L121.507 22.4603M121.507 22.4603C121.265 22.6242 120.845 22.7304 120.408 22.7702C119.969 22.8101 119.504 22.7839 119.167 22.6763C118.906 22.5973 118.65 22.4104 118.447 22.1766C118.244 21.9425 118.09 21.658 118.035 21.3804L118.035 21.3801M121.507 22.4603L118.035 21.3801M118.035 21.3801L117.968 21.0358H115.668H113.382L113.421 21.2477C113.458 21.4017 113.518 21.7186 113.554 21.9652C113.851 23.7508 115.637 25.314 117.996 25.8164L117.996 25.8164M118.035 21.3801L117.996 25.8164M117.996 25.8164C118.551 25.9387 119.387 26.0003 120.203 26.0018C121.019 26.0032 121.812 25.9445 122.282 25.8284C124.077 25.3848 125.412 24.3821 126.08 23.0101L126.08 23.0101M117.996 25.8164L126.08 23.0101M126.08 23.0101C126.26 22.6408 126.354 22.4219 126.404 22.1547C126.454 21.8861 126.46 21.5673 126.46 20.9975C126.46 20.4456 126.451 20.1265 126.407 19.8797C126.363 19.6349 126.284 19.4603 126.141 19.1977L126.14 19.1972M126.08 23.0101L126.14 19.1972M126.14 19.1972C125.712 18.3853 124.758 17.5577 123.742 17.1029M126.14 19.1972L123.742 17.1029M123.742 17.1029C123.263 16.8924 122.074 16.4471 121.077 16.1071L123.742 17.1029Z" fill="#F1F7F6" stroke="#F1F7F6" stroke-width="0.0765008"/>
    <path d="M72.2697 12.8819L72.2697 12.8819C71.3741 13.115 70.7668 13.4521 70.1465 14.0341L70.1464 14.0342L69.6055 14.5385L69.5412 14.5985V14.5106V13.7012V12.9418H67.4157H65.2902V21.3492V29.7567H67.4157H69.5412V27.0383V24.2818V24.1925L69.6058 24.2541L70.0985 24.7231C70.0985 24.7231 70.0985 24.7232 70.0985 24.7232C70.98 25.5542 72.2417 26.0033 73.5492 26.0544C74.8567 26.1054 76.2064 25.7582 77.2624 25.0014C79.0168 23.7437 79.9986 21.4232 79.843 18.8883C79.7233 17.0191 79.1372 15.5972 78.0147 14.4435C76.582 12.9872 74.2761 12.3575 72.2697 12.8819ZM75.386 18.265L75.3861 18.2654C75.4717 18.5637 75.5108 18.996 75.5063 19.4259C75.5018 19.8558 75.4536 20.288 75.3619 20.5863L75.3618 20.5864C75.2569 20.9237 74.9512 21.3425 74.595 21.696C74.2391 22.0492 73.8245 22.3454 73.4959 22.4302C72.7257 22.6373 72.0019 22.6023 71.3786 22.348C70.7553 22.0937 70.2351 21.6211 69.8706 20.9574C69.6491 20.573 69.6013 20.2709 69.6013 19.4138C69.6013 18.9622 69.6132 18.6716 69.6575 18.4332C69.702 18.1934 69.779 18.0078 69.9062 17.7655L69.94 17.7833L69.9062 17.7655C70.6618 16.3264 72.3919 15.8051 73.9235 16.5524C74.2361 16.7019 74.5527 16.9668 74.815 17.2746C75.0774 17.5824 75.2879 17.936 75.386 18.265Z" fill="#F1F7F6" stroke="#F1F7F6" stroke-width="0.0765008"/>
    <path d="M82.5691 15.1787L82.5689 15.179C81.6375 16.3675 81.2668 17.5435 81.2668 19.3665C81.2668 21.4813 81.8168 22.9252 83.1303 24.1953C84.4082 25.4306 86.0449 26.0379 88.1526 26.0496C89.566 26.0496 90.3538 25.8864 91.5021 25.3494L91.5183 25.3841L91.5021 25.3494C92.9243 24.6847 94.0108 23.5539 94.5479 22.1796L94.548 22.1795L94.7678 21.6218H92.54H90.261L89.8883 22.0309C89.8882 22.031 89.8881 22.0311 89.888 22.0312C89.6505 22.3044 89.3996 22.4959 89.1079 22.6188C88.8164 22.7416 88.4864 22.7948 88.0923 22.7948C87.436 22.7948 86.8655 22.6109 86.4221 22.2677C85.9787 21.9245 85.6647 21.4239 85.5187 20.7945L85.5187 20.7942L85.4345 20.4189L85.4241 20.3723H85.4718H90.2681H95.0261V19.2023C95.0261 17.8116 94.8228 16.9383 94.2734 15.9244L94.2734 15.9242C92.9611 13.4795 89.7468 12.2275 86.4168 12.8821C84.8743 13.1855 83.4524 14.0256 82.5691 15.1787ZM89.0775 16.0456L89.078 16.0458C89.9426 16.331 90.47 16.8799 90.6658 17.6682L90.6659 17.6682L90.6661 17.6693L90.7502 18.0564L90.7603 18.1027H90.7129H88.1284H85.544H85.4947L85.5069 18.055L85.591 17.7266C85.7131 17.2502 86.03 16.7494 86.3989 16.4852C87.1062 15.9617 88.2488 15.784 89.0775 16.0456Z" fill="#F1F7F6" stroke="#F1F7F6" stroke-width="0.0765008"/>
    <path d="M104.675 12.8357L104.675 12.8356C105.144 12.7652 105.403 12.7305 105.658 12.729C105.913 12.7276 106.166 12.7594 106.623 12.824L106.623 12.824C108.557 13.0918 109.988 14.2437 110.692 16.0608C110.811 16.373 110.873 16.5949 110.912 17.2838C110.951 17.9748 110.966 19.132 110.99 21.3143L111.026 25.8856H108.901H106.763V22.0763C106.763 20.9383 106.751 19.935 106.73 19.1838C106.72 18.8082 106.707 18.4954 106.692 18.2602C106.677 18.0269 106.661 17.8655 106.642 17.7963L106.641 17.7958C106.47 17.2096 105.993 16.6739 105.384 16.3765C105.189 16.2755 105.022 16.2152 104.816 16.1852L104.675 12.8357ZM104.675 12.8357C103.756 12.9638 102.778 13.4065 102.135 13.9875L101.582 14.4918L101.518 14.5502V14.4635V13.6776V12.9416M104.675 12.8357L101.518 12.9416M101.518 12.9416H99.3922H97.2668V19.4136V25.8856H99.3922H101.506L101.542 21.9001V21.9C101.56 19.9418 101.572 18.9344 101.612 18.3567C101.633 18.0676 101.66 17.8839 101.7 17.7415C101.74 17.5984 101.793 17.4985 101.859 17.3779M101.518 12.9416L104.018 16.1731C103.492 16.1967 103.056 16.3002 102.699 16.4975C102.342 16.6949 102.066 16.985 101.859 17.3779M101.859 17.3779C101.859 17.378 101.859 17.3781 101.859 17.3782L101.893 17.396L101.859 17.3776C101.859 17.3777 101.859 17.3778 101.859 17.3779Z" fill="#F1F7F6" stroke="#F1F7F6" stroke-width="0.0765008"/>
    <path d="M133.43 12.8936L133.43 12.8936C134.47 12.6719 135.872 12.6718 136.985 12.8937C139.591 13.4187 141.43 15.1791 141.967 17.6619C142.057 18.0816 142.114 18.5867 142.133 19.044C142.153 19.5025 142.135 19.908 142.076 20.1308C142.076 20.1308 142.076 20.1308 142.076 20.1309L142.012 20.3721H137.305C135.358 20.3721 134.173 20.378 133.475 20.4015C133.126 20.4132 132.897 20.4294 132.755 20.4518C132.684 20.4629 132.632 20.476 132.596 20.4924C132.562 20.5081 132.53 20.5335 132.53 20.5746C132.53 20.7353 132.602 20.9788 132.709 21.2289C132.817 21.4804 132.963 21.7442 133.115 21.9466L133.115 21.9468C133.546 22.5107 134.328 22.7888 135.1 22.7888C135.873 22.7888 136.647 22.5107 137.059 21.9461L137.06 21.9456L137.289 21.6216H139.553C140.34 21.6216 140.907 21.6304 141.277 21.6509C141.462 21.6611 141.597 21.6742 141.684 21.6903C141.728 21.6984 141.758 21.7068 141.776 21.7148C141.781 21.717 141.784 21.7188 141.786 21.7202C141.785 21.7606 141.773 21.8156 141.751 21.8838C141.728 21.956 141.694 22.0405 141.65 22.1344C141.564 22.3222 141.441 22.5452 141.299 22.7775C141.014 23.2424 140.652 23.7414 140.342 24.0673C139.065 25.4072 137.405 26.0494 135.213 26.0378L133.43 12.8936ZM133.43 12.8936C131.743 13.2497 130.42 14.0808 129.542 15.2718C128.663 16.463 128.226 18.017 128.315 19.822L128.277 19.8239M133.43 12.8936L128.277 19.8239M128.277 19.8239L128.315 19.822C128.411 21.7488 128.985 23.0645 130.239 24.2417M128.277 19.8239L130.239 24.2417M130.239 24.2417C131.565 25.4773 133.094 26.0261 135.213 26.0378L130.239 24.2417ZM132.557 18.1026H132.505L132.52 18.053L132.604 17.7832L132.604 17.7831C133.056 16.3415 134.521 15.6182 136.101 16.045C136.39 16.1231 136.713 16.3113 136.99 16.5423C137.266 16.773 137.499 17.0504 137.604 17.3105C137.617 17.339 137.629 17.3665 137.641 17.3931C137.668 17.4559 137.694 17.5134 137.714 17.5652C137.744 17.6388 137.766 17.705 137.772 17.7632C137.779 17.8226 137.769 17.8771 137.733 17.9231C137.698 17.9677 137.641 17.9988 137.565 18.0218C137.414 18.0675 137.163 18.0872 136.776 18.096C136.455 18.1033 136.037 18.103 135.498 18.1027C135.384 18.1027 135.266 18.1026 135.141 18.1026H132.557Z" fill="#F1F7F6" stroke="#F1F7F6" stroke-width="0.0765008"/>
    <path d="M147.953 12.9163L147.953 12.9163C145.173 13.6266 143.546 16.0127 143.546 19.4012C143.546 20.9094 143.725 21.7361 144.323 22.9147L144.323 22.915C145.971 26.2358 150.618 27.1325 153.315 24.675L153.7 24.3231L153.764 24.2645V24.3513V25.1372V25.8849H155.889H158.015V19.4129V12.941H155.889H153.764V13.6886V14.4628V14.5536L153.699 14.4902L153.254 14.0562C152.051 12.8827 149.914 12.4145 147.953 12.9163ZM152.009 16.4449L152.009 16.445L153.701 19.5772L153.74 19.5792C153.74 19.5793 153.74 19.5793 153.74 19.5793C153.709 20.1372 153.655 20.5236 153.528 20.8463C153.401 21.1701 153.201 21.4267 152.887 21.7278C151.461 23.1302 149.039 22.7138 148.138 20.9199C147.942 20.5311 147.845 19.9437 147.844 19.3691C147.842 18.7948 147.935 18.2242 148.126 17.8699C148.905 16.4219 150.5 15.8393 152.009 16.4449Z" fill="#F1F7F6" stroke="#F1F7F6" stroke-width="0.0765008"/>
  </g>
  <defs>
    <clipPath id="clip0_41_719">
      <rect width="157.592" height="35.1904" fill="white" transform="translate(0.460938)"/>
    </clipPath>
  </defs>
</svg>