<svg width="106" height="1105" viewBox="0 0 106 1105" fill="none" xmlns="http://www.w3.org/2000/svg">
<g clip-path="url(#clip0_124_438)">
<g clip-path="url(#clip1_124_438)">
<rect x="84.8342" y="-17.8807" width="20.0983" height="47.6878" rx="10.0491" stroke="#329F86" stroke-width="1.66834"/>
<rect x="84.8342" y="42.1594" width="20.0983" height="47.6878" rx="10.0491" stroke="#329F86" stroke-width="1.66834"/>
<rect x="84.8342" y="102.2" width="20.0983" height="47.6878" rx="10.0491" stroke="#329F86" stroke-width="1.66834"/>
<rect x="84.8342" y="162.241" width="20.0983" height="47.6878" rx="10.0491" stroke="#329F86" stroke-width="1.66834"/>
<rect x="84.8342" y="222.282" width="20.0983" height="47.6878" rx="10.0491" stroke="#329F86" stroke-width="1.66834"/>
<rect x="84.8342" y="282.322" width="20.0983" height="47.6878" rx="10.0491" stroke="#329F86" stroke-width="1.66834"/>
<rect x="84.8342" y="342.362" width="20.0983" height="47.6878" rx="10.0491" stroke="#329F86" stroke-width="1.66834"/>
<rect x="84.8342" y="402.404" width="20.0983" height="47.6878" rx="10.0491" stroke="#329F86" stroke-width="1.66834"/>
<rect x="84.8342" y="462.445" width="20.0983" height="47.6878" rx="10.0491" stroke="#329F86" stroke-width="1.66834"/>
<rect x="84.8342" y="522.486" width="20.0983" height="47.6878" rx="10.0491" stroke="#329F86" stroke-width="1.66834"/>
<rect x="84.8342" y="582.527" width="20.0983" height="47.6878" rx="10.0491" stroke="#329F86" stroke-width="1.66834"/>
<rect x="84.8342" y="642.568" width="20.0983" height="47.6878" rx="10.0491" stroke="#329F86" stroke-width="1.66834"/>
<rect x="84.8342" y="702.608" width="20.0983" height="47.6878" rx="10.0491" stroke="#329F86" stroke-width="1.66834"/>
<rect x="84.8342" y="762.648" width="20.0983" height="47.6878" rx="10.0491" stroke="#329F86" stroke-width="1.66834"/>
<rect x="84.8342" y="822.689" width="20.0983" height="47.6878" rx="10.0491" stroke="#329F86" stroke-width="1.66834"/>
<rect x="84.8342" y="882.73" width="20.0983" height="47.6878" rx="10.0491" stroke="#329F86" stroke-width="1.66834"/>
<line x1="94.717" y1="19.0039" x2="94.717" y2="50.6877" stroke="#329F86" stroke-width="1.66834"/>
<line x1="94.717" y1="79.0439" x2="94.717" y2="110.728" stroke="#329F86" stroke-width="1.66834"/>
<line x1="94.717" y1="139.085" x2="94.717" y2="170.769" stroke="#329F86" stroke-width="1.66834"/>
<line x1="94.717" y1="199.126" x2="94.717" y2="230.81" stroke="#329F86" stroke-width="1.66834"/>
<line x1="94.717" y1="259.166" x2="94.717" y2="290.85" stroke="#329F86" stroke-width="1.66834"/>
<line x1="94.717" y1="319.207" x2="94.717" y2="350.891" stroke="#329F86" stroke-width="1.66834"/>
<line x1="94.717" y1="379.247" x2="94.717" y2="410.931" stroke="#329F86" stroke-width="1.66834"/>
<line x1="94.717" y1="439.288" x2="94.717" y2="470.972" stroke="#329F86" stroke-width="1.66834"/>
<line x1="94.717" y1="499.329" x2="94.717" y2="531.013" stroke="#329F86" stroke-width="1.66834"/>
<line x1="94.717" y1="559.37" x2="94.717" y2="591.054" stroke="#329F86" stroke-width="1.66834"/>
<line x1="94.717" y1="619.411" x2="94.717" y2="651.095" stroke="#329F86" stroke-width="1.66834"/>
<line x1="94.717" y1="679.45" x2="94.717" y2="711.134" stroke="#329F86" stroke-width="1.66834"/>
<line x1="94.717" y1="739.491" x2="94.717" y2="771.175" stroke="#329F86" stroke-width="1.66834"/>
<line x1="94.717" y1="799.532" x2="94.717" y2="831.216" stroke="#329F86" stroke-width="1.66834"/>
<line x1="94.717" y1="859.573" x2="94.717" y2="891.257" stroke="#329F86" stroke-width="1.66834"/>
</g>
<g clip-path="url(#clip2_124_438)">
<rect x="0.83417" y="-32.8807" width="20.0983" height="47.6878" rx="10.0491" stroke="#329F86" stroke-width="1.66834"/>
<rect x="0.83417" y="27.1594" width="20.0983" height="47.6878" rx="10.0491" stroke="#329F86" stroke-width="1.66834"/>
<rect x="0.83417" y="87.2004" width="20.0983" height="47.6878" rx="10.0491" stroke="#329F86" stroke-width="1.66834"/>
<rect x="0.83417" y="147.241" width="20.0983" height="47.6878" rx="10.0491" stroke="#329F86" stroke-width="1.66834"/>
<rect x="0.83417" y="207.282" width="20.0983" height="47.6878" rx="10.0491" stroke="#329F86" stroke-width="1.66834"/>
<rect x="0.83417" y="267.322" width="20.0983" height="47.6878" rx="10.0491" stroke="#329F86" stroke-width="1.66834"/>
<rect x="0.83417" y="327.362" width="20.0983" height="47.6878" rx="10.0491" stroke="#329F86" stroke-width="1.66834"/>
<rect x="0.83417" y="387.404" width="20.0983" height="47.6878" rx="10.0491" stroke="#329F86" stroke-width="1.66834"/>
<rect x="0.83417" y="447.445" width="20.0983" height="47.6878" rx="10.0491" stroke="#329F86" stroke-width="1.66834"/>
<rect x="0.83417" y="507.486" width="20.0983" height="47.6878" rx="10.0491" stroke="#329F86" stroke-width="1.66834"/>
<rect x="0.83417" y="567.527" width="20.0983" height="47.6878" rx="10.0491" stroke="#329F86" stroke-width="1.66834"/>
<rect x="0.83417" y="627.568" width="20.0983" height="47.6878" rx="10.0491" stroke="#329F86" stroke-width="1.66834"/>
<rect x="0.83417" y="687.608" width="20.0983" height="47.6878" rx="10.0491" stroke="#329F86" stroke-width="1.66834"/>
<line x1="10.717" y1="4.00391" x2="10.717" y2="35.6877" stroke="#329F86" stroke-width="1.66834"/>
<line x1="10.717" y1="64.0439" x2="10.717" y2="95.7277" stroke="#329F86" stroke-width="1.66834"/>
<line x1="10.717" y1="124.085" x2="10.717" y2="155.769" stroke="#329F86" stroke-width="1.66834"/>
<line x1="10.717" y1="184.126" x2="10.717" y2="215.81" stroke="#329F86" stroke-width="1.66834"/>
<line x1="10.717" y1="244.166" x2="10.717" y2="275.85" stroke="#329F86" stroke-width="1.66834"/>
<line x1="10.717" y1="304.207" x2="10.717" y2="335.891" stroke="#329F86" stroke-width="1.66834"/>
<line x1="10.717" y1="364.247" x2="10.717" y2="395.931" stroke="#329F86" stroke-width="1.66834"/>
<line x1="10.717" y1="424.288" x2="10.717" y2="455.972" stroke="#329F86" stroke-width="1.66834"/>
<line x1="10.717" y1="484.329" x2="10.717" y2="516.013" stroke="#329F86" stroke-width="1.66834"/>
<line x1="10.717" y1="544.37" x2="10.717" y2="576.054" stroke="#329F86" stroke-width="1.66834"/>
<line x1="10.717" y1="604.411" x2="10.717" y2="636.095" stroke="#329F86" stroke-width="1.66834"/>
<line x1="10.717" y1="664.45" x2="10.717" y2="696.134" stroke="#329F86" stroke-width="1.66834"/>
</g>
</g>
<defs>
<clipPath id="clip0_124_438">
<rect width="106" height="1105" fill="white"/>
</clipPath>
<clipPath id="clip1_124_438">
<rect width="22" height="931" fill="white" transform="translate(84)"/>
</clipPath>
<clipPath id="clip2_124_438">
<rect width="22" height="1181" fill="white" transform="translate(0 -435)"/>
</clipPath>
</defs>
</svg>
