<svg width="298" height="1201" viewBox="0 0 298 1201" fill="none" xmlns="http://www.w3.org/2000/svg">
<g clip-path="url(#clip0_124_437)">
<rect x="276.834" y="-27.9627" width="20.0983" height="47.6878" rx="10.0491" stroke="#329F86" stroke-width="1.66834"/>
<rect x="276.834" y="32.0783" width="20.0983" height="47.6878" rx="10.0491" stroke="#329F86" stroke-width="1.66834"/>
<rect x="276.834" y="92.1193" width="20.0983" height="47.6878" rx="10.0491" stroke="#329F86" stroke-width="1.66834"/>
<rect x="276.834" y="152.159" width="20.0983" height="47.6878" rx="10.0491" stroke="#329F86" stroke-width="1.66834"/>
<rect x="276.834" y="212.2" width="20.0983" height="47.6878" rx="10.0491" stroke="#329F86" stroke-width="1.66834"/>
<rect x="276.834" y="272.241" width="20.0983" height="47.6878" rx="10.0491" stroke="#329F86" stroke-width="1.66834"/>
<rect x="276.834" y="332.282" width="20.0983" height="47.6878" rx="10.0491" stroke="#329F86" stroke-width="1.66834"/>
<rect x="276.834" y="392.322" width="20.0983" height="47.6878" rx="10.0491" stroke="#329F86" stroke-width="1.66834"/>
<rect x="276.834" y="452.362" width="20.0983" height="47.6878" rx="10.0491" stroke="#329F86" stroke-width="1.66834"/>
<rect x="276.834" y="512.404" width="20.0983" height="47.6878" rx="10.0491" stroke="#329F86" stroke-width="1.66834"/>
<rect x="276.834" y="572.445" width="20.0983" height="47.6878" rx="10.0491" stroke="#329F86" stroke-width="1.66834"/>
<rect x="276.834" y="632.486" width="20.0983" height="47.6878" rx="10.0491" stroke="#329F86" stroke-width="1.66834"/>
<rect x="276.834" y="692.527" width="20.0983" height="47.6878" rx="10.0491" stroke="#329F86" stroke-width="1.66834"/>
<rect x="276.834" y="752.568" width="20.0983" height="47.6878" rx="10.0491" stroke="#329F86" stroke-width="1.66834"/>
<rect x="276.834" y="812.608" width="20.0983" height="47.6878" rx="10.0491" stroke="#329F86" stroke-width="1.66834"/>
<rect x="276.834" y="872.648" width="20.0983" height="47.6878" rx="10.0491" stroke="#329F86" stroke-width="1.66834"/>
<rect x="276.834" y="932.689" width="20.0983" height="47.6878" rx="10.0491" stroke="#329F86" stroke-width="1.66834"/>
<rect x="276.834" y="992.73" width="20.0983" height="47.6878" rx="10.0491" stroke="#329F86" stroke-width="1.66834"/>
<line x1="286.717" y1="8.92188" x2="286.717" y2="40.6057" stroke="#329F86" stroke-width="1.66834"/>
<line x1="286.717" y1="68.9629" x2="286.717" y2="100.647" stroke="#329F86" stroke-width="1.66834"/>
<line x1="286.717" y1="129.004" x2="286.717" y2="160.688" stroke="#329F86" stroke-width="1.66834"/>
<line x1="286.717" y1="189.044" x2="286.717" y2="220.728" stroke="#329F86" stroke-width="1.66834"/>
<line x1="286.717" y1="249.085" x2="286.717" y2="280.769" stroke="#329F86" stroke-width="1.66834"/>
<line x1="286.717" y1="309.126" x2="286.717" y2="340.81" stroke="#329F86" stroke-width="1.66834"/>
<line x1="286.717" y1="369.166" x2="286.717" y2="400.85" stroke="#329F86" stroke-width="1.66834"/>
<line x1="286.717" y1="429.207" x2="286.717" y2="460.891" stroke="#329F86" stroke-width="1.66834"/>
<line x1="286.717" y1="489.247" x2="286.717" y2="520.931" stroke="#329F86" stroke-width="1.66834"/>
<line x1="286.717" y1="549.288" x2="286.717" y2="580.972" stroke="#329F86" stroke-width="1.66834"/>
<line x1="286.717" y1="609.329" x2="286.717" y2="641.013" stroke="#329F86" stroke-width="1.66834"/>
<line x1="286.717" y1="669.37" x2="286.717" y2="701.054" stroke="#329F86" stroke-width="1.66834"/>
<line x1="286.717" y1="729.411" x2="286.717" y2="761.095" stroke="#329F86" stroke-width="1.66834"/>
<line x1="286.717" y1="789.45" x2="286.717" y2="821.134" stroke="#329F86" stroke-width="1.66834"/>
<line x1="286.717" y1="849.491" x2="286.717" y2="881.175" stroke="#329F86" stroke-width="1.66834"/>
<line x1="286.717" y1="909.532" x2="286.717" y2="941.216" stroke="#329F86" stroke-width="1.66834"/>
<line x1="286.717" y1="969.573" x2="286.717" y2="1001.26" stroke="#329F86" stroke-width="1.66834"/>
<g clip-path="url(#clip1_124_437)">
<rect x="92.8342" y="-16.8807" width="20.0983" height="47.6878" rx="10.0491" stroke="#329F86" stroke-width="1.66834"/>
<rect x="92.8342" y="43.1594" width="20.0983" height="47.6878" rx="10.0491" stroke="#329F86" stroke-width="1.66834"/>
<rect x="92.8342" y="103.2" width="20.0983" height="47.6878" rx="10.0491" stroke="#329F86" stroke-width="1.66834"/>
<rect x="92.8342" y="163.241" width="20.0983" height="47.6878" rx="10.0491" stroke="#329F86" stroke-width="1.66834"/>
<rect x="92.8342" y="223.282" width="20.0983" height="47.6878" rx="10.0491" stroke="#329F86" stroke-width="1.66834"/>
<rect x="92.8342" y="283.322" width="20.0983" height="47.6878" rx="10.0491" stroke="#329F86" stroke-width="1.66834"/>
<rect x="92.8342" y="343.362" width="20.0983" height="47.6878" rx="10.0491" stroke="#329F86" stroke-width="1.66834"/>
<rect x="92.8342" y="403.404" width="20.0983" height="47.6878" rx="10.0491" stroke="#329F86" stroke-width="1.66834"/>
<rect x="92.8342" y="463.445" width="20.0983" height="47.6878" rx="10.0491" stroke="#329F86" stroke-width="1.66834"/>
<rect x="92.8342" y="523.486" width="20.0983" height="47.6878" rx="10.0491" stroke="#329F86" stroke-width="1.66834"/>
<rect x="92.8342" y="583.527" width="20.0983" height="47.6878" rx="10.0491" stroke="#329F86" stroke-width="1.66834"/>
<rect x="92.8342" y="643.568" width="20.0983" height="47.6878" rx="10.0491" stroke="#329F86" stroke-width="1.66834"/>
<rect x="92.8342" y="703.608" width="20.0983" height="47.6878" rx="10.0491" stroke="#329F86" stroke-width="1.66834"/>
<line x1="102.717" y1="20.0039" x2="102.717" y2="51.6877" stroke="#329F86" stroke-width="1.66834"/>
<line x1="102.717" y1="80.0439" x2="102.717" y2="111.728" stroke="#329F86" stroke-width="1.66834"/>
<line x1="102.717" y1="140.085" x2="102.717" y2="171.769" stroke="#329F86" stroke-width="1.66834"/>
<line x1="102.717" y1="200.126" x2="102.717" y2="231.81" stroke="#329F86" stroke-width="1.66834"/>
<line x1="102.717" y1="260.166" x2="102.717" y2="291.85" stroke="#329F86" stroke-width="1.66834"/>
<line x1="102.717" y1="320.207" x2="102.717" y2="351.891" stroke="#329F86" stroke-width="1.66834"/>
<line x1="102.717" y1="380.247" x2="102.717" y2="411.931" stroke="#329F86" stroke-width="1.66834"/>
<line x1="102.717" y1="440.288" x2="102.717" y2="471.972" stroke="#329F86" stroke-width="1.66834"/>
<line x1="102.717" y1="500.329" x2="102.717" y2="532.013" stroke="#329F86" stroke-width="1.66834"/>
<line x1="102.717" y1="560.37" x2="102.717" y2="592.054" stroke="#329F86" stroke-width="1.66834"/>
<line x1="102.717" y1="620.411" x2="102.717" y2="652.095" stroke="#329F86" stroke-width="1.66834"/>
<line x1="102.717" y1="680.45" x2="102.717" y2="712.134" stroke="#329F86" stroke-width="1.66834"/>
</g>
<g clip-path="url(#clip2_124_437)">
<rect x="0.83417" y="-4.71759" width="20.0983" height="47.6878" rx="10.0491" stroke="#329F86" stroke-width="1.66834"/>
<rect x="0.83417" y="55.3225" width="20.0983" height="47.6878" rx="10.0491" stroke="#329F86" stroke-width="1.66834"/>
<rect x="0.83417" y="115.362" width="20.0983" height="47.6878" rx="10.0491" stroke="#329F86" stroke-width="1.66834"/>
<rect x="0.83417" y="175.404" width="20.0983" height="47.6878" rx="10.0491" stroke="#329F86" stroke-width="1.66834"/>
<rect x="0.83417" y="235.445" width="20.0983" height="47.6878" rx="10.0491" stroke="#329F86" stroke-width="1.66834"/>
<rect x="0.83417" y="295.486" width="20.0983" height="47.6878" rx="10.0491" stroke="#329F86" stroke-width="1.66834"/>
<rect x="0.83417" y="355.527" width="20.0983" height="47.6878" rx="10.0491" stroke="#329F86" stroke-width="1.66834"/>
<rect x="0.83417" y="415.568" width="20.0983" height="47.6878" rx="10.0491" stroke="#329F86" stroke-width="1.66834"/>
<rect x="0.83417" y="475.608" width="20.0983" height="47.6878" rx="10.0491" stroke="#329F86" stroke-width="1.66834"/>
<line x1="10.717" y1="-27.874" x2="10.717" y2="3.80978" stroke="#329F86" stroke-width="1.66834"/>
<line x1="10.717" y1="32.166" x2="10.717" y2="63.8498" stroke="#329F86" stroke-width="1.66834"/>
<line x1="10.717" y1="92.207" x2="10.717" y2="123.891" stroke="#329F86" stroke-width="1.66834"/>
<line x1="10.717" y1="152.247" x2="10.717" y2="183.931" stroke="#329F86" stroke-width="1.66834"/>
<line x1="10.717" y1="212.288" x2="10.717" y2="243.972" stroke="#329F86" stroke-width="1.66834"/>
<line x1="10.717" y1="272.329" x2="10.717" y2="304.013" stroke="#329F86" stroke-width="1.66834"/>
<line x1="10.717" y1="332.37" x2="10.717" y2="364.054" stroke="#329F86" stroke-width="1.66834"/>
<line x1="10.717" y1="392.411" x2="10.717" y2="424.095" stroke="#329F86" stroke-width="1.66834"/>
<line x1="10.717" y1="452.45" x2="10.717" y2="484.134" stroke="#329F86" stroke-width="1.66834"/>
</g>
<g clip-path="url(#clip3_124_437)">
<rect x="184.834" y="3.07831" width="20.0983" height="47.6878" rx="10.0491" stroke="#329F86" stroke-width="1.66834"/>
<rect x="184.834" y="63.1193" width="20.0983" height="47.6878" rx="10.0491" stroke="#329F86" stroke-width="1.66834"/>
<rect x="184.834" y="123.159" width="20.0983" height="47.6878" rx="10.0491" stroke="#329F86" stroke-width="1.66834"/>
<rect x="184.834" y="183.2" width="20.0983" height="47.6878" rx="10.0491" stroke="#329F86" stroke-width="1.66834"/>
<rect x="184.834" y="243.241" width="20.0983" height="47.6878" rx="10.0491" stroke="#329F86" stroke-width="1.66834"/>
<rect x="184.834" y="303.282" width="20.0983" height="47.6878" rx="10.0491" stroke="#329F86" stroke-width="1.66834"/>
<rect x="184.834" y="363.322" width="20.0983" height="47.6878" rx="10.0491" stroke="#329F86" stroke-width="1.66834"/>
<rect x="184.834" y="423.362" width="20.0983" height="47.6878" rx="10.0491" stroke="#329F86" stroke-width="1.66834"/>
<rect x="184.834" y="483.404" width="20.0983" height="47.6878" rx="10.0491" stroke="#329F86" stroke-width="1.66834"/>
<rect x="184.834" y="543.445" width="20.0983" height="47.6878" rx="10.0491" stroke="#329F86" stroke-width="1.66834"/>
<rect x="184.834" y="603.486" width="20.0983" height="47.6878" rx="10.0491" stroke="#329F86" stroke-width="1.66834"/>
<rect x="184.834" y="663.527" width="20.0983" height="47.6878" rx="10.0491" stroke="#329F86" stroke-width="1.66834"/>
<rect x="184.834" y="723.568" width="20.0983" height="47.6878" rx="10.0491" stroke="#329F86" stroke-width="1.66834"/>
<rect x="184.834" y="783.608" width="20.0983" height="47.6878" rx="10.0491" stroke="#329F86" stroke-width="1.66834"/>
<line x1="194.717" y1="-20.0781" x2="194.717" y2="11.6057" stroke="#329F86" stroke-width="1.66834"/>
<line x1="194.717" y1="39.9629" x2="194.717" y2="71.6467" stroke="#329F86" stroke-width="1.66834"/>
<line x1="194.717" y1="100.004" x2="194.717" y2="131.688" stroke="#329F86" stroke-width="1.66834"/>
<line x1="194.717" y1="160.044" x2="194.717" y2="191.728" stroke="#329F86" stroke-width="1.66834"/>
<line x1="194.717" y1="220.085" x2="194.717" y2="251.769" stroke="#329F86" stroke-width="1.66834"/>
<line x1="194.717" y1="280.126" x2="194.717" y2="311.81" stroke="#329F86" stroke-width="1.66834"/>
<line x1="194.717" y1="340.166" x2="194.717" y2="371.85" stroke="#329F86" stroke-width="1.66834"/>
<line x1="194.717" y1="400.207" x2="194.717" y2="431.891" stroke="#329F86" stroke-width="1.66834"/>
<line x1="194.717" y1="460.247" x2="194.717" y2="491.931" stroke="#329F86" stroke-width="1.66834"/>
<line x1="194.717" y1="520.288" x2="194.717" y2="551.972" stroke="#329F86" stroke-width="1.66834"/>
<line x1="194.717" y1="580.329" x2="194.717" y2="612.013" stroke="#329F86" stroke-width="1.66834"/>
<line x1="194.717" y1="640.37" x2="194.717" y2="672.054" stroke="#329F86" stroke-width="1.66834"/>
<line x1="194.717" y1="700.411" x2="194.717" y2="732.095" stroke="#329F86" stroke-width="1.66834"/>
<line x1="194.717" y1="760.45" x2="194.717" y2="792.134" stroke="#329F86" stroke-width="1.66834"/>
</g>
<path d="M156.666 419.508V538.453C156.666 549.772 147.477 558.961 136.158 558.961H69.5078C58.1896 558.961 49 549.772 49 538.453V419.508C49 408.19 58.1896 399 69.5078 399H136.158C147.477 399 156.666 408.19 156.666 419.508Z" fill="#F1F7F6"/>
<path d="M144.213 452.17C144.213 474.807 125.834 493.186 103.197 493.186C80.5608 493.186 62.1816 474.807 62.1816 452.17C62.1816 429.534 80.5608 411.155 103.197 411.155C125.834 411.155 144.213 429.534 144.213 452.17Z" fill="#00DF81"/>
<path d="M88.3128 436.226C90.2002 437.011 90.2002 437.011 90.2002 451.891C90.2002 461.072 90.0604 465.884 89.8158 466.328C89.606 466.737 88.9419 467.249 88.3477 467.488C87.3691 467.932 88.1031 467.966 95.1985 468C106.628 468 110.053 467.181 114.248 463.393C117.463 460.492 118.896 456.976 118.966 451.959C119.001 448.854 118.407 446.26 117.079 443.769C115.261 440.287 112.989 438.41 109.005 437.011C106.523 436.158 106.139 436.124 97.016 436.021C91.0741 435.953 87.8584 436.056 88.3128 436.226ZM107.047 438.718C111.731 441.141 114.073 445.68 114.073 452.233C114.073 455.816 113.828 456.703 113.199 455.543C112.36 454.041 110.228 452.642 104.601 449.809C101.385 448.171 98.1694 446.362 97.4704 445.816C95.8276 444.485 95.1286 442.574 95.7577 441.107C97.3655 437.387 102.399 436.294 107.047 438.718ZM96.3869 450.048C97.3306 450.663 100.162 452.301 102.748 453.632C109.424 457.147 110.473 458.069 110.473 460.696C110.473 463.905 107.572 465.952 103.133 465.952C99.5326 465.918 97.0859 464.963 95.6179 462.949L94.5693 461.447L94.4645 455.168C94.3946 451.721 94.4295 448.888 94.5344 448.888C94.6392 448.888 95.4781 449.4 96.3869 450.048Z" fill="black"/>
<path d="M65.1267 518H61.8305V507.818H65.2311C66.2287 507.818 67.0855 508.022 67.8014 508.43C68.5173 508.834 69.0658 509.416 69.447 510.175C69.8315 510.93 70.0237 511.837 70.0237 512.894C70.0237 513.955 69.8298 514.866 69.442 515.629C69.0576 516.391 68.5007 516.978 67.7716 517.388C67.0424 517.796 66.1608 518 65.1267 518ZM63.3667 516.658H65.0422C65.8177 516.658 66.4624 516.512 66.9761 516.22C67.4898 515.925 67.8743 515.499 68.1295 514.942C68.3847 514.382 68.5123 513.7 68.5123 512.894C68.5123 512.095 68.3847 511.418 68.1295 510.861C67.8776 510.304 67.5015 509.881 67.001 509.593C66.5005 509.305 65.8791 509.161 65.1366 509.161H63.3667V516.658ZM71.934 518V507.818H78.3176V509.141H73.4703V512.243H77.9845V513.56H73.4703V516.678H78.3772V518H71.934ZM88.8263 511.129H87.2751C87.2155 510.798 87.1044 510.506 86.942 510.254C86.7796 510.002 86.5808 509.789 86.3454 509.613C86.1101 509.437 85.8466 509.305 85.555 509.215C85.2666 509.126 84.96 509.081 84.6352 509.081C84.0486 509.081 83.5232 509.228 83.0592 509.523C82.5985 509.818 82.2339 510.251 81.9655 510.821C81.7003 511.391 81.5677 512.087 81.5677 512.909C81.5677 513.738 81.7003 514.437 81.9655 515.007C82.2339 515.577 82.6002 516.008 83.0642 516.3C83.5282 516.591 84.0502 516.737 84.6302 516.737C84.9517 516.737 85.2567 516.694 85.545 516.608C85.8367 516.518 86.1002 516.388 86.3355 516.215C86.5708 516.043 86.7697 515.832 86.9321 515.584C87.0978 515.332 87.2122 515.044 87.2751 514.719L88.8263 514.724C88.7434 515.224 88.5827 515.685 88.344 516.106C88.1087 516.523 87.8054 516.885 87.4342 517.19C87.0663 517.491 86.6454 517.725 86.1714 517.891C85.6975 518.056 85.1804 518.139 84.6203 518.139C83.7387 518.139 82.9532 517.93 82.2638 517.513C81.5744 517.092 81.0308 516.49 80.6331 515.708C80.2387 514.926 80.0415 513.993 80.0415 512.909C80.0415 511.822 80.2403 510.889 80.6381 510.11C81.0358 509.328 81.5793 508.728 82.2687 508.31C82.9581 507.889 83.742 507.679 84.6203 507.679C85.1605 507.679 85.6643 507.757 86.1317 507.913C86.6023 508.065 87.0249 508.29 87.3994 508.589C87.7739 508.884 88.0838 509.245 88.3291 509.673C88.5744 510.097 88.7401 510.582 88.8263 511.129ZM90.6645 518V507.818H97.048V509.141H92.2007V512.243H96.7149V513.56H92.2007V516.678H97.1077V518H90.6645ZM107.318 507.818V518H105.906L100.731 510.533H100.636V518H99.1001V507.818H100.522L105.702 515.295H105.797V507.818H107.318ZM109.057 509.141V507.818H116.937V509.141H113.76V518H112.229V509.141H109.057ZM118.678 518V507.818H122.307C123.096 507.818 123.751 507.954 124.271 508.226C124.795 508.498 125.186 508.874 125.445 509.354C125.703 509.832 125.832 510.384 125.832 511.01C125.832 511.633 125.701 512.182 125.44 512.656C125.181 513.126 124.79 513.492 124.266 513.754C123.746 514.016 123.091 514.147 122.302 514.147H119.553V512.825H122.163C122.66 512.825 123.065 512.753 123.376 512.611C123.691 512.468 123.922 512.261 124.067 511.989C124.213 511.718 124.286 511.391 124.286 511.01C124.286 510.625 124.212 510.292 124.062 510.011C123.917 509.729 123.686 509.513 123.371 509.364C123.06 509.212 122.65 509.136 122.143 509.136H120.214V518H118.678ZM123.704 513.406L126.22 518H124.47L122.004 513.406H123.704ZM128.562 518H126.931L130.595 507.818H132.37L136.034 518H134.403L131.525 509.668H131.445L128.562 518ZM128.835 514.013H134.125V515.305H128.835V514.013ZM137.504 518V507.818H139.041V516.678H143.654V518H137.504ZM90.4209 529.493C90.3679 529.022 90.1491 528.658 89.7646 528.399C89.3802 528.137 88.8963 528.006 88.3129 528.006C87.8953 528.006 87.5341 528.073 87.2291 528.205C86.9242 528.335 86.6872 528.513 86.5182 528.742C86.3525 528.968 86.2696 529.224 86.2696 529.513C86.2696 529.755 86.326 529.964 86.4387 530.139C86.5547 530.315 86.7055 530.462 86.8911 530.582C87.08 530.698 87.2822 530.795 87.4976 530.875C87.713 530.951 87.9202 531.014 88.1191 531.064L89.1134 531.322C89.4382 531.402 89.7713 531.51 90.1127 531.646C90.454 531.781 90.7706 531.96 91.0622 532.183C91.3539 532.405 91.5892 532.68 91.7682 533.008C91.9505 533.336 92.0416 533.729 92.0416 534.186C92.0416 534.763 91.8925 535.275 91.5942 535.722C91.2992 536.17 90.87 536.523 90.3066 536.781C89.7464 537.04 89.0686 537.169 88.2732 537.169C87.5109 537.169 86.8513 537.048 86.2945 536.806C85.7377 536.564 85.3018 536.221 84.9869 535.777C84.6721 535.33 84.4981 534.799 84.4649 534.186H86.0061C86.036 534.554 86.1553 534.861 86.3641 535.106C86.5762 535.348 86.8463 535.528 87.1744 535.648C87.5059 535.764 87.8688 535.822 88.2632 535.822C88.6974 535.822 89.0835 535.754 89.4216 535.618C89.763 535.479 90.0315 535.286 90.227 535.041C90.4226 534.793 90.5203 534.503 90.5203 534.171C90.5203 533.87 90.4342 533.623 90.2618 533.43C90.0928 533.238 89.8624 533.079 89.5708 532.953C89.2824 532.827 88.9559 532.716 88.5914 532.62L87.3882 532.292C86.5729 532.07 85.9266 531.743 85.4493 531.312C84.9753 530.882 84.7384 530.312 84.7384 529.602C84.7384 529.016 84.8975 528.504 85.2156 528.066C85.5338 527.629 85.9647 527.289 86.5083 527.047C87.0518 526.802 87.665 526.679 88.3477 526.679C89.0371 526.679 89.6453 526.8 90.1723 527.042C90.7026 527.284 91.1202 527.617 91.4252 528.041C91.7301 528.462 91.8892 528.946 91.9024 529.493H90.4209ZM100.425 526.818H101.966V533.515C101.966 534.228 101.799 534.859 101.464 535.409C101.129 535.956 100.659 536.387 100.052 536.702C99.4456 537.013 98.7346 537.169 97.9193 537.169C97.1073 537.169 96.398 537.013 95.7915 536.702C95.1849 536.387 94.7143 535.956 94.3795 535.409C94.0448 534.859 93.8774 534.228 93.8774 533.515V526.818H95.4136V533.391C95.4136 533.851 95.5147 534.261 95.7169 534.619C95.9224 534.977 96.2124 535.258 96.5869 535.464C96.9614 535.666 97.4056 535.767 97.9193 535.767C98.4363 535.767 98.8821 535.666 99.2567 535.464C99.6345 535.258 99.9229 534.977 100.122 534.619C100.324 534.261 100.425 533.851 100.425 533.391V526.818ZM104.2 537V526.818H107.928C108.651 526.818 109.249 526.937 109.723 527.176C110.197 527.411 110.552 527.731 110.787 528.136C111.022 528.537 111.14 528.989 111.14 529.493C111.14 529.917 111.062 530.275 110.906 530.567C110.751 530.855 110.542 531.087 110.28 531.263C110.021 531.435 109.736 531.561 109.425 531.641V531.74C109.763 531.757 110.093 531.866 110.414 532.068C110.739 532.267 111.007 532.55 111.22 532.918C111.432 533.286 111.538 533.734 111.538 534.261C111.538 534.781 111.415 535.248 111.17 535.663C110.928 536.074 110.553 536.4 110.046 536.642C109.539 536.881 108.891 537 108.102 537H104.2ZM105.736 535.683H107.953C108.689 535.683 109.216 535.54 109.534 535.255C109.852 534.97 110.011 534.614 110.011 534.186C110.011 533.865 109.93 533.57 109.768 533.301C109.605 533.033 109.373 532.819 109.072 532.66C108.774 532.501 108.419 532.421 108.008 532.421H105.736V535.683ZM105.736 531.223H107.794C108.139 531.223 108.449 531.157 108.724 531.024C109.002 530.892 109.223 530.706 109.385 530.467C109.551 530.225 109.634 529.94 109.634 529.612C109.634 529.191 109.486 528.838 109.191 528.553C108.896 528.268 108.444 528.126 107.834 528.126H105.736V531.223ZM118.913 529.493C118.86 529.022 118.641 528.658 118.257 528.399C117.872 528.137 117.388 528.006 116.805 528.006C116.388 528.006 116.026 528.073 115.721 528.205C115.416 528.335 115.179 528.513 115.01 528.742C114.845 528.968 114.762 529.224 114.762 529.513C114.762 529.755 114.818 529.964 114.931 530.139C115.047 530.315 115.198 530.462 115.383 530.582C115.572 530.698 115.774 530.795 115.99 530.875C116.205 530.951 116.412 531.014 116.611 531.064L117.606 531.322C117.93 531.402 118.263 531.51 118.605 531.646C118.946 531.781 119.263 531.96 119.554 532.183C119.846 532.405 120.081 532.68 120.26 533.008C120.443 533.336 120.534 533.729 120.534 534.186C120.534 534.763 120.385 535.275 120.086 535.722C119.791 536.17 119.362 536.523 118.799 536.781C118.239 537.04 117.561 537.169 116.765 537.169C116.003 537.169 115.343 537.048 114.787 536.806C114.23 536.564 113.794 536.221 113.479 535.777C113.164 535.33 112.99 534.799 112.957 534.186H114.498C114.528 534.554 114.647 534.861 114.856 535.106C115.068 535.348 115.339 535.528 115.667 535.648C115.998 535.764 116.361 535.822 116.755 535.822C117.19 535.822 117.576 535.754 117.914 535.618C118.255 535.479 118.524 535.286 118.719 535.041C118.915 534.793 119.013 534.503 119.013 534.171C119.013 533.87 118.926 533.623 118.754 533.43C118.585 533.238 118.355 533.079 118.063 532.953C117.775 532.827 117.448 532.716 117.084 532.62L115.88 532.292C115.065 532.07 114.419 531.743 113.941 531.312C113.468 530.882 113.231 530.312 113.231 529.602C113.231 529.016 113.39 528.504 113.708 528.066C114.026 527.629 114.457 527.289 115 527.047C115.544 526.802 116.157 526.679 116.84 526.679C117.529 526.679 118.138 526.8 118.665 527.042C119.195 527.284 119.612 527.617 119.917 528.041C120.222 528.462 120.381 528.946 120.395 529.493H118.913Z" fill="black"/>
</g>
<defs>
<clipPath id="clip0_124_437">
<rect width="298" height="1201" fill="white"/>
</clipPath>
<clipPath id="clip1_124_437">
<rect width="22" height="1101" fill="white" transform="translate(92 -339)"/>
</clipPath>
<clipPath id="clip2_124_437">
<rect width="22" height="873" fill="white" transform="translate(0 -339)"/>
</clipPath>
<clipPath id="clip3_124_437">
<rect width="22" height="1181" fill="white" transform="translate(184 -339)"/>
</clipPath>
</defs>
</svg>
