<svg width="363" height="245" viewBox="0 0 363 245" fill="none" xmlns="http://www.w3.org/2000/svg">
<path d="M142.508 12.6911C175.654 34.2206 185.507 79.2402 164.512 113.24C143.522 147.233 99.6262 157.341 66.4858 135.81C33.339 114.275 23.4872 69.2608 44.4767 35.2624C65.4714 1.26271 109.362 -8.84381 142.508 12.6911Z" fill="#289F7B"/>
<path d="M108.415 84.2641L108.425 84.2562C107.988 84.0191 105.781 82.7664 101.039 79.6861C97.2518 77.2235 94.6569 75.3767 93.7472 74.7194L93.7393 74.7327C79.5609 64.5976 70.282 54.9254 72.2071 51.8088C74.1271 48.6935 86.6211 53.1604 101.623 61.9667L95.3403 72.1373C96.2471 72.8293 98.8789 74.763 102.653 77.2175C107.181 80.1585 109.566 81.4408 110.012 81.6754L116.291 71.5114C130.437 81.6263 139.686 91.2889 137.765 94.3988C135.845 97.5141 123.381 93.0568 108.415 84.2641ZM116.946 70.4505L122.565 61.3488L142.874 74.5377L151.444 60.6577L96.1522 24.7365L87.5832 38.6218L107.887 51.812L102.274 60.9124C85.2849 50.9687 70.8039 46.2577 68.3241 50.2748C65.8442 54.2918 76.1888 65.7081 92.2095 77.2087L74.1993 106.382L88.8753 115.914L106.891 86.7388C123.848 96.6623 138.297 101.358 140.777 97.3413C143.253 93.3308 132.941 81.9349 116.946 70.4505Z" fill="white"/>
<path d="M71.0404 101.8C110.272 101.8 142.081 134.427 142.081 174.674C142.081 214.915 110.272 247.536 71.0404 247.536C31.8088 247.536 0 214.915 0 174.674C0 134.427 31.8088 101.8 71.0404 101.8Z" fill="#F5911B"/>
<path d="M102.957 165.652C104.35 156.103 97.2651 150.974 87.5805 147.549L90.7158 134.614L83.0517 132.657L79.9807 145.246C77.9655 144.729 75.9021 144.245 73.8387 143.762L76.9204 131.09L69.2509 129.127L66.0995 142.057C64.4327 141.662 62.7873 141.282 61.2009 140.87L61.2116 140.831L50.6212 138.121L48.5846 146.527C48.5846 146.527 54.2818 147.868 54.1639 147.951C57.2724 148.748 57.8244 150.853 57.7333 152.53L54.1532 167.263C54.3675 167.318 54.6409 167.4 54.9517 167.521L54.1424 167.318L49.1206 187.955C48.74 188.923 47.7753 190.374 45.6047 189.824C45.6798 189.94 40.0255 188.401 40.0255 188.401L36.2148 197.405L46.205 199.962C48.0594 200.44 49.8816 200.94 51.6717 201.408L48.5042 214.491L56.163 216.448L59.309 203.513C61.4046 204.09 63.4412 204.629 65.4296 205.14L62.2996 218.021L69.9691 219.978L73.1419 206.927C86.2352 209.467 96.0646 208.439 100.208 196.3C103.546 186.526 100.047 180.886 93.1597 177.208C98.1762 176.026 101.949 172.64 102.957 165.652ZM85.4206 190.869C83.0517 200.649 67.0053 195.36 61.8012 194.035L66.0191 176.708C71.2232 178.044 87.9021 180.677 85.4206 190.869ZM87.8002 165.509C85.6403 174.404 72.279 169.88 67.9486 168.775L71.7699 153.063C76.1004 154.168 90.0566 156.235 87.8002 165.509Z" fill="white"/>
<path d="M172.809 22.3914C211.226 14.2319 248.823 39.5656 256.779 78.9762C264.734 118.381 240.035 156.941 201.618 165.101C163.201 173.26 125.605 147.932 117.65 108.527C109.694 69.1159 134.392 30.5508 172.809 22.3914Z" fill="#6F41D6"/>
<path d="M206.372 74.2925C204.573 73.6754 202.495 74.1168 200.92 75.4506L189.891 85.4842L182.365 92.0961L171.337 102.13C169.926 103.434 167.842 103.877 165.884 103.288L154.77 99.6358C152.976 99.0175 151.496 97.4904 151.107 95.5632L148.809 84.1777C148.421 82.2559 149.026 80.2916 150.595 78.9534L159.245 71.2663C160.661 69.9605 162.745 69.518 164.708 70.106L175.623 73.6375C177.424 74.26 178.902 75.7818 179.29 77.7036L180.78 85.084L188.278 78.3041L186.79 70.9345C186.412 68.9824 184.994 67.4031 183.122 66.863L162.859 60.1351C161.059 59.5126 158.975 59.9551 157.407 61.2932L141.089 75.7905C139.581 77.0484 138.89 79.0759 139.305 81.0201L143.607 102.332C143.996 104.26 145.312 105.816 147.27 106.405L167.859 113.069C169.653 113.687 171.742 113.244 173.312 111.911L184.371 102.034L191.866 95.2655L202.927 85.3935C204.338 84.0888 206.422 83.6462 208.38 84.2353L219.301 87.7711C221.1 88.3882 222.572 89.9057 222.962 91.8329L225.259 103.213C225.647 105.135 225.048 107.103 223.474 108.443L214.855 116.286C213.439 117.592 211.355 118.034 209.397 117.445L198.478 113.92C196.678 113.298 195.198 111.77 194.81 109.849L193.321 102.474L185.829 109.252L187.316 116.622C187.704 118.544 189.022 120.111 190.979 120.695L211.567 127.353C213.367 127.976 215.446 127.535 217.02 126.195L233.332 111.699C234.744 110.4 235.511 108.396 235.122 106.468L230.819 85.1508C230.445 83.1922 229.028 81.6237 227.153 81.0901L206.372 74.2925Z" fill="white"/>
<path d="M292.04 192.746C331.272 192.746 363.081 160.119 363.081 119.873C363.081 79.6315 331.272 47.0098 292.04 47.0098C252.809 47.0098 221 79.6315 221 119.873C221 160.119 252.809 192.746 292.04 192.746Z" fill="#E4017A"/>
<path d="M293.251 77.1797C276.792 77.1797 263.34 90.9013 263.34 107.861C263.34 111.269 263.892 114.601 264.921 117.839C265.285 118.911 266.046 119.79 267.038 120.296C268.029 120.796 269.171 120.879 270.221 120.521C271.267 120.148 272.124 119.367 272.612 118.35C273.1 117.333 273.18 116.162 272.832 115.084C271.969 112.556 271.561 109.884 271.647 107.207C271.963 95.7665 280.983 86.3494 292.142 85.7832C295.068 85.6292 297.989 86.08 300.733 87.119C303.483 88.158 305.991 89.7578 308.119 91.8193C310.241 93.8864 311.935 96.3712 313.092 99.1309C314.25 101.885 314.85 104.859 314.856 107.861C314.845 113.507 312.739 118.933 308.96 123.039C305.176 127.14 300.015 129.609 294.516 129.938C294.516 129.938 290.325 130.18 288.267 130.505C287.238 130.664 286.445 130.829 285.893 130.911C285.652 130.994 285.416 130.747 285.491 130.505L286.209 126.937L290.084 108.592C290.309 107.492 290.105 106.349 289.51 105.409C288.921 104.469 287.988 103.804 286.922 103.562C285.85 103.325 284.735 103.54 283.819 104.15C282.897 104.755 282.254 105.711 282.018 106.805C282.018 106.805 272.676 151.444 272.601 151.934C272.371 153.033 272.58 154.177 273.169 155.117C273.764 156.062 274.697 156.727 275.763 156.964C276.835 157.2 277.95 156.986 278.866 156.376C279.788 155.771 280.437 154.814 280.673 153.72C280.748 153.231 282.018 147.305 282.018 147.305C282.463 145.133 283.556 143.16 285.142 141.648C286.729 140.136 288.733 139.163 290.877 138.861C292.431 138.69 293.986 138.553 295.545 138.459C303.059 137.855 310.069 134.375 315.188 128.702C320.312 123.028 323.157 115.59 323.163 107.861C323.163 90.9013 309.705 77.1797 293.251 77.1797ZM295.384 147.794C294.741 147.651 294.077 147.64 293.428 147.767C292.78 147.888 292.163 148.14 291.611 148.509C291.059 148.883 290.582 149.361 290.212 149.922C289.843 150.477 289.585 151.109 289.451 151.769C288.899 154.528 290.561 157.288 293.326 157.86C293.975 158.003 294.639 158.014 295.288 157.887C295.936 157.766 296.558 157.514 297.11 157.14C297.662 156.771 298.134 156.293 298.504 155.732C298.873 155.172 299.136 154.539 299.265 153.88C299.817 151.043 298.155 148.36 295.384 147.794Z" fill="white"/>
<path d="M161.3 271.308C200.532 271.308 232.341 238.686 232.341 198.439C232.341 158.198 200.532 125.577 161.3 125.577C122.069 125.577 90.2598 158.198 90.2598 198.439C90.2598 238.686 122.069 271.308 161.3 271.308Z" fill="#3E73C2"/>
<path d="M179.158 208.11C179.158 198.435 173.477 195.12 162.109 193.74C153.995 192.629 152.371 190.419 152.371 186.549C152.371 182.679 155.078 180.189 160.485 180.189C165.357 180.189 168.069 181.843 169.414 185.994C169.559 186.395 169.816 186.742 170.154 186.989C170.492 187.236 170.899 187.374 171.312 187.379H175.642C175.894 187.385 176.141 187.341 176.371 187.247C176.607 187.154 176.816 187.005 176.993 186.824C177.17 186.643 177.309 186.434 177.405 186.192C177.496 185.955 177.545 185.697 177.539 185.439V185.164C177.009 182.162 175.53 179.43 173.327 177.379C171.124 175.329 168.321 174.081 165.357 173.828V167.204C165.357 166.099 164.548 165.263 163.197 164.988H159.135C158.058 164.988 157.243 165.818 156.97 167.204V173.564C148.85 174.664 143.715 180.194 143.715 187.104C143.715 196.225 149.123 199.809 160.485 201.194C168.069 202.574 170.502 204.24 170.502 208.66C170.502 213.08 166.713 216.12 161.573 216.12C154.536 216.12 152.103 213.085 151.288 208.94C151.02 207.835 150.206 207.274 149.391 207.274H144.793C144.541 207.269 144.294 207.313 144.064 207.412C143.833 207.505 143.619 207.648 143.442 207.83C143.265 208.011 143.126 208.231 143.035 208.467C142.944 208.704 142.895 208.962 142.901 209.215V209.49C143.978 216.406 148.314 221.37 157.243 222.755V229.391C157.243 230.49 158.058 231.331 159.403 231.606H163.465C164.548 231.606 165.357 230.77 165.631 229.391V222.755C173.75 221.375 179.158 215.565 179.158 208.099V208.11Z" fill="white"/>
<path d="M147.493 237.131C126.387 229.39 115.567 205.35 123.418 184.064C127.475 172.453 136.399 163.614 147.493 159.463C148.581 158.913 149.117 158.078 149.117 156.692V152.828C149.117 151.728 148.581 150.898 147.493 150.618C147.225 150.618 146.689 150.612 146.416 150.887C140.328 152.839 134.673 156.011 129.785 160.211C124.892 164.411 120.851 169.562 117.909 175.367C114.966 181.172 113.182 187.522 112.64 194.042C112.099 200.562 112.812 207.131 114.757 213.365C119.624 228.846 131.265 240.731 146.416 245.707C147.499 246.256 148.581 245.707 148.844 244.602C149.117 244.327 149.117 244.046 149.117 243.491V239.615C149.117 238.785 148.308 237.686 147.493 237.131ZM176.183 150.898C175.1 150.343 174.018 150.893 173.75 151.992C173.476 152.272 173.471 152.553 173.471 153.103V156.978C173.471 158.083 174.285 159.183 175.1 159.738C196.206 167.478 207.032 191.524 199.18 212.805C195.123 224.421 186.194 233.266 175.1 237.411C174.018 237.966 173.471 238.791 173.471 240.176V244.046C173.471 245.151 174.018 245.976 175.1 246.251C175.368 246.251 175.909 246.251 176.183 245.981C182.271 244.03 187.925 240.869 192.819 236.663C197.707 232.463 201.737 227.307 204.679 221.501C207.622 215.696 209.417 209.352 209.958 202.832C210.5 196.312 209.782 189.748 207.841 183.514C202.975 167.759 191.066 155.873 176.183 150.898Z" fill="white"/>
</svg>
