<svg width="108" height="160" viewBox="0 0 108 160" fill="none" xmlns="http://www.w3.org/2000/svg">
<path d="M107.666 20.5078V139.453C107.666 150.772 98.4765 159.961 87.1583 159.961H20.5078C9.18956 159.961 0 150.772 0 139.453V20.5078C0 9.18956 9.18956 0 20.5078 0H87.1583C98.4765 0 107.666 9.18956 107.666 20.5078Z" fill="#F1F7F6"/>
<path d="M95.213 53.1704C95.213 75.807 76.8338 94.1861 54.1973 94.1861C31.5608 94.1861 13.1816 75.807 13.1816 53.1704C13.1816 30.5339 31.5608 12.1548 54.1973 12.1548C76.8338 12.1548 95.213 30.5339 95.213 53.1704Z" fill="#00DF81"/>
<path d="M39.3128 37.2262C41.2002 38.0111 41.2002 38.0111 41.2002 52.8912C41.2002 62.0719 41.0604 66.884 40.8158 67.3277C40.606 67.7372 39.9419 68.2492 39.3477 68.4881C38.3691 68.9317 39.1031 68.9659 46.1985 69C57.628 69 61.0534 68.1809 65.2477 64.3926C68.4633 61.4917 69.8964 57.9764 69.9663 52.9595C70.0012 49.8538 69.407 47.26 68.0788 44.7686C66.2613 41.2875 63.9894 39.4104 60.0048 38.0111C57.5231 37.1579 57.1387 37.1238 48.016 37.0214C42.0741 36.9531 38.8584 37.0555 39.3128 37.2262ZM58.0474 39.7176C62.7311 42.1407 65.0729 46.6798 65.0729 53.2325C65.0729 56.816 64.8282 57.7034 64.1991 56.543C63.3602 55.0413 61.2281 53.6421 55.6007 50.8094C52.3851 49.1712 49.1694 47.3624 48.4704 46.8163C46.8276 45.4853 46.1286 43.5741 46.7577 42.1066C48.3655 38.3865 53.3987 37.2944 58.0474 39.7176ZM47.3869 51.0483C48.3306 51.6626 51.1617 53.3008 53.7482 54.6318C60.4242 58.1471 61.4728 59.0685 61.4728 61.6965C61.4728 64.9046 58.5717 66.9523 54.1327 66.9523C50.5326 66.9181 48.0859 65.9625 46.6179 63.9489L45.5693 62.4473L45.4645 56.1676C45.3946 52.7206 45.4295 49.8879 45.5344 49.8879C45.6392 49.8879 46.4781 50.3998 47.3869 51.0483Z" fill="black"/>
<path d="M16.1267 119H12.8305V108.818H16.2311C17.2287 108.818 18.0855 109.022 18.8014 109.43C19.5173 109.834 20.0658 110.416 20.447 111.175C20.8315 111.93 21.0237 112.837 21.0237 113.894C21.0237 114.955 20.8298 115.866 20.442 116.629C20.0576 117.391 19.5007 117.978 18.7716 118.388C18.0424 118.796 17.1608 119 16.1267 119ZM14.3667 117.658H16.0422C16.8177 117.658 17.4624 117.512 17.9761 117.22C18.4898 116.925 18.8743 116.499 19.1295 115.942C19.3847 115.382 19.5123 114.7 19.5123 113.894C19.5123 113.095 19.3847 112.418 19.1295 111.861C18.8776 111.304 18.5015 110.881 18.001 110.593C17.5005 110.305 16.8791 110.161 16.1366 110.161H14.3667V117.658ZM22.934 119V108.818H29.3176V110.141H24.4703V113.243H28.9845V114.56H24.4703V117.678H29.3772V119H22.934ZM39.8263 112.129H38.2751C38.2155 111.798 38.1044 111.506 37.942 111.254C37.7796 111.002 37.5808 110.789 37.3454 110.613C37.1101 110.437 36.8466 110.305 36.555 110.215C36.2666 110.126 35.96 110.081 35.6352 110.081C35.0486 110.081 34.5232 110.228 34.0592 110.523C33.5985 110.818 33.2339 111.251 32.9655 111.821C32.7003 112.391 32.5677 113.087 32.5677 113.909C32.5677 114.738 32.7003 115.437 32.9655 116.007C33.2339 116.577 33.6002 117.008 34.0642 117.3C34.5282 117.591 35.0502 117.737 35.6302 117.737C35.9517 117.737 36.2567 117.694 36.545 117.608C36.8367 117.518 37.1002 117.388 37.3355 117.215C37.5708 117.043 37.7697 116.832 37.9321 116.584C38.0978 116.332 38.2122 116.044 38.2751 115.719L39.8263 115.724C39.7434 116.224 39.5827 116.685 39.344 117.106C39.1087 117.523 38.8054 117.885 38.4342 118.19C38.0663 118.491 37.6454 118.725 37.1714 118.891C36.6975 119.056 36.1804 119.139 35.6203 119.139C34.7387 119.139 33.9532 118.93 33.2638 118.513C32.5744 118.092 32.0308 117.49 31.6331 116.708C31.2387 115.926 31.0415 114.993 31.0415 113.909C31.0415 112.822 31.2403 111.889 31.6381 111.11C32.0358 110.328 32.5793 109.728 33.2687 109.31C33.9581 108.889 34.742 108.679 35.6203 108.679C36.1605 108.679 36.6643 108.757 37.1317 108.913C37.6023 109.065 38.0249 109.29 38.3994 109.589C38.7739 109.884 39.0838 110.245 39.3291 110.673C39.5744 111.097 39.7401 111.582 39.8263 112.129ZM41.6645 119V108.818H48.048V110.141H43.2007V113.243H47.7149V114.56H43.2007V117.678H48.1077V119H41.6645ZM58.3181 108.818V119H56.9062L51.7307 111.533H51.6363V119H50.1001V108.818H51.5219L56.7023 116.295H56.7968V108.818H58.3181ZM60.0569 110.141V108.818H67.9369V110.141H64.76V119H63.2288V110.141H60.0569ZM69.6782 119V108.818H73.3074C74.0963 108.818 74.7509 108.954 75.2712 109.226C75.7949 109.498 76.186 109.874 76.4445 110.354C76.703 110.832 76.8323 111.384 76.8323 112.01C76.8323 112.633 76.7014 113.182 76.4395 113.656C76.181 114.126 75.7899 114.492 75.2662 114.754C74.7459 115.016 74.0913 115.147 73.3025 115.147H70.5532V113.825H73.1633C73.6604 113.825 74.0648 113.753 74.3763 113.611C74.6912 113.468 74.9215 113.261 75.0674 112.989C75.2132 112.718 75.2861 112.391 75.2861 112.01C75.2861 111.625 75.2116 111.292 75.0624 111.011C74.9166 110.729 74.6862 110.513 74.3714 110.364C74.0598 110.212 73.6505 110.136 73.1434 110.136H71.2144V119H69.6782ZM74.7045 114.406L77.2201 119H75.4701L73.0042 114.406H74.7045ZM79.5617 119H77.931L81.5951 108.818H83.3699L87.034 119H85.4033L82.5248 110.668H82.4452L79.5617 119ZM79.8351 115.013H85.1249V116.305H79.8351V115.013ZM88.5044 119V108.818H90.0406V117.678H94.6542V119H88.5044ZM41.4209 130.493C41.3679 130.022 41.1491 129.658 40.7646 129.399C40.3802 129.137 39.8963 129.006 39.3129 129.006C38.8953 129.006 38.5341 129.073 38.2291 129.205C37.9242 129.335 37.6872 129.513 37.5182 129.742C37.3525 129.968 37.2696 130.224 37.2696 130.513C37.2696 130.755 37.326 130.964 37.4387 131.139C37.5547 131.315 37.7055 131.462 37.8911 131.582C38.08 131.698 38.2822 131.795 38.4976 131.875C38.713 131.951 38.9202 132.014 39.1191 132.064L40.1134 132.322C40.4382 132.402 40.7713 132.51 41.1127 132.646C41.454 132.781 41.7706 132.96 42.0622 133.183C42.3539 133.405 42.5892 133.68 42.7682 134.008C42.9505 134.336 43.0416 134.729 43.0416 135.186C43.0416 135.763 42.8925 136.275 42.5942 136.722C42.2992 137.17 41.87 137.523 41.3066 137.781C40.7464 138.04 40.0686 138.169 39.2732 138.169C38.5109 138.169 37.8513 138.048 37.2945 137.806C36.7377 137.564 36.3018 137.221 35.9869 136.777C35.6721 136.33 35.4981 135.799 35.4649 135.186H37.0061C37.036 135.554 37.1553 135.861 37.3641 136.106C37.5762 136.348 37.8463 136.528 38.1744 136.648C38.5059 136.764 38.8688 136.822 39.2632 136.822C39.6974 136.822 40.0835 136.754 40.4216 136.618C40.763 136.479 41.0315 136.286 41.227 136.041C41.4226 135.793 41.5203 135.503 41.5203 135.171C41.5203 134.87 41.4342 134.623 41.2618 134.43C41.0928 134.238 40.8624 134.079 40.5708 133.953C40.2824 133.827 39.9559 133.716 39.5914 133.62L38.3882 133.292C37.5729 133.07 36.9266 132.743 36.4493 132.312C35.9753 131.882 35.7384 131.312 35.7384 130.602C35.7384 130.016 35.8975 129.504 36.2156 129.066C36.5338 128.629 36.9647 128.289 37.5083 128.047C38.0518 127.802 38.665 127.679 39.3477 127.679C40.0371 127.679 40.6453 127.8 41.1723 128.042C41.7026 128.284 42.1202 128.617 42.4252 129.041C42.7301 129.462 42.8892 129.946 42.9024 130.493H41.4209ZM51.425 127.818H52.9662V134.515C52.9662 135.228 52.7988 135.859 52.464 136.409C52.1293 136.956 51.6586 137.387 51.0521 137.702C50.4456 138.013 49.7346 138.169 48.9193 138.169C48.1073 138.169 47.398 138.013 46.7915 137.702C46.1849 137.387 45.7143 136.956 45.3795 136.409C45.0448 135.859 44.8774 135.228 44.8774 134.515V127.818H46.4136V134.391C46.4136 134.851 46.5147 135.261 46.7169 135.619C46.9224 135.977 47.2124 136.258 47.5869 136.464C47.9614 136.666 48.4056 136.767 48.9193 136.767C49.4363 136.767 49.8821 136.666 50.2567 136.464C50.6345 136.258 50.9229 135.977 51.1217 135.619C51.3239 135.261 51.425 134.851 51.425 134.391V127.818ZM55.1997 138V127.818H58.9284C59.6509 127.818 60.2491 127.937 60.7231 128.176C61.1971 128.411 61.5517 128.731 61.787 129.136C62.0223 129.537 62.14 129.989 62.14 130.493C62.14 130.917 62.0621 131.275 61.9063 131.567C61.7506 131.855 61.5418 132.087 61.2799 132.263C61.0214 132.435 60.7364 132.561 60.4248 132.641V132.74C60.7629 132.757 61.0927 132.866 61.4142 133.068C61.739 133.267 62.0074 133.55 62.2195 133.918C62.4317 134.286 62.5377 134.734 62.5377 135.261C62.5377 135.781 62.4151 136.248 62.1698 136.663C61.9279 137.074 61.5534 137.4 61.0463 137.642C60.5392 137.881 59.8912 138 59.1024 138H55.1997ZM56.7359 136.683H58.9532C59.689 136.683 60.216 136.54 60.5342 136.255C60.8524 135.97 61.0115 135.614 61.0115 135.186C61.0115 134.865 60.9303 134.57 60.7678 134.301C60.6054 134.033 60.3734 133.819 60.0718 133.66C59.7735 133.501 59.4189 133.421 59.0079 133.421H56.7359V136.683ZM56.7359 132.223H58.7941C59.1388 132.223 59.4487 132.157 59.7238 132.024C60.0022 131.892 60.2226 131.706 60.385 131.467C60.5508 131.225 60.6336 130.94 60.6336 130.612C60.6336 130.191 60.4861 129.838 60.1911 129.553C59.8962 129.268 59.4437 129.126 58.8339 129.126H56.7359V132.223ZM69.9131 130.493C69.8601 130.022 69.6413 129.658 69.2568 129.399C68.8724 129.137 68.3885 129.006 67.8051 129.006C67.3875 129.006 67.0262 129.073 66.7213 129.205C66.4164 129.335 66.1794 129.513 66.0104 129.742C65.8447 129.968 65.7618 130.224 65.7618 130.513C65.7618 130.755 65.8182 130.964 65.9308 131.139C66.0468 131.315 66.1977 131.462 66.3833 131.582C66.5722 131.698 66.7744 131.795 66.9898 131.875C67.2052 131.951 67.4124 132.014 67.6112 132.064L68.6056 132.322C68.9304 132.402 69.2635 132.51 69.6048 132.646C69.9462 132.781 70.2628 132.96 70.5544 133.183C70.8461 133.405 71.0814 133.68 71.2604 134.008C71.4427 134.336 71.5338 134.729 71.5338 135.186C71.5338 135.763 71.3847 136.275 71.0864 136.722C70.7914 137.17 70.3622 137.523 69.7987 137.781C69.2386 138.04 68.5608 138.169 67.7654 138.169C67.003 138.169 66.3435 138.048 65.7867 137.806C65.2298 137.564 64.794 137.221 64.4791 136.777C64.1643 136.33 63.9903 135.799 63.9571 135.186H65.4983C65.5281 135.554 65.6475 135.861 65.8563 136.106C66.0684 136.348 66.3385 136.528 66.6666 136.648C66.9981 136.764 67.361 136.822 67.7554 136.822C68.1896 136.822 68.5757 136.754 68.9138 136.618C69.2552 136.479 69.5236 136.286 69.7192 136.041C69.9147 135.793 70.0125 135.503 70.0125 135.171C70.0125 134.87 69.9263 134.623 69.754 134.43C69.585 134.238 69.3546 134.079 69.0629 133.953C68.7746 133.827 68.4481 133.716 68.0835 133.62L66.8804 133.292C66.0651 133.07 65.4188 132.743 64.9415 132.312C64.4675 131.882 64.2306 131.312 64.2306 130.602C64.2306 130.016 64.3896 129.504 64.7078 129.066C65.026 128.629 65.4569 128.289 66.0004 128.047C66.544 127.802 67.1572 127.679 67.8399 127.679C68.5293 127.679 69.1375 127.8 69.6645 128.042C70.1948 128.284 70.6124 128.617 70.9173 129.041C71.2223 129.462 71.3814 129.946 71.3946 130.493H69.9131Z" fill="black"/>
</svg>
