<svg width="250" height="1375" viewBox="0 0 250 1375" fill="none" xmlns="http://www.w3.org/2000/svg">
<circle cx="38" cy="38" r="38" transform="matrix(-1 0 0 1 163 1115)" fill="url(#paint0_linear_123_367)"/>
<path d="M121.683 1131.21C120.519 1131.83 118.036 1133.23 116.096 1134.4C114.195 1135.52 112.101 1136.76 111.441 1137.11C109.152 1138.31 106.398 1139.98 105.971 1140.41C104.769 1141.57 104.652 1142.66 104.652 1153.36V1164.23L106.864 1165.55L109.114 1166.86L109.773 1166.05C110.122 1165.62 110.665 1164.81 110.937 1164.27C111.208 1163.72 111.635 1163.1 111.868 1162.87C112.101 1162.6 113.187 1160.85 114.312 1158.99C116.639 1154.99 117.144 1154.18 117.57 1153.64C118.967 1151.66 122.109 1146.5 122.109 1146.11C122.109 1145.88 122.264 1145.65 122.42 1145.65C122.885 1145.65 123.739 1143.67 123.467 1143.36C122.963 1142.85 118.269 1143.28 117.299 1143.9C116.445 1144.48 109.734 1154.14 109.695 1154.88C109.657 1155.03 109.23 1155.65 108.726 1156.31L107.756 1157.48V1150.26C107.756 1142.43 107.639 1142.85 110.2 1141.42C113.808 1139.36 114.545 1138.93 115.864 1138.04C116.639 1137.54 117.376 1137.11 117.57 1137.11C117.726 1137.11 119.006 1136.41 120.402 1135.56C121.799 1134.71 123.118 1134.01 123.312 1134.01C123.506 1134.01 123.661 1133.81 123.661 1133.62C123.661 1133.39 124.01 1133.23 124.437 1133.23C125.174 1133.23 125.872 1133.58 129.79 1135.91C130.915 1136.57 131.963 1137.11 132.118 1137.11C132.273 1137.11 133.282 1137.69 134.329 1138.39C135.415 1139.09 137.122 1140.1 138.131 1140.6C139.139 1141.15 140.42 1141.92 140.963 1142.35L141.933 1143.12L141.816 1150.69L141.7 1158.21L139.295 1154.37C137.976 1152.24 136.579 1150.15 136.269 1149.72C135.92 1149.29 135.26 1148.24 134.833 1147.43C134.407 1146.58 133.786 1145.65 133.514 1145.33C133.049 1144.91 132.933 1144.91 132.7 1145.53C132.545 1145.92 131.846 1147.12 131.148 1148.24C130.45 1149.37 129.868 1150.49 129.868 1150.77C129.868 1151.04 130.644 1152.47 131.614 1153.91C132.583 1155.38 133.359 1156.74 133.359 1156.93C133.359 1157.13 133.514 1157.28 133.708 1157.28C133.902 1157.28 134.213 1157.67 134.368 1158.14C134.523 1158.6 135.415 1160.19 136.346 1161.59C137.937 1163.99 138.208 1165.04 137.2 1165.04C136.851 1165.04 130.527 1155.58 129.751 1153.91C129.131 1152.51 128.433 1152.55 127.618 1154.1C127.23 1154.88 126.415 1156.35 125.833 1157.36L124.747 1159.22L127.385 1163.37C128.82 1165.7 130.217 1167.8 130.489 1168.11C130.915 1168.57 130.605 1168.88 128.82 1169.97C127.657 1170.67 126.532 1171.25 126.338 1171.25C126.144 1171.25 125.989 1171.4 125.989 1171.64C125.989 1172.18 124.708 1172.1 123.622 1171.52C120.984 1170.08 118.191 1168.42 118.075 1168.18C117.881 1167.91 119.782 1164.54 124.553 1156.7C125.833 1154.57 127.269 1152.12 127.734 1151.27C128.2 1150.42 129.402 1148.36 130.372 1146.73C131.381 1145.1 132.195 1143.67 132.195 1143.55C132.195 1143.43 130.644 1143.32 128.743 1143.32H125.29L124.747 1144.48C124.476 1145.1 124.126 1145.65 123.971 1145.65C123.777 1145.65 123.661 1145.8 123.661 1146.03C123.661 1146.23 123.04 1147.35 122.303 1148.52C121.566 1149.68 120.945 1150.84 120.945 1151.08C120.945 1151.27 120.79 1151.46 120.596 1151.46C120.402 1151.46 120.17 1151.77 120.053 1152.12C119.782 1152.98 118.618 1154.88 117.842 1155.81C117.532 1156.16 116.756 1157.48 116.096 1158.72C115.476 1159.96 114.816 1161.01 114.661 1161.08C114.467 1161.16 114.351 1161.47 114.351 1161.78C114.351 1162.09 114.195 1162.33 113.963 1162.33C113.769 1162.33 113.575 1162.52 113.575 1162.71C113.575 1162.95 112.915 1164.07 112.139 1165.27L110.704 1167.45L111.635 1168.18C112.178 1168.57 112.838 1168.92 113.109 1168.92C113.342 1168.92 113.575 1169.08 113.575 1169.31C113.575 1169.5 113.73 1169.7 113.924 1169.7C114.118 1169.7 115.437 1170.4 116.833 1171.25C118.23 1172.1 119.549 1172.8 119.782 1172.8C119.976 1172.8 120.17 1172.92 120.17 1173.11C120.17 1173.54 123.816 1175.13 124.825 1175.13C125.833 1175.13 129.48 1173.54 129.48 1173.11C129.48 1172.92 129.674 1172.8 129.868 1172.8C130.101 1172.8 131.42 1172.1 132.816 1171.25C134.213 1170.4 135.532 1169.7 135.726 1169.7C135.92 1169.7 136.075 1169.5 136.075 1169.31C136.075 1169.08 136.23 1168.92 136.424 1168.92C136.851 1168.92 143.096 1165.43 143.678 1164.85C144.881 1163.68 144.997 1162.6 144.997 1152.63C144.997 1142.66 144.881 1141.57 143.678 1140.41C143.251 1139.98 140.497 1138.31 138.208 1137.11C137.588 1136.76 135.493 1135.52 133.553 1134.4C128.2 1131.25 125.95 1130.13 124.825 1130.13C124.243 1130.13 122.846 1130.63 121.683 1131.21Z" fill="#2A918D"/>
<rect x="-0.83417" y="0.83417" width="20.0983" height="47.6878" rx="10.0491" transform="matrix(-1 0 0 1 134.277 -27.7812)" stroke="#083D3B" stroke-width="1.66834"/>
<rect x="-0.83417" y="0.83417" width="20.0983" height="47.6878" rx="10.0491" transform="matrix(-1 0 0 1 134.277 32.2598)" stroke="#083D3B" stroke-width="1.66834"/>
<rect x="-0.83417" y="0.83417" width="20.0983" height="47.6878" rx="10.0491" transform="matrix(-1 0 0 1 134.277 92.3008)" stroke="#083D3B" stroke-width="1.66834"/>
<rect x="-0.83417" y="0.83417" width="20.0983" height="47.6878" rx="10.0491" transform="matrix(-1 0 0 1 134.277 152.341)" stroke="#083D3B" stroke-width="1.66834"/>
<rect x="-0.83417" y="0.83417" width="20.0983" height="47.6878" rx="10.0491" transform="matrix(-1 0 0 1 134.277 212.382)" stroke="#083D3B" stroke-width="1.66834"/>
<rect x="-0.83417" y="0.83417" width="20.0983" height="47.6878" rx="10.0491" transform="matrix(-1 0 0 1 134.277 272.422)" stroke="#083D3B" stroke-width="1.66834"/>
<rect x="-0.83417" y="0.83417" width="20.0983" height="47.6878" rx="10.0491" transform="matrix(-1 0 0 1 134.277 332.463)" stroke="#083D3B" stroke-width="1.66834"/>
<rect x="-0.83417" y="0.83417" width="20.0983" height="47.6878" rx="10.0491" transform="matrix(-1 0 0 1 134.277 392.504)" stroke="#083D3B" stroke-width="1.66834"/>
<rect x="-0.83417" y="0.83417" width="20.0983" height="47.6878" rx="10.0491" transform="matrix(-1 0 0 1 134.277 452.544)" stroke="#083D3B" stroke-width="1.66834"/>
<rect x="-0.83417" y="0.83417" width="20.0983" height="47.6878" rx="10.0491" transform="matrix(-1 0 0 1 134.277 512.585)" stroke="#083D3B" stroke-width="1.66834"/>
<rect x="-0.83417" y="0.83417" width="20.0983" height="47.6878" rx="10.0491" transform="matrix(-1 0 0 1 134.277 572.626)" stroke="#083D3B" stroke-width="1.66834"/>
<rect x="-0.83417" y="0.83417" width="20.0983" height="47.6878" rx="10.0491" transform="matrix(-1 0 0 1 134.277 632.667)" stroke="#083D3B" stroke-width="1.66834"/>
<rect x="-0.83417" y="0.83417" width="20.0983" height="47.6878" rx="10.0491" transform="matrix(-1 0 0 1 134.277 692.707)" stroke="#083D3B" stroke-width="1.66834"/>
<rect x="-0.83417" y="0.83417" width="20.0983" height="47.6878" rx="10.0491" transform="matrix(-1 0 0 1 134.277 752.747)" stroke="#083D3B" stroke-width="1.66834"/>
<rect x="-0.83417" y="0.83417" width="20.0983" height="47.6878" rx="10.0491" transform="matrix(-1 0 0 1 134.277 812.788)" stroke="#083D3B" stroke-width="1.66834"/>
<rect x="-0.83417" y="0.83417" width="20.0983" height="47.6878" rx="10.0491" transform="matrix(-1 0 0 1 134.277 872.829)" stroke="#083D3B" stroke-width="1.66834"/>
<rect x="-0.83417" y="0.83417" width="20.0983" height="47.6878" rx="10.0491" transform="matrix(-1 0 0 1 134.277 932.87)" stroke="#083D3B" stroke-width="1.66834"/>
<rect x="-0.83417" y="0.83417" width="20.0983" height="47.6878" rx="10.0491" transform="matrix(-1 0 0 1 134.277 992.911)" stroke="#083D3B" stroke-width="1.66834"/>
<rect x="-0.83417" y="0.83417" width="20.0983" height="47.6878" rx="10.0491" transform="matrix(-1 0 0 1 134.277 1052.95)" stroke="#083D3B" stroke-width="1.66834"/>
<line y1="-0.83417" x2="26.4902" y2="-0.83417" transform="matrix(4.37121e-08 1 1 -4.37121e-08 126.064 1191.55)" stroke="#083D3B" stroke-width="1.66834"/>
<line y1="-0.83417" x2="26.4902" y2="-0.83417" transform="matrix(4.37121e-08 1 1 -4.37121e-08 126.061 1089.06)" stroke="#083D3B" stroke-width="1.66834"/>
<rect x="-0.83417" y="0.83417" width="20.0983" height="47.6878" rx="10.0491" transform="matrix(-1 0 0 1 134.277 1204.8)" stroke="#083D3B" stroke-width="1.66834"/>
<rect x="-0.83417" y="0.83417" width="20.0983" height="47.6878" rx="10.0491" transform="matrix(-1 0 0 1 134.277 1264.84)" stroke="#083D3B" stroke-width="1.66834"/>
<rect x="-0.83417" y="0.83417" width="20.0983" height="47.6878" rx="10.0491" transform="matrix(-1 0 0 1 134.277 1324.88)" stroke="#083D3B" stroke-width="1.66834"/>
<line y1="-0.83417" x2="31.6838" y2="-0.83417" transform="matrix(4.37121e-08 1 1 -4.37121e-08 126.062 9.9375)" stroke="#083D3B" stroke-width="1.66834"/>
<line y1="-0.83417" x2="31.6838" y2="-0.83417" transform="matrix(4.37121e-08 1 1 -4.37121e-08 126.062 69.9785)" stroke="#083D3B" stroke-width="1.66834"/>
<line y1="-0.83417" x2="31.6838" y2="-0.83417" transform="matrix(4.37121e-08 1 1 -4.37121e-08 126.062 130.019)" stroke="#083D3B" stroke-width="1.66834"/>
<line y1="-0.83417" x2="31.6838" y2="-0.83417" transform="matrix(4.37121e-08 1 1 -4.37121e-08 126.062 190.059)" stroke="#083D3B" stroke-width="1.66834"/>
<line y1="-0.83417" x2="31.6838" y2="-0.83417" transform="matrix(4.37121e-08 1 1 -4.37121e-08 126.062 250.1)" stroke="#083D3B" stroke-width="1.66834"/>
<line y1="-0.83417" x2="31.6838" y2="-0.83417" transform="matrix(4.37121e-08 1 1 -4.37121e-08 126.062 310.141)" stroke="#083D3B" stroke-width="1.66834"/>
<line y1="-0.83417" x2="31.6838" y2="-0.83417" transform="matrix(4.37121e-08 1 1 -4.37121e-08 126.062 370.182)" stroke="#083D3B" stroke-width="1.66834"/>
<line y1="-0.83417" x2="31.6838" y2="-0.83417" transform="matrix(4.37121e-08 1 1 -4.37121e-08 126.062 430.223)" stroke="#083D3B" stroke-width="1.66834"/>
<line y1="-0.83417" x2="31.6838" y2="-0.83417" transform="matrix(4.37121e-08 1 1 -4.37121e-08 126.062 490.263)" stroke="#083D3B" stroke-width="1.66834"/>
<line y1="-0.83417" x2="31.6838" y2="-0.83417" transform="matrix(4.37121e-08 1 1 -4.37121e-08 126.062 550.304)" stroke="#083D3B" stroke-width="1.66834"/>
<line y1="-0.83417" x2="31.6838" y2="-0.83417" transform="matrix(4.37121e-08 1 1 -4.37121e-08 126.062 610.345)" stroke="#083D3B" stroke-width="1.66834"/>
<line y1="-0.83417" x2="31.6838" y2="-0.83417" transform="matrix(4.37121e-08 1 1 -4.37121e-08 126.062 670.385)" stroke="#083D3B" stroke-width="1.66834"/>
<line y1="-0.83417" x2="31.6838" y2="-0.83417" transform="matrix(4.37121e-08 1 1 -4.37121e-08 126.062 730.426)" stroke="#083D3B" stroke-width="1.66834"/>
<line y1="-0.83417" x2="31.6838" y2="-0.83417" transform="matrix(4.37121e-08 1 1 -4.37121e-08 126.062 790.466)" stroke="#083D3B" stroke-width="1.66834"/>
<line y1="-0.83417" x2="31.6838" y2="-0.83417" transform="matrix(4.37121e-08 1 1 -4.37121e-08 126.062 850.507)" stroke="#083D3B" stroke-width="1.66834"/>
<line y1="-0.83417" x2="31.6838" y2="-0.83417" transform="matrix(4.37121e-08 1 1 -4.37121e-08 126.062 910.548)" stroke="#083D3B" stroke-width="1.66834"/>
<line y1="-0.83417" x2="31.6838" y2="-0.83417" transform="matrix(4.37121e-08 1 1 -4.37121e-08 126.062 970.589)" stroke="#083D3B" stroke-width="1.66834"/>
<line y1="-0.83417" x2="31.6838" y2="-0.83417" transform="matrix(4.37121e-08 1 1 -4.37121e-08 126.062 1030.63)" stroke="#083D3B" stroke-width="1.66834"/>
<line y1="-0.83417" x2="31.6838" y2="-0.83417" transform="matrix(4.37121e-08 1 1 -4.37121e-08 126.062 1242.52)" stroke="#083D3B" stroke-width="1.66834"/>
<line y1="-0.83417" x2="31.6838" y2="-0.83417" transform="matrix(4.37121e-08 1 1 -4.37121e-08 126.062 1302.56)" stroke="#083D3B" stroke-width="1.66834"/>
<rect x="-0.83417" y="0.83417" width="20.0983" height="47.6878" rx="10.0491" transform="matrix(-1 0 0 1 47.5094 -32.377)" stroke="#083D3B" stroke-width="1.66834"/>
<rect x="-0.83417" y="0.83417" width="20.0983" height="47.6878" rx="10.0491" transform="matrix(-1 0 0 1 47.5094 27.6631)" stroke="#083D3B" stroke-width="1.66834"/>
<rect x="-0.83417" y="0.83417" width="20.0983" height="47.6878" rx="10.0491" transform="matrix(-1 0 0 1 47.5094 87.7041)" stroke="#083D3B" stroke-width="1.66834"/>
<rect x="-0.83417" y="0.83417" width="20.0983" height="47.6878" rx="10.0491" transform="matrix(-1 0 0 1 47.5094 147.745)" stroke="#083D3B" stroke-width="1.66834"/>
<rect x="-0.83417" y="0.83417" width="20.0983" height="47.6878" rx="10.0491" transform="matrix(-1 0 0 1 47.5094 207.786)" stroke="#083D3B" stroke-width="1.66834"/>
<rect x="-0.83417" y="0.83417" width="20.0983" height="47.6878" rx="10.0491" transform="matrix(-1 0 0 1 47.5094 267.826)" stroke="#083D3B" stroke-width="1.66834"/>
<rect x="-0.83417" y="0.83417" width="20.0983" height="47.6878" rx="10.0491" transform="matrix(-1 0 0 1 47.5094 327.907)" stroke="#083D3B" stroke-width="1.66834"/>
<rect x="-0.83417" y="0.83417" width="20.0983" height="47.6878" rx="10.0491" transform="matrix(-1 0 0 1 47.5094 387.948)" stroke="#083D3B" stroke-width="1.66834"/>
<rect x="-0.83417" y="0.83417" width="20.0983" height="47.6878" rx="10.0491" transform="matrix(-1 0 0 1 47.5094 447.989)" stroke="#083D3B" stroke-width="1.66834"/>
<rect x="-0.83417" y="0.83417" width="20.0983" height="47.6878" rx="10.0491" transform="matrix(-1 0 0 1 47.5094 508.03)" stroke="#083D3B" stroke-width="1.66834"/>
<rect x="-0.83417" y="0.83417" width="20.0983" height="47.6878" rx="10.0491" transform="matrix(-1 0 0 1 47.5094 659.111)" stroke="#083D3B" stroke-width="1.66834"/>
<rect x="-0.83417" y="0.83417" width="20.0983" height="47.6878" rx="10.0491" transform="matrix(-1 0 0 1 47.5094 719.151)" stroke="#083D3B" stroke-width="1.66834"/>
<rect x="-0.83417" y="0.83417" width="20.0983" height="47.6878" rx="10.0491" transform="matrix(-1 0 0 1 47.5094 779.192)" stroke="#083D3B" stroke-width="1.66834"/>
<rect x="-0.83417" y="0.83417" width="20.0983" height="47.6878" rx="10.0491" transform="matrix(-1 0 0 1 47.5094 839.233)" stroke="#083D3B" stroke-width="1.66834"/>
<rect x="-0.83417" y="0.83417" width="20.0983" height="47.6878" rx="10.0491" transform="matrix(-1 0 0 1 47.5094 899.274)" stroke="#083D3B" stroke-width="1.66834"/>
<rect x="-0.83417" y="0.83417" width="20.0983" height="47.6878" rx="10.0491" transform="matrix(-1 0 0 1 47.5094 960.517)" stroke="#083D3B" stroke-width="1.66834"/>
<line y1="-0.83417" x2="31.6838" y2="-0.83417" transform="matrix(4.37121e-08 1 1 -4.37121e-08 39.2949 5.3418)" stroke="#083D3B" stroke-width="1.66834"/>
<line y1="-0.83417" x2="31.6838" y2="-0.83417" transform="matrix(4.37121e-08 1 1 -4.37121e-08 39.2949 65.3818)" stroke="#083D3B" stroke-width="1.66834"/>
<line y1="-0.83417" x2="31.6838" y2="-0.83417" transform="matrix(4.37121e-08 1 1 -4.37121e-08 39.2949 125.423)" stroke="#083D3B" stroke-width="1.66834"/>
<line y1="-0.83417" x2="31.6838" y2="-0.83417" transform="matrix(4.37121e-08 1 1 -4.37121e-08 39.2949 185.464)" stroke="#083D3B" stroke-width="1.66834"/>
<line y1="-0.83417" x2="31.6838" y2="-0.83417" transform="matrix(4.37121e-08 1 1 -4.37121e-08 39.2949 245.504)" stroke="#083D3B" stroke-width="1.66834"/>
<line y1="-0.83417" x2="31.6838" y2="-0.83417" transform="matrix(4.37121e-08 1 1 -4.37121e-08 39.2949 305.545)" stroke="#083D3B" stroke-width="1.66834"/>
<line y1="-0.83417" x2="31.6838" y2="-0.83417" transform="matrix(4.37121e-08 1 1 -4.37121e-08 39.2949 365.626)" stroke="#083D3B" stroke-width="1.66834"/>
<line y1="-0.83417" x2="31.6838" y2="-0.83417" transform="matrix(4.37121e-08 1 1 -4.37121e-08 39.2949 425.667)" stroke="#083D3B" stroke-width="1.66834"/>
<line y1="-0.83417" x2="31.6838" y2="-0.83417" transform="matrix(4.37121e-08 1 1 -4.37121e-08 39.2949 485.708)" stroke="#083D3B" stroke-width="1.66834"/>
<line x1="38.8459" y1="545.699" x2="38.8459" y2="569.873" stroke="#083D3B" stroke-width="1.66834"/>
<line x1="38.1506" y1="645.874" x2="38.1291" y2="668.473" stroke="#083D3B" stroke-width="1.66834"/>
<line y1="-0.83417" x2="31.6838" y2="-0.83417" transform="matrix(4.37121e-08 1 1 -4.37121e-08 39.2949 696.829)" stroke="#083D3B" stroke-width="1.66834"/>
<line y1="-0.83417" x2="31.6838" y2="-0.83417" transform="matrix(4.37121e-08 1 1 -4.37121e-08 39.2949 756.87)" stroke="#083D3B" stroke-width="1.66834"/>
<line y1="-0.83417" x2="31.6838" y2="-0.83417" transform="matrix(4.37121e-08 1 1 -4.37121e-08 39.2949 816.911)" stroke="#083D3B" stroke-width="1.66834"/>
<line y1="-0.83417" x2="31.6838" y2="-0.83417" transform="matrix(4.37121e-08 1 1 -4.37121e-08 39.2949 876.952)" stroke="#083D3B" stroke-width="1.66834"/>
<line y1="-0.83417" x2="31.6838" y2="-0.83417" transform="matrix(4.37121e-08 1 1 -4.37121e-08 39.2949 938.194)" stroke="#083D3B" stroke-width="1.66834"/>
<circle cx="38.2949" cy="607.873" r="38" fill="url(#paint1_linear_123_367)"/>
<path d="M31.3501 592.293L24.4648 599.178L27.0706 601.784L29.6764 604.39L33.986 600.08L38.2956 595.77L42.6052 600.08L46.9147 604.39L49.5205 601.784L52.1263 599.178L45.241 592.293C41.4426 588.494 38.3256 585.397 38.2956 585.397C38.2655 585.397 35.1486 588.494 31.3501 592.293Z" fill="#2A918D"/>
<path d="M18.4007 605.242L15.7949 607.848L18.4007 610.454L21.0065 613.06L23.6123 610.454L26.2181 607.848L23.6123 605.242L21.0065 602.636L18.4007 605.242Z" fill="#2A918D"/>
<path d="M52.9769 605.242L50.3711 607.848L52.9769 610.454L55.5827 613.06L58.1885 610.454L60.7943 607.848L58.1885 605.242L55.5827 602.636L52.9769 605.242Z" fill="#2A918D"/>
<path d="M35.6885 605.292L33.1328 607.847L35.7186 610.433L38.2943 613.009L40.87 610.433L43.4558 607.847L40.9001 605.292C39.497 603.889 38.3243 602.736 38.2943 602.736C38.2642 602.736 37.0916 603.889 35.6885 605.292Z" fill="#2A918D"/>
<path d="M27.0406 613.941L24.4648 616.517L31.3802 623.432L38.2956 630.348L45.2109 623.432L52.1263 616.517L49.5205 613.911L46.9147 611.305L42.6052 615.615L38.2956 619.924L34.006 615.635C31.6508 613.28 29.7065 611.355 29.6764 611.355C29.6464 611.355 28.4637 612.518 27.0406 613.941Z" fill="#2A918D"/>
<rect x="-0.83417" y="0.83417" width="20.0983" height="47.6878" rx="10.0491" transform="matrix(-1 0 0 1 221.045 -11.7725)" stroke="#083D3B" stroke-width="1.66834"/>
<rect x="-0.83417" y="0.83417" width="20.0983" height="47.6878" rx="10.0491" transform="matrix(-1 0 0 1 221.045 48.2676)" stroke="#083D3B" stroke-width="1.66834"/>
<rect x="-0.83417" y="0.83417" width="20.0983" height="47.6878" rx="10.0491" transform="matrix(-1 0 0 1 221.045 108.309)" stroke="#083D3B" stroke-width="1.66834"/>
<rect x="-0.83417" y="0.83417" width="20.0983" height="47.6878" rx="10.0491" transform="matrix(-1 0 0 1 221.045 168.35)" stroke="#083D3B" stroke-width="1.66834"/>
<rect x="-0.83417" y="0.83417" width="20.0983" height="47.6878" rx="10.0491" transform="matrix(-1 0 0 1 221.045 322.39)" stroke="#083D3B" stroke-width="1.66834"/>
<rect x="-0.83417" y="0.83417" width="20.0983" height="47.6878" rx="10.0491" transform="matrix(-1 0 0 1 221.045 382.431)" stroke="#083D3B" stroke-width="1.66834"/>
<rect x="-0.83417" y="0.83417" width="20.0983" height="47.6878" rx="10.0491" transform="matrix(-1 0 0 1 221.045 442.472)" stroke="#083D3B" stroke-width="1.66834"/>
<rect x="-0.83417" y="0.83417" width="20.0983" height="47.6878" rx="10.0491" transform="matrix(-1 0 0 1 221.045 502.513)" stroke="#083D3B" stroke-width="1.66834"/>
<rect x="-0.83417" y="0.83417" width="20.0983" height="47.6878" rx="10.0491" transform="matrix(-1 0 0 1 221.045 562.553)" stroke="#083D3B" stroke-width="1.66834"/>
<rect x="-0.83417" y="0.83417" width="20.0983" height="47.6878" rx="10.0491" transform="matrix(-1 0 0 1 221.045 622.593)" stroke="#083D3B" stroke-width="1.66834"/>
<rect x="-0.83417" y="0.83417" width="20.0983" height="47.6878" rx="10.0491" transform="matrix(-1 0 0 1 221.045 682.634)" stroke="#083D3B" stroke-width="1.66834"/>
<rect x="-0.83417" y="0.83417" width="20.0983" height="47.6878" rx="10.0491" transform="matrix(-1 0 0 1 221.045 742.675)" stroke="#083D3B" stroke-width="1.66834"/>
<rect x="-0.83417" y="0.83417" width="20.0983" height="47.6878" rx="10.0491" transform="matrix(-1 0 0 1 221.045 802.716)" stroke="#083D3B" stroke-width="1.66834"/>
<rect x="-0.83417" y="0.83417" width="20.0983" height="47.6878" rx="10.0491" transform="matrix(-1 0 0 1 221.045 957.757)" stroke="#083D3B" stroke-width="1.66834"/>
<rect x="-0.83417" y="0.83417" width="20.0983" height="47.6878" rx="10.0491" transform="matrix(-1 0 0 1 221.045 1017.8)" stroke="#083D3B" stroke-width="1.66834"/>
<rect x="-0.83417" y="0.83417" width="20.0983" height="47.6878" rx="10.0491" transform="matrix(-1 0 0 1 221.045 1077.84)" stroke="#083D3B" stroke-width="1.66834"/>
<rect x="-0.83417" y="0.83417" width="20.0983" height="47.6878" rx="10.0491" transform="matrix(-1 0 0 1 221.045 1137.88)" stroke="#083D3B" stroke-width="1.66834"/>
<rect x="-0.83417" y="0.83417" width="20.0983" height="47.6878" rx="10.0491" transform="matrix(-1 0 0 1 221.045 1197.92)" stroke="#083D3B" stroke-width="1.66834"/>
<rect x="-0.83417" y="0.83417" width="20.0983" height="47.6878" rx="10.0491" transform="matrix(-1 0 0 1 221.045 1257.96)" stroke="#083D3B" stroke-width="1.66834"/>
<line y1="-0.83417" x2="31.6838" y2="-0.83417" transform="matrix(4.37121e-08 1 1 -4.37121e-08 212.83 25.9453)" stroke="#083D3B" stroke-width="1.66834"/>
<line y1="-0.83417" x2="31.6838" y2="-0.83417" transform="matrix(4.37121e-08 1 1 -4.37121e-08 212.83 85.9863)" stroke="#083D3B" stroke-width="1.66834"/>
<line y1="-0.83417" x2="31.6838" y2="-0.83417" transform="matrix(4.37121e-08 1 1 -4.37121e-08 212.83 146.027)" stroke="#083D3B" stroke-width="1.66834"/>
<line x1="212.664" y1="206.062" x2="212.834" y2="228.994" stroke="#083D3B" stroke-width="1.66834"/>
<line y1="-0.83417" x2="31.6838" y2="-0.83417" transform="matrix(4.37121e-08 1 1 -4.37121e-08 212.83 360.108)" stroke="#083D3B" stroke-width="1.66834"/>
<line y1="-0.83417" x2="31.6838" y2="-0.83417" transform="matrix(4.37121e-08 1 1 -4.37121e-08 213 305)" stroke="#083D3B" stroke-width="1.66834"/>
<line y1="-0.83417" x2="31.6838" y2="-0.83417" transform="matrix(4.37121e-08 1 1 -4.37121e-08 212.83 420.149)" stroke="#083D3B" stroke-width="1.66834"/>
<line y1="-0.83417" x2="31.6838" y2="-0.83417" transform="matrix(4.37121e-08 1 1 -4.37121e-08 212.83 480.19)" stroke="#083D3B" stroke-width="1.66834"/>
<line y1="-0.83417" x2="31.6838" y2="-0.83417" transform="matrix(4.37121e-08 1 1 -4.37121e-08 212.83 540.23)" stroke="#083D3B" stroke-width="1.66834"/>
<line y1="-0.83417" x2="31.6838" y2="-0.83417" transform="matrix(4.37121e-08 1 1 -4.37121e-08 212.83 600.271)" stroke="#083D3B" stroke-width="1.66834"/>
<line y1="-0.83417" x2="31.6838" y2="-0.83417" transform="matrix(4.37121e-08 1 1 -4.37121e-08 212.83 660.312)" stroke="#083D3B" stroke-width="1.66834"/>
<line y1="-0.83417" x2="31.6838" y2="-0.83417" transform="matrix(4.37121e-08 1 1 -4.37121e-08 212.83 720.353)" stroke="#083D3B" stroke-width="1.66834"/>
<line y1="-0.83417" x2="31.6838" y2="-0.83417" transform="matrix(4.37121e-08 1 1 -4.37121e-08 212.83 780.394)" stroke="#083D3B" stroke-width="1.66834"/>
<line x1="211.834" y1="840" x2="211.834" y2="864" stroke="#083D3B" stroke-width="1.66834"/>
<line y1="-0.83417" x2="31.6838" y2="-0.83417" transform="matrix(4.37121e-08 1 1 -4.37121e-08 212.83 995.476)" stroke="#083D3B" stroke-width="1.66834"/>
<line y1="-0.83417" x2="31.6838" y2="-0.83417" transform="matrix(4.37121e-08 1 1 -4.37121e-08 213 940)" stroke="#083D3B" stroke-width="1.66834"/>
<line y1="-0.83417" x2="31.6838" y2="-0.83417" transform="matrix(4.37121e-08 1 1 -4.37121e-08 212.83 1055.51)" stroke="#083D3B" stroke-width="1.66834"/>
<line y1="-0.83417" x2="31.6838" y2="-0.83417" transform="matrix(4.37121e-08 1 1 -4.37121e-08 212.83 1115.56)" stroke="#083D3B" stroke-width="1.66834"/>
<line y1="-0.83417" x2="31.6838" y2="-0.83417" transform="matrix(4.37121e-08 1 1 -4.37121e-08 212.83 1175.6)" stroke="#083D3B" stroke-width="1.66834"/>
<line y1="-0.83417" x2="31.6838" y2="-0.83417" transform="matrix(4.37121e-08 1 1 -4.37121e-08 212.83 1235.64)" stroke="#083D3B" stroke-width="1.66834"/>
<g clip-path="url(#clip0_123_367)">
<path d="M235 267.475C235 255.069 224.92 245 212.5 245C200.08 245 190 255.069 190 267.475C190 279.881 200.08 289.95 212.5 289.95C224.92 289.95 235 279.881 235 267.475Z" fill="#2A918D"/>
<path d="M205.949 273.444C204.599 273.444 203.501 273.12 202.655 272.491C201.809 271.844 201.377 270.927 201.377 269.758C201.377 269.506 201.413 269.201 201.467 268.841C201.611 268.032 201.827 267.061 202.097 265.91C202.871 262.818 204.851 261.271 208.037 261.271C208.901 261.271 209.693 261.415 210.377 261.721C211.061 262.009 211.601 262.44 211.997 263.016C212.393 263.591 212.591 264.256 212.591 265.047C212.591 265.281 212.555 265.587 212.501 265.946C212.321 266.953 212.123 267.924 211.889 268.877C211.493 270.423 210.809 271.574 209.837 272.347C208.865 273.102 207.569 273.48 205.949 273.48V273.444ZM206.201 271.017C206.831 271.017 207.371 270.819 207.803 270.459C208.253 270.082 208.577 269.524 208.775 268.751C209.045 267.69 209.243 266.773 209.369 265.982C209.423 265.749 209.441 265.497 209.441 265.245C209.441 264.22 208.901 263.699 207.839 263.699C207.209 263.699 206.669 263.897 206.219 264.256C205.769 264.634 205.463 265.191 205.265 265.964C205.049 266.719 204.851 267.636 204.653 268.733C204.599 268.967 204.581 269.201 204.581 269.452C204.563 270.495 205.121 271.017 206.201 271.017Z" fill="#0B453A"/>
<path d="M213.347 273.283C213.221 273.283 213.131 273.247 213.059 273.157C213.005 273.067 212.987 272.959 213.005 272.851L215.345 261.884C215.363 261.758 215.435 261.65 215.543 261.578C215.651 261.488 215.759 261.452 215.867 261.452H220.367C221.627 261.452 222.617 261.722 223.373 262.225C224.147 262.747 224.525 263.502 224.525 264.473C224.525 264.76 224.489 265.048 224.417 265.354C224.129 266.648 223.571 267.601 222.707 268.231C221.861 268.86 220.691 269.166 219.215 269.166H216.929L216.155 272.869C216.119 272.995 216.065 273.103 215.957 273.175C215.849 273.265 215.741 273.301 215.633 273.301H213.329L213.347 273.283ZM219.323 266.828C219.809 266.828 220.205 266.702 220.565 266.433C220.925 266.163 221.159 265.803 221.285 265.318C221.321 265.12 221.339 264.958 221.339 264.814C221.339 264.491 221.231 264.239 221.051 264.059C220.853 263.879 220.529 263.79 220.061 263.79H218.027L217.379 266.81H219.323V266.828Z" fill="#0B453A"/>
</g>
<circle cx="212" cy="267" r="38" fill="url(#paint2_linear_123_367)"/>
<g clip-path="url(#clip1_123_367)">
<path d="M212.508 880L193.018 891.241V913.716L212.508 924.95L231.984 913.716V891.241L212.508 880ZM226.213 910.386L212.508 918.29L198.796 910.386V894.564L212.508 886.66L226.213 894.564V910.386Z" fill="#2A918D"/>
<path d="M221.598 907.727L212.501 912.97L203.396 907.727V897.231L212.501 891.98L221.598 897.231L217.811 899.417L212.501 896.35L207.191 899.417V905.534L212.501 908.601L217.811 905.534L221.598 907.727Z" fill="#2A918D"/>
</g>
<circle cx="212" cy="902" r="38" fill="url(#paint3_linear_123_367)"/>
<defs>
<linearGradient id="paint0_linear_123_367" x1="38" y1="0" x2="38" y2="76" gradientUnits="userSpaceOnUse">
<stop stop-color="#0A9894" stop-opacity="0.26"/>
<stop offset="1" stop-color="#074B49" stop-opacity="0.11"/>
</linearGradient>
<linearGradient id="paint1_linear_123_367" x1="38.2949" y1="569.873" x2="38.2949" y2="645.873" gradientUnits="userSpaceOnUse">
<stop stop-color="#0A9894" stop-opacity="0.26"/>
<stop offset="1" stop-color="#074B49" stop-opacity="0.11"/>
</linearGradient>
<linearGradient id="paint2_linear_123_367" x1="212" y1="229" x2="212" y2="305" gradientUnits="userSpaceOnUse">
<stop stop-color="#0A9894" stop-opacity="0.26"/>
<stop offset="1" stop-color="#074B49" stop-opacity="0.11"/>
</linearGradient>
<linearGradient id="paint3_linear_123_367" x1="212" y1="864" x2="212" y2="940" gradientUnits="userSpaceOnUse">
<stop stop-color="#0A9894" stop-opacity="0.26"/>
<stop offset="1" stop-color="#074B49" stop-opacity="0.11"/>
</linearGradient>
<clipPath id="clip0_123_367">
<rect width="45" height="44.95" fill="white" transform="translate(190 245)"/>
</clipPath>
<clipPath id="clip1_123_367">
<rect width="45" height="44.95" fill="white" transform="translate(190 880)"/>
</clipPath>
</defs>
</svg>
