<svg xmlns="http://www.w3.org/2000/svg" width="169" height="36" viewBox="0 0 169 36" fill="none">
  <g clip-path="url(#clip0_39_487)">
    <path d="M12.6392 17.1856L12.6394 17.1856L12.6418 17.176C12.6978 16.9508 12.8254 16.7414 12.9987 16.5808C13.1703 16.4303 13.3859 16.3373 13.6236 16.3074C13.8518 16.2869 14.0855 16.3302 14.289 16.4348C14.5059 16.5559 14.6784 16.7169 14.8001 16.9162C14.9474 17.18 14.9463 17.343 14.9192 17.4396C14.8902 17.5429 14.8087 17.6507 14.6469 17.7569C14.3108 17.9775 13.7827 18.0887 13.4133 18.1249C12.8916 18.1756 12.7143 18.0379 12.6498 17.9428C12.5669 17.8203 12.5312 17.5762 12.6392 17.1856Z" fill="#F1F7F6" stroke="#F1F7F6" stroke-width="0.765008"/>
    <path d="M30.3708 23.5258C30.0829 22.6968 29.4753 22.06 28.7212 21.5414C27.7842 20.8971 26.5711 20.4008 25.3841 19.9153C25.2043 19.8417 25.0252 19.7684 24.8476 19.6949C23.4684 19.1236 22.177 18.5349 21.2776 17.7062C20.5552 17.0406 20.0848 16.2199 20.0558 15.0978C21.0507 15.7785 22.3402 15.9832 23.6066 16.1678C23.6783 16.1783 23.75 16.1886 23.8217 16.199C25.3509 16.4205 26.8989 16.6446 28.2459 17.4837C29.8023 18.4552 30.4617 19.8748 30.6046 21.2342C30.693 22.0741 30.5827 22.878 30.3708 23.5258Z" fill="#F1F7F6" stroke="#F1F7F6" stroke-width="0.765008"/>
    <mask id="path-3-inside-1_39_487" fill="white">
      <path d="M26.3535 11.8218C26.278 11.7555 26.2025 11.6796 26.127 11.6133C26.2025 11.6891 26.278 11.7555 26.3535 11.8218Z"/>
    </mask>
    <path d="M26.3535 11.8218C26.278 11.7555 26.2025 11.6796 26.127 11.6133C26.2025 11.6891 26.278 11.7555 26.3535 11.8218Z" fill="#F1F7F6"/>
    <path d="M26.127 11.6133L26.632 11.0387L25.5848 12.153L26.127 11.6133ZM26.8585 11.2472C26.8323 11.2242 26.8042 11.1979 26.7647 11.1606C26.7287 11.1268 26.6813 11.082 26.632 11.0387L25.6219 12.1879C25.6481 12.2109 25.6762 12.2373 25.7158 12.2745C25.7517 12.3084 25.7991 12.3531 25.8485 12.3965L26.8585 11.2472ZM25.5848 12.153C25.681 12.2496 25.7753 12.3321 25.8485 12.3965L26.8585 11.2472C26.7807 11.1788 26.7239 11.1286 26.6691 11.0735L25.5848 12.153Z" fill="#F1F7F6" mask="url(#path-3-inside-1_39_487)"/>
    <path d="M27.1383 13.2439C27.6501 13.8944 28.0252 14.5478 28.2739 15.1312C27.9497 14.8932 27.5823 14.7159 27.1894 14.6099L27.1887 14.6097C26.7378 14.489 26.2882 14.4189 25.8311 14.389L25.8305 14.3889C25.6063 14.3746 25.3825 14.3626 25.1598 14.3508L25.1421 14.3498C24.9246 14.3383 24.7082 14.3268 24.4897 14.3131L24.4897 14.313L24.4858 14.3128C23.59 14.266 22.6903 14.1731 21.8267 13.9201C21.5972 13.8529 21.3873 13.7911 21.1889 13.7131L21.1797 13.7095L21.1704 13.7064C21.0989 13.6825 21.0357 13.6555 20.955 13.6211C20.9277 13.6095 20.8985 13.597 20.8663 13.5836C20.7695 13.5431 20.6704 13.4937 20.5581 13.4372C20.1651 13.2172 19.7958 12.9435 19.4596 12.6326C18.8717 12.0818 18.3955 11.4617 17.9053 10.8233C17.8381 10.7359 17.7707 10.6481 17.7028 10.5602C17.4156 10.1618 17.1168 9.76885 16.8063 9.38435C16.9254 9.52015 17.0421 9.65836 17.1565 9.79847L17.3016 9.9762L17.5267 9.93187C20.3287 9.38005 22.5779 9.86954 24.2909 10.8113L24.2972 10.8148L24.3036 10.818L24.3357 10.8341C24.8832 11.1321 25.3964 11.4938 25.8658 11.9018C25.8975 11.9297 25.9302 11.9604 25.9686 11.9965L25.9707 11.9985C26.0064 12.0321 26.0473 12.0707 26.0893 12.1076C26.4546 12.439 26.7882 12.8093 27.1087 13.2044L27.1325 13.2362L27.1324 13.2363L27.1383 13.2439Z" fill="#F1F7F6" stroke="#F1F7F6" stroke-width="0.765008"/>
    <path d="M29.0347 16.6281L29.0254 16.6094" stroke="#F1F7F6" stroke-width="0.765008"/>
    <path d="M11.6049 7.75872C11.6067 7.72576 11.6085 7.69321 11.6104 7.66093C12.1433 7.7953 12.6295 8.04699 12.9515 8.42037C13.3619 8.90614 13.5278 9.54473 13.6698 10.248L13.6697 10.248L13.6703 10.2508C13.6861 10.3261 13.7017 10.403 13.7176 10.481C13.8114 10.9421 13.9139 11.4458 14.1055 11.9183L14.1055 11.9183L14.1075 11.923C14.1689 12.0688 14.2423 12.2016 14.3101 12.3195C14.3278 12.3503 14.3449 12.3798 14.3614 12.4082C14.4111 12.4937 14.4557 12.5705 14.4979 12.6519L14.4984 12.6529C14.5562 12.7638 14.6337 12.8682 14.6918 12.9454C14.6833 12.9434 14.6745 12.9413 14.6656 12.9391C14.4697 12.8904 14.2621 12.7946 14.1459 12.734L14.1459 12.734L14.1409 12.7315C13.7313 12.5258 13.3654 12.2434 13.0683 11.9025L13.0683 11.9025L13.0655 11.8992C12.0905 10.8053 11.5707 9.21805 11.6048 7.76059L11.6049 7.75872Z" fill="#F1F7F6" stroke="#F1F7F6" stroke-width="0.765008"/>
    <path d="M29.0961 25.2301L29.0966 25.2312C30.0272 27.4685 29.2265 30.2078 27.3315 31.5991C27.5802 30.7724 27.5486 29.9837 27.3405 29.2261C27.0493 28.1659 26.414 27.1754 25.7826 26.2392C25.712 26.1345 25.6415 26.0305 25.5713 25.9271C25.0004 25.0854 24.4543 24.2803 24.1052 23.4437C23.7818 22.6689 23.6382 21.89 23.8134 21.063C24.1832 21.2929 24.5772 21.5113 24.9726 21.7272C25.0409 21.7645 25.1092 21.8017 25.1775 21.839C25.6739 22.1093 26.1703 22.3796 26.6457 22.6762C27.729 23.352 28.6419 24.1282 29.0961 25.2301Z" fill="#F1F7F6" stroke="#F1F7F6" stroke-width="0.765008"/>
    <path d="M18.6652 25.234C18.4587 25.2518 18.2577 25.2641 18.0582 25.274C18.0693 25.2724 18.0804 25.2707 18.0916 25.2691C18.2797 25.2414 18.4692 25.2135 18.6629 25.182C19.179 25.098 19.7002 24.9911 20.1879 24.7955C20.6796 24.6059 21.1159 24.3231 21.4966 23.9716C21.8749 23.6233 22.1569 23.1865 22.337 22.7136C22.2083 23.2246 21.9461 23.688 21.5797 24.0653C21.1944 24.4428 20.7333 24.7337 20.2315 24.9133C19.7267 25.0911 19.2043 25.1978 18.6726 25.2334L18.6726 25.2333L18.6652 25.234Z" fill="#F1F7F6" stroke="#F1F7F6" stroke-width="0.765008"/>
    <path d="M14.1436 32.1193C14.2624 32.3003 14.4112 32.4654 14.5839 32.6033C14.4894 32.5493 14.3987 32.4875 14.313 32.4187C14.1444 32.2824 13.9914 32.1213 13.8274 31.9391C13.7952 31.9034 13.7623 31.8664 13.7286 31.8286C13.5982 31.6822 13.4572 31.5239 13.307 31.3765C12.8702 30.9186 12.3544 30.5437 11.7905 30.2605L11.7814 30.256L11.7722 30.2519C11.3832 30.0816 10.9769 29.948 10.5545 29.8752C10.4415 29.8537 10.329 29.8351 10.2183 29.8181C10.6238 29.4917 11.0501 29.1909 11.4947 28.9205C12.2032 28.5011 12.9562 28.1733 13.7447 27.9457L13.7453 27.9455C14.5435 27.7139 15.3871 27.6513 16.2135 27.7584L16.215 27.7586C16.6358 27.8114 17.0473 27.917 17.4408 28.075C17.8399 28.2372 18.2075 28.468 18.5346 28.7522C18.8455 29.049 19.1061 29.413 19.2824 29.7996C19.4518 30.1942 19.5836 30.6024 19.6624 31.0153C19.7054 31.2411 19.7374 31.4843 19.7721 31.7484C19.7869 31.8607 19.8022 31.9769 19.819 32.0971C19.8737 32.4876 19.9434 32.9064 20.0659 33.2985C20.181 33.6673 20.3484 34.0313 20.6105 34.3344C20.2166 34.0209 19.8927 33.5755 19.6458 33.0705C19.5219 32.8145 19.4134 32.5547 19.3003 32.2837C19.2636 32.1958 19.2264 32.1067 19.188 32.0161C19.0344 31.6536 18.8654 31.2777 18.6481 30.9172C18.0305 29.8902 16.9158 28.9933 15.5463 29.1608C14.9915 29.2278 14.4305 29.4902 14.0899 30.0273C13.6497 30.718 13.7577 31.5315 14.1436 32.1193Z" fill="#F1F7F6" stroke="#F1F7F6" stroke-width="0.765008"/>
    <path d="M14.1692 32.7457L14.1211 32.707" stroke="#F1F7F6" stroke-width="0.765008"/>
    <path d="M11.0649 15.072L11.0649 15.0721C11.4285 14.9179 11.7432 14.6749 11.9861 14.3581C12.1018 14.2053 12.1856 14.0258 12.2408 13.8212C12.2862 13.6373 12.3011 13.4381 12.2784 13.24L12.278 13.2363L12.278 13.2363L12.2712 13.1714L12.2527 13.1491C12.2524 13.1487 12.2521 13.1484 12.2518 13.148C11.847 12.6681 11.4485 12.2185 11.048 11.7664C10.8827 11.5798 10.717 11.3928 10.5503 11.2031C10.55 11.2028 10.5497 11.2024 10.5494 11.202L8.84359 9.29001L8.84289 9.28923L8.17137 8.54064L8.81243 9.33469L8.81373 9.33631L10.4181 11.3458C10.4819 11.4256 10.5464 11.506 10.6111 11.5869C10.9755 12.0418 11.3512 12.5107 11.7063 12.9728L11.713 12.9814L11.7129 12.9815C11.8372 13.1532 11.8988 13.3555 11.8988 13.5566V13.5713L11.8977 13.5858C11.8842 13.7621 11.8279 13.9755 11.6698 14.1523C11.5664 14.269 11.4306 14.3808 11.2693 14.4544L11.1104 14.1065L11.2693 14.4544C11.1017 14.531 10.921 14.5554 10.7707 14.5554C10.5927 14.5554 10.422 14.5149 10.2645 14.4323C10.0846 14.3527 9.95688 14.2318 9.85857 14.1086C9.85836 14.1083 9.85815 14.1081 9.85794 14.1078L6.20692 9.56324L8.53318 13.7987C8.66823 14.0167 8.70758 14.2717 8.66501 14.514L8.66431 14.518L8.66429 14.518C8.62323 14.7379 8.5133 14.9683 8.33027 15.1368L8.32972 15.1373C8.14681 15.3051 7.98488 15.5155 7.86292 15.7433C7.67444 16.1142 7.54665 16.5092 7.48698 16.9202L7.48591 16.9276L7.48455 16.9349C7.43839 17.1841 7.41318 17.4117 7.38815 17.6377C7.37246 17.7793 7.35685 17.9204 7.33618 18.0657C7.13226 19.5285 6.19792 20.9615 5.35944 22.0142L5.35881 22.015C5.25811 22.1408 5.15744 22.2633 5.05791 22.3845C4.79778 22.7012 4.54538 23.0084 4.32042 23.3387C4.01501 23.787 3.78677 24.2424 3.70045 24.742L3.70042 24.7421C3.52755 25.7405 3.72456 26.8076 4.16024 27.7463C4.33456 28.1095 4.5452 28.4306 4.77351 28.7787C4.84905 28.8939 4.92654 29.012 5.00528 29.1356L5.01043 29.1436L5.01516 29.152C5.01629 29.1539 5.01816 29.1572 5.02072 29.1616C5.05565 29.2223 5.21811 29.5045 5.346 29.7861C5.38584 29.8739 5.42717 29.9719 5.46041 30.0694C6.62181 29.839 7.60945 29.4621 8.34438 29.0224C9.1891 28.5169 9.62922 27.9734 9.71566 27.5329C9.80355 27.0831 9.76606 26.7533 9.67077 26.4979C9.5747 26.2405 9.40849 26.0283 9.19075 25.832C8.97937 25.6414 8.7354 25.4791 8.47171 25.3036C8.45775 25.2944 8.44373 25.285 8.42966 25.2757C8.16249 25.0978 7.86683 24.8987 7.63498 24.6575L7.63399 24.6565C7.18653 24.1875 6.76976 23.6726 6.69017 22.8861L11.0649 15.072ZM11.0649 15.072L11.0599 15.0742M11.0649 15.072L11.0599 15.0742M11.0599 15.0742C10.7105 15.2283 10.3524 15.3229 9.97471 15.3662C9.92741 15.371 9.88253 15.3757 9.83869 15.3804L9.83848 15.3804C9.79722 15.3848 9.75688 15.389 9.71493 15.3933C9.37024 15.4085 9.0533 15.5339 8.78997 15.7383C8.5096 15.9559 8.32749 16.2562 8.23288 16.5769L8.22958 16.5881M11.0599 15.0742L8.22958 16.5881M8.22958 16.5881L8.22696 16.5994C8.19888 16.7217 8.16497 16.8767 8.15272 17.0388M8.22958 16.5881L8.15272 17.0388M8.15272 17.0388C8.13323 17.2168 8.12113 17.3955 8.1095 17.5752C8.10842 17.592 8.10734 17.6088 8.10625 17.6257C8.09555 17.792 8.08466 17.9611 8.06826 18.1433C7.98805 18.8186 7.79307 19.4766 7.49182 20.0906L7.49179 20.0906L7.48987 20.0947C7.43397 20.2121 7.37527 20.3295 7.31606 20.448C6.96186 21.1568 6.5895 21.9019 6.69015 22.8859L8.15272 17.0388ZM8.07119 14.8554C8.18445 14.7511 8.25996 14.5995 8.28828 14.4478L8.07119 14.8554Z" fill="#F1F7F6" stroke="#F1F7F6" stroke-width="0.765008"/>
    <mask id="path-13-inside-2_39_487" fill="white">
      <path d="M14.0832 32.6878C13.7717 32.4508 13.498 32.1664 13.2715 31.8535C13.5169 32.1474 13.7906 32.4318 14.0832 32.6878Z"/>
    </mask>
    <path d="M14.0832 32.6878C13.7717 32.4508 13.498 32.1664 13.2715 31.8535C13.5169 32.1474 13.7906 32.4318 14.0832 32.6878Z" fill="#F1F7F6"/>
    <path d="M14.0832 32.6878L13.62 33.2966L14.5869 32.112L14.0832 32.6878ZM13.2715 31.8535L13.8587 31.3632L12.6519 32.3022L13.2715 31.8535ZM14.5465 32.079C14.2973 31.8894 14.0756 31.6596 13.8911 31.4048L12.6519 32.3022C12.9204 32.6731 13.2462 33.0122 13.62 33.2966L14.5465 32.079ZM12.6843 32.3439C12.9529 32.6655 13.2542 32.979 13.5795 33.2636L14.5869 32.112C14.327 31.8846 14.0809 31.6293 13.8587 31.3632L12.6843 32.3439Z" fill="#F1F7F6" mask="url(#path-13-inside-2_39_487)"/>
    <mask id="path-15-inside-3_39_487" fill="white">
      <path fill-rule="evenodd" clip-rule="evenodd" d="M97.2755 11.1865C94.1702 11.9734 92.7166 14.4193 93.6039 17.3581C93.9814 18.619 95.1424 19.8893 96.7847 20.8468C99.7484 22.5627 100.617 23.2548 101.126 24.3071C101.551 25.1792 101.589 25.4731 101.372 26.26C100.872 28.1181 99.5691 29.142 97.7003 29.142C95.7936 29.142 94.4533 28.0707 94.1513 26.2979C94.0286 25.5869 93.887 25.3594 93.5378 25.3594C93.1319 25.3594 93.0847 25.549 93.0847 27.3502V29.341L94.3212 29.7677C96.2561 30.4313 99.0122 30.3459 100.655 29.5875C103.854 28.0991 105.081 25.1508 103.647 22.3921C103.109 21.3587 101.759 20.2116 99.4464 18.8086C97.0207 17.3392 95.9352 16.2679 95.7747 15.1777C95.5293 13.5092 97.0301 12.1251 99.0783 12.1251C100.683 12.1251 101.372 12.5137 101.938 13.7083C102.297 14.4572 102.552 14.7037 102.967 14.7131C103.43 14.7226 103.505 14.6373 103.382 14.1917C103.307 13.8979 103.241 13.1679 103.241 12.5611C103.241 11.7933 103.127 11.4235 102.873 11.3287C102.193 11.0633 98.1627 10.959 97.2755 11.1865ZM34.9707 11.8881C34.9707 12.2293 35.1312 12.3621 35.537 12.3621C36.6791 12.3621 36.7357 12.6939 36.8679 19.548C36.9811 25.5395 37.0189 26.0135 37.5003 26.9046C38.1799 28.175 39.1143 29.0187 40.5301 29.6634C41.5023 30.1089 42.1252 30.2037 44.0696 30.2037C46.1839 30.2037 46.5709 30.1374 47.7884 29.5401C48.5341 29.1704 49.4591 28.4878 49.8461 28.0138C51.1958 26.3738 51.3374 25.5869 51.4884 18.9034C51.6394 12.4663 51.6583 12.3621 52.7532 12.3526C53.008 12.3526 53.1685 12.163 53.1685 11.8786C53.1685 11.433 53.008 11.4046 50.3369 11.4046C47.6941 11.4046 47.5053 11.433 47.5053 11.8596C47.5053 12.2009 47.6941 12.3336 48.2698 12.3905C49.5252 12.5137 49.629 12.9972 49.629 18.8655C49.629 24.819 49.4308 25.9566 48.166 27.1606C46.9862 28.2793 46.0517 28.6585 44.4377 28.6585C42.1252 28.6585 40.4923 27.5777 39.9543 25.7007C39.775 25.0655 39.7089 22.7523 39.7561 18.7233L39.8222 12.6939L40.6528 12.4284C41.1059 12.2862 41.5117 11.9923 41.5589 11.7743C41.625 11.433 41.2474 11.3951 38.312 11.3951C35.1312 11.4141 34.9707 11.4425 34.9707 11.8881ZM56.944 11.8881C56.944 12.2578 57.1044 12.3621 57.6424 12.3621C58.8412 12.3621 59.5207 12.8266 59.7945 13.841C59.9455 14.4193 60.0116 17.159 59.9738 21.0838C59.8888 28.0897 59.7945 28.5447 58.3503 28.8386C57.8784 28.9334 57.6519 29.123 57.6519 29.4169C57.6519 29.834 57.8784 29.8625 60.9554 29.8625C63.9758 29.8625 64.259 29.8245 64.259 29.4358C64.259 29.1325 63.9569 28.9334 63.2113 28.7343C62.2863 28.4878 62.1353 28.3456 61.9087 27.5588C61.635 26.5444 61.5689 15.8982 61.8521 15.9266C61.9465 15.9361 62.862 16.922 63.8909 18.1165C64.9102 19.311 67.7135 22.4395 70.111 25.075C73.8581 29.1988 74.566 29.8625 75.1512 29.8625H75.8402L75.9063 21.482C75.9535 15.5284 76.0573 13.0257 76.2461 12.8266C76.3971 12.6749 76.8785 12.4758 77.3127 12.3905C77.7752 12.2957 78.1055 12.0871 78.1055 11.8881C78.1055 11.6037 77.5203 11.5278 74.8586 11.4804C71.7344 11.414 71.6117 11.433 71.6117 11.8975C71.6117 12.2483 71.7627 12.381 72.1875 12.381C72.5084 12.381 73.0653 12.637 73.4239 12.9498L74.0846 13.5186L74.1601 19.2162C74.1979 22.43 74.1413 24.9138 74.028 24.9138C73.9147 24.9138 73.188 24.1933 72.4234 23.3211C71.6589 22.4395 69.4786 20.022 67.5719 17.9459C65.6748 15.8697 63.5983 13.5566 62.9564 12.8266L61.7955 11.4899L59.3697 11.4709C57.095 11.4235 56.944 11.452 56.944 11.8881ZM81.7489 11.8881C81.7489 12.2483 81.9093 12.3621 82.4096 12.3621C82.7777 12.3621 83.2779 12.5137 83.5328 12.6939C83.9669 13.0067 83.9953 13.4144 84.0613 19.9652C84.1463 28.1371 84.0802 28.6016 82.6833 28.8196C81.9754 28.9334 81.7489 29.0756 81.7489 29.4074C81.7489 29.8245 81.9848 29.853 85.2884 29.853C88.6769 29.853 88.8279 29.834 88.8279 29.379C88.8279 29.0472 88.6674 28.905 88.2804 28.905C87.9784 28.905 87.5253 28.7533 87.2799 28.5731C86.8458 28.2508 86.8174 27.8432 86.7514 20.7805C86.6853 13.5376 86.6947 13.3101 87.1667 12.8361C87.4309 12.5706 87.9123 12.3526 88.2427 12.3526C88.6769 12.3526 88.8373 12.2293 88.8373 11.8786C88.8373 11.4235 88.6769 11.4046 85.2978 11.4046C81.9093 11.414 81.7489 11.4425 81.7489 11.8881ZM106.488 11.8881C106.563 12.1819 106.809 12.3621 107.129 12.3621C107.413 12.3621 107.885 12.6086 108.168 12.9119C108.46 13.2153 110.074 17.1021 111.83 21.719L114.973 29.9762L115.794 30.0426L116.615 30.1089L118.824 24.2502C120.042 21.0269 121.155 18.1355 121.316 17.8226C121.58 17.2918 121.646 17.3676 122.354 19.2447C122.769 20.3349 123.874 23.2263 124.808 25.6627L126.507 30.0995H127.253C127.668 30.0995 128.055 29.9573 128.121 29.7866C128.187 29.616 129.273 26.8193 130.537 23.5771C131.802 20.3349 133.199 16.7419 133.643 15.5948C134.662 12.9783 134.86 12.656 135.672 12.381C136.031 12.2578 136.323 11.9923 136.323 11.7838C136.323 11.4709 135.889 11.414 133.492 11.414C130.811 11.414 130.66 11.4425 130.66 11.8881C130.66 12.2293 130.821 12.3621 131.226 12.3621C132.142 12.3621 132.548 12.6086 132.548 13.1868C132.548 13.6608 128.046 25.9282 127.772 26.2126C127.602 26.3832 123.534 14.9881 123.392 13.9263C123.251 12.893 123.685 12.3621 124.685 12.3621C125.072 12.3621 125.233 12.2293 125.233 11.8881C125.233 11.433 125.072 11.414 121.571 11.414C118.069 11.414 117.908 11.433 117.908 11.8881C117.908 12.1535 118.069 12.3621 118.277 12.3621C119.013 12.3621 119.994 13.0731 120.24 13.7936C120.599 14.8269 120.325 15.8792 118.201 21.5578L116.398 26.3832L116.011 25.4637C115.794 24.9612 114.69 21.9655 113.538 18.8181C111.283 12.637 111.254 12.3621 112.746 12.3621C113.265 12.3621 113.425 12.2483 113.425 11.8881C113.425 11.433 113.265 11.414 109.904 11.414C106.478 11.414 106.365 11.433 106.488 11.8881ZM154.332 12.0587C154.332 12.0587 154.332 12.381 154.37 12.4758C154.408 12.5611 154.663 12.5991 154.663 12.5991C154.823 12.637 154.974 12.6749 155.116 12.7128C155.833 12.893 156.333 13.0162 156.532 13.4902C156.664 13.8125 156.673 14.9122 156.673 20.8468C156.673 27.0942 156.673 27.8621 156.503 28.2793C156.296 28.7912 155.899 29.0661 154.993 29.3221C154.993 29.3221 154.587 29.4358 154.483 29.5401C154.37 29.6444 154.351 29.8625 154.351 29.8625C154.351 29.8625 154.342 30.071 154.436 30.1753C154.531 30.2796 154.776 30.2322 154.776 30.2322L157.145 30.2417L161.062 30.2701C161.062 30.2701 161.223 30.2891 161.308 30.1848C161.393 30.0805 161.374 29.8719 161.374 29.8719C161.374 29.8719 161.374 29.6444 161.27 29.5496C161.166 29.4453 160.77 29.3505 160.77 29.3505C159.882 29.1325 159.429 28.8481 159.231 28.3835C159.08 28.0423 159.061 27.1132 159.042 25.1698V22.3352C159.137 22.3921 159.231 22.4584 159.325 22.5248C159.779 22.8471 160.345 23.2358 162.459 23.3022C165.017 23.378 166.565 22.2309 167.48 20.9037C168.396 19.5765 168.755 17.4814 168.075 15.263C167.405 13.0352 165.432 11.689 162.657 11.5563C161.213 11.4804 159.108 11.5563 157.929 11.6131L157.598 11.6321C156.532 11.6795 155.248 11.7838 154.616 11.8407C154.446 11.8596 154.427 11.8596 154.38 11.9165C154.323 11.9355 154.332 12.0587 154.332 12.0587ZM164.734 20.771C165.763 19.7945 165.782 18.2777 165.782 17.3012C165.678 15.7749 165.064 12.8456 161.6 12.8456C160.788 12.8076 159.137 12.9404 159.089 14.0685C159.042 14.2676 159.014 15.6612 159.033 17.8037L159.052 21.2165L159.401 21.4061L159.42 21.4156C159.609 21.5199 159.863 21.6526 160.298 21.738C161.676 22.0129 163.705 21.7474 164.734 20.771ZM143.063 11.7174C143.317 11.6226 143.487 11.5563 143.487 11.5563C143.487 11.5563 143.874 11.3951 143.997 11.5563C144.035 11.6037 144.176 11.9639 144.516 12.855C144.582 13.0257 144.658 13.2248 144.743 13.4428C145.252 14.77 145.998 16.6755 146.385 17.6804C146.772 18.6853 147.537 20.6667 148.093 22.0887C148.641 23.5107 149.349 25.3309 149.66 26.1462C149.972 26.952 150.378 27.7958 150.481 27.9475C150.538 28.0233 150.595 28.1181 150.651 28.2224C150.897 28.6206 151.218 29.1609 151.869 29.2747C151.869 29.2747 152.379 29.36 152.454 29.4358C152.53 29.5117 152.548 29.6634 152.548 29.6634V29.9383C152.548 29.9383 152.539 30.0047 152.501 30.071C152.464 30.1279 152.303 30.1184 152.303 30.1184H148.377L145.583 30.1374C145.583 30.1374 145.488 30.1469 145.432 30.0995C145.375 30.0521 145.347 29.9288 145.347 29.9288V29.7202C145.347 29.7202 145.328 29.5686 145.432 29.4264C145.545 29.2936 145.989 29.2747 145.989 29.2747C146.838 29.1988 147.168 28.4783 147.348 28.0991C147.357 28.0707 147.376 28.0423 147.386 28.0233C147.574 27.6346 147.499 27.3881 146.668 25.3215C146.121 23.9658 145.932 23.5771 145.8 23.5487C145.705 23.5202 144.242 23.5202 142.543 23.5297L139.466 23.5487L139.287 24.0606C138.759 25.53 138.277 26.99 138.211 27.3881C138.07 28.1939 138.268 29.0851 139.448 29.2462C139.448 29.2462 139.882 29.3031 140.004 29.3979C140.118 29.4832 140.165 29.7108 140.165 29.7108V29.9193C140.165 29.9193 140.146 30.0141 140.061 30.09C139.986 30.1563 139.778 30.1279 139.778 30.1279H136.833L133.964 30.1563C133.964 30.1563 133.841 30.1563 133.756 30.1089C133.671 30.0615 133.652 29.9667 133.652 29.9667V29.7677C133.652 29.7677 133.633 29.6349 133.794 29.4832C133.954 29.3221 134.379 29.2842 134.379 29.2842C135.153 29.1609 135.597 28.3267 135.851 27.8527C135.87 27.8147 135.889 27.7863 135.908 27.7484C136.012 27.5588 136.465 26.478 136.918 25.3309C137.371 24.1933 137.881 22.9135 138.051 22.4869C138.626 21.0554 139.164 19.6902 139.995 17.6141C140.448 16.4765 141.118 14.789 141.486 13.8694L142.156 12.2009L143.063 11.7174ZM142.817 15.7749C142.959 16.1352 143.176 16.6755 143.299 16.9789C143.421 17.2823 143.771 18.145 144.073 18.8844C144.375 19.6334 144.743 20.534 144.894 20.9037C145.045 21.2639 145.167 21.5863 145.167 21.6052C145.167 21.6242 144.035 21.6431 142.647 21.6431C141.062 21.6431 140.127 21.6147 140.127 21.5578C140.127 21.5104 140.184 21.3303 140.25 21.1597C140.354 20.8847 140.873 19.3963 142.005 16.0973C142.185 15.5853 142.345 15.1398 142.364 15.1018C142.468 14.9691 142.562 15.1208 142.817 15.7749Z"/>
    </mask>
    <path fill-rule="evenodd" clip-rule="evenodd" d="M97.2755 11.1865C94.1702 11.9734 92.7166 14.4193 93.6039 17.3581C93.9814 18.619 95.1424 19.8893 96.7847 20.8468C99.7484 22.5627 100.617 23.2548 101.126 24.3071C101.551 25.1792 101.589 25.4731 101.372 26.26C100.872 28.1181 99.5691 29.142 97.7003 29.142C95.7936 29.142 94.4533 28.0707 94.1513 26.2979C94.0286 25.5869 93.887 25.3594 93.5378 25.3594C93.1319 25.3594 93.0847 25.549 93.0847 27.3502V29.341L94.3212 29.7677C96.2561 30.4313 99.0122 30.3459 100.655 29.5875C103.854 28.0991 105.081 25.1508 103.647 22.3921C103.109 21.3587 101.759 20.2116 99.4464 18.8086C97.0207 17.3392 95.9352 16.2679 95.7747 15.1777C95.5293 13.5092 97.0301 12.1251 99.0783 12.1251C100.683 12.1251 101.372 12.5137 101.938 13.7083C102.297 14.4572 102.552 14.7037 102.967 14.7131C103.43 14.7226 103.505 14.6373 103.382 14.1917C103.307 13.8979 103.241 13.1679 103.241 12.5611C103.241 11.7933 103.127 11.4235 102.873 11.3287C102.193 11.0633 98.1627 10.959 97.2755 11.1865ZM34.9707 11.8881C34.9707 12.2293 35.1312 12.3621 35.537 12.3621C36.6791 12.3621 36.7357 12.6939 36.8679 19.548C36.9811 25.5395 37.0189 26.0135 37.5003 26.9046C38.1799 28.175 39.1143 29.0187 40.5301 29.6634C41.5023 30.1089 42.1252 30.2037 44.0696 30.2037C46.1839 30.2037 46.5709 30.1374 47.7884 29.5401C48.5341 29.1704 49.4591 28.4878 49.8461 28.0138C51.1958 26.3738 51.3374 25.5869 51.4884 18.9034C51.6394 12.4663 51.6583 12.3621 52.7532 12.3526C53.008 12.3526 53.1685 12.163 53.1685 11.8786C53.1685 11.433 53.008 11.4046 50.3369 11.4046C47.6941 11.4046 47.5053 11.433 47.5053 11.8596C47.5053 12.2009 47.6941 12.3336 48.2698 12.3905C49.5252 12.5137 49.629 12.9972 49.629 18.8655C49.629 24.819 49.4308 25.9566 48.166 27.1606C46.9862 28.2793 46.0517 28.6585 44.4377 28.6585C42.1252 28.6585 40.4923 27.5777 39.9543 25.7007C39.775 25.0655 39.7089 22.7523 39.7561 18.7233L39.8222 12.6939L40.6528 12.4284C41.1059 12.2862 41.5117 11.9923 41.5589 11.7743C41.625 11.433 41.2474 11.3951 38.312 11.3951C35.1312 11.4141 34.9707 11.4425 34.9707 11.8881ZM56.944 11.8881C56.944 12.2578 57.1044 12.3621 57.6424 12.3621C58.8412 12.3621 59.5207 12.8266 59.7945 13.841C59.9455 14.4193 60.0116 17.159 59.9738 21.0838C59.8888 28.0897 59.7945 28.5447 58.3503 28.8386C57.8784 28.9334 57.6519 29.123 57.6519 29.4169C57.6519 29.834 57.8784 29.8625 60.9554 29.8625C63.9758 29.8625 64.259 29.8245 64.259 29.4358C64.259 29.1325 63.9569 28.9334 63.2113 28.7343C62.2863 28.4878 62.1353 28.3456 61.9087 27.5588C61.635 26.5444 61.5689 15.8982 61.8521 15.9266C61.9465 15.9361 62.862 16.922 63.8909 18.1165C64.9102 19.311 67.7135 22.4395 70.111 25.075C73.8581 29.1988 74.566 29.8625 75.1512 29.8625H75.8402L75.9063 21.482C75.9535 15.5284 76.0573 13.0257 76.2461 12.8266C76.3971 12.6749 76.8785 12.4758 77.3127 12.3905C77.7752 12.2957 78.1055 12.0871 78.1055 11.8881C78.1055 11.6037 77.5203 11.5278 74.8586 11.4804C71.7344 11.414 71.6117 11.433 71.6117 11.8975C71.6117 12.2483 71.7627 12.381 72.1875 12.381C72.5084 12.381 73.0653 12.637 73.4239 12.9498L74.0846 13.5186L74.1601 19.2162C74.1979 22.43 74.1413 24.9138 74.028 24.9138C73.9147 24.9138 73.188 24.1933 72.4234 23.3211C71.6589 22.4395 69.4786 20.022 67.5719 17.9459C65.6748 15.8697 63.5983 13.5566 62.9564 12.8266L61.7955 11.4899L59.3697 11.4709C57.095 11.4235 56.944 11.452 56.944 11.8881ZM81.7489 11.8881C81.7489 12.2483 81.9093 12.3621 82.4096 12.3621C82.7777 12.3621 83.2779 12.5137 83.5328 12.6939C83.9669 13.0067 83.9953 13.4144 84.0613 19.9652C84.1463 28.1371 84.0802 28.6016 82.6833 28.8196C81.9754 28.9334 81.7489 29.0756 81.7489 29.4074C81.7489 29.8245 81.9848 29.853 85.2884 29.853C88.6769 29.853 88.8279 29.834 88.8279 29.379C88.8279 29.0472 88.6674 28.905 88.2804 28.905C87.9784 28.905 87.5253 28.7533 87.2799 28.5731C86.8458 28.2508 86.8174 27.8432 86.7514 20.7805C86.6853 13.5376 86.6947 13.3101 87.1667 12.8361C87.4309 12.5706 87.9123 12.3526 88.2427 12.3526C88.6769 12.3526 88.8373 12.2293 88.8373 11.8786C88.8373 11.4235 88.6769 11.4046 85.2978 11.4046C81.9093 11.414 81.7489 11.4425 81.7489 11.8881ZM106.488 11.8881C106.563 12.1819 106.809 12.3621 107.129 12.3621C107.413 12.3621 107.885 12.6086 108.168 12.9119C108.46 13.2153 110.074 17.1021 111.83 21.719L114.973 29.9762L115.794 30.0426L116.615 30.1089L118.824 24.2502C120.042 21.0269 121.155 18.1355 121.316 17.8226C121.58 17.2918 121.646 17.3676 122.354 19.2447C122.769 20.3349 123.874 23.2263 124.808 25.6627L126.507 30.0995H127.253C127.668 30.0995 128.055 29.9573 128.121 29.7866C128.187 29.616 129.273 26.8193 130.537 23.5771C131.802 20.3349 133.199 16.7419 133.643 15.5948C134.662 12.9783 134.86 12.656 135.672 12.381C136.031 12.2578 136.323 11.9923 136.323 11.7838C136.323 11.4709 135.889 11.414 133.492 11.414C130.811 11.414 130.66 11.4425 130.66 11.8881C130.66 12.2293 130.821 12.3621 131.226 12.3621C132.142 12.3621 132.548 12.6086 132.548 13.1868C132.548 13.6608 128.046 25.9282 127.772 26.2126C127.602 26.3832 123.534 14.9881 123.392 13.9263C123.251 12.893 123.685 12.3621 124.685 12.3621C125.072 12.3621 125.233 12.2293 125.233 11.8881C125.233 11.433 125.072 11.414 121.571 11.414C118.069 11.414 117.908 11.433 117.908 11.8881C117.908 12.1535 118.069 12.3621 118.277 12.3621C119.013 12.3621 119.994 13.0731 120.24 13.7936C120.599 14.8269 120.325 15.8792 118.201 21.5578L116.398 26.3832L116.011 25.4637C115.794 24.9612 114.69 21.9655 113.538 18.8181C111.283 12.637 111.254 12.3621 112.746 12.3621C113.265 12.3621 113.425 12.2483 113.425 11.8881C113.425 11.433 113.265 11.414 109.904 11.414C106.478 11.414 106.365 11.433 106.488 11.8881ZM154.332 12.0587C154.332 12.0587 154.332 12.381 154.37 12.4758C154.408 12.5611 154.663 12.5991 154.663 12.5991C154.823 12.637 154.974 12.6749 155.116 12.7128C155.833 12.893 156.333 13.0162 156.532 13.4902C156.664 13.8125 156.673 14.9122 156.673 20.8468C156.673 27.0942 156.673 27.8621 156.503 28.2793C156.296 28.7912 155.899 29.0661 154.993 29.3221C154.993 29.3221 154.587 29.4358 154.483 29.5401C154.37 29.6444 154.351 29.8625 154.351 29.8625C154.351 29.8625 154.342 30.071 154.436 30.1753C154.531 30.2796 154.776 30.2322 154.776 30.2322L157.145 30.2417L161.062 30.2701C161.062 30.2701 161.223 30.2891 161.308 30.1848C161.393 30.0805 161.374 29.8719 161.374 29.8719C161.374 29.8719 161.374 29.6444 161.27 29.5496C161.166 29.4453 160.77 29.3505 160.77 29.3505C159.882 29.1325 159.429 28.8481 159.231 28.3835C159.08 28.0423 159.061 27.1132 159.042 25.1698V22.3352C159.137 22.3921 159.231 22.4584 159.325 22.5248C159.779 22.8471 160.345 23.2358 162.459 23.3022C165.017 23.378 166.565 22.2309 167.48 20.9037C168.396 19.5765 168.755 17.4814 168.075 15.263C167.405 13.0352 165.432 11.689 162.657 11.5563C161.213 11.4804 159.108 11.5563 157.929 11.6131L157.598 11.6321C156.532 11.6795 155.248 11.7838 154.616 11.8407C154.446 11.8596 154.427 11.8596 154.38 11.9165C154.323 11.9355 154.332 12.0587 154.332 12.0587ZM164.734 20.771C165.763 19.7945 165.782 18.2777 165.782 17.3012C165.678 15.7749 165.064 12.8456 161.6 12.8456C160.788 12.8076 159.137 12.9404 159.089 14.0685C159.042 14.2676 159.014 15.6612 159.033 17.8037L159.052 21.2165L159.401 21.4061L159.42 21.4156C159.609 21.5199 159.863 21.6526 160.298 21.738C161.676 22.0129 163.705 21.7474 164.734 20.771ZM143.063 11.7174C143.317 11.6226 143.487 11.5563 143.487 11.5563C143.487 11.5563 143.874 11.3951 143.997 11.5563C144.035 11.6037 144.176 11.9639 144.516 12.855C144.582 13.0257 144.658 13.2248 144.743 13.4428C145.252 14.77 145.998 16.6755 146.385 17.6804C146.772 18.6853 147.537 20.6667 148.093 22.0887C148.641 23.5107 149.349 25.3309 149.66 26.1462C149.972 26.952 150.378 27.7958 150.481 27.9475C150.538 28.0233 150.595 28.1181 150.651 28.2224C150.897 28.6206 151.218 29.1609 151.869 29.2747C151.869 29.2747 152.379 29.36 152.454 29.4358C152.53 29.5117 152.548 29.6634 152.548 29.6634V29.9383C152.548 29.9383 152.539 30.0047 152.501 30.071C152.464 30.1279 152.303 30.1184 152.303 30.1184H148.377L145.583 30.1374C145.583 30.1374 145.488 30.1469 145.432 30.0995C145.375 30.0521 145.347 29.9288 145.347 29.9288V29.7202C145.347 29.7202 145.328 29.5686 145.432 29.4264C145.545 29.2936 145.989 29.2747 145.989 29.2747C146.838 29.1988 147.168 28.4783 147.348 28.0991C147.357 28.0707 147.376 28.0423 147.386 28.0233C147.574 27.6346 147.499 27.3881 146.668 25.3215C146.121 23.9658 145.932 23.5771 145.8 23.5487C145.705 23.5202 144.242 23.5202 142.543 23.5297L139.466 23.5487L139.287 24.0606C138.759 25.53 138.277 26.99 138.211 27.3881C138.07 28.1939 138.268 29.0851 139.448 29.2462C139.448 29.2462 139.882 29.3031 140.004 29.3979C140.118 29.4832 140.165 29.7108 140.165 29.7108V29.9193C140.165 29.9193 140.146 30.0141 140.061 30.09C139.986 30.1563 139.778 30.1279 139.778 30.1279H136.833L133.964 30.1563C133.964 30.1563 133.841 30.1563 133.756 30.1089C133.671 30.0615 133.652 29.9667 133.652 29.9667V29.7677C133.652 29.7677 133.633 29.6349 133.794 29.4832C133.954 29.3221 134.379 29.2842 134.379 29.2842C135.153 29.1609 135.597 28.3267 135.851 27.8527C135.87 27.8147 135.889 27.7863 135.908 27.7484C136.012 27.5588 136.465 26.478 136.918 25.3309C137.371 24.1933 137.881 22.9135 138.051 22.4869C138.626 21.0554 139.164 19.6902 139.995 17.6141C140.448 16.4765 141.118 14.789 141.486 13.8694L142.156 12.2009L143.063 11.7174ZM142.817 15.7749C142.959 16.1352 143.176 16.6755 143.299 16.9789C143.421 17.2823 143.771 18.145 144.073 18.8844C144.375 19.6334 144.743 20.534 144.894 20.9037C145.045 21.2639 145.167 21.5863 145.167 21.6052C145.167 21.6242 144.035 21.6431 142.647 21.6431C141.062 21.6431 140.127 21.6147 140.127 21.5578C140.127 21.5104 140.184 21.3303 140.25 21.1597C140.354 20.8847 140.873 19.3963 142.005 16.0973C142.185 15.5853 142.345 15.1398 142.364 15.1018C142.468 14.9691 142.562 15.1208 142.817 15.7749Z" fill="#F1F7F6" stroke="#F1F7F6" stroke-width="1.53002" mask="url(#path-15-inside-3_39_487)"/>
  </g>
  <defs>
    <clipPath id="clip0_39_487">
      <rect width="167.537" height="35.1904" fill="white" transform="translate(0.878906)"/>
    </clipPath>
  </defs>
</svg>