<svg width="219" height="48" viewBox="0 0 219 48" fill="none" xmlns="http://www.w3.org/2000/svg">
<path d="M21.5688 0.936201C20.5594 1.21882 16.9257 2.22819 13.4939 3.15681C10.062 4.08542 7.11469 5.05441 6.95319 5.33703C6.7917 5.57928 6.91282 6.0234 7.19544 6.30603C7.59919 6.75015 9.1738 6.42715 15.7145 4.56992L23.749 2.26856L31.7836 4.56992C36.1844 5.82153 40.0604 6.75015 40.3834 6.62902C40.7468 6.5079 40.9486 6.10415 40.8679 5.70041C40.7871 5.25629 39.5355 4.69104 36.7093 3.88355C31.824 2.51081 23.7087 0.330582 23.5068 0.370956C23.4664 0.370956 22.5782 0.613204 21.5688 0.936201Z" fill="white"/>
<path d="M0.250073 7.47707C0.0885744 7.88082 -0.0325494 10.7474 0.0078252 13.8563C0.0078252 18.4186 0.169324 20.1143 0.896067 22.7387C2.9148 29.885 7.39638 36.7487 13.0892 41.3918C16.0769 43.8142 20.2355 46.3982 22.4965 47.2057C23.9096 47.6902 24.1518 47.6498 26.7358 46.3982C30.4503 44.5814 35.9412 40.4228 38.4848 37.5158C44.541 30.531 47.448 22.8194 47.448 13.6948C47.4884 7.92119 47.2461 6.7907 45.9945 6.7907C45.3082 6.7907 44.7833 7.39632 43.6528 9.6573C42.8453 11.2319 41.1092 14.4215 39.8576 16.8036C38.5656 19.1857 37.2736 21.6486 36.9102 22.3349L36.3046 23.5462L24.1518 23.6673C14.7042 23.748 11.878 23.6269 11.5953 23.2635C11.3531 22.9809 10.586 21.6486 9.85923 20.3162C9.13249 18.9838 7.59825 16.2384 6.42739 14.26C5.25653 12.2413 3.88379 9.8188 3.35892 8.80943C2.2688 6.7907 0.815318 6.18509 0.250073 7.47707ZM4.28754 14.6638C8.24425 21.7697 20.074 42.5626 20.4778 43.0471C21.1238 43.8546 20.5181 44.0565 19.2261 43.3701C17.4497 42.4415 12.3221 38.2829 10.5456 36.3046C6.99263 32.3478 4.12604 26.7761 2.79367 21.2852C2.02656 18.0552 1.50169 10.4648 2.10731 11.03C2.30918 11.2319 3.31854 12.8873 4.28754 14.6638ZM44.7833 20.1951C43.1279 28.3911 38.929 35.1337 31.8634 40.8265C30.0465 42.28 27.1799 44.0161 26.9377 43.7739C26.8166 43.6931 27.8259 41.7955 29.1179 39.6153C35.4971 29.0775 39.575 21.8908 43.249 14.8253L45.187 11.0704L45.3082 14.0581C45.3889 15.7135 45.1467 18.459 44.7833 20.1951ZM34.8915 25.6053C34.8915 25.7668 34.5685 26.4531 34.1244 27.1395C33.7206 27.8259 31.2578 31.9845 28.6738 36.3449C26.0898 40.7458 23.8289 44.3391 23.6674 44.3391C23.5059 44.3391 22.2139 42.1992 20.7604 39.6153C19.3069 37.0313 17.0055 32.9131 15.6328 30.4502C14.2601 27.9874 13.0892 25.8475 13.0892 25.6457C13.0892 25.4842 18.0149 25.363 23.9903 25.363C30.0062 25.363 34.8915 25.4842 34.8915 25.6053Z" fill="white"/>
<path d="M62.4683 15.754C61.9435 15.9963 61.459 16.4808 61.3378 16.8441C61.2167 17.2479 61.0956 20.5586 61.0148 24.2731C60.8937 33.4785 60.0862 32.8325 71.5526 32.8325H80.3139L80.435 31.9039L80.5562 31.0156H72.3601C67.8382 31.0156 63.9218 30.8541 63.6392 30.6926C63.2758 30.41 63.1547 28.795 63.2354 23.9097L63.3566 17.4901L71.9564 17.369L80.5562 17.2883L80.435 16.3597C80.3139 15.4714 80.2735 15.4714 71.8352 15.3907C66.3847 15.3503 63.0336 15.4714 62.4683 15.754Z" fill="white"/>
<path d="M92.8296 15.7942C92.7085 16.0768 92.6681 20.0335 92.7085 24.5555L92.8296 32.8323H101.712H110.594L110.716 31.9037L110.837 31.0154H102.964H95.0502V27.9873V24.9592H101.308C107.203 24.9592 107.566 24.9188 107.566 24.1921C107.566 23.5057 107.122 23.3846 103.408 23.1424C101.106 22.9809 98.2802 22.9001 97.1497 22.9809L95.0502 23.1424V20.2354V17.288L102.843 17.2073C110.271 17.0862 110.594 17.0458 110.594 16.2787C110.594 15.5116 110.271 15.4712 101.793 15.3501C94.8887 15.2693 92.9507 15.3501 92.8296 15.7942Z" fill="white"/>
<path d="M123.069 15.7944C122.988 16.077 122.948 20.0337 122.988 24.5557L123.11 32.8325H124.119C125.088 32.8325 125.128 32.7517 125.249 29.4814L125.371 26.1707H129.287H133.203L136.433 29.6429C139.461 32.8325 139.784 33.0747 141.076 32.9536L142.489 32.8325L139.542 29.764C137.967 28.0683 136.635 26.5744 136.635 26.4129C136.635 26.2918 137.564 26.1707 138.654 26.1707C140.309 26.1707 140.915 25.9688 141.682 25.1613C142.57 24.2731 142.691 23.8693 142.691 20.922C142.691 17.8131 142.611 17.5709 141.52 16.4404L140.35 15.2695H131.79C125.249 15.2695 123.231 15.3906 123.069 15.7944ZM140.188 20.8412L140.309 24.1519L132.921 24.0712L125.532 23.9501L125.411 21.1642C125.33 19.63 125.371 18.1361 125.492 17.8131C125.694 17.369 127.107 17.2882 132.88 17.369L140.067 17.4901L140.188 20.8412Z" fill="white"/>
<path d="M153.996 16.2787V17.288H158.235H162.475L162.556 25.04L162.677 32.8323H163.686H164.695L164.816 25.04L164.897 17.288H169.137H173.376V16.2787V15.2693H163.686H153.996V16.2787Z" fill="white"/>
<path d="M185.167 24.0306L185.288 32.8323H186.297H187.307L187.428 24.0306L187.508 15.2693H186.297H185.086L185.167 24.0306Z" fill="white"/>
<path d="M200.911 24.0306L201.032 32.8323H202.041C203.051 32.8323 203.051 32.7919 203.172 28.8756L203.293 24.9593H206.281H209.228L212.983 28.9967C216.011 32.2671 216.94 33.0342 217.868 33.0342C218.474 33.0342 218.999 32.8727 218.999 32.7112C218.999 32.5093 217.384 30.6117 215.365 28.4718C213.387 26.332 211.731 24.3133 211.731 24.071C211.772 23.7884 213.387 21.81 215.365 19.7106C217.384 17.6111 218.999 15.7538 218.999 15.5923C218.999 15.3905 218.474 15.2693 217.828 15.2693C216.859 15.2693 216.011 15.9557 212.983 19.1857L209.309 23.1424L206.281 23.2635L203.253 23.425V19.3472V15.2693H202.041H200.83L200.911 24.0306Z" fill="white"/>
</svg>
