<svg width="313" height="901" viewBox="0 0 313 901" fill="none" xmlns="http://www.w3.org/2000/svg">
<g clip-path="url(#clip0_70_3123)">
<g opacity="0.2">
<rect x="-0.83417" y="0.83417" width="20.0983" height="47.6878" rx="10.0491" transform="matrix(-1 0 0 1 20.3317 -28.7148)" stroke="#3F8B89" stroke-width="1.66834"/>
<rect x="-0.83417" y="0.83417" width="20.0983" height="47.6878" rx="10.0491" transform="matrix(-1 0 0 1 20.3317 31.3252)" stroke="#3F8B89" stroke-width="1.66834"/>
<rect x="-0.83417" y="0.83417" width="20.0983" height="47.6878" rx="10.0491" transform="matrix(-1 0 0 1 20.3317 91.3662)" stroke="#3F8B89" stroke-width="1.66834"/>
<rect x="-0.83417" y="0.83417" width="20.0983" height="47.6878" rx="10.0491" transform="matrix(-1 0 0 1 20.3317 151.407)" stroke="#3F8B89" stroke-width="1.66834"/>
<rect x="-0.83417" y="0.83417" width="20.0983" height="47.6878" rx="10.0491" transform="matrix(-1 0 0 1 20.3317 211.448)" stroke="#3F8B89" stroke-width="1.66834"/>
<rect x="-0.83417" y="0.83417" width="20.0983" height="47.6878" rx="10.0491" transform="matrix(-1 0 0 1 20.3317 271.488)" stroke="#3F8B89" stroke-width="1.66834"/>
<rect x="-0.83417" y="0.83417" width="20.0983" height="47.6878" rx="10.0491" transform="matrix(-1 0 0 1 20.3317 331.528)" stroke="#3F8B89" stroke-width="1.66834"/>
<rect x="-0.83417" y="0.83417" width="20.0983" height="47.6878" rx="10.0491" transform="matrix(-1 0 0 1 20.3317 391.569)" stroke="#3F8B89" stroke-width="1.66834"/>
<rect x="-0.83417" y="0.83417" width="20.0983" height="47.6878" rx="10.0491" transform="matrix(-1 0 0 1 20.3317 451.61)" stroke="#3F8B89" stroke-width="1.66834"/>
<rect x="-0.83417" y="0.83417" width="20.0983" height="47.6878" rx="10.0491" transform="matrix(-1 0 0 1 20.3317 511.651)" stroke="#3F8B89" stroke-width="1.66834"/>
<rect x="-0.83417" y="0.83417" width="20.0983" height="47.6878" rx="10.0491" transform="matrix(-1 0 0 1 20.3317 571.692)" stroke="#3F8B89" stroke-width="1.66834"/>
<rect x="-0.83417" y="0.83417" width="20.0983" height="47.6878" rx="10.0491" transform="matrix(-1 0 0 1 20.3317 631.733)" stroke="#3F8B89" stroke-width="1.66834"/>
<rect x="-0.83417" y="0.83417" width="20.0983" height="47.6878" rx="10.0491" transform="matrix(-1 0 0 1 20.3317 691.773)" stroke="#3F8B89" stroke-width="1.66834"/>
<rect x="-0.83417" y="0.83417" width="20.0983" height="47.6878" rx="10.0491" transform="matrix(-1 0 0 1 20.3317 751.813)" stroke="#3F8B89" stroke-width="1.66834"/>
<rect x="-0.83417" y="0.83417" width="20.0983" height="47.6878" rx="10.0491" transform="matrix(-1 0 0 1 20.3317 811.854)" stroke="#3F8B89" stroke-width="1.66834"/>
<rect x="-0.83417" y="0.83417" width="20.0983" height="47.6878" rx="10.0491" transform="matrix(-1 0 0 1 20.3317 871.896)" stroke="#3F8B89" stroke-width="1.66834"/>
<line y1="-0.83417" x2="31.6838" y2="-0.83417" transform="matrix(4.37121e-08 1 1 -4.37121e-08 12.1172 9.00391)" stroke="#3F8B89" stroke-width="1.66834"/>
<line y1="-0.83417" x2="31.6838" y2="-0.83417" transform="matrix(4.37121e-08 1 1 -4.37121e-08 12.1172 69.0439)" stroke="#3F8B89" stroke-width="1.66834"/>
<line y1="-0.83417" x2="31.6838" y2="-0.83417" transform="matrix(4.37121e-08 1 1 -4.37121e-08 12.1172 129.085)" stroke="#3F8B89" stroke-width="1.66834"/>
<line y1="-0.83417" x2="31.6838" y2="-0.83417" transform="matrix(4.37121e-08 1 1 -4.37121e-08 12.1172 189.126)" stroke="#3F8B89" stroke-width="1.66834"/>
<line y1="-0.83417" x2="31.6838" y2="-0.83417" transform="matrix(4.37121e-08 1 1 -4.37121e-08 12.1172 249.166)" stroke="#3F8B89" stroke-width="1.66834"/>
<line y1="-0.83417" x2="31.6838" y2="-0.83417" transform="matrix(4.37121e-08 1 1 -4.37121e-08 12.1172 309.207)" stroke="#3F8B89" stroke-width="1.66834"/>
<line y1="-0.83417" x2="31.6838" y2="-0.83417" transform="matrix(4.37121e-08 1 1 -4.37121e-08 12.1172 369.247)" stroke="#3F8B89" stroke-width="1.66834"/>
<line y1="-0.83417" x2="31.6838" y2="-0.83417" transform="matrix(4.37121e-08 1 1 -4.37121e-08 12.1172 429.288)" stroke="#3F8B89" stroke-width="1.66834"/>
<line y1="-0.83417" x2="31.6838" y2="-0.83417" transform="matrix(4.37121e-08 1 1 -4.37121e-08 12.1172 489.329)" stroke="#3F8B89" stroke-width="1.66834"/>
<line y1="-0.83417" x2="31.6838" y2="-0.83417" transform="matrix(4.37121e-08 1 1 -4.37121e-08 12.1172 549.37)" stroke="#3F8B89" stroke-width="1.66834"/>
<line y1="-0.83417" x2="31.6838" y2="-0.83417" transform="matrix(4.37121e-08 1 1 -4.37121e-08 12.1172 609.411)" stroke="#3F8B89" stroke-width="1.66834"/>
<line y1="-0.83417" x2="31.6838" y2="-0.83417" transform="matrix(4.37121e-08 1 1 -4.37121e-08 12.1172 669.45)" stroke="#3F8B89" stroke-width="1.66834"/>
<line y1="-0.83417" x2="31.6838" y2="-0.83417" transform="matrix(4.37121e-08 1 1 -4.37121e-08 12.1172 729.491)" stroke="#3F8B89" stroke-width="1.66834"/>
<line y1="-0.83417" x2="31.6838" y2="-0.83417" transform="matrix(4.37121e-08 1 1 -4.37121e-08 12.1172 789.532)" stroke="#3F8B89" stroke-width="1.66834"/>
<line y1="-0.83417" x2="31.6838" y2="-0.83417" transform="matrix(4.37121e-08 1 1 -4.37121e-08 12.1172 849.573)" stroke="#3F8B89" stroke-width="1.66834"/>
</g>
<g opacity="0.2" clip-path="url(#clip1_70_3123)">
<rect x="-0.83417" y="0.83417" width="20.0983" height="47.6878" rx="10.0491" transform="matrix(-1 0 0 1 205.332 2.48828)" stroke="#3F8B89" stroke-width="1.66834"/>
<rect x="-0.83417" y="0.83417" width="20.0983" height="47.6878" rx="10.0491" transform="matrix(-1 0 0 1 205.332 62.5283)" stroke="#3F8B89" stroke-width="1.66834"/>
<rect x="-0.83417" y="0.83417" width="20.0983" height="47.6878" rx="10.0491" transform="matrix(-1 0 0 1 205.332 122.569)" stroke="#3F8B89" stroke-width="1.66834"/>
<rect x="-0.83417" y="0.83417" width="20.0983" height="47.6878" rx="10.0491" transform="matrix(-1 0 0 1 205.332 182.61)" stroke="#3F8B89" stroke-width="1.66834"/>
<rect x="-0.83417" y="0.83417" width="20.0983" height="47.6878" rx="10.0491" transform="matrix(-1 0 0 1 205.332 242.651)" stroke="#3F8B89" stroke-width="1.66834"/>
<rect x="-0.83417" y="0.83417" width="20.0983" height="47.6878" rx="10.0491" transform="matrix(-1 0 0 1 205.332 302.692)" stroke="#3F8B89" stroke-width="1.66834"/>
<rect x="-0.83417" y="0.83417" width="20.0983" height="47.6878" rx="10.0491" transform="matrix(-1 0 0 1 205.332 362.733)" stroke="#3F8B89" stroke-width="1.66834"/>
<rect x="-0.83417" y="0.83417" width="20.0983" height="47.6878" rx="10.0491" transform="matrix(-1 0 0 1 205.332 422.773)" stroke="#3F8B89" stroke-width="1.66834"/>
<rect x="-0.83417" y="0.83417" width="20.0983" height="47.6878" rx="10.0491" transform="matrix(-1 0 0 1 205.332 482.813)" stroke="#3F8B89" stroke-width="1.66834"/>
<rect x="-0.83417" y="0.83417" width="20.0983" height="47.6878" rx="10.0491" transform="matrix(-1 0 0 1 205.332 542.854)" stroke="#3F8B89" stroke-width="1.66834"/>
<rect x="-0.83417" y="0.83417" width="20.0983" height="47.6878" rx="10.0491" transform="matrix(-1 0 0 1 205.332 602.896)" stroke="#3F8B89" stroke-width="1.66834"/>
<line y1="-0.83417" x2="31.6838" y2="-0.83417" transform="matrix(4.37121e-08 1 1 -4.37121e-08 197.117 -19.834)" stroke="#3F8B89" stroke-width="1.66834"/>
<line y1="-0.83417" x2="31.6838" y2="-0.83417" transform="matrix(4.37121e-08 1 1 -4.37121e-08 197.117 40.207)" stroke="#3F8B89" stroke-width="1.66834"/>
<line y1="-0.83417" x2="31.6838" y2="-0.83417" transform="matrix(4.37121e-08 1 1 -4.37121e-08 197.117 100.247)" stroke="#3F8B89" stroke-width="1.66834"/>
<line y1="-0.83417" x2="31.6838" y2="-0.83417" transform="matrix(4.37121e-08 1 1 -4.37121e-08 197.117 160.288)" stroke="#3F8B89" stroke-width="1.66834"/>
<line y1="-0.83417" x2="31.6838" y2="-0.83417" transform="matrix(4.37121e-08 1 1 -4.37121e-08 197.117 220.329)" stroke="#3F8B89" stroke-width="1.66834"/>
<line y1="-0.83417" x2="31.6838" y2="-0.83417" transform="matrix(4.37121e-08 1 1 -4.37121e-08 197.117 280.37)" stroke="#3F8B89" stroke-width="1.66834"/>
<line y1="-0.83417" x2="31.6838" y2="-0.83417" transform="matrix(4.37121e-08 1 1 -4.37121e-08 197.117 340.411)" stroke="#3F8B89" stroke-width="1.66834"/>
<line y1="-0.83417" x2="31.6838" y2="-0.83417" transform="matrix(4.37121e-08 1 1 -4.37121e-08 197.117 400.45)" stroke="#3F8B89" stroke-width="1.66834"/>
<line y1="-0.83417" x2="31.6838" y2="-0.83417" transform="matrix(4.37121e-08 1 1 -4.37121e-08 197.117 460.491)" stroke="#3F8B89" stroke-width="1.66834"/>
<line y1="-0.83417" x2="31.6838" y2="-0.83417" transform="matrix(4.37121e-08 1 1 -4.37121e-08 197.117 520.532)" stroke="#3F8B89" stroke-width="1.66834"/>
<line y1="-0.83417" x2="31.6838" y2="-0.83417" transform="matrix(4.37121e-08 1 1 -4.37121e-08 197.117 580.573)" stroke="#3F8B89" stroke-width="1.66834"/>
</g>
<g opacity="0.2" clip-path="url(#clip2_70_3123)">
<rect x="-0.83417" y="0.83417" width="20.0983" height="47.6878" rx="10.0491" transform="matrix(-1 0 0 1 311.332 -45.3896)" stroke="#3F8B89" stroke-width="1.66834"/>
<rect x="-0.83417" y="0.83417" width="20.0983" height="47.6878" rx="10.0491" transform="matrix(-1 0 0 1 311.332 14.6514)" stroke="#3F8B89" stroke-width="1.66834"/>
<rect x="-0.83417" y="0.83417" width="20.0983" height="47.6878" rx="10.0491" transform="matrix(-1 0 0 1 311.332 74.6924)" stroke="#3F8B89" stroke-width="1.66834"/>
<rect x="-0.83417" y="0.83417" width="20.0983" height="47.6878" rx="10.0491" transform="matrix(-1 0 0 1 311.332 134.733)" stroke="#3F8B89" stroke-width="1.66834"/>
<rect x="-0.83417" y="0.83417" width="20.0983" height="47.6878" rx="10.0491" transform="matrix(-1 0 0 1 311.332 194.773)" stroke="#3F8B89" stroke-width="1.66834"/>
<rect x="-0.83417" y="0.83417" width="20.0983" height="47.6878" rx="10.0491" transform="matrix(-1 0 0 1 311.332 254.813)" stroke="#3F8B89" stroke-width="1.66834"/>
<rect x="-0.83417" y="0.83417" width="20.0983" height="47.6878" rx="10.0491" transform="matrix(-1 0 0 1 311.332 314.854)" stroke="#3F8B89" stroke-width="1.66834"/>
<rect x="-0.83417" y="0.83417" width="20.0983" height="47.6878" rx="10.0491" transform="matrix(-1 0 0 1 311.332 374.896)" stroke="#3F8B89" stroke-width="1.66834"/>
<line y1="-0.83417" x2="31.6838" y2="-0.83417" transform="matrix(4.37121e-08 1 1 -4.37121e-08 303.117 -7.6709)" stroke="#3F8B89" stroke-width="1.66834"/>
<line y1="-0.83417" x2="31.6838" y2="-0.83417" transform="matrix(4.37121e-08 1 1 -4.37121e-08 303.117 52.3701)" stroke="#3F8B89" stroke-width="1.66834"/>
<line y1="-0.83417" x2="31.6838" y2="-0.83417" transform="matrix(4.37121e-08 1 1 -4.37121e-08 303.117 112.411)" stroke="#3F8B89" stroke-width="1.66834"/>
<line y1="-0.83417" x2="31.6838" y2="-0.83417" transform="matrix(4.37121e-08 1 1 -4.37121e-08 303.117 172.45)" stroke="#3F8B89" stroke-width="1.66834"/>
<line y1="-0.83417" x2="31.6838" y2="-0.83417" transform="matrix(4.37121e-08 1 1 -4.37121e-08 303.117 232.491)" stroke="#3F8B89" stroke-width="1.66834"/>
<line y1="-0.83417" x2="31.6838" y2="-0.83417" transform="matrix(4.37121e-08 1 1 -4.37121e-08 303.117 292.532)" stroke="#3F8B89" stroke-width="1.66834"/>
<line y1="-0.83417" x2="31.6838" y2="-0.83417" transform="matrix(4.37121e-08 1 1 -4.37121e-08 303.117 352.573)" stroke="#3F8B89" stroke-width="1.66834"/>
</g>
<g clip-path="url(#clip3_70_3123)">
<rect x="-0.83417" y="0.83417" width="20.0983" height="47.6878" rx="10.0491" transform="matrix(-1 0 0 1 114.332 -37.5928)" stroke="#3F8B89" stroke-width="1.66834"/>
<rect x="-0.83417" y="0.83417" width="20.0983" height="47.6878" rx="10.0491" transform="matrix(-1 0 0 1 114.332 22.4482)" stroke="#3F8B89" stroke-width="1.66834"/>
<rect x="-0.83417" y="0.83417" width="20.0983" height="47.6878" rx="10.0491" transform="matrix(-1 0 0 1 114.332 82.4883)" stroke="#3F8B89" stroke-width="1.66834"/>
<rect x="-0.83417" y="0.83417" width="20.0983" height="47.6878" rx="10.0491" transform="matrix(-1 0 0 1 114.332 142.528)" stroke="#3F8B89" stroke-width="1.66834"/>
<rect x="-0.83417" y="0.83417" width="20.0983" height="47.6878" rx="10.0491" transform="matrix(-1 0 0 1 114.332 202.569)" stroke="#3F8B89" stroke-width="1.66834"/>
<rect x="-0.83417" y="0.83417" width="20.0983" height="47.6878" rx="10.0491" transform="matrix(-1 0 0 1 114.332 262.61)" stroke="#3F8B89" stroke-width="1.66834"/>
<rect x="-0.83417" y="0.83417" width="20.0983" height="47.6878" rx="10.0491" transform="matrix(-1 0 0 1 114.332 322.651)" stroke="#3F8B89" stroke-width="1.66834"/>
<rect x="-0.83417" y="0.83417" width="20.0983" height="47.6878" rx="10.0491" transform="matrix(-1 0 0 1 114.332 382.692)" stroke="#3F8B89" stroke-width="1.66834"/>
<rect x="-0.83417" y="0.83417" width="20.0983" height="47.6878" rx="10.0491" transform="matrix(-1 0 0 1 114.332 442.733)" stroke="#3F8B89" stroke-width="1.66834"/>
<rect x="-0.83417" y="0.83417" width="20.0983" height="47.6878" rx="10.0491" transform="matrix(-1 0 0 1 114.332 502.773)" stroke="#3F8B89" stroke-width="1.66834"/>
<rect x="-0.83417" y="0.83417" width="20.0983" height="47.6878" rx="10.0491" transform="matrix(-1 0 0 1 114.332 562.813)" stroke="#3F8B89" stroke-width="1.66834"/>
<rect x="-0.83417" y="0.83417" width="20.0983" height="47.6878" rx="10.0491" transform="matrix(-1 0 0 1 114.332 622.854)" stroke="#3F8B89" stroke-width="1.66834"/>
<rect x="-0.83417" y="0.83417" width="20.0983" height="47.6878" rx="10.0491" transform="matrix(-1 0 0 1 114.332 682.896)" stroke="#3F8B89" stroke-width="1.66834"/>
<line y1="-0.83417" x2="31.6838" y2="-0.83417" transform="matrix(4.37121e-08 1 1 -4.37121e-08 106.117 0.125977)" stroke="#3F8B89" stroke-width="1.66834"/>
<line y1="-0.83417" x2="31.6838" y2="-0.83417" transform="matrix(4.37121e-08 1 1 -4.37121e-08 106.117 60.166)" stroke="#3F8B89" stroke-width="1.66834"/>
<line y1="-0.83417" x2="31.6838" y2="-0.83417" transform="matrix(4.37121e-08 1 1 -4.37121e-08 106.117 120.207)" stroke="#3F8B89" stroke-width="1.66834"/>
<line y1="-0.83417" x2="31.6838" y2="-0.83417" transform="matrix(4.37121e-08 1 1 -4.37121e-08 106.117 180.247)" stroke="#3F8B89" stroke-width="1.66834"/>
<line y1="-0.83417" x2="31.6838" y2="-0.83417" transform="matrix(4.37121e-08 1 1 -4.37121e-08 106.117 240.288)" stroke="#3F8B89" stroke-width="1.66834"/>
<line y1="-0.83417" x2="31.6838" y2="-0.83417" transform="matrix(4.37121e-08 1 1 -4.37121e-08 106.117 300.329)" stroke="#3F8B89" stroke-width="1.66834"/>
<line y1="-0.83417" x2="31.6838" y2="-0.83417" transform="matrix(4.37121e-08 1 1 -4.37121e-08 106.117 360.37)" stroke="#3F8B89" stroke-width="1.66834"/>
<line y1="-0.83417" x2="31.6838" y2="-0.83417" transform="matrix(4.37121e-08 1 1 -4.37121e-08 106.117 420.411)" stroke="#3F8B89" stroke-width="1.66834"/>
<line y1="-0.83417" x2="31.6838" y2="-0.83417" transform="matrix(4.37121e-08 1 1 -4.37121e-08 106.117 480.45)" stroke="#3F8B89" stroke-width="1.66834"/>
<line y1="-0.83417" x2="31.6838" y2="-0.83417" transform="matrix(4.37121e-08 1 1 -4.37121e-08 106.117 540.491)" stroke="#3F8B89" stroke-width="1.66834"/>
<line y1="-0.83417" x2="31.6838" y2="-0.83417" transform="matrix(4.37121e-08 1 1 -4.37121e-08 106.117 600.532)" stroke="#3F8B89" stroke-width="1.66834"/>
<line y1="-0.83417" x2="31.6838" y2="-0.83417" transform="matrix(4.37121e-08 1 1 -4.37121e-08 106.117 660.573)" stroke="#3F8B89" stroke-width="1.66834"/>
</g>
</g>
<defs>
<clipPath id="clip0_70_3123">
<rect width="313" height="901" fill="white" transform="matrix(-1 0 0 1 313 0)"/>
</clipPath>
<clipPath id="clip1_70_3123">
<rect width="22" height="1101" fill="white" transform="matrix(-1 0 0 1 207 -449)"/>
</clipPath>
<clipPath id="clip2_70_3123">
<rect width="22" height="873" fill="white" transform="matrix(-1 0 0 1 313 -449)"/>
</clipPath>
<clipPath id="clip3_70_3123">
<rect width="22" height="1181" fill="white" transform="matrix(-1 0 0 1 116 -449)"/>
</clipPath>
</defs>
</svg>
