<svg width="313" height="901" viewBox="0 0 313 901" fill="none" xmlns="http://www.w3.org/2000/svg">
<g clip-path="url(#clip0_70_3308)">
<g opacity="0.2">
<rect x="291.834" y="-27.8807" width="20.0983" height="47.6878" rx="10.0491" stroke="#3F8B89" stroke-width="1.66834"/>
<rect x="291.834" y="32.1594" width="20.0983" height="47.6878" rx="10.0491" stroke="#3F8B89" stroke-width="1.66834"/>
<rect x="291.834" y="92.2004" width="20.0983" height="47.6878" rx="10.0491" stroke="#3F8B89" stroke-width="1.66834"/>
<rect x="291.834" y="152.241" width="20.0983" height="47.6878" rx="10.0491" stroke="#3F8B89" stroke-width="1.66834"/>
<rect x="291.834" y="212.282" width="20.0983" height="47.6878" rx="10.0491" stroke="#3F8B89" stroke-width="1.66834"/>
<rect x="291.834" y="272.322" width="20.0983" height="47.6878" rx="10.0491" stroke="#3F8B89" stroke-width="1.66834"/>
<rect x="291.834" y="332.362" width="20.0983" height="47.6878" rx="10.0491" stroke="#3F8B89" stroke-width="1.66834"/>
<rect x="291.834" y="392.404" width="20.0983" height="47.6878" rx="10.0491" stroke="#3F8B89" stroke-width="1.66834"/>
<rect x="291.834" y="452.445" width="20.0983" height="47.6878" rx="10.0491" stroke="#3F8B89" stroke-width="1.66834"/>
<rect x="291.834" y="512.486" width="20.0983" height="47.6878" rx="10.0491" stroke="#3F8B89" stroke-width="1.66834"/>
<rect x="291.834" y="572.527" width="20.0983" height="47.6878" rx="10.0491" stroke="#3F8B89" stroke-width="1.66834"/>
<rect x="291.834" y="632.568" width="20.0983" height="47.6878" rx="10.0491" stroke="#3F8B89" stroke-width="1.66834"/>
<rect x="291.834" y="692.608" width="20.0983" height="47.6878" rx="10.0491" stroke="#3F8B89" stroke-width="1.66834"/>
<rect x="291.834" y="752.648" width="20.0983" height="47.6878" rx="10.0491" stroke="#3F8B89" stroke-width="1.66834"/>
<rect x="291.834" y="812.689" width="20.0983" height="47.6878" rx="10.0491" stroke="#3F8B89" stroke-width="1.66834"/>
<rect x="291.834" y="872.73" width="20.0983" height="47.6878" rx="10.0491" stroke="#3F8B89" stroke-width="1.66834"/>
<line x1="301.717" y1="9.00391" x2="301.717" y2="40.6877" stroke="#3F8B89" stroke-width="1.66834"/>
<line x1="301.717" y1="69.0439" x2="301.717" y2="100.728" stroke="#3F8B89" stroke-width="1.66834"/>
<line x1="301.717" y1="129.085" x2="301.717" y2="160.769" stroke="#3F8B89" stroke-width="1.66834"/>
<line x1="301.717" y1="189.126" x2="301.717" y2="220.81" stroke="#3F8B89" stroke-width="1.66834"/>
<line x1="301.717" y1="249.166" x2="301.717" y2="280.85" stroke="#3F8B89" stroke-width="1.66834"/>
<line x1="301.717" y1="309.207" x2="301.717" y2="340.891" stroke="#3F8B89" stroke-width="1.66834"/>
<line x1="301.717" y1="369.247" x2="301.717" y2="400.931" stroke="#3F8B89" stroke-width="1.66834"/>
<line x1="301.717" y1="429.288" x2="301.717" y2="460.972" stroke="#3F8B89" stroke-width="1.66834"/>
<line x1="301.717" y1="489.329" x2="301.717" y2="521.013" stroke="#3F8B89" stroke-width="1.66834"/>
<line x1="301.717" y1="549.37" x2="301.717" y2="581.054" stroke="#3F8B89" stroke-width="1.66834"/>
<line x1="301.717" y1="609.411" x2="301.717" y2="641.095" stroke="#3F8B89" stroke-width="1.66834"/>
<line x1="301.717" y1="669.45" x2="301.717" y2="701.134" stroke="#3F8B89" stroke-width="1.66834"/>
<line x1="301.717" y1="729.491" x2="301.717" y2="761.175" stroke="#3F8B89" stroke-width="1.66834"/>
<line x1="301.717" y1="789.532" x2="301.717" y2="821.216" stroke="#3F8B89" stroke-width="1.66834"/>
<line x1="301.717" y1="849.573" x2="301.717" y2="881.257" stroke="#3F8B89" stroke-width="1.66834"/>
</g>
<g opacity="0.2" clip-path="url(#clip1_70_3308)">
<rect x="106.834" y="3.32245" width="20.0983" height="47.6878" rx="10.0491" stroke="#3F8B89" stroke-width="1.66834"/>
<rect x="106.834" y="63.3625" width="20.0983" height="47.6878" rx="10.0491" stroke="#3F8B89" stroke-width="1.66834"/>
<rect x="106.834" y="123.404" width="20.0983" height="47.6878" rx="10.0491" stroke="#3F8B89" stroke-width="1.66834"/>
<rect x="106.834" y="183.445" width="20.0983" height="47.6878" rx="10.0491" stroke="#3F8B89" stroke-width="1.66834"/>
<rect x="106.834" y="243.486" width="20.0983" height="47.6878" rx="10.0491" stroke="#3F8B89" stroke-width="1.66834"/>
<rect x="106.834" y="303.527" width="20.0983" height="47.6878" rx="10.0491" stroke="#3F8B89" stroke-width="1.66834"/>
<rect x="106.834" y="363.568" width="20.0983" height="47.6878" rx="10.0491" stroke="#3F8B89" stroke-width="1.66834"/>
<rect x="106.834" y="423.608" width="20.0983" height="47.6878" rx="10.0491" stroke="#3F8B89" stroke-width="1.66834"/>
<rect x="106.834" y="483.648" width="20.0983" height="47.6878" rx="10.0491" stroke="#3F8B89" stroke-width="1.66834"/>
<rect x="106.834" y="543.689" width="20.0983" height="47.6878" rx="10.0491" stroke="#3F8B89" stroke-width="1.66834"/>
<rect x="106.834" y="603.73" width="20.0983" height="47.6878" rx="10.0491" stroke="#3F8B89" stroke-width="1.66834"/>
<line x1="116.717" y1="-19.834" x2="116.717" y2="11.8498" stroke="#3F8B89" stroke-width="1.66834"/>
<line x1="116.717" y1="40.207" x2="116.717" y2="71.8908" stroke="#3F8B89" stroke-width="1.66834"/>
<line x1="116.717" y1="100.247" x2="116.717" y2="131.931" stroke="#3F8B89" stroke-width="1.66834"/>
<line x1="116.717" y1="160.288" x2="116.717" y2="191.972" stroke="#3F8B89" stroke-width="1.66834"/>
<line x1="116.717" y1="220.329" x2="116.717" y2="252.013" stroke="#3F8B89" stroke-width="1.66834"/>
<line x1="116.717" y1="280.37" x2="116.717" y2="312.054" stroke="#3F8B89" stroke-width="1.66834"/>
<line x1="116.717" y1="340.411" x2="116.717" y2="372.095" stroke="#3F8B89" stroke-width="1.66834"/>
<line x1="116.717" y1="400.45" x2="116.717" y2="432.134" stroke="#3F8B89" stroke-width="1.66834"/>
<line x1="116.717" y1="460.491" x2="116.717" y2="492.175" stroke="#3F8B89" stroke-width="1.66834"/>
<line x1="116.717" y1="520.532" x2="116.717" y2="552.216" stroke="#3F8B89" stroke-width="1.66834"/>
<line x1="116.717" y1="580.573" x2="116.717" y2="612.257" stroke="#3F8B89" stroke-width="1.66834"/>
</g>
<g opacity="0.2" clip-path="url(#clip2_70_3308)">
<rect x="0.83417" y="-44.5555" width="20.0983" height="47.6878" rx="10.0491" stroke="#3F8B89" stroke-width="1.66834"/>
<rect x="0.83417" y="15.4855" width="20.0983" height="47.6878" rx="10.0491" stroke="#3F8B89" stroke-width="1.66834"/>
<rect x="0.83417" y="75.5266" width="20.0983" height="47.6878" rx="10.0491" stroke="#3F8B89" stroke-width="1.66834"/>
<rect x="0.83417" y="135.568" width="20.0983" height="47.6878" rx="10.0491" stroke="#3F8B89" stroke-width="1.66834"/>
<rect x="0.83417" y="195.608" width="20.0983" height="47.6878" rx="10.0491" stroke="#3F8B89" stroke-width="1.66834"/>
<rect x="0.83417" y="255.648" width="20.0983" height="47.6878" rx="10.0491" stroke="#3F8B89" stroke-width="1.66834"/>
<rect x="0.83417" y="315.689" width="20.0983" height="47.6878" rx="10.0491" stroke="#3F8B89" stroke-width="1.66834"/>
<rect x="0.83417" y="375.73" width="20.0983" height="47.6878" rx="10.0491" stroke="#3F8B89" stroke-width="1.66834"/>
<line x1="10.717" y1="-7.6709" x2="10.717" y2="24.0129" stroke="#3F8B89" stroke-width="1.66834"/>
<line x1="10.717" y1="52.3701" x2="10.717" y2="84.0539" stroke="#3F8B89" stroke-width="1.66834"/>
<line x1="10.717" y1="112.411" x2="10.717" y2="144.095" stroke="#3F8B89" stroke-width="1.66834"/>
<line x1="10.717" y1="172.45" x2="10.717" y2="204.134" stroke="#3F8B89" stroke-width="1.66834"/>
<line x1="10.717" y1="232.491" x2="10.717" y2="264.175" stroke="#3F8B89" stroke-width="1.66834"/>
<line x1="10.717" y1="292.532" x2="10.717" y2="324.216" stroke="#3F8B89" stroke-width="1.66834"/>
<line x1="10.717" y1="352.573" x2="10.717" y2="384.257" stroke="#3F8B89" stroke-width="1.66834"/>
</g>
<g clip-path="url(#clip3_70_3308)">
<rect x="197.834" y="-36.7586" width="20.0983" height="47.6878" rx="10.0491" stroke="#3F8B89" stroke-width="1.66834"/>
<rect x="197.834" y="23.2824" width="20.0983" height="47.6878" rx="10.0491" stroke="#3F8B89" stroke-width="1.66834"/>
<rect x="197.834" y="83.3225" width="20.0983" height="47.6878" rx="10.0491" stroke="#3F8B89" stroke-width="1.66834"/>
<rect x="197.834" y="143.362" width="20.0983" height="47.6878" rx="10.0491" stroke="#3F8B89" stroke-width="1.66834"/>
<rect x="197.834" y="203.404" width="20.0983" height="47.6878" rx="10.0491" stroke="#3F8B89" stroke-width="1.66834"/>
<rect x="197.834" y="263.445" width="20.0983" height="47.6878" rx="10.0491" stroke="#3F8B89" stroke-width="1.66834"/>
<rect x="197.834" y="323.486" width="20.0983" height="47.6878" rx="10.0491" stroke="#3F8B89" stroke-width="1.66834"/>
<rect x="197.834" y="383.527" width="20.0983" height="47.6878" rx="10.0491" stroke="#3F8B89" stroke-width="1.66834"/>
<rect x="197.834" y="443.568" width="20.0983" height="47.6878" rx="10.0491" stroke="#3F8B89" stroke-width="1.66834"/>
<rect x="197.834" y="503.608" width="20.0983" height="47.6878" rx="10.0491" stroke="#3F8B89" stroke-width="1.66834"/>
<rect x="197.834" y="563.648" width="20.0983" height="47.6878" rx="10.0491" stroke="#3F8B89" stroke-width="1.66834"/>
<rect x="197.834" y="623.689" width="20.0983" height="47.6878" rx="10.0491" stroke="#3F8B89" stroke-width="1.66834"/>
<rect x="197.834" y="683.73" width="20.0983" height="47.6878" rx="10.0491" stroke="#3F8B89" stroke-width="1.66834"/>
<line x1="207.717" y1="0.125977" x2="207.717" y2="31.8098" stroke="#3F8B89" stroke-width="1.66834"/>
<line x1="207.717" y1="60.166" x2="207.717" y2="91.8498" stroke="#3F8B89" stroke-width="1.66834"/>
<line x1="207.717" y1="120.207" x2="207.717" y2="151.891" stroke="#3F8B89" stroke-width="1.66834"/>
<line x1="207.717" y1="180.247" x2="207.717" y2="211.931" stroke="#3F8B89" stroke-width="1.66834"/>
<line x1="207.717" y1="240.288" x2="207.717" y2="271.972" stroke="#3F8B89" stroke-width="1.66834"/>
<line x1="207.717" y1="300.329" x2="207.717" y2="332.013" stroke="#3F8B89" stroke-width="1.66834"/>
<line x1="207.717" y1="360.37" x2="207.717" y2="392.054" stroke="#3F8B89" stroke-width="1.66834"/>
<line x1="207.717" y1="420.411" x2="207.717" y2="452.095" stroke="#3F8B89" stroke-width="1.66834"/>
<line x1="207.717" y1="480.45" x2="207.717" y2="512.134" stroke="#3F8B89" stroke-width="1.66834"/>
<line x1="207.717" y1="540.491" x2="207.717" y2="572.175" stroke="#3F8B89" stroke-width="1.66834"/>
<line x1="207.717" y1="600.532" x2="207.717" y2="632.216" stroke="#3F8B89" stroke-width="1.66834"/>
<line x1="207.717" y1="660.573" x2="207.717" y2="692.257" stroke="#3F8B89" stroke-width="1.66834"/>
</g>
</g>
<defs>
<clipPath id="clip0_70_3308">
<rect width="313" height="901" fill="white"/>
</clipPath>
<clipPath id="clip1_70_3308">
<rect width="22" height="1101" fill="white" transform="translate(106 -449)"/>
</clipPath>
<clipPath id="clip2_70_3308">
<rect width="22" height="873" fill="white" transform="translate(0 -449)"/>
</clipPath>
<clipPath id="clip3_70_3308">
<rect width="22" height="1181" fill="white" transform="translate(197 -449)"/>
</clipPath>
</defs>
</svg>
