<svg xmlns="http://www.w3.org/2000/svg" width="91" height="90" viewBox="0 0 91 90" fill="none">
  <circle cx="45.5" cy="45" r="45" fill="#388F7F"/>
  <path d="M27.817 25.1398C26.8855 25.4764 26.1967 26.1026 25.7505 27.0106L25.5 27.5273V44.9441V62.3609L25.7505 62.8776C26.2045 63.8091 26.909 64.4275 27.8562 64.7484C28.3102 64.905 28.5372 64.905 45.6566 64.8893L62.9951 64.8658L63.5431 64.5997C64.2632 64.2474 64.8816 63.629 65.2339 62.9089L65.5 62.3609V44.9441V27.5273L65.2339 26.9793C64.8816 26.2592 64.2632 25.6408 63.5431 25.2885L62.9951 25.0224L45.6174 25.0067C28.6233 24.9911 28.2319 24.9911 27.817 25.1398ZM62.5646 27.5429C62.7133 27.6369 62.909 27.8326 62.9951 27.9735C63.1438 28.2161 63.1517 28.3962 63.1751 31.3003L63.1986 34.3766H45.5H27.8014L27.8249 31.3003C27.8483 28.2944 27.8483 28.224 28.0205 27.9578C28.2084 27.6525 28.4354 27.4881 28.7877 27.402C28.9207 27.3707 36.5059 27.3551 45.6566 27.3551L62.2906 27.3707L62.5646 27.5429ZM63.1751 49.1868C63.1517 61.4999 63.1517 61.6564 62.9951 61.9148C62.909 62.0557 62.7133 62.2514 62.5646 62.3453L62.2906 62.5175H45.5H28.7094L28.4354 62.3453C28.2867 62.2514 28.091 62.0557 28.0049 61.9148C27.8483 61.6564 27.8483 61.4999 27.8249 49.1868L27.8092 36.7249H45.5H63.1908L63.1751 49.1868Z" fill="#F1F7F6"/>
  <path d="M30.751 29.8287C30.3909 30.0713 30.2344 30.3688 30.2344 30.8541C30.2344 31.5977 30.6649 32.0283 31.4085 32.0283C32.1522 32.0283 32.5827 31.5977 32.5827 30.8541C32.5827 30.1105 32.1522 29.6799 31.4085 29.6799C31.1189 29.6799 30.9076 29.7269 30.751 29.8287Z" fill="#F1F7F6"/>
  <path d="M35.4502 29.8287C35.0901 30.0713 34.9336 30.3688 34.9336 30.8541C34.9336 31.5977 35.3641 32.0283 36.1078 32.0283C36.8514 32.0283 37.2819 31.5977 37.2819 30.8541C37.2819 30.1105 36.8514 29.6799 36.1078 29.6799C35.8181 29.6799 35.6068 29.7269 35.4502 29.8287Z" fill="#F1F7F6"/>
  <path d="M40.1455 29.8287C39.7855 30.0713 39.6289 30.3688 39.6289 30.8541C39.6289 31.5977 40.0594 32.0283 40.8031 32.0283C41.5467 32.0283 41.9772 31.5977 41.9772 30.8541C41.9772 30.1105 41.5467 29.6799 40.8031 29.6799C40.5134 29.6799 40.3021 29.7269 40.1455 29.8287Z" fill="#F1F7F6"/>
  <path d="M51.8877 29.8287C51.5276 30.0713 51.3711 30.3688 51.3711 30.8541C51.3711 31.3394 51.5276 31.6369 51.8877 31.8795C52.0991 32.0204 52.3261 32.0283 56.0678 32.0283C59.8095 32.0283 60.0365 32.0204 60.2478 31.8795C60.6079 31.6369 60.7644 31.3394 60.7644 30.8541C60.7644 30.3688 60.6079 30.0713 60.2478 29.8287C60.0365 29.6878 59.8095 29.6799 56.0678 29.6799C52.3261 29.6799 52.0991 29.6878 51.8877 29.8287Z" fill="#F1F7F6"/>
  <path d="M48.3428 40.4118C48.2098 40.4979 48.0219 40.7171 47.9358 40.8971C47.8497 41.0772 46.2137 44.8893 44.2959 49.3668C41.2352 56.4979 40.8047 57.5547 40.8047 57.8991C40.8047 58.6036 41.2509 59.0341 41.971 59.0341C42.5033 59.0341 42.8556 58.8306 43.0669 58.3844C43.153 58.2044 44.789 54.3922 46.7068 49.9147C49.7675 42.7836 50.198 41.7269 50.198 41.3825C50.198 40.9441 50.0337 40.631 49.6814 40.3962C49.3683 40.1926 48.6794 40.2005 48.3428 40.4118Z" fill="#F1F7F6"/>
  <path d="M37.6332 44.0517C36.1225 45.2024 31.6606 48.8345 31.5511 49.0067C31.3632 49.2807 31.3632 50.0009 31.5511 50.2748C31.6215 50.3922 32.9444 51.4881 34.4786 52.7171C38.3143 55.7934 37.915 55.5116 38.4395 55.5116C38.9405 55.5116 39.2379 55.3629 39.4806 54.995C39.6763 54.6975 39.6841 53.9852 39.4884 53.6956C39.418 53.586 38.2908 52.6388 36.9835 51.5977C35.6841 50.5566 34.6195 49.6721 34.6195 49.6408C34.6195 49.6095 35.6841 48.7249 36.9835 47.6838C38.2908 46.6427 39.418 45.6956 39.4884 45.586C39.6841 45.2964 39.6763 44.584 39.4806 44.2866C39.2379 43.9187 38.9405 43.7699 38.4395 43.7699C38.0559 43.7699 37.9542 43.8012 37.6332 44.0517Z" fill="#F1F7F6"/>
  <path d="M51.8897 43.9187C51.7723 43.9969 51.6001 44.1691 51.5218 44.2866C51.3261 44.584 51.3183 45.2964 51.514 45.586C51.5845 45.6956 52.7117 46.6427 54.0189 47.6838C55.3183 48.7249 56.3829 49.6095 56.3829 49.6408C56.3829 49.6721 55.3183 50.5566 54.0189 51.5977C52.7117 52.6388 51.5845 53.586 51.514 53.6956C51.3183 53.9852 51.3261 54.6975 51.5218 54.995C51.7645 55.3629 52.062 55.5116 52.5629 55.5116C53.0874 55.5116 52.6882 55.7934 56.5238 52.7171C58.058 51.4881 59.3809 50.3922 59.4514 50.2748C59.6393 50.0009 59.6393 49.2807 59.4514 49.0067C59.3809 48.8893 58.058 47.7934 56.5238 46.5645C52.6882 43.4881 53.0874 43.7699 52.5629 43.7699C52.2576 43.7699 52.0463 43.8169 51.8897 43.9187Z" fill="#F1F7F6"/>
</svg>