<svg xmlns="http://www.w3.org/2000/svg" width="91" height="90" viewBox="0 0 91 90" fill="none">
  <circle cx="45.5" cy="45" r="45" fill="#388F7F"/>
  <path d="M44.5404 27.8066C41.6029 28.1895 39.1889 30.5098 38.6186 33.502C38.4936 34.1348 38.517 35.502 38.6576 36.1738C39.3217 39.4082 42.1654 41.7051 45.4936 41.7051C48.8217 41.7051 51.6654 39.4082 52.3295 36.1738C52.4701 35.502 52.4936 34.1348 52.3686 33.502C52.0717 31.9473 51.4076 30.7285 50.2357 29.6191C49.1889 28.627 47.8217 27.9863 46.3451 27.7988C45.6107 27.7129 45.2904 27.7129 44.5404 27.8066ZM46.8373 30.377C48.7123 30.9551 50.0326 32.7441 50.0326 34.7051C50.0248 35.9941 49.5951 37.0566 48.6889 37.9551C47.8373 38.8145 46.6967 39.2832 45.4936 39.2832C44.2904 39.2832 43.1498 38.8145 42.2982 37.9551C41.3998 37.0566 40.9623 35.9941 40.9545 34.7129C40.9545 32.5176 42.5561 30.6113 44.7357 30.2207C45.2904 30.127 46.2514 30.1973 46.8373 30.377Z" fill="#DCE9E7"/>
  <path d="M32.2443 34.3223C28.9397 35.041 27.1272 38.6582 28.5725 41.666C29.6662 43.9629 32.1584 45.1348 34.6037 44.5176C37.8303 43.6973 39.4787 40.127 38.0022 37.1348C36.9475 35.002 34.5334 33.8223 32.2443 34.3223ZM34.4397 36.8926C35.7131 37.4707 36.4162 38.9785 36.0022 40.2363C35.1662 42.752 31.8693 42.9629 30.7522 40.5723C30.5647 40.1738 30.5334 40.002 30.5334 39.4395C30.5334 38.8457 30.5647 38.7129 30.7912 38.252C31.049 37.7207 31.5412 37.2051 32.0178 36.9551C32.7365 36.5801 33.7053 36.5566 34.4397 36.8926Z" fill="#DCE9E7"/>
  <path d="M56.5485 34.3301C53.236 35.0723 51.486 38.752 52.9938 41.7988C53.8766 43.5801 55.6657 44.6738 57.6813 44.6738C60.5798 44.6738 62.9079 42.3535 62.9157 39.4551C62.9235 37.1895 61.3923 35.1191 59.2048 34.4395C58.4782 34.2129 57.2907 34.166 56.5485 34.3301ZM58.3454 36.7363C59.1891 36.9551 59.8141 37.4707 60.197 38.252C60.4235 38.7129 60.4548 38.8457 60.4548 39.4395C60.4548 40.002 60.4235 40.1738 60.236 40.5723C59.7595 41.5957 58.7673 42.252 57.6813 42.252C56.0798 42.252 54.7907 40.8848 54.8845 39.2988C54.986 37.5488 56.6891 36.291 58.3454 36.7363Z" fill="#DCE9E7"/>
  <path d="M41.4708 42.2988C40.8615 42.377 40.2521 42.5332 39.7833 42.7207C38.7052 43.1582 37.6036 44.0801 37.0333 45.0488C36.8068 45.416 36.7599 45.4551 36.588 45.4082C36.2365 45.3066 30.8068 45.2832 30.2599 45.377C28.2365 45.7285 26.4318 47.3066 25.7443 49.3379L25.5333 49.9473L25.5099 54.002C25.4865 57.9316 25.4943 58.0645 25.6505 58.541C26.0724 59.8066 27.1818 60.7363 28.4786 60.9238C29.1349 61.0254 61.8536 61.0254 62.5099 60.9238C63.8068 60.7363 64.9161 59.8066 65.338 58.541C65.4943 58.0645 65.5021 57.9316 65.4786 54.002L65.4552 49.9473L65.2443 49.3379C64.5568 47.3066 62.7521 45.7285 60.7286 45.377C60.1818 45.2832 54.7521 45.3066 54.4005 45.4082C54.2286 45.4551 54.1818 45.416 53.9552 45.0488C53.3927 44.0957 52.2833 43.1582 51.2443 42.7363C50.1896 42.3066 50.2052 42.3066 45.8068 42.291C43.549 42.2754 41.6036 42.2832 41.4708 42.2988ZM49.4786 44.752C50.7443 44.9551 51.8302 45.8848 52.2755 47.1582C52.3849 47.4863 52.4005 48.166 52.424 53.0488L52.4552 58.5801H45.4943H38.5333L38.5646 53.0488C38.588 48.166 38.6036 47.4863 38.713 47.1582C39.1505 45.916 40.2443 44.9551 41.4318 44.7598C42.0411 44.666 48.8536 44.6582 49.4786 44.752ZM35.9474 47.7676L36.1193 47.8145V53.1973V58.5879L32.3927 58.5645L28.6583 58.541L28.4005 58.3613C27.8615 57.9785 27.8771 58.0723 27.8771 54.166C27.8771 50.6738 27.8771 50.6504 28.0646 50.1191C28.4161 49.0879 29.299 48.2051 30.299 47.8848C30.7208 47.7441 31.0099 47.7285 33.2677 47.7285C34.6427 47.7207 35.8458 47.7441 35.9474 47.7676ZM60.6583 47.877C61.6818 48.1973 62.5646 49.0723 62.924 50.1191C63.1115 50.6504 63.1115 50.6738 63.1115 54.166C63.1115 58.0723 63.1271 57.9785 62.588 58.3613L62.3302 58.541L58.6036 58.5645L54.8693 58.5879V53.1973C54.8693 48.1348 54.8771 47.8066 55.0099 47.7754C55.0802 47.752 56.2755 47.7363 57.6505 47.7285C59.963 47.7207 60.2052 47.7363 60.6583 47.877Z" fill="#DCE9E7"/>
</svg>