<svg width="786" height="303" viewBox="0 0 786 303" fill="none" xmlns="http://www.w3.org/2000/svg">
<path d="M353.863 30.396C280.688 58.0093 274.705 45.3533 274.705 45.3533L276.317 70.4333C276.317 70.4333 284.371 75.036 295.416 71.8147C306.461 68.5947 312.444 59.156 312.444 59.156C312.444 59.156 335.455 68.5947 356.853 68.1333C356.853 68.1333 321.647 57.3173 319.577 53.4067C317.505 49.4947 374.341 62.1506 389.528 63.0706C404.716 63.9906 468.455 68.5947 513.556 65.372C558.656 62.1507 699.48 43.7426 775.415 75.036H785.079C785.079 75.036 754.244 54.7866 711.445 50.6453C668.647 46.504 626.307 48.344 619.403 45.3533C612.5 42.3613 558.196 6.00534 517.237 1.40267C509.165 0.496003 500.767 1.62046e-07 491.931 1.62046e-07C455.935 -0.00133317 412.615 8.22533 353.863 30.396ZM459.941 53.8667C415.76 53.1773 384.352 54.212 375.723 44.2013C367.093 34.1933 378.139 32.4667 398.157 25.564C418.176 18.6613 478.925 2.43866 523.503 12.1027C568.081 21.7667 599.731 46.6186 599.731 46.6186L575.568 48.344C582.817 42.8213 581.78 38.68 571.081 37.5173C560.383 36.356 551.408 34.884 550.027 40.7506C548.647 46.6186 562.452 50.0693 562.452 50.0693C562.452 50.0693 512.153 53.9386 469.595 53.9386C466.321 53.9386 463.096 53.916 459.941 53.8667Z" fill="url(#paint0_radial_2285_6794)"/>
<path d="M396.917 219.047H361.237V166.599H314.677V219.047H279V85.2534H314.677V135.561H361.237V85.2534H396.917V219.047Z" fill="#FFF"/>
<path d="M523.644 85.2551V174.451C523.644 183.371 522.574 190.772 520.433 196.66C518.293 202.546 514.93 207.216 510.353 210.663C505.774 214.114 499.945 216.55 492.872 217.978C485.793 219.403 477.38 220.118 467.629 220.118C454.189 220.118 443.576 219.254 435.788 217.531C427.996 215.81 422.049 213.071 417.948 209.324C413.846 205.578 411.228 200.852 410.098 195.143C408.968 189.435 408.404 182.54 408.404 174.451V85.2551H444.081V173.736C444.081 177.543 444.618 180.488 445.688 182.567C446.757 184.648 448.274 186.166 450.237 187.116C452.2 188.07 454.634 188.631 457.55 188.81C460.464 188.99 463.822 189.079 467.629 189.079C471.433 189.079 474.613 188.931 477.174 188.631C479.729 188.336 481.813 187.622 483.417 186.492C485.021 185.362 486.182 183.668 486.894 181.407C487.609 179.15 487.966 176.055 487.966 172.132V85.2551H523.644Z" fill="#FFF"/>
<path d="M580.728 188.007H636.564V219.048H545.051V85.2551H580.728V188.007Z" fill="#FFF"/>
<path d="M686.156 135.562H696.858L731.288 85.2554H774.46L727.365 150.902L778.385 219.047H734.144L696.858 166.601H686.156V219.047H650.478V85.2554H686.156V135.562Z" fill="#FFF"/>
<path d="M271.765 260.112V241.705H268V239.022H278.544V241.705H274.779V260.112H271.765Z" fill="#FFF"/>
<path d="M282.931 260.112V239.022H291.216V241.281H285.944V248.061H289.71V250.32H285.944V257.852H291.216V260.112H282.931Z" fill="#FFF"/>
<path d="M301.371 260.324C300.484 260.324 299.703 260.199 299.028 259.947C298.353 259.695 297.8 259.348 297.369 258.905C296.937 258.463 296.585 257.909 296.316 257.244C296.044 256.583 295.855 255.876 295.745 255.121C295.635 254.369 295.58 253.516 295.58 252.568V246.555C295.58 245.604 295.635 244.753 295.745 244C295.855 243.248 296.044 242.539 296.316 241.876C296.585 241.213 296.937 240.663 297.369 240.221C297.8 239.783 298.353 239.439 299.028 239.185C299.703 238.935 300.484 238.809 301.371 238.809C302.351 238.809 303.197 238.955 303.913 239.247C304.627 239.535 305.197 239.963 305.624 240.528C306.052 241.092 306.375 241.748 306.589 242.493C306.805 243.239 306.932 244.109 306.972 245.107C306.98 245.255 306.984 245.487 306.984 245.8H303.971V245.129C303.963 244.713 303.948 244.36 303.924 244.064C303.9 243.771 303.857 243.467 303.795 243.153C303.731 242.837 303.64 242.579 303.517 242.371C303.396 242.161 303.244 241.969 303.059 241.793C302.875 241.616 302.641 241.488 302.359 241.405C302.076 241.323 301.747 241.28 301.371 241.28C300.884 241.28 300.465 241.361 300.116 241.517C299.768 241.675 299.495 241.876 299.299 242.121C299.103 242.371 298.952 242.701 298.847 243.117C298.74 243.533 298.671 243.939 298.639 244.335C298.608 244.731 298.592 245.221 298.592 245.8V253.333C298.592 253.835 298.615 254.291 298.657 254.699C298.701 255.105 298.784 255.513 298.909 255.916C299.036 256.32 299.199 256.659 299.399 256.933C299.599 257.209 299.865 257.431 300.199 257.599C300.532 257.768 300.923 257.851 301.371 257.851C301.817 257.851 302.203 257.767 302.523 257.593C302.845 257.419 303.099 257.2 303.283 256.933C303.467 256.668 303.612 256.325 303.719 255.911C303.824 255.495 303.893 255.089 303.924 254.699C303.955 254.307 303.971 253.851 303.971 253.333V252.579H306.984V253.333C306.984 254.423 306.888 255.381 306.696 256.204C306.503 257.028 306.193 257.755 305.765 258.388C305.339 259.02 304.757 259.501 304.024 259.829C303.291 260.159 302.405 260.324 301.371 260.324Z" fill="#FFF"/>
<path d="M311.877 260.112V239.022H314.89V248.061H320.162V239.022H323.176V260.112H320.162V250.32H314.89V260.112H311.877Z" fill="#FFF"/>
<path d="M329.08 260.112V239.022H331.34L336.612 252.062V239.022H339.624V260.112H337.483L332.094 246.084V260.112H329.08Z" fill="#FFF"/>
<path d="M348.773 256.898C349.178 257.533 349.91 257.852 350.967 257.852C352.026 257.852 352.758 257.533 353.163 256.898C353.566 256.262 353.77 255.325 353.77 254.085V244.93C353.77 243.706 353.569 242.79 353.167 242.186C352.767 241.582 352.035 241.281 350.967 241.281C349.901 241.281 349.167 241.582 348.766 242.186C348.367 242.79 348.166 243.706 348.166 244.93V254.085C348.166 255.325 348.367 256.262 348.773 256.898ZM350.967 260.324C349.91 260.324 349.001 260.162 348.242 259.841C347.486 259.518 346.885 259.049 346.437 258.429C345.989 257.809 345.665 257.081 345.461 256.245C345.255 255.41 345.154 254.438 345.154 253.333V245.682C345.154 244.577 345.255 243.613 345.461 242.789C345.665 241.962 345.989 241.249 346.437 240.641C346.885 240.032 347.486 239.576 348.242 239.269C349.001 238.962 349.91 238.81 350.967 238.81C353.022 238.81 354.506 239.398 355.417 240.576C356.326 241.753 356.782 243.456 356.782 245.682V253.333C356.782 254.424 356.677 255.385 356.469 256.222C356.262 257.057 355.934 257.786 355.486 258.41C355.039 259.036 354.437 259.509 353.681 259.834C352.923 260.161 352.019 260.324 350.967 260.324Z" fill="#FFF"/>
<path d="M362.309 260.112V239.022H365.321V257.852H370.596V260.112H362.309Z" fill="#FFF"/>
<path d="M378.13 256.898C378.536 257.533 379.268 257.852 380.325 257.852C381.384 257.852 382.116 257.533 382.521 256.898C382.924 256.262 383.128 255.325 383.128 254.085V244.93C383.128 243.706 382.926 242.79 382.526 242.186C382.125 241.582 381.393 241.281 380.325 241.281C379.258 241.281 378.525 241.582 378.124 242.186C377.725 242.79 377.524 243.706 377.524 244.93V254.085C377.524 255.325 377.725 256.262 378.13 256.898ZM380.325 260.324C379.268 260.324 378.358 260.162 377.601 259.841C376.844 259.518 376.242 259.049 375.794 258.429C375.346 257.809 375.022 257.081 374.818 256.245C374.613 255.41 374.512 254.438 374.512 253.333V245.682C374.512 244.577 374.613 243.613 374.818 242.789C375.022 241.962 375.346 241.249 375.794 240.641C376.242 240.032 376.844 239.576 377.601 239.269C378.358 238.962 379.268 238.81 380.325 238.81C382.38 238.81 383.864 239.398 384.774 240.576C385.684 241.753 386.14 243.456 386.14 245.682V253.333C386.14 254.424 386.034 255.385 385.826 256.222C385.621 257.057 385.292 257.786 384.844 258.41C384.396 259.036 383.794 259.509 383.038 259.834C382.281 260.161 381.378 260.324 380.325 260.324Z" fill="#FFF"/>
<path d="M397.318 260.324C396.351 260.324 395.514 260.185 394.804 259.912C394.092 259.637 393.515 259.263 393.068 258.793C392.62 258.324 392.264 257.721 391.996 256.992C391.73 256.263 391.546 255.495 391.443 254.687C391.343 253.877 391.291 252.948 391.291 251.896V246.555C391.291 241.392 393.339 238.809 397.434 238.809C398.414 238.809 399.267 238.957 399.987 239.251C400.71 239.547 401.294 239.976 401.742 240.54C402.19 241.105 402.526 241.767 402.754 242.523C402.982 243.281 403.114 244.156 403.154 245.153C403.16 245.295 403.166 245.509 403.166 245.8H400.154V245.165C400.144 244.671 400.119 244.245 400.076 243.887C400.032 243.532 399.954 243.18 399.842 242.836C399.727 242.489 399.571 242.209 399.376 241.995C399.179 241.777 398.92 241.605 398.592 241.475C398.268 241.345 397.882 241.28 397.434 241.28C396.823 241.28 396.306 241.392 395.887 241.616C395.467 241.84 395.144 242.167 394.92 242.593C394.698 243.021 394.538 243.492 394.444 244.005C394.35 244.521 394.303 245.119 394.303 245.8V252.579C394.303 253.083 394.319 253.535 394.35 253.94C394.382 254.343 394.435 254.753 394.51 255.175C394.586 255.593 394.695 255.957 394.838 256.263C394.984 256.569 395.164 256.847 395.38 257.092C395.596 257.339 395.868 257.529 396.192 257.657C396.519 257.787 396.892 257.851 397.318 257.851C397.819 257.851 398.254 257.753 398.623 257.559C398.991 257.361 399.284 257.108 399.499 256.8C399.715 256.489 399.887 256.095 400.012 255.616C400.138 255.136 400.222 254.663 400.264 254.192C400.307 253.72 400.33 253.183 400.33 252.579V251.827H397.318V249.589H403.342V260.112H401.082L400.33 257.851C399.742 259.501 398.736 260.324 397.318 260.324Z" fill="#FFF"/>
<path d="M411.648 260.112V253.333L407.128 239.022H410.143L413.155 249.568L416.167 239.022H419.18L414.66 253.333V260.112H411.648Z" fill="#FFF"/>
<path d="M436.237 248.061C436.741 247.432 437.177 246.626 437.55 245.642C437.922 244.657 438.109 243.706 438.109 242.789C438.109 242.332 437.972 241.968 437.696 241.694C437.424 241.42 437.058 241.281 436.602 241.281C436.092 241.281 435.713 241.505 435.468 241.948C435.22 242.39 435.096 242.921 435.096 243.541C435.096 244.051 435.164 244.604 435.294 245.201C435.429 245.797 435.564 246.284 435.696 246.666C435.83 247.048 436.009 247.51 436.237 248.061ZM435.85 257.852C436.806 257.852 437.685 257.35 438.487 256.345L437.039 254.193C436.936 254.028 436.761 253.785 436.514 253.467C436.266 253.149 436.055 252.857 435.873 252.586C435.692 252.315 435.564 252.062 435.485 251.827C435.139 252.281 434.862 252.843 434.654 253.51C434.446 254.177 434.342 254.87 434.342 255.593C434.342 256.252 434.461 256.793 434.696 257.216C434.93 257.641 435.316 257.852 435.85 257.852ZM435.85 260.324C434.454 260.324 433.35 259.893 432.542 259.029C431.734 258.168 431.329 257.021 431.329 255.593C431.329 253.349 432.334 251.34 434.342 249.568C434.232 249.34 434.007 248.909 433.66 248.278C433.315 247.648 433.053 247.141 432.872 246.761C432.69 246.381 432.516 245.886 432.341 245.277C432.169 244.669 432.084 244.091 432.084 243.541C432.084 242.129 432.49 240.988 433.308 240.117C434.122 239.246 435.221 238.81 436.602 238.81C437.898 238.81 438.974 239.168 439.833 239.886C440.693 240.605 441.122 241.572 441.122 242.789C441.122 243.337 441.036 243.894 440.862 244.458C440.69 245.025 440.485 245.526 440.245 245.966C440.007 246.405 439.697 246.87 439.321 247.361C438.945 247.85 438.616 248.248 438.339 248.549C438.06 248.852 437.732 249.192 437.356 249.568L440.368 254.085C440.509 253.772 440.632 253.381 440.733 252.908C440.836 252.438 440.902 252.072 440.938 251.809C440.974 251.545 441.036 251.05 441.122 250.32H444.134C444.134 251.277 443.951 252.27 443.581 253.298C443.213 254.325 442.774 255.224 442.264 255.992C442.852 256.73 443.477 257.1 444.134 257.1V260.324C443.937 260.324 443.752 260.313 443.576 260.296C443.399 260.276 443.221 260.23 443.04 260.165C442.858 260.098 442.707 260.042 442.581 260C442.456 259.957 442.304 259.874 442.128 259.754C441.95 259.63 441.823 259.547 441.745 259.505C441.667 259.462 441.539 259.358 441.357 259.194C441.176 259.029 441.067 258.93 441.029 258.898C440.988 258.867 440.869 258.755 440.674 258.562C440.478 258.373 440.377 258.271 440.368 258.263C439.873 258.891 439.245 259.391 438.48 259.765C437.714 260.137 436.837 260.324 435.85 260.324Z" fill="#FFF"/>
<path d="M457.968 239.023H460.983V260.112H457.968V239.023Z" fill="#FFF"/>
<path d="M467.099 260.112V239.022H469.359L474.631 252.062V239.022H477.644V260.112H475.502L470.111 246.084V260.112H467.099Z" fill="#FFF"/>
<path d="M483.549 260.112V239.022H485.809L491.081 252.062V239.022H494.093V260.112H491.952L486.561 246.084V260.112H483.549Z" fill="#FFF"/>
<path d="M503.242 256.898C503.647 257.533 504.378 257.852 505.437 257.852C506.495 257.852 507.227 257.533 507.633 256.898C508.035 256.262 508.239 255.325 508.239 254.085V244.93C508.239 243.706 508.038 242.79 507.637 242.186C507.237 241.582 506.505 241.281 505.437 241.281C504.37 241.281 503.635 241.582 503.235 242.186C502.837 242.79 502.635 243.706 502.635 244.93V254.085C502.635 255.325 502.837 256.262 503.242 256.898ZM505.437 260.324C504.378 260.324 503.47 260.162 502.711 259.841C501.955 259.518 501.353 259.049 500.906 258.429C500.458 257.809 500.134 257.081 499.93 256.245C499.725 255.41 499.623 254.438 499.623 253.333V245.682C499.623 244.577 499.725 243.613 499.93 242.789C500.134 241.962 500.458 241.249 500.906 240.641C501.353 240.032 501.955 239.576 502.711 239.269C503.47 238.962 504.378 238.81 505.437 238.81C507.491 238.81 508.975 239.398 509.886 240.576C510.795 241.753 511.251 243.456 511.251 245.682V253.333C511.251 254.424 511.146 255.385 510.938 256.222C510.731 257.057 510.403 257.786 509.955 258.41C509.509 259.036 508.906 259.509 508.15 259.834C507.393 260.161 506.489 260.324 505.437 260.324Z" fill="#FFF"/>
<path d="M519.934 260.112L515.414 239.022H518.426L520.65 250.32L521.426 255.593L522.227 250.32L524.451 239.022H527.464L522.946 260.112H519.934Z" fill="#FFF"/>
<path d="M534.582 252.579H537.594L536.089 243.54L534.582 252.579ZM530.062 260.111L534.582 239.023H537.594L542.113 260.111H539.101L537.97 254.839H534.204L533.074 260.111H530.062Z" fill="#FFF"/>
<path d="M548.363 260.112V241.705H544.596V239.022H555.141V241.705H551.375V260.112H548.363Z" fill="#FFF"/>
<path d="M559.668 239.023H562.683V260.112H559.668V239.023Z" fill="#FFF"/>
<path d="M572.038 256.898C572.444 257.533 573.176 257.852 574.233 257.852C575.292 257.852 576.024 257.533 576.429 256.898C576.832 256.262 577.036 255.325 577.036 254.085V244.93C577.036 243.706 576.834 242.79 576.433 242.186C576.033 241.582 575.301 241.281 574.233 241.281C573.166 241.281 572.433 241.582 572.032 242.186C571.633 242.79 571.432 243.706 571.432 244.93V254.085C571.432 255.325 571.633 256.262 572.038 256.898ZM574.233 260.324C573.176 260.324 572.266 260.162 571.508 259.841C570.752 259.518 570.15 259.049 569.702 258.429C569.254 257.809 568.93 257.081 568.726 256.245C568.521 255.41 568.42 254.438 568.42 253.333V245.682C568.42 244.577 568.521 243.613 568.726 242.789C568.93 241.962 569.254 241.249 569.702 240.641C570.15 240.032 570.752 239.576 571.508 239.269C572.266 238.962 573.176 238.81 574.233 238.81C576.288 238.81 577.772 239.398 578.682 240.576C579.592 241.753 580.048 243.456 580.048 245.682V253.333C580.048 254.424 579.942 255.385 579.734 256.222C579.529 257.057 579.2 257.786 578.752 258.41C578.305 259.036 577.702 259.509 576.946 259.834C576.19 260.161 575.285 260.324 574.233 260.324Z" fill="#FFF"/>
<path d="M585.577 260.112V239.022H587.837L593.111 252.062V239.022H596.121V260.112H593.98L588.589 246.084V260.112H585.577Z" fill="#FFF"/>
<path d="M613.017 252.579H616.029L614.523 243.54L613.017 252.579ZM608.497 260.111L613.017 239.023H616.029L620.548 260.111H617.535L616.405 254.839H612.639L611.509 260.111H608.497Z" fill="#FFF"/>
<path d="M630.631 260.324C628.734 260.324 627.283 259.767 626.283 258.652C625.283 257.537 624.723 256.016 624.607 254.085L627.619 253.333C627.767 256.345 628.771 257.851 630.631 257.851C632.137 257.851 632.891 257.1 632.891 255.593C632.891 255.145 632.831 254.732 632.707 254.352C632.587 253.971 632.401 253.621 632.151 253.304C631.898 252.987 631.673 252.731 631.469 252.539C631.262 252.347 630.985 252.109 630.631 251.827L626.865 248.813C626.175 248.271 625.623 247.584 625.211 246.748C624.799 245.912 624.594 244.961 624.594 243.895C624.594 242.341 625.077 241.105 626.041 240.187C627.006 239.268 628.286 238.809 629.879 238.809C631.589 238.809 632.947 239.228 633.957 240.063C634.963 240.9 635.586 242.081 635.821 243.612C635.846 243.776 635.873 244.004 635.903 244.295L632.891 245.047C632.882 244.915 632.865 244.713 632.833 244.447C632.699 243.489 632.399 242.724 631.931 242.147C631.466 241.569 630.781 241.28 629.879 241.28C629.157 241.28 628.599 241.484 628.207 241.887C627.814 242.292 627.619 242.853 627.619 243.576C627.619 244.76 628.121 245.753 629.126 246.555L632.891 249.567C634.899 251.192 635.903 253.132 635.903 255.392C635.903 256.939 635.427 258.147 634.474 259.017C633.521 259.888 632.241 260.324 630.631 260.324Z" fill="#FFF"/>
<path d="M651.986 252.579H654.998L653.493 243.54L651.986 252.579ZM647.466 260.111L651.986 239.023H654.998L659.517 260.111H656.505L655.374 254.839H651.608L650.478 260.111H647.466Z" fill="#FFF"/>
<path d="M674.904 248.061H675.659C676.341 248.061 676.9 248.021 677.335 247.942C677.771 247.865 678.156 247.716 678.489 247.502C678.823 247.286 679.061 246.978 679.207 246.577C679.353 246.177 679.424 245.666 679.424 245.046C679.424 244.296 679.368 243.684 679.259 243.218C679.149 242.75 678.948 242.368 678.655 242.07C678.359 241.773 677.979 241.568 677.511 241.453C677.045 241.338 676.428 241.281 675.659 241.281H674.904V248.061ZM671.892 260.112V239.022H677.164C680.68 239.022 682.436 241.03 682.436 245.046C682.436 246.765 681.984 248.074 681.079 248.972C680.172 249.872 678.868 250.32 677.164 250.32H674.904V260.112H671.892Z" fill="#FFF"/>
<path d="M690.049 248.061H690.804C692.059 248.061 693.001 247.794 693.628 247.266C694.256 246.736 694.569 245.873 694.569 244.67C694.569 243.472 694.256 242.605 693.628 242.074C693.001 241.546 692.059 241.281 690.804 241.281H690.049V248.061ZM687.037 260.112V239.022H690.804C693.048 239.022 694.737 239.457 695.876 240.328C697.013 241.2 697.583 242.648 697.583 244.67C697.583 245.926 697.359 246.978 696.912 247.826C696.465 248.672 695.809 249.254 694.945 249.568L698.336 260.112H695.347L692.309 250.32H690.049V260.112H687.037Z" fill="#FFF"/>
<path d="M703.109 239.023H706.124V260.112H703.109V239.023Z" fill="#FFF"/>
<path d="M715.482 256.898C715.888 257.533 716.618 257.852 717.677 257.852C718.736 257.852 719.468 257.533 719.873 256.898C720.276 256.262 720.48 255.325 720.48 254.085V244.93C720.48 243.706 720.278 242.79 719.877 242.186C719.477 241.582 718.745 241.281 717.677 241.281C716.61 241.281 715.876 241.582 715.476 242.186C715.077 242.79 714.876 243.706 714.876 244.93V254.085C714.876 255.325 715.077 256.262 715.482 256.898ZM717.677 260.324C716.618 260.324 715.71 260.162 714.952 259.841C714.196 259.518 713.593 259.049 713.146 258.429C712.698 257.809 712.374 257.081 712.17 256.245C711.965 255.41 711.864 254.438 711.864 253.333V245.682C711.864 244.577 711.965 243.613 712.17 242.789C712.374 241.962 712.698 241.249 713.146 240.641C713.593 240.032 714.196 239.576 714.952 239.269C715.71 238.962 716.618 238.81 717.677 238.81C719.732 238.81 721.216 239.398 722.126 240.576C723.034 241.753 723.492 243.456 723.492 245.682V253.333C723.492 254.424 723.386 255.385 723.178 256.222C722.972 257.057 722.642 257.786 722.196 258.41C721.748 259.036 721.146 259.509 720.39 259.834C719.633 260.161 718.729 260.324 717.677 260.324Z" fill="#FFF"/>
<path d="M732.031 248.061H732.784C734.04 248.061 734.983 247.794 735.609 247.266C736.237 246.736 736.551 245.873 736.551 244.67C736.551 243.472 736.237 242.605 735.609 242.074C734.983 241.546 734.04 241.281 732.784 241.281H732.031V248.061ZM729.019 260.112V239.022H732.784C735.029 239.022 736.719 239.457 737.857 240.328C738.995 241.2 739.563 242.648 739.563 244.67C739.563 245.926 739.339 246.978 738.893 247.826C738.447 248.672 737.791 249.254 736.927 249.568L740.317 260.112H737.328L734.291 250.32H732.031V260.112H729.019Z" fill="#FFF"/>
<path d="M745.093 239.023H748.108V260.112H745.093V239.023Z" fill="#FFF"/>
<path d="M756.472 260.112V241.705H752.705V239.022H763.25V241.705H759.484V260.112H756.472Z" fill="#FFF"/>
<path d="M770.615 260.112V253.333L766.095 239.022H769.108L772.12 249.568L775.132 239.022H778.147L773.627 253.333V260.112H770.615Z" fill="#FFF"/>
<path d="M137.283 1V24.1714C134.159 23.9434 131.007 23.8221 127.826 23.8221C124.645 23.8221 121.493 23.9434 118.369 24.1714V1H91.6304V29.0283C38.6648 44.6376 0 93.6164 0 151.631C0 209.645 38.6648 258.624 91.6304 274.232V302.26H118.369V279.088C121.493 279.317 124.645 279.438 127.826 279.438C131.007 279.438 134.159 279.317 137.283 279.088V302.26H164.023V274.232C216.988 258.624 255.65 209.645 255.65 151.631C255.65 93.6164 216.988 44.6376 164.023 29.0283V1H137.283Z" fill="url(#paint1_linear_2285_6794)"/>
<path d="M6.09248 151.631C6.09248 218.852 60.5941 273.348 127.826 273.348C195.057 273.348 249.561 218.852 249.561 151.631C249.561 84.4078 195.057 29.9134 127.826 29.9134C60.5941 29.9134 6.09248 84.4078 6.09248 151.631Z" fill="url(#paint2_radial_2285_6794)"/>
<path d="M156.825 173.05V238.074L200.323 197.284V149.988L156.825 173.05Z" fill="url(#paint3_linear_2285_6794)"/>
<path d="M156.825 110.673L98.6296 141.529V65.187L55.1312 105.977V197.284L98.6296 238.074V195.55L200.519 141.529V105.977H200.323L156.825 65.187V110.673Z" fill="url(#paint4_linear_2285_6794)"/>
<defs>
<radialGradient id="paint0_radial_2285_6794" cx="0" cy="0" r="1" gradientUnits="userSpaceOnUse" gradientTransform="translate(392.54 151.13) scale(280.551 734.679)">
<stop stop-color="#EADA6F"/>
<stop offset="0.501035" stop-color="#ECBA01"/>
<stop offset="1" stop-color="#BE820E"/>
</radialGradient>
<linearGradient id="paint1_linear_2285_6794" x1="392.542" y1="370.325" x2="392.542" y2="-110.471" gradientUnits="userSpaceOnUse">
<stop stop-color="#2C7E0E"/>
<stop offset="0.236049" stop-color="#48B825"/>
<stop offset="0.273166" stop-color="#48B825"/>
<stop offset="0.488827" stop-color="#67F53D"/>
<stop offset="0.500515" stop-color="#67F53D"/>
<stop offset="0.763104" stop-color="#54D12C"/>
<stop offset="0.770008" stop-color="#54D12C"/>
<stop offset="1" stop-color="#348E15"/>
</linearGradient>
<radialGradient id="paint2_radial_2285_6794" cx="0" cy="0" r="1" gradientUnits="userSpaceOnUse" gradientTransform="translate(385.989 165.824) rotate(-24.4065) scale(297.128 223.608)">
<stop stop-color="#17BB05"/>
<stop offset="0.146838" stop-color="#17BB05"/>
<stop offset="1" stop-color="#005701"/>
</radialGradient>
<linearGradient id="paint3_linear_2285_6794" x1="-523.359" y1="2005.93" x2="-523.359" y2="-999.332" gradientUnits="userSpaceOnUse">
<stop stop-color="#2C7E0E"/>
<stop offset="0.296964" stop-color="#48B825"/>
<stop offset="0.325137" stop-color="#48B825"/>
<stop offset="0.488827" stop-color="#67F53D"/>
<stop offset="0.500515" stop-color="#67F53D"/>
<stop offset="0.763104" stop-color="#54D12C"/>
<stop offset="0.770008" stop-color="#54D12C"/>
<stop offset="1" stop-color="#348E15"/>
</linearGradient>
<linearGradient id="paint4_linear_2285_6794" x1="127.827" y1="49.8088" x2="127.827" y2="305.886" gradientUnits="userSpaceOnUse">
<stop stop-color="#2C7E0E"/>
<stop offset="0.236049" stop-color="#48B825"/>
<stop offset="0.273166" stop-color="#48B825"/>
<stop offset="0.488827" stop-color="#67F53D"/>
<stop offset="0.500515" stop-color="#67F53D"/>
<stop offset="0.763104" stop-color="#54D12C"/>
<stop offset="0.770008" stop-color="#54D12C"/>
<stop offset="1" stop-color="#348E15"/>
</linearGradient>
</defs>
</svg>
